<svg version="1.1" viewBox="0.0 0.0 600.0 371.0" fill="none" stroke="none" stroke-linecap="square" stroke-miterlimit="10" width="600" height="371" xmlns:xlink="http://www.w3.org/1999/xlink" xmlns="http://www.w3.org/2000/svg"><path fill="#ffffff" d="M0 0L600.0 0L600.0 371.0L0 371.0L0 0Z" fill-rule="nonzero"/><path stroke="#333333" stroke-width="1.0" stroke-linecap="butt" d="M45.5 262.5L581.5 262.5" fill-rule="nonzero"/><path stroke="#cccccc" stroke-width="1.0" stroke-linecap="butt" d="M45.5 183.5L581.5 183.5" fill-rule="nonzero"/><path stroke="#cccccc" stroke-width="1.0" stroke-linecap="butt" d="M45.5 104.5L581.5 104.5" fill-rule="nonzero"/><path stroke="#cccccc" stroke-width="1.0" stroke-linecap="butt" d="M45.5 25.5L581.5 25.5" fill-rule="nonzero"/><clipPath id="id_0"><path d="M45.55 25.55L581.45 25.55L581.45 262.975L45.55 262.975L45.55 25.55Z" clip-rule="nonzero"/></clipPath><path stroke="#000000" stroke-width="2.0" stroke-linecap="butt" stroke-opacity="0.0" clip-path="url(#id_0)" d="M86.0 263.0L60.0 263.0L60.0 263.0L86.0 263.0Z" fill-rule="nonzero"/><path fill="#4285f4" clip-path="url(#id_0)" d="M86.0 263.0L60.0 263.0L60.0 263.0L86.0 263.0Z" fill-rule="nonzero"/><path stroke="#000000" stroke-width="2.0" stroke-linecap="butt" stroke-opacity="0.0" clip-path="url(#id_0)" d="M126.0 263.0L100.0 263.0L100.0 263.0L126.0 263.0Z" fill-rule="nonzero"/><path fill="#4285f4" clip-path="url(#id_0)" d="M126.0 263.0L100.0 263.0L100.0 263.0L126.0 263.0Z" fill-rule="nonzero"/><path stroke="#000000" stroke-width="2.0" stroke-linecap="butt" stroke-opacity="0.0" clip-path="url(#id_0)" d="M166.0 263.0L140.0 263.0L140.0 263.0L166.0 263.0Z" fill-rule="nonzero"/><path fill="#4285f4" clip-path="url(#id_0)" d="M166.0 263.0L140.0 263.0L140.0 263.0L166.0 263.0Z" fill-rule="nonzero"/><path stroke="#000000" stroke-width="2.0" stroke-linecap="butt" stroke-opacity="0.0" clip-path="url(#id_0)" d="M206.0 263.0L180.0 263.0L180.0 217.0C180.0 215.89543 180.89543 215.0 182.0 215.0L204.0 215.0C205.10457 215.0 206.0 215.89543 206.0 217.0Z" fill-rule="nonzero"/><path fill="#4285f4" clip-path="url(#id_0)" d="M206.0 263.0L180.0 263.0L180.0 217.0C180.0 215.89543 180.89543 215.0 182.0 215.0L204.0 215.0C205.10457 215.0 206.0 215.89543 206.0 217.0Z" fill-rule="nonzero"/><path stroke="#000000" stroke-width="2.0" stroke-linecap="butt" stroke-opacity="0.0" clip-path="url(#id_0)" d="M246.0 263.0L220.0 263.0L220.0 249.0C220.0 247.89543 220.89543 247.0 222.0 247.0L244.0 247.0C245.10457 247.0 246.0 247.89543 246.0 249.0Z" fill-rule="nonzero"/><path fill="#4285f4" clip-path="url(#id_0)" d="M246.0 263.0L220.0 263.0L220.0 249.0C220.0 247.89543 220.89543 247.0 222.0 247.0L244.0 247.0C245.10457 247.0 246.0 247.89543 246.0 249.0Z" fill-rule="nonzero"/><path stroke="#000000" stroke-width="2.0" stroke-linecap="butt" stroke-opacity="0.0" clip-path="url(#id_0)" d="M286.0 263.0L260.0 263.0L260.0 186.0C260.0 184.89543 260.89542 184.0 262.0 184.0L284.0 184.0C285.10458 184.0 286.0 184.89543 286.0 186.0Z" fill-rule="nonzero"/><path fill="#4285f4" clip-path="url(#id_0)" d="M286.0 263.0L260.0 263.0L260.0 186.0C260.0 184.89543 260.89542 184.0 262.0 184.0L284.0 184.0C285.10458 184.0 286.0 184.89543 286.0 186.0Z" fill-rule="nonzero"/><path stroke="#000000" stroke-width="2.0" stroke-linecap="butt" stroke-opacity="0.0" clip-path="url(#id_0)" d="M327.0 263.0L301.0 263.0L301.0 202.0C301.0 200.89543 301.89542 200.0 303.0 200.0L325.0 200.0C326.10458 200.0 327.0 200.89543 327.0 202.0Z" fill-rule="nonzero"/><path fill="#4285f4" clip-path="url(#id_0)" d="M327.0 263.0L301.0 263.0L301.0 202.0C301.0 200.89543 301.89542 200.0 303.0 200.0L325.0 200.0C326.10458 200.0 327.0 200.89543 327.0 202.0Z" fill-rule="nonzero"/><path stroke="#000000" stroke-width="2.0" stroke-linecap="butt" stroke-opacity="0.0" clip-path="url(#id_0)" d="M367.0 263.0L341.0 263.0L341.0 138.0C341.0 136.89543 341.89542 136.0 343.0 136.0L365.0 136.0C366.10458 136.0 367.0 136.89543 367.0 138.0Z" fill-rule="nonzero"/><path fill="#4285f4" clip-path="url(#id_0)" d="M367.0 263.0L341.0 263.0L341.0 138.0C341.0 136.89543 341.89542 136.0 343.0 136.0L365.0 136.0C366.10458 136.0 367.0 136.89543 367.0 138.0Z" fill-rule="nonzero"/><path stroke="#000000" stroke-width="2.0" stroke-linecap="butt" stroke-opacity="0.0" clip-path="url(#id_0)" d="M407.0 263.0L381.0 263.0L381.0 123.0C381.0 121.89543 381.89542 121.0 383.0 121.0L405.0 121.0C406.10458 121.0 407.0 121.89543 407.0 123.0Z" fill-rule="nonzero"/><path fill="#4285f4" clip-path="url(#id_0)" d="M407.0 263.0L381.0 263.0L381.0 123.0C381.0 121.89543 381.89542 121.0 383.0 121.0L405.0 121.0C406.10458 121.0 407.0 121.89543 407.0 123.0Z" fill-rule="nonzero"/><path stroke="#000000" stroke-width="2.0" stroke-linecap="butt" stroke-opacity="0.0" clip-path="url(#id_0)" d="M447.0 263.0L421.0 263.0L421.0 154.0C421.0 152.89543 421.89542 152.0 423.0 152.0L445.0 152.0C446.10458 152.0 447.0 152.89543 447.0 154.0Z" fill-rule="nonzero"/><path fill="#4285f4" clip-path="url(#id_0)" d="M447.0 263.0L421.0 263.0L421.0 154.0C421.0 152.89543 421.89542 152.0 423.0 152.0L445.0 152.0C446.10458 152.0 447.0 152.89543 447.0 154.0Z" fill-rule="nonzero"/><path stroke="#000000" stroke-width="2.0" stroke-linecap="butt" stroke-opacity="0.0" clip-path="url(#id_0)" d="M487.0 263.0L461.0 263.0L461.0 123.0C461.0 121.89543 461.89542 121.0 463.0 121.0L485.0 121.0C486.10458 121.0 487.0 121.89543 487.0 123.0Z" fill-rule="nonzero"/><path fill="#4285f4" clip-path="url(#id_0)" d="M487.0 263.0L461.0 263.0L461.0 123.0C461.0 121.89543 461.89542 121.0 463.0 121.0L485.0 121.0C486.10458 121.0 487.0 121.89543 487.0 123.0Z" fill-rule="nonzero"/><path stroke="#000000" stroke-width="2.0" stroke-linecap="butt" stroke-opacity="0.0" clip-path="url(#id_0)" d="M527.0 263.0L501.0 263.0L501.0 43.0C501.0 41.89543 501.89542 41.0 503.0 41.0L525.0 41.0C526.10455 41.0 527.0 41.89543 527.0 43.0Z" fill-rule="nonzero"/><path fill="#4285f4" clip-path="url(#id_0)" d="M527.0 263.0L501.0 263.0L501.0 43.0C501.0 41.89543 501.89542 41.0 503.0 41.0L525.0 41.0C526.10455 41.0 527.0 41.89543 527.0 43.0Z" fill-rule="nonzero"/><path stroke="#000000" stroke-width="2.0" stroke-linecap="butt" stroke-opacity="0.0" clip-path="url(#id_0)" d="M567.0 263.0L541.0 263.0L541.0 28.0C541.0 26.89543 541.89545 26.0 543.0 26.0L565.0 26.0C566.10455 26.0 567.0 26.89543 567.0 28.0Z" fill-rule="nonzero"/><path fill="#4285f4" clip-path="url(#id_0)" d="M567.0 263.0L541.0 263.0L541.0 28.0C541.0 26.89543 541.89545 26.0 543.0 26.0L565.0 26.0C566.10455 26.0 567.0 26.89543 567.0 28.0Z" fill-rule="nonzero"/><path fill="#000000" d="M33.05 262.74063Q33.05 261.20938 33.3625 260.2875Q33.675 259.35 34.284374 258.85Q34.909374 258.35 35.846874 258.35Q36.534374 258.35 37.05 258.63126Q37.58125 258.9125 37.925 259.44376Q38.26875 259.95938 38.45625 260.70938Q38.64375 261.45938 38.64375 262.74063Q38.64375 264.25626 38.33125 265.17813Q38.034374 266.1 37.409374 266.61563Q36.8 267.11563 35.846874 267.11563Q34.6125 267.11563 33.89375 266.225Q33.05 265.1625 33.05 262.74063ZM34.128124 262.74063Q34.128124 264.85 34.628124 265.55313Q35.128124 266.25626 35.846874 266.25626Q36.58125 266.25626 37.065624 265.55313Q37.565624 264.85 37.565624 262.74063Q37.565624 260.61563 37.065624 259.92813Q36.58125 259.225 35.83125 259.225Q35.1125 259.225 34.675 259.83438Q34.128124 260.61563 34.128124 262.74063Z" fill-rule="nonzero"/><path fill="#000000" d="M33.05 185.58333L34.159374 185.48958Q34.284374 186.30208 34.721874 186.70833Q35.175 187.11458 35.815624 187.11458Q36.565624 187.11458 37.096874 186.53645Q37.628124 185.95833 37.628124 185.02083Q37.628124 184.11458 37.1125 183.59895Q36.6125 183.0677 35.784374 183.0677Q35.284374 183.0677 34.8625 183.30208Q34.45625 183.53645 34.221874 183.89583L33.2375 183.77083L34.065624 179.36458L38.346874 179.36458L38.346874 180.36458L34.909374 180.36458L34.45625 182.67708Q35.221874 182.1302 36.065624 182.1302Q37.190624 182.1302 37.95625 182.91145Q38.7375 183.6927 38.7375 184.92708Q38.7375 186.08333 38.065624 186.9427Q37.2375 187.97395 35.815624 187.97395Q34.64375 187.97395 33.89375 187.3177Q33.159374 186.66145 33.05 185.58333Z" fill-rule="nonzero"/><path fill="#000000" d="M30.01875 108.691666L28.971874 108.691666L28.971874 101.972916Q28.58125 102.33229 27.95625 102.70729Q27.346874 103.066666 26.8625 103.23854L26.8625 102.222916Q27.7375 101.80104 28.39375 101.222916Q29.065624 100.629166 29.346874 100.066666L30.01875 100.066666L30.01875 108.691666ZM33.05 104.45729Q33.05 102.92604 33.3625 102.004166Q33.675 101.066666 34.284374 100.566666Q34.909374 100.066666 35.846874 100.066666Q36.534374 100.066666 37.05 100.347916Q37.58125 100.629166 37.925 101.160416Q38.26875 101.67604 38.45625 102.42604Q38.64375 103.17604 38.64375 104.45729Q38.64375 105.972916 38.33125 106.89479Q38.034374 107.816666 37.409374 108.33229Q36.8 108.83229 35.846874 108.83229Q34.6125 108.83229 33.89375 107.941666Q33.05 106.879166 33.05 104.45729ZM34.128124 104.45729Q34.128124 106.566666 34.628124 107.26979Q35.128124 107.972916 35.846874 107.972916Q36.58125 107.972916 37.065624 107.26979Q37.565624 106.566666 37.565624 104.45729Q37.565624 102.33229 37.065624 101.64479Q36.58125 100.941666 35.83125 100.941666Q35.1125 100.941666 34.675 101.55104Q34.128124 102.33229 34.128124 104.45729Z" fill-rule="nonzero"/><path fill="#000000" d="M30.01875 29.55L28.971874 29.55L28.971874 22.83125Q28.58125 23.190624 27.95625 23.565624Q27.346874 23.925 26.8625 24.096874L26.8625 23.08125Q27.7375 22.659374 28.39375 22.08125Q29.065624 21.4875 29.346874 20.925L30.01875 20.925L30.01875 29.55ZM33.05 27.3L34.159374 27.20625Q34.284374 28.01875 34.721874 28.425Q35.175 28.83125 35.815624 28.83125Q36.565624 28.83125 37.096874 28.253124Q37.628124 27.675 37.628124 26.7375Q37.628124 25.83125 37.1125 25.315624Q36.6125 24.784374 35.784374 24.784374Q35.284374 24.784374 34.8625 25.01875Q34.45625 25.253124 34.221874 25.6125L33.2375 25.4875L34.065624 21.08125L38.346874 21.08125L38.346874 22.08125L34.909374 22.08125L34.45625 24.39375Q35.221874 23.846874 36.065624 23.846874Q37.190624 23.846874 37.95625 24.628124Q38.7375 25.409374 38.7375 26.64375Q38.7375 27.8 38.065624 28.659374Q37.2375 29.690624 35.815624 29.690624Q34.64375 29.690624 33.89375 29.034374Q33.159374 28.378124 33.05 27.3Z" fill-rule="nonzero"/><path fill="#000000" d="M37.942585 319.23483L31.865887 313.1581L34.163982 310.86002Q34.760605 310.2634 35.136257 309.99823Q35.666584 309.6226 36.17482 309.5342Q36.6941 309.43475 37.24653 309.63364Q37.81 309.82147 38.262993 310.27444Q39.036392 311.04785 39.080585 312.08643Q39.12478 313.10287 37.8321 314.39557L36.274254 315.9534L38.74913 318.42828L37.942585 319.23483ZM35.56715 315.2463L37.136044 313.6774Q37.92049 312.89294 37.953632 312.28528Q37.98678 311.65552 37.45645 311.12518Q37.0808 310.74954 36.61676 310.68326Q36.15272 310.59485 35.754974 310.81583Q35.489807 310.97052 34.94843 311.5119L33.390587 313.06973L35.56715 315.2463ZM45.168335 315.38992L44.38389 314.78226Q44.693245 314.60547 44.88107 314.41766Q45.124138 314.1746 45.179382 313.94257Q45.25672 313.71054 45.21253 313.46747Q45.157284 313.27966 44.88107 312.672Q44.836876 312.60568 44.770584 312.42892L38.68284 309.69992L39.48938 308.89337L42.947575 310.51752Q43.61049 310.82687 44.295498 311.22464Q43.9088 310.57275 43.59944 309.90985L41.975304 306.40747L42.715557 305.6672L45.521885 311.8102Q45.96383 312.80457 46.09641 313.22443Q46.273186 313.79895 46.17375 314.22983Q46.09641 314.66074 45.74286 315.01428Q45.532936 315.2242 45.168335 315.38992ZM48.00781 307.84378L48.770157 308.38516Q48.51604 308.77185 48.272972 309.01492Q47.864178 309.4237 47.52167 309.52316Q47.168118 309.61154 46.85876 309.50104Q46.560448 309.37952 45.88649 308.70557L43.356373 306.17545L42.814995 306.71683L42.24047 306.1423L42.78185 305.60092L41.68804 304.5071L41.98635 303.32492L43.5221 304.86066L44.2734 304.10938L44.847927 304.6839L44.096622 305.43518L46.670937 308.0095Q46.991344 308.3299 47.112877 308.38516Q47.24546 308.42935 47.38909 308.3962Q47.532722 308.36304 47.69845 308.19733Q47.83103 308.06473 48.00781 307.84378ZM49.167904 308.0095L43.091206 301.9328L43.83146 301.19254L46.008022 303.3691Q45.930683 302.2532 46.726177 301.4577Q47.22336 300.96054 47.775787 300.80585Q48.328213 300.6291 48.825397 300.8169Q49.311535 300.99368 49.963398 301.64554L52.74763 304.42978L52.007378 305.17L49.223145 302.3858Q48.65967 301.82233 48.162487 301.81128Q47.665302 301.80023 47.223362 302.24216Q46.891907 302.5736 46.77037 303.0487Q46.648838 303.50168 46.814568 303.9326Q46.980293 304.34137 47.499577 304.86066L49.908157 307.26926L49.167904 308.0095ZM48.902737 297.84485L48.04095 296.98306L48.79225 296.23175L49.654037 297.09354L48.902737 297.84485ZM54.11765 303.05975L49.72033 298.66245L50.47163 297.91113L54.86895 302.30844L54.11765 303.05975ZM58.570213 297.52444Q58.50392 298.29782 58.260853 298.82816Q58.028835 299.34744 57.586895 299.7894Q56.85769 300.5186 56.117435 300.55173Q55.377186 300.58487 54.824757 300.03244Q54.50435 299.71204 54.382816 299.30325Q54.250233 298.8834 54.338623 298.48566Q54.415962 298.07687 54.636932 297.7012Q54.780563 297.425 55.17831 296.91678Q55.973804 295.9224 56.25002 295.33682Q56.09534 295.18213 56.062195 295.149Q55.598156 294.68497 55.20041 294.70706Q54.67008 294.75125 54.1066 295.31473Q53.587322 295.834 53.52103 296.27594Q53.44369 296.70685 53.786194 297.29242L52.957554 297.92218Q52.592953 297.3587 52.53771 296.83942Q52.482468 296.32013 52.75868 295.73456Q53.034893 295.149 53.59837 294.5855Q54.161846 294.02203 54.64798 293.8011Q55.134117 293.5801 55.49872 293.61325Q55.86332 293.6464 56.23897 293.88947Q56.45994 294.04413 56.957127 294.54132L57.951496 295.5357Q58.99006 296.57425 59.310467 296.80627Q59.641922 297.02725 60.03967 297.13773L59.255222 297.92218Q58.91272 297.80066 58.570213 297.52444ZM56.83559 295.9224Q56.592525 296.49692 55.907516 297.425Q55.509766 297.95532 55.41033 298.23154Q55.299843 298.4967 55.34404 298.76187Q55.39928 299.016 55.598156 299.21487Q55.896465 299.51318 56.31631 299.4911Q56.747204 299.45792 57.178097 299.02704Q57.60899 298.59613 57.75262 298.07687Q57.907303 297.54654 57.730526 297.0604Q57.597942 296.68475 57.111805 296.1986L56.83559 295.9224ZM65.90645 291.27097L65.16619 292.0112L60.41532 287.26035Q60.393223 287.79068 60.216446 288.49777Q60.03967 289.18277 59.8187 289.64682L59.100544 288.92868Q59.42095 288.01163 59.476192 287.1388Q59.531437 286.24387 59.33256 285.64725L59.80765 285.17215L65.90645 291.27097ZM70.43635 286.74106L68.97794 285.28265L66.34839 287.9122L65.663376 287.2272L64.50328 280.52072L65.110954 279.91306L69.044235 283.84634L69.861824 283.02875L70.54684 283.71375L69.72924 284.53134L71.18765 285.98975L70.43635 286.74106ZM68.29293 284.59763L65.56394 281.86865L66.392586 286.498L68.29293 284.59763ZM73.20953 283.96786L68.81221 279.57056L69.47513 278.90762L70.09384 279.52637Q69.97231 278.985 70.12699 278.45465Q70.27062 277.91327 70.71256 277.4713Q71.1987 276.9852 71.70693 276.8747Q72.22621 276.75317 72.71235 276.99625Q72.48033 275.70355 73.30897 274.8749Q73.971886 274.212 74.67899 274.2341Q75.38609 274.2341 76.148445 274.99646L79.164696 278.0127L78.424446 278.75296L75.65126 275.97977Q75.20932 275.53784 74.933105 275.4163Q74.66794 275.28372 74.35858 275.35Q74.049225 275.4163 73.78406 275.68146Q73.32002 276.1455 73.32002 276.76422Q73.33107 277.3719 74.016075 278.05692L76.56829 280.6091L75.81699 281.3604L72.955414 278.49884Q72.45823 278.00165 72.027336 277.9464Q71.59644 277.86908 71.18765 278.27786Q70.86724 278.59827 70.76781 279.02917Q70.668365 279.46005 70.86724 279.902Q71.06612 280.34396 71.662735 280.94058L73.94978 283.22763L73.20953 283.96786Z" fill-rule="nonzero"/><path fill="#000000" d="M78.08491 319.23483L72.00821 313.1581L74.306305 310.86002Q74.90293 310.2634 75.27858 309.99823Q75.80891 309.6226 76.31714 309.5342Q76.836426 309.43475 77.38885 309.63364Q77.952324 309.82147 78.40532 310.27444Q79.17871 311.04785 79.22291 312.08643Q79.267105 313.10287 77.97443 314.39557L76.41658 315.9534L78.89145 318.42828L78.08491 319.23483ZM75.70947 315.2463L77.278366 313.6774Q78.06281 312.89294 78.095955 312.28528Q78.129105 311.65552 77.59877 311.12518Q77.22312 310.74954 76.75909 310.68326Q76.295044 310.59485 75.89729 310.81583Q75.63213 310.97052 75.09075 311.5119L73.532906 313.06973L75.70947 315.2463ZM85.31065 315.38992L84.52621 314.78226Q84.83557 314.60547 85.02339 314.41766Q85.266464 314.1746 85.3217 313.94257Q85.39904 313.71054 85.35485 313.46747Q85.29961 313.27966 85.02339 312.672Q84.9792 312.60568 84.91291 312.42892L78.82516 309.69992L79.63171 308.89337L83.0899 310.51752Q83.75281 310.82687 84.43782 311.22464Q84.051125 310.57275 83.74176 309.90985L82.11763 306.40747L82.85788 305.6672L85.66421 311.8102Q86.10615 312.80457 86.23873 313.22443Q86.41551 313.79895 86.31607 314.22983Q86.23873 314.66074 85.88518 315.01428Q85.675255 315.2242 85.31065 315.38992ZM88.15013 307.84378L88.91248 308.38516Q88.65836 308.77185 88.4153 309.01492Q88.0065 309.4237 87.663994 309.52316Q87.31044 309.61154 87.00108 309.50104Q86.702774 309.37952 86.02881 308.70557L83.498695 306.17545L82.95731 306.71683L82.38279 306.1423L82.92417 305.60092L81.83037 304.5071L82.12868 303.32492L83.66442 304.86066L84.415726 304.10938L84.99025 304.6839L84.238945 305.43518L86.813255 308.0095Q87.13367 308.3299 87.255196 308.38516Q87.38778 308.42935 87.53141 308.3962Q87.67504 308.36304 87.840775 308.19733Q87.97336 308.06473 88.15013 307.84378ZM89.31023 308.0095L83.23353 301.9328L83.973785 301.19254L86.150345 303.3691Q86.073006 302.2532 86.8685 301.4577Q87.365685 300.96054 87.91811 300.80585Q88.470535 300.62906 88.96772 300.8169Q89.45386 300.99368 90.10572 301.64554L92.88995 304.42978L92.149704 305.17L89.36547 302.3858Q88.801994 301.82233 88.30481 301.81128Q87.807625 301.80023 87.365685 302.24216Q87.034225 302.5736 86.9127 303.0487Q86.79116 303.50168 86.95689 303.9326Q87.12262 304.34137 87.6419 304.86066L90.05048 307.26926L89.31023 308.0095ZM89.04507 297.84485L88.18327 296.98306L88.93458 296.23175L89.796364 297.09354L89.04507 297.84485ZM94.25998 303.05975L89.862656 298.66245L90.61395 297.91113L95.01128 302.30844L94.25998 303.05975ZM98.71254 297.52444Q98.64625 298.29782 98.40318 298.82816Q98.17116 299.34744 97.72922 299.78937Q97.000015 300.5186 96.259766 300.55173Q95.51951 300.58487 94.96708 300.03244Q94.646675 299.71204 94.52514 299.30325Q94.392555 298.8834 94.48095 298.48566Q94.55829 298.07684 94.77926 297.7012Q94.92289 297.425 95.32063 296.91675Q96.116135 295.9224 96.39234 295.33682Q96.23766 295.18213 96.20452 295.149Q95.74048 294.68497 95.342735 294.70706Q94.8124 294.75125 94.248924 295.31473Q93.729645 295.834 93.66335 296.27594Q93.58601 296.70685 93.92852 297.29242L93.09988 297.92218Q92.735275 297.3587 92.68003 296.83942Q92.624794 296.32013 92.90101 295.73456Q93.177216 295.149 93.74069 294.5855Q94.30417 294.02203 94.790306 293.8011Q95.27644 293.5801 95.641045 293.61325Q96.005646 293.6464 96.381294 293.88947Q96.602264 294.04413 97.09945 294.54132L98.09382 295.5357Q99.132385 296.57425 99.45279 296.80627Q99.78425 297.02725 100.18199 297.13773L99.397545 297.92218Q99.055046 297.80066 98.71254 297.52444ZM96.97792 295.9224Q96.73485 296.49692 96.04984 297.425Q95.65209 297.95532 95.55266 298.23154Q95.44217 298.4967 95.48637 298.76187Q95.5416 299.016 95.74048 299.21484Q96.03879 299.51318 96.45863 299.49106Q96.88953 299.45792 97.32042 299.02704Q97.75131 298.59613 97.89494 298.07684Q98.04963 297.54654 97.87285 297.0604Q97.740265 296.68475 97.25413 296.1986L96.97792 295.9224ZM101.6404 292.47525L102.29227 291.6245Q103.04357 292.13275 103.64019 292.11066Q104.22576 292.07748 104.6677 291.63556Q105.19804 291.10522 105.19804 290.37604Q105.19804 289.64682 104.656654 289.10544Q104.14842 288.5972 103.474464 288.60825Q102.8005 288.5972 102.28122 289.1165Q102.0713 289.32642 101.83928 289.7352L101.264755 288.98392Q101.35314 288.9176 101.39733 288.8734Q101.87242 288.39835 102.005005 287.7796Q102.13759 287.1388 101.61831 286.6195Q101.20951 286.21072 100.66813 286.22177Q100.11571 286.22177 99.67376 286.66373Q99.24287 287.0946 99.22077 287.66913Q99.209724 288.2326 99.67376 288.85132L98.78988 289.47003Q98.182205 288.5972 98.25955 287.70227Q98.325836 286.7963 99.044 286.07812Q99.541176 285.58096 100.18199 285.38208Q100.81176 285.17215 101.39733 285.3158Q101.98291 285.4594 102.402756 285.87927Q102.78945 286.26596 102.91099 286.80734Q103.02147 287.33768 102.8005 287.9343Q103.45236 287.5255 104.14842 287.62494Q104.833435 287.71332 105.43005 288.30994Q106.22555 289.10544 106.192406 290.24344Q106.1703 291.3704 105.28642 292.25427Q104.49093 293.04977 103.48551 293.105Q102.46904 293.1492 101.6404 292.47525ZM110.99851 286.32123L110.25826 287.06146L105.507385 282.31058Q105.48529 282.8409 105.30852 283.54803Q105.13174 284.23303 104.91077 284.69708L104.19261 283.9789Q104.513016 283.0619 104.56826 282.18906Q104.623505 281.29413 104.42463 280.6975L104.89972 280.2224L110.99851 286.32123ZM113.35185 283.96786L108.95454 279.57056L109.61745 278.90765L110.23617 279.52637Q110.11463 278.985 110.26931 278.45465Q110.41294 277.91327 110.85488 277.47134Q111.34102 276.9852 111.84925 276.8747Q112.36853 276.75317 112.85467 276.99625Q112.62265 275.70355 113.451294 274.8749Q114.114204 274.212 114.82131 274.2341Q115.52842 274.2341 116.290764 274.99646L119.30702 278.0127L118.566765 278.75296L115.79358 275.97977Q115.35164 275.53784 115.075424 275.4163Q114.810265 275.28372 114.5009 275.35Q114.19154 275.4163 113.92638 275.68146Q113.46234 276.1455 113.46234 276.76422Q113.47339 277.3719 114.158394 278.05692L116.71061 280.60913L115.95931 281.3604L113.09774 278.49884Q112.600555 278.00165 112.16966 277.9464Q111.73877 277.86908 111.32997 278.27786Q111.00956 278.59827 110.910126 279.02917Q110.81069 279.46005 111.00956 279.902Q111.208435 280.34396 111.80505 280.94058L114.0921 283.22763L113.35185 283.96786Z" fill-rule="nonzero"/><path fill="#000000" d="M118.227234 319.2348L112.150536 313.1581L114.44863 310.86002Q115.04525 310.2634 115.420906 309.99823Q115.95123 309.6226 116.459465 309.53418Q116.978745 309.43475 117.53117 309.63364Q118.09465 309.82144 118.54764 310.27444Q119.32104 311.04785 119.365234 312.0864Q119.409424 313.10287 118.116745 314.39557L116.55891 315.9534L119.033775 318.42828L118.227234 319.2348ZM115.8518 315.24628L117.42069 313.6774Q118.20514 312.89294 118.23828 312.28528Q118.27143 311.65552 117.7411 311.12518Q117.36545 310.74954 116.901405 310.68326Q116.43737 310.59485 116.03962 310.81583Q115.77446 310.97052 115.23308 311.51187L113.67523 313.06973L115.8518 315.24628ZM125.45298 315.38992L124.66853 314.78226Q124.97789 314.60547 125.16572 314.41766Q125.40878 314.1746 125.46403 313.94257Q125.54137 313.71054 125.49718 313.46747Q125.44193 313.27966 125.16572 312.67197Q125.12152 312.60568 125.05524 312.42892L118.96748 309.69992L119.77403 308.89337L123.23222 310.51752Q123.895134 310.82687 124.58015 311.2246Q124.19344 310.57275 123.88409 309.90985L122.25995 306.40747L123.000206 305.6672L125.80653 311.81018Q126.248474 312.80457 126.38106 313.2244Q126.55784 313.79892 126.4584 314.22983Q126.38106 314.6607 126.027504 315.01428Q125.81758 315.22418 125.45298 315.38992ZM128.29245 307.84378L129.05481 308.38513Q128.80069 308.77185 128.55762 309.01492Q128.14882 309.4237 127.80632 309.52313Q127.45277 309.61154 127.14341 309.50104Q126.8451 309.37952 126.171135 308.70557L123.64102 306.17545L123.09964 306.71683L122.525116 306.1423L123.0665 305.60092L121.97269 304.5071L122.271 303.32492L123.80675 304.86066L124.55805 304.10938L125.132576 304.6839L124.38127 305.43518L126.95558 308.0095Q127.27599 308.3299 127.39752 308.38513Q127.530106 308.42935 127.67374 308.3962Q127.81737 308.36304 127.98309 308.19733Q128.11568 308.06473 128.29245 307.84378ZM129.45256 308.0095L123.375854 301.9328L124.116104 301.19254L126.29267 303.3691Q126.21533 302.2532 127.010826 301.4577Q127.50801 300.9605 128.06044 300.80585Q128.61287 300.62906 129.11005 300.8169Q129.59619 300.99368 130.24805 301.64554L133.03229 304.42978L132.29202 305.17L129.5078 302.38577Q128.94432 301.8223 128.44713 301.81125Q127.94995 301.8002 127.50801 302.24216Q127.17655 302.5736 127.055016 303.0487Q126.93349 303.50168 127.09921 303.9326Q127.26494 304.34137 127.784225 304.86066L130.19281 307.26926L129.45256 308.0095ZM129.1874 297.84485L128.3256 296.98306L129.0769 296.23175L129.93869 297.09354L129.1874 297.84485ZM134.4023 303.05975L130.00497 298.6624L130.75629 297.91113L135.1536 302.30844L134.4023 303.05975ZM138.85486 297.5244Q138.78857 298.29782 138.5455 298.82816Q138.31349 299.34744 137.87154 299.78937Q137.14233 300.5186 136.40208 300.55173Q135.66183 300.58487 135.1094 300.03244Q134.789 299.71204 134.66747 299.30325Q134.53488 298.8834 134.62328 298.48566Q134.7006 298.07684 134.92159 297.7012Q135.06522 297.425 135.46297 296.91675Q136.25845 295.9224 136.53467 295.33682Q136.37999 295.18213 136.34685 295.149Q135.88281 294.68497 135.48506 294.70706Q134.95473 294.75125 134.39125 295.31473Q133.87196 295.834 133.80568 296.27594Q133.72833 296.70685 134.07085 297.29242L133.2422 297.92218Q132.87761 297.3587 132.82236 296.83942Q132.76712 296.32013 133.04333 295.73456Q133.31955 295.149 133.88303 294.5855Q134.44649 294.02203 134.93263 293.80106Q135.41876 293.5801 135.78337 293.61325Q136.14796 293.6464 136.52362 293.88947Q136.7446 294.04413 137.24178 294.54132L138.23615 295.53568Q139.2747 296.57425 139.59512 296.80627Q139.92657 297.02725 140.32433 297.13773L139.53987 297.92218Q139.19737 297.80063 138.85486 297.5244ZM137.12024 295.9224Q136.87718 296.49692 136.19217 297.425Q135.79442 297.95532 135.69498 298.23154Q135.58449 298.4967 135.6287 298.76187Q135.68393 299.016 135.88281 299.21484Q136.18112 299.51315 136.60097 299.49106Q137.03186 299.45792 137.46275 299.02704Q137.89365 298.59613 138.03728 298.07684Q138.19196 297.54654 138.01517 297.0604Q137.8826 296.68475 137.39645 296.1986L137.12024 295.9224ZM138.14775 288.7519L137.4296 288.03372L141.36288 284.10043L141.94846 284.68604Q141.99265 285.87927 142.44563 287.4813Q142.89864 289.06125 143.67203 290.45337Q144.20236 291.44772 145.0531 292.40897L144.2797 293.18234Q143.57259 292.45316 142.82129 291.1715Q142.08104 289.87885 141.6391 288.44254Q141.2082 286.99518 141.13086 285.76877L138.14775 288.7519ZM145.34036 286.1334Q144.2576 285.05063 143.8267 284.1778Q143.38477 283.2939 143.46211 282.50946Q143.55049 281.71396 144.21341 281.05106Q144.69954 280.5649 145.26302 280.3992Q145.83754 280.2224 146.45627 280.35498Q147.06393 280.47653 147.72684 280.87427Q148.38976 281.27203 149.29573 282.178Q150.36745 283.2497 150.79834 284.12256Q151.24028 284.98434 151.16295 285.79086Q151.0856 286.57532 150.41164 287.24927Q149.5388 288.12213 148.4008 288.00058Q147.05289 287.84592 145.34036 286.1334ZM146.1027 285.37103Q147.59427 286.86258 148.44499 287.00623Q149.29573 287.14984 149.80397 286.6416Q150.32326 286.12234 150.16858 285.28265Q150.02495 284.43192 148.53339 282.94034Q147.03079 281.43774 146.1911 281.30518Q145.35141 281.15048 144.82108 281.68082Q144.31285 282.18906 144.43437 282.9293Q144.60011 283.86844 146.1027 285.37103ZM153.49419 283.96786L149.09686 279.57056L149.75978 278.90762L150.3785 279.52634Q150.25696 278.985 150.41164 278.45465Q150.55527 277.91327 150.99721 277.4713Q151.48335 276.9852 151.99158 276.8747Q152.51086 276.75317 152.997 276.99625Q152.76498 275.70355 153.59363 274.8749Q154.25653 274.212 154.96364 274.2341Q155.67075 274.2341 156.43309 274.99646L159.44936 278.0127L158.70909 278.75296L155.93591 275.97977Q155.49397 275.5378 155.21776 275.4163Q154.95259 275.28372 154.64323 275.35Q154.33388 275.4163 154.06871 275.68146Q153.60468 276.1455 153.60468 276.76422Q153.61572 277.3719 154.30072 278.0569L156.85294 280.6091L156.10164 281.3604L153.24007 278.49884Q152.74289 278.00165 152.312 277.9464Q151.8811 277.86908 151.4723 278.27786Q151.15189 278.59827 151.05246 279.02917Q150.95302 279.46005 151.15189 279.902Q151.35077 280.34393 151.94739 280.94055L154.23444 283.2276L153.49419 283.96786Z" fill-rule="nonzero"/><path fill="#000000" d="M153.4198 324.18457L147.34311 318.10788L149.6412 315.80978Q150.23782 315.21313 150.61348 314.948Q151.1438 314.57233 151.65204 314.48395Q152.17133 314.38452 152.72374 314.58337Q153.28722 314.7712 153.74022 315.22418Q154.51361 315.9976 154.5578 317.03616Q154.602 318.0526 153.30933 319.3453L151.75148 320.90314L154.22635 323.37802L153.4198 324.18457ZM151.04437 320.19604L152.61327 318.62714Q153.3977 317.8427 153.43085 317.23505Q153.464 316.60526 152.93367 316.07492Q152.55801 315.69928 152.09398 315.633Q151.62994 315.54462 151.2322 315.76556Q150.96703 315.92026 150.42564 316.46164L148.86781 318.01947L151.04437 320.19604ZM160.64555 320.33966L159.8611 319.732Q160.17047 319.55524 160.35829 319.3674Q160.60136 319.12433 160.6566 318.8923Q160.73395 318.6603 160.68974 318.41724Q160.6345 318.2294 160.35829 317.62173Q160.3141 317.55545 160.2478 317.37866L154.16006 314.64966L154.9666 313.84314L158.42479 315.46725Q159.0877 315.7766 159.77272 316.17438Q159.38602 315.52252 159.07666 314.8596L157.45253 311.3572L158.19278 310.61694L160.9991 316.75995Q161.44106 317.7543 161.57362 318.17416Q161.75041 318.7487 161.65097 319.17957Q161.57362 319.61047 161.22008 319.96402Q161.01016 320.17395 160.64555 320.33966ZM163.48503 312.79352L164.24738 313.3349Q163.99326 313.7216 163.7502 313.96466Q163.3414 314.37347 162.99889 314.4729Q162.64534 314.56128 162.33598 314.4508Q162.03767 314.32925 161.36371 313.6553L158.83359 311.12518L158.2922 311.66656L157.71768 311.09204L158.25906 310.55066L157.16527 309.45685L157.46358 308.27466L158.99931 309.81042L159.75063 309.0591L160.32515 309.63364L159.57384 310.38495L162.14815 312.95926Q162.46857 313.27966 162.5901 313.3349Q162.72267 313.3791 162.8663 313.34595Q163.00995 313.3128 163.17567 313.14706Q163.30826 313.0145 163.48503 312.79352ZM164.64513 312.95926L158.56842 306.88254L159.30869 306.1423L161.48524 308.31885Q161.4079 307.20294 162.2034 306.40747Q162.70058 305.91028 163.253 305.75558Q163.80544 305.57883 164.30263 305.76663Q164.78876 305.94342 165.44063 306.59528L168.22485 309.37952L167.4846 310.11978L164.70036 307.33554Q164.13689 306.77206 163.63971 306.76102Q163.14252 306.74997 162.70058 307.1919Q162.36913 307.52338 162.24759 307.99844Q162.12605 308.45145 162.29178 308.88232Q162.45752 309.29114 162.97679 309.81042L165.38538 312.219L164.64513 312.95926ZM164.37996 302.7946L163.51817 301.9328L164.26947 301.1815L165.13126 302.04327L164.37996 302.7946ZM169.59488 308.0095L165.19756 303.61218L165.94885 302.86087L170.34618 307.2582L169.59488 308.0095ZM174.04744 302.47418Q173.98114 303.2476 173.73808 303.7779Q173.50606 304.29718 173.06412 304.73914Q172.33492 305.46832 171.59467 305.50146Q170.8544 305.53464 170.30199 304.9822Q169.98157 304.6618 169.86003 304.253Q169.72746 303.83316 169.81584 303.4354Q169.89319 303.0266 170.11415 302.65094Q170.25778 302.37476 170.65553 301.86652Q171.45103 300.87213 171.72725 300.28656Q171.57256 300.1319 171.53941 300.09875Q171.07538 299.6347 170.67763 299.6568Q170.1473 299.701 169.58383 300.26447Q169.06454 300.78375 168.99825 301.22568Q168.92091 301.6566 169.26341 302.24216L168.43477 302.87192Q168.07018 302.30844 168.01494 301.78915Q167.95969 301.2699 168.2359 300.68433Q168.51212 300.09875 169.07559 299.53528Q169.63907 298.9718 170.1252 298.75082Q170.61134 298.52985 170.97594 298.563Q171.34055 298.59613 171.71619 298.8392Q171.93716 298.9939 172.43434 299.49106L173.42871 300.48544Q174.46729 301.52402 174.78769 301.756Q175.11914 301.977 175.51689 302.0875L174.73245 302.87192Q174.38994 302.7504 174.04744 302.47418ZM172.31282 300.87213Q172.06975 301.44666 171.38474 302.37476Q170.98698 302.90506 170.88756 303.18127Q170.77707 303.44644 170.82126 303.7116Q170.87651 303.96573 171.07538 304.1646Q171.37369 304.46292 171.79353 304.44083Q172.22443 304.40768 172.65532 303.97678Q173.08621 303.5459 173.22984 303.0266Q173.38452 302.49628 173.20775 302.01013Q173.07516 301.6345 172.58904 301.14835L172.31282 300.87213ZM181.38367 296.2207L180.64342 296.96097L175.89255 292.21008Q175.87045 292.74042 175.69366 293.4475Q175.51689 294.13254 175.29593 294.59656L174.57776 293.87842Q174.89818 292.9614 174.95341 292.08856Q175.00865 291.1936 174.80978 290.597L175.28487 290.12192L181.38367 296.2207ZM182.80893 285.62515L182.12392 286.42065Q181.58255 286.07812 181.2069 286.05603Q180.57712 286.04498 180.13518 286.48694Q179.78163 286.84048 179.70428 287.31558Q179.62695 287.92325 179.91422 288.63034Q180.20148 289.31537 181.0964 290.2324Q180.95277 289.55844 181.1406 288.97287Q181.33948 288.37625 181.77037 287.94534Q182.51062 287.20508 183.58234 287.23825Q184.66508 287.26035 185.52687 288.12213Q186.1014 288.69666 186.34447 289.44794Q186.58754 290.17715 186.4218 290.8732Q186.24503 291.55823 185.70364 292.0996Q184.76453 293.03873 183.49394 292.93927Q182.22336 292.83984 180.65446 291.27097Q178.8867 289.50317 178.74307 288.05582Q178.61049 286.7963 179.5717 285.83508Q180.28986 285.1169 181.15166 285.07272Q182.01344 285.00644 182.80893 285.62515ZM182.38908 291.282Q182.77579 291.6687 183.28401 291.86758Q183.79225 292.04434 184.26733 291.94492Q184.75348 291.83444 185.08493 291.50296Q185.54897 291.03894 185.51582 290.32077Q185.47163 289.59158 184.81976 288.9397Q184.19 288.30994 183.4829 288.28784Q182.78683 288.2547 182.2786 288.76294Q181.77037 289.27118 181.78142 289.98932Q181.80351 290.69644 182.38908 291.282ZM185.48268 286.1334Q184.39992 285.05063 183.96902 284.1778Q183.52708 283.2939 183.60443 282.50946Q183.69281 281.71396 184.35573 281.05106Q184.84186 280.5649 185.40533 280.3992Q185.97986 280.2224 186.59859 280.35498Q187.20625 280.47653 187.86917 280.87427Q188.53207 281.27203 189.43806 282.178Q190.50977 283.24973 190.94066 284.12256Q191.3826 284.98434 191.30527 285.79086Q191.22792 286.57532 190.55396 287.2493Q189.68112 288.12213 188.54312 288.00058Q187.1952 287.84592 185.48268 286.1334ZM186.24503 285.37103Q187.73659 286.86258 188.58733 287.00623Q189.43806 287.14984 189.94629 286.6416Q190.46558 286.12234 190.3109 285.28265Q190.16727 284.43192 188.6757 282.94034Q187.17311 281.43774 186.33342 281.30518Q185.49373 281.15048 184.9634 281.68082Q184.45517 282.18906 184.57669 282.9293Q184.74243 283.86844 186.24503 285.37103ZM193.6365 283.96786L189.23918 279.57056L189.9021 278.90762L190.52081 279.52637Q190.39928 278.985 190.55396 278.45465Q190.69759 277.91327 191.13953 277.4713Q191.62567 276.9852 192.1339 276.8747Q192.65318 276.75317 193.13931 276.99625Q192.9073 275.70355 193.73595 274.8749Q194.39885 274.212 195.10596 274.2341Q195.81306 274.2341 196.57541 274.99646L199.59167 278.0127L198.85141 278.75296L196.07823 275.97977Q195.63629 275.53784 195.36008 275.4163Q195.09491 275.28372 194.78555 275.35Q194.4762 275.4163 194.21103 275.68146Q193.747 276.1455 193.747 276.76422Q193.75804 277.3719 194.44305 278.0569L196.99525 280.6091L196.24396 281.3604L193.38239 278.49884Q192.88521 278.00165 192.45432 277.9464Q192.02342 277.86908 191.61462 278.27786Q191.29422 278.59827 191.19478 279.02917Q191.09534 279.46005 191.29422 279.902Q191.49309 280.34393 192.0897 280.94055L194.37675 283.2276L193.6365 283.96786Z" fill-rule="nonzero"/><path fill="#000000" d="M193.56212 324.18457L187.48543 318.10788L189.78352 315.80978Q190.38014 315.21317 190.7558 314.948Q191.28612 314.57233 191.79436 314.48395Q192.31364 314.38452 192.86607 314.58337Q193.42955 314.7712 193.88254 315.2242Q194.65593 315.9976 194.70012 317.03616Q194.74432 318.0526 193.45164 319.3453L191.8938 320.90314L194.36867 323.37802L193.56212 324.18457ZM191.18669 320.19604L192.75558 318.62714Q193.54002 317.8427 193.57318 317.23505Q193.60632 316.60526 193.07599 316.07495Q192.70033 315.69928 192.2363 315.633Q191.77226 315.54462 191.37451 315.76556Q191.10934 315.92026 190.56796 316.46164L189.01013 318.01947L191.18669 320.19604ZM200.78787 320.33966L200.00343 319.732Q200.31279 319.55524 200.50061 319.3674Q200.74368 319.12433 200.79892 318.8923Q200.87627 318.6603 200.83206 318.41724Q200.77682 318.2294 200.50061 317.62173Q200.45642 317.55545 200.39012 317.37866L194.30238 314.6497L195.10892 313.84314L198.56711 315.46725Q199.23003 315.7766 199.91504 316.17438Q199.52834 315.52252 199.21898 314.8596L197.59485 311.3572L198.3351 310.61694L201.14142 316.75995Q201.58337 317.7543 201.71596 318.17416Q201.89273 318.7487 201.79329 319.17957Q201.71596 319.61047 201.3624 319.96402Q201.15248 320.17395 200.78787 320.33966ZM203.62735 312.79352L204.3897 313.3349Q204.13557 313.7216 203.89252 313.96466Q203.48372 314.37347 203.1412 314.4729Q202.78766 314.56128 202.4783 314.4508Q202.18 314.32925 201.50603 313.6553L198.9759 311.12518L198.43454 311.66656L197.86002 311.09204L198.40138 310.55066L197.30759 309.45685L197.6059 308.27466L199.14163 309.81042L199.89294 309.0591L200.46747 309.63364L199.71617 310.38495L202.29048 312.95926Q202.61089 313.27966 202.73242 313.3349Q202.865 313.3791 203.00864 313.34595Q203.15227 313.3128 203.318 313.14706Q203.45058 313.0145 203.62735 312.79352ZM204.78745 312.95926L198.71074 306.88254L199.451 306.1423L201.62756 308.31885Q201.55022 307.20294 202.34572 306.40747Q202.8429 305.91028 203.39532 305.75558Q203.94775 305.57883 204.44495 305.76663Q204.93108 305.94342 205.58295 306.59528L208.36717 309.37952L207.62692 310.11978L204.84268 307.33554Q204.2792 306.77206 203.78203 306.76102Q203.28484 306.74997 202.8429 307.1919Q202.51144 307.52338 202.38991 307.99844Q202.26837 308.45145 202.43411 308.88232Q202.59984 309.29114 203.11911 309.81042L205.5277 312.219L204.78745 312.95926ZM204.52228 302.7946L203.66049 301.9328L204.41179 301.1815L205.27357 302.04327L204.52228 302.7946ZM209.7372 308.0095L205.33987 303.61218L206.09117 302.86087L210.4885 307.2582L209.7372 308.0095ZM214.18976 302.47418Q214.12346 303.2476 213.8804 303.7779Q213.64838 304.29718 213.20644 304.73914Q212.47723 305.46832 211.73698 305.5015Q210.99672 305.53464 210.4443 304.9822Q210.12389 304.6618 210.00237 304.253Q209.86978 303.83316 209.95816 303.4354Q210.0355 303.0266 210.25647 302.65097Q210.4001 302.37476 210.79785 301.86652Q211.59335 300.87213 211.86957 300.28656Q211.71489 300.1319 211.68173 300.09875Q211.2177 299.6347 210.81995 299.6568Q210.28963 299.701 209.72615 300.26447Q209.20686 300.78375 209.14056 301.2257Q209.06323 301.6566 209.40573 302.24216L208.5771 302.87192Q208.2125 302.30844 208.15726 301.78918Q208.102 301.2699 208.37822 300.68433Q208.65443 300.09875 209.21791 299.53528Q209.78139 298.9718 210.26752 298.75082Q210.75366 298.52985 211.11826 298.563Q211.48286 298.59613 211.85852 298.8392Q212.07948 298.9939 212.57668 299.49106L213.57104 300.48544Q214.6096 301.52402 214.93001 301.756Q215.26146 301.977 215.65921 302.0875L214.87477 302.87192Q214.53226 302.7504 214.18976 302.47418ZM212.45514 300.87213Q212.21207 301.44666 211.52705 302.37476Q211.1293 302.90506 211.02988 303.18127Q210.91939 303.44644 210.96358 303.7116Q211.01883 303.96573 211.2177 304.1646Q211.516 304.46292 211.93585 304.44083Q212.36674 304.40768 212.79764 303.97678Q213.22853 303.5459 213.37216 303.0266Q213.52684 302.49628 213.35007 302.01013Q213.21748 301.6345 212.73135 301.14835L212.45514 300.87213ZM221.10614 296.64056L219.64774 295.18213L217.01819 297.8117L216.33318 297.12668L215.17308 290.42023L215.78075 289.81256L219.71404 293.74582L220.53162 292.92825L221.21663 293.61325L220.39903 294.43085L221.85745 295.88925L221.10614 296.64056ZM218.96272 294.49713L216.23373 291.76813L217.06238 296.3975L218.96272 294.49713ZM226.47574 291.27097L225.73549 292.0112L220.9846 287.26035Q220.96251 287.79068 220.78574 288.49777Q220.60896 289.18277 220.38799 289.64682L219.66983 288.92868Q219.99023 288.01163 220.04549 287.1388Q220.10072 286.24387 219.90186 285.64725L220.37694 285.17215L226.47574 291.27097ZM225.625 286.1334Q224.54224 285.05063 224.11134 284.1778Q223.6694 283.2939 223.74675 282.50946Q223.83513 281.71396 224.49805 281.05106Q224.98418 280.5649 225.54765 280.3992Q226.12218 280.2224 226.7409 280.355Q227.34857 280.47653 228.01149 280.87427Q228.6744 281.27203 229.58038 282.178Q230.65208 283.24973 231.08298 284.12256Q231.52492 284.98434 231.44759 285.7909Q231.37024 286.57532 230.69627 287.2493Q229.82344 288.12213 228.68544 288.00058Q227.33752 287.84592 225.625 286.1334ZM226.38734 285.37103Q227.8789 286.86258 228.72964 287.00623Q229.58038 287.14984 230.08861 286.64163Q230.6079 286.12234 230.45322 285.28265Q230.30959 284.43192 228.81802 282.94037Q227.31543 281.43774 226.47574 281.30518Q225.63605 281.15048 225.10571 281.68082Q224.59749 282.18906 224.71902 282.92932Q224.88475 283.86844 226.38734 285.37103ZM233.77882 283.96786L229.3815 279.57056L230.04442 278.90762L230.66313 279.52637Q230.5416 278.985 230.69627 278.45465Q230.8399 277.91327 231.28185 277.4713Q231.76799 276.9852 232.27621 276.8747Q232.7955 276.75317 233.28163 276.99625Q233.04962 275.70355 233.87827 274.8749Q234.54117 274.212 235.24828 274.2341Q235.95538 274.2341 236.71774 274.99646L239.734 278.0127L238.99373 278.75296L236.22055 275.97977Q235.77861 275.53784 235.5024 275.4163Q235.23723 275.28372 234.92787 275.35Q234.61852 275.4163 234.35335 275.68146Q233.88931 276.1455 233.88931 276.76422Q233.90036 277.3719 234.58537 278.0569L237.13757 280.6091L236.38628 281.3604L233.5247 278.49884Q233.02753 278.00165 232.59663 277.9464Q232.16574 277.86908 231.75694 278.27786Q231.43654 278.59827 231.3371 279.02917Q231.23766 279.46005 231.43654 279.902Q231.6354 280.34393 232.23203 280.94058L234.51907 283.22763L233.77882 283.96786Z" fill-rule="nonzero"/><path fill="#000000" d="M246.43237 311.45663L240.35568 305.37994L242.65378 303.08185Q243.2504 302.48523 243.62605 302.22006Q244.15637 301.8444 244.66461 301.756Q245.1839 301.6566 245.73631 301.85544Q246.29979 302.04327 246.75279 302.49628Q247.52618 303.26965 247.57037 304.30823Q247.61458 305.3247 246.3219 306.61737L244.76405 308.17523L247.23892 310.6501L246.43237 311.45663ZM244.05695 307.4681L245.62584 305.89923Q246.41028 305.11478 246.44342 304.5071Q246.47658 303.87735 245.94624 303.34702Q245.57059 302.97134 245.10655 302.90506Q244.64252 302.81668 244.24477 303.03766Q243.9796 303.19232 243.43822 303.7337L241.88037 305.29156L244.05695 307.4681ZM253.65813 307.61176L252.87367 307.0041Q253.18304 306.8273 253.37086 306.63947Q253.61394 306.3964 253.66917 306.1644Q253.74652 305.93237 253.70232 305.6893Q253.64708 305.50146 253.37086 304.8938Q253.32668 304.8275 253.26038 304.65073L247.17262 301.92175L247.97917 301.1152L251.43736 302.73935Q252.10028 303.0487 252.7853 303.44644Q252.39859 302.7946 252.08923 302.13165L250.4651 298.62927L251.20535 297.88904L254.01167 304.032Q254.45361 305.0264 254.5862 305.44623Q254.76299 306.02075 254.66354 306.45166Q254.5862 306.88254 254.23265 307.23608Q254.02272 307.446 253.65813 307.61176ZM256.4976 300.06558L257.25995 300.60696Q257.00583 300.99365 256.76276 301.23672Q256.35397 301.64554 256.01147 301.74496Q255.65791 301.83334 255.34856 301.72287Q255.05025 301.60135 254.37628 300.92737L251.84616 298.39725L251.30478 298.93863L250.73026 298.3641L251.27164 297.82272L250.17784 296.72894L250.47615 295.54672L252.01189 297.0825L252.7632 296.33118L253.33772 296.9057L252.58641 297.657L255.16072 300.23132Q255.48114 300.55173 255.60266 300.60696Q255.73524 300.65115 255.87888 300.618Q256.02252 300.58487 256.18823 300.41913Q256.32083 300.28656 256.4976 300.06558ZM257.65768 300.23132L251.581 294.15463L252.32126 293.41437L254.49782 295.59094Q254.42047 294.47504 255.21597 293.67953Q255.71315 293.18234 256.2656 293.02768Q256.81802 292.8509 257.3152 293.03873Q257.80133 293.21548 258.4532 293.86737L261.23743 296.65158L260.49716 297.39185L257.71295 294.6076Q257.14948 294.04413 256.65228 294.03308Q256.1551 294.02203 255.71315 294.464Q255.3817 294.79544 255.26016 295.2705Q255.13863 295.7235 255.30435 296.15442Q255.4701 296.5632 255.98936 297.0825L258.39795 299.49106L257.65768 300.23132ZM257.39255 290.06665L256.53073 289.20486L257.28204 288.45358L258.14383 289.31537L257.39255 290.06665ZM262.60745 295.28156L258.2101 290.88425L258.96143 290.13293L263.35873 294.53027L262.60745 295.28156ZM267.06 289.74625Q266.9937 290.51965 266.75064 291.05Q266.51862 291.56924 266.0767 292.0112Q265.34747 292.74042 264.60724 292.77356Q263.86697 292.8067 263.31454 292.25427Q262.99414 291.93387 262.87262 291.52505Q262.74002 291.10522 262.82843 290.70746Q262.90576 290.29868 263.12674 289.92303Q263.27036 289.64682 263.6681 289.13858Q264.4636 288.14423 264.7398 287.55862Q264.58514 287.40396 264.552 287.37082Q264.08795 286.90677 263.69022 286.92886Q263.15988 286.97305 262.5964 287.53653Q262.07712 288.05582 262.01083 288.49777Q261.93347 288.92865 262.276 289.51422L261.44736 290.144Q261.08273 289.58054 261.0275 289.06125Q260.97226 288.54196 261.24847 287.9564Q261.5247 287.37082 262.08817 286.80734Q262.65164 286.24387 263.1378 286.0229Q263.6239 285.8019 263.98853 285.83505Q264.35312 285.86823 264.72876 286.11127Q264.94974 286.26596 265.44693 286.76315L266.44128 287.7575Q267.47986 288.79608 267.80026 289.0281Q268.1317 289.24905 268.52945 289.35956L267.74503 290.144Q267.40253 290.02246 267.06 289.74625ZM265.32538 288.14423Q265.0823 288.71875 264.3973 289.64682Q263.99957 290.17715 263.90012 290.45337Q263.78964 290.71854 263.83383 290.98367Q263.88907 291.2378 264.08795 291.43668Q264.38626 291.735 264.8061 291.7129Q265.237 291.67975 265.66788 291.24884Q266.0988 290.81796 266.2424 290.29868Q266.3971 289.76834 266.2203 289.2822Q266.08774 288.90656 265.6016 288.4204L265.32538 288.14423ZM274.39624 283.49277L273.65598 284.23303L268.90512 279.48215Q268.88303 280.01248 268.70624 280.7196Q268.52945 281.4046 268.3085 281.86865L267.59033 281.15048Q267.91074 280.23346 267.966 279.36063Q268.02124 278.4657 267.82236 277.86908L268.29745 277.39398L274.39624 283.49277ZM277.4346 280.45444L276.73853 281.15048L270.66183 275.0738L271.41315 274.32248L273.57864 276.488Q273.46817 275.42734 274.19736 274.69812Q274.60617 274.28934 275.12546 274.1015Q275.6447 273.8916 276.17505 273.9579Q276.71643 274.01312 277.26886 274.30038Q277.8213 274.58765 278.2964 275.06274Q279.42334 276.1897 279.47858 277.3719Q279.5338 278.55408 278.7604 279.32748Q277.97598 280.1119 276.88217 279.902L277.4346 280.45444ZM275.19174 278.23367Q275.9762 279.01813 276.55072 279.1507Q277.4788 279.37167 278.0754 278.77505Q278.56155 278.2889 278.49524 277.5155Q278.44 276.73108 277.58926 275.88034Q276.72748 275.01855 275.9762 274.95224Q275.22488 274.88596 274.73874 275.3721Q274.25262 275.85822 274.3189 276.65372Q274.3852 277.42712 275.19174 278.23367Z" fill-rule="nonzero"/><path fill="#000000" d="M279.50363 318.5277L273.4269 312.45102L275.725 310.15292Q276.32162 309.5563 276.6973 309.29114Q277.22763 308.9155 277.73584 308.8271Q278.25513 308.72766 278.80756 308.92654Q279.37103 309.11435 279.82404 309.56735Q280.5974 310.34076 280.64163 311.3793Q280.68582 312.39578 279.39313 313.68845L277.8353 315.2463L280.31015 317.72116L279.50363 318.5277ZM277.12817 314.53918L278.69708 312.9703Q279.48154 312.18585 279.51468 311.5782Q279.54782 310.94843 279.0175 310.4181Q278.64185 310.04245 278.1778 309.97614Q277.71375 309.88776 277.316 310.10873Q277.05084 310.2634 276.50946 310.80478L274.95163 312.36264L277.12817 314.53918ZM286.72937 314.68283L285.94492 314.07516Q286.25427 313.89838 286.4421 313.71054Q286.68518 313.4675 286.74042 313.23547Q286.81775 313.00345 286.77356 312.76038Q286.71832 312.57254 286.4421 311.96487Q286.39792 311.8986 286.3316 311.7218L280.24387 308.99283L281.0504 308.18628L284.5086 309.81042Q285.1715 310.11978 285.85654 310.51752Q285.46982 309.86566 285.16046 309.20276L283.53635 305.70035L284.27658 304.9601L287.08292 311.1031Q287.52487 312.09747 287.65744 312.5173Q287.83423 313.09183 287.73477 313.52274Q287.65744 313.9536 287.3039 314.3072Q287.09396 314.5171 286.72937 314.68283ZM289.56885 307.13666L290.33118 307.67804Q290.0771 308.06476 289.834 308.30783Q289.4252 308.7166 289.0827 308.81604Q288.72916 308.90445 288.4198 308.79395Q288.1215 308.67242 287.4475 307.99844L284.91742 305.46835L284.37604 306.0097L283.8015 305.43518L284.3429 304.89383L283.24908 303.80002L283.5474 302.61783L285.08313 304.15356L285.83444 303.40225L286.40897 303.97678L285.65765 304.7281L288.23196 307.3024Q288.55237 307.6228 288.67392 307.67804Q288.8065 307.72223 288.95013 307.6891Q289.09375 307.65594 289.2595 307.49023Q289.39206 307.35764 289.56885 307.13666ZM290.72894 307.3024L284.65225 301.2257L285.3925 300.48544L287.56906 302.66202Q287.49173 301.5461 288.2872 300.7506Q288.7844 300.25342 289.33682 300.09875Q289.88925 299.92197 290.38644 300.1098Q290.87256 300.28656 291.52444 300.93845L294.30865 303.72266L293.56842 304.46292L290.78418 301.67868Q290.2207 301.1152 289.7235 301.10416Q289.22635 301.0931 288.7844 301.53506Q288.45294 301.86652 288.3314 302.3416Q288.20987 302.7946 288.3756 303.2255Q288.54132 303.63428 289.0606 304.15356L291.46918 306.56213L290.72894 307.3024ZM290.46378 297.13773L289.602 296.27594L290.3533 295.52466L291.2151 296.38644L290.46378 297.13773ZM295.67868 302.35266L291.28137 297.95532L292.03265 297.20404L296.43 301.60135L295.67868 302.35266ZM300.13126 296.81732Q300.06497 297.59073 299.8219 298.12106Q299.58987 298.64035 299.14792 299.08228Q298.41873 299.8115 297.67847 299.84464Q296.93823 299.87778 296.3858 299.32535Q296.0654 299.00494 295.94385 298.59616Q295.81128 298.1763 295.89966 297.77856Q295.977 297.36975 296.19797 296.9941Q296.3416 296.7179 296.73935 296.20966Q297.53485 295.2153 297.81107 294.62973Q297.65637 294.47504 297.62323 294.4419Q297.15918 293.97784 296.76144 293.99994Q296.2311 294.04416 295.66763 294.60764Q295.14835 295.1269 295.08206 295.56885Q295.00473 295.99973 295.34723 296.5853L294.5186 297.2151Q294.154 296.6516 294.09875 296.13232Q294.0435 295.61304 294.3197 295.02747Q294.59592 294.4419 295.1594 293.87842Q295.72287 293.31494 296.209 293.09396Q296.69516 292.873 297.05975 292.90616Q297.42435 292.9393 297.80002 293.18237Q298.02097 293.33704 298.51816 293.83423L299.51254 294.82858Q300.5511 295.86716 300.8715 296.09918Q301.20297 296.32016 301.6007 296.43063L300.81625 297.2151Q300.47375 297.09354 300.13126 296.81732ZM298.39664 295.2153Q298.15356 295.78983 297.46854 296.7179Q297.0708 297.24823 296.97137 297.52444Q296.86087 297.7896 296.90506 298.05478Q296.96033 298.3089 297.15918 298.50775Q297.4575 298.80606 297.87735 298.78397Q298.30823 298.75082 298.73914 298.31995Q299.17 297.88904 299.31366 297.36975Q299.46832 296.83942 299.29156 296.3533Q299.15897 295.97763 298.67285 295.49152L298.39664 295.2153ZM307.46747 290.56384L306.72723 291.3041L301.97635 286.55322Q301.95425 287.08356 301.7775 287.79068Q301.6007 288.47568 301.37973 288.93973L300.6616 288.22156Q300.982 287.30453 301.03723 286.4317Q301.09247 285.53677 300.8936 284.94016L301.36868 284.46506L307.46747 290.56384ZM310.03073 288.00058L309.18 287.14984L310.03073 286.2991L310.88147 287.14984L310.03073 288.00058ZM314.1187 283.91263L312.6603 282.45422L310.03073 285.08377L309.34573 284.39877L308.18564 277.6923L308.7933 277.08463L312.7266 281.0179L313.5442 280.20032L314.2292 280.88535L313.4116 281.7029L314.87 283.16132L314.1187 283.91263ZM311.97528 281.76923L309.2463 279.04022L310.07495 283.66956L311.97528 281.76923ZM317.5769 280.45444L316.88083 281.15048L310.80414 275.0738L311.55545 274.3225L313.72095 276.488Q313.61047 275.42734 314.3397 274.69815Q314.74847 274.28934 315.26776 274.10153Q315.78705 273.8916 316.31735 273.9579Q316.85873 274.01312 317.41116 274.30038Q317.9636 274.58765 318.4387 275.06274Q319.56564 276.1897 319.62088 277.3719Q319.67612 278.55408 318.9027 279.32748Q318.1183 280.11194 317.02448 279.902L317.5769 280.45444ZM315.33405 278.23367Q316.1185 279.01813 316.69302 279.1507Q317.6211 279.37167 318.2177 278.77505Q318.70386 278.2889 318.63757 277.51553Q318.5823 276.73108 317.73157 275.88034Q316.86978 275.01855 316.1185 274.95227Q315.3672 274.886 314.88104 275.3721Q314.39493 275.85825 314.4612 276.65375Q314.5275 277.42712 315.33405 278.23367Z" fill-rule="nonzero"/><path fill="#000000" d="M319.64594 318.5277L313.56924 312.45102L315.86734 310.15292Q316.46396 309.5563 316.83963 309.29114Q317.36993 308.91547 317.87817 308.8271Q318.39746 308.72766 318.9499 308.9265Q319.51337 309.11435 319.96637 309.56735Q320.73975 310.34073 320.78394 311.3793Q320.82816 312.39578 319.53546 313.68845L317.97763 315.2463L320.45248 317.72116L319.64594 318.5277ZM317.2705 314.53918L318.83942 312.9703Q319.62384 312.18585 319.657 311.5782Q319.69016 310.9484 319.15982 310.4181Q318.78415 310.04242 318.32013 309.97614Q317.85608 309.88776 317.45834 310.10873Q317.19318 310.2634 316.6518 310.80478L315.09396 312.3626L317.2705 314.53918ZM326.8717 314.68283L326.08725 314.07513Q326.3966 313.89838 326.58444 313.71054Q326.8275 313.46747 326.88275 313.23544Q326.96008 313.00345 326.9159 312.76038Q326.86066 312.57254 326.58444 311.96487Q326.54025 311.8986 326.47394 311.7218L320.3862 308.99283L321.19275 308.18628L324.65094 309.8104Q325.31384 310.11978 325.99887 310.51752Q325.61215 309.86566 325.3028 309.20273L323.67868 305.70035L324.4189 304.9601L327.22525 311.1031Q327.6672 312.09744 327.79977 312.5173Q327.97656 313.09183 327.8771 313.5227Q327.79977 313.9536 327.44623 314.30716Q327.2363 314.5171 326.8717 314.68283ZM329.71118 307.13666L330.4735 307.67804Q330.2194 308.06473 329.97635 308.3078Q329.56754 308.7166 329.22504 308.81604Q328.8715 308.90442 328.56213 308.79395Q328.26382 308.67242 327.58984 307.99844L325.05972 305.46832L324.51837 306.0097L323.94385 305.43518L324.4852 304.8938L323.39142 303.8L323.68973 302.6178L325.22546 304.15356L325.97678 303.40225L326.5513 303.97678L325.8 304.7281L328.3743 307.3024Q328.6947 307.6228 328.81625 307.67804Q328.94882 307.72223 329.09247 307.6891Q329.23608 307.65594 329.40182 307.4902Q329.5344 307.35764 329.71118 307.13666ZM330.87128 307.3024L324.79456 301.22568L325.53482 300.48544L327.7114 302.662Q327.63403 301.5461 328.42953 300.7506Q328.92673 300.25342 329.47916 300.09875Q330.0316 299.92197 330.52878 300.1098Q331.0149 300.28656 331.66678 300.93842L334.451 303.72266L333.71075 304.46292L330.9265 301.67868Q330.36304 301.1152 329.86584 301.10416Q329.36865 301.0931 328.92673 301.53506Q328.59528 301.86652 328.47372 302.34158Q328.3522 302.7946 328.51794 303.22546Q328.68365 303.63428 329.20294 304.15356L331.6115 306.56213L330.87128 307.3024ZM330.6061 297.13773L329.74432 296.27594L330.4956 295.52463L331.3574 296.38644L330.6061 297.13773ZM335.821 302.35263L331.4237 297.95532L332.175 297.204L336.57233 301.60135L335.821 302.35263ZM340.2736 296.81732Q340.20728 297.59073 339.96423 298.12106Q339.7322 298.64032 339.29025 299.08228Q338.56107 299.81146 337.8208 299.84464Q337.08054 299.87778 336.52814 299.32535Q336.2077 299.00494 336.08618 298.59613Q335.9536 298.1763 336.042 297.77853Q336.11932 297.36975 336.3403 296.9941Q336.48392 296.7179 336.88168 296.20966Q337.6772 295.21527 337.9534 294.6297Q337.7987 294.47504 337.76556 294.4419Q337.3015 293.97784 336.90378 293.99994Q336.37344 294.04413 335.80997 294.6076Q335.29068 295.1269 335.2244 295.56885Q335.14706 295.99973 335.48956 296.5853L334.66092 297.21506Q334.29633 296.65158 334.2411 296.13232Q334.18582 295.61304 334.46204 295.02747Q334.73825 294.4419 335.30173 293.87842Q335.8652 293.31494 336.35135 293.09396Q336.8375 292.873 337.2021 292.90613Q337.56668 292.93927 337.94235 293.18234Q338.1633 293.33704 338.6605 293.83423L339.65488 294.82858Q340.69342 295.86716 341.01382 296.09918Q341.34528 296.32013 341.74304 296.43063L340.9586 297.21506Q340.6161 297.09354 340.2736 296.81732ZM338.53897 295.21527Q338.2959 295.7898 337.61087 296.7179Q337.21313 297.24823 337.1137 297.5244Q337.0032 297.78958 337.0474 298.05475Q337.10266 298.30887 337.3015 298.50775Q337.59982 298.80606 338.01968 298.78397Q338.45056 298.75082 338.88147 298.31992Q339.31235 297.88904 339.456 297.36975Q339.61066 296.83942 339.4339 296.35327Q339.3013 295.97763 338.8152 295.4915L338.53897 295.21527ZM348.00757 288.7298L348.7257 289.44794L344.70404 293.4696Q344.43887 293.20444 344.27316 292.86194Q344.01904 292.29846 343.95276 291.56927Q343.8975 290.829 344.01904 289.6689Q344.1958 287.85696 344.06323 287.03937Q343.9417 286.21072 343.52185 285.79086Q343.0799 285.34894 342.46118 285.37103Q341.83142 285.38208 341.32318 285.89032Q340.7818 286.4317 340.7818 287.0725Q340.7818 287.71332 341.34528 288.2989L340.50558 288.98392Q339.72116 288.04477 339.78745 287.0946Q339.85373 286.12234 340.72656 285.2495Q341.5994 284.37665 342.59378 284.35455Q343.58813 284.33246 344.3063 285.05063Q344.6709 285.41522 344.86978 285.92346Q345.06863 286.4096 345.11285 287.1609Q345.15704 287.8901 345.0355 289.35956Q344.92502 290.597 344.93607 291.0058Q344.9471 291.3925 345.02444 291.7129L348.00757 288.7298ZM350.17307 288.00058L349.32233 287.14984L350.17307 286.2991L351.0238 287.14984L350.17307 288.00058ZM349.73114 281.8576Q349.09033 282.14487 348.54895 282.0675Q348.00757 281.96808 347.57666 281.5372Q346.91376 280.87427 346.93585 279.9462Q346.969 279.00708 347.75345 278.22263Q348.54895 277.42712 349.4991 277.40503Q350.44928 277.38293 351.1122 278.04584Q351.53204 278.4657 351.62042 278.99603Q351.70883 279.52634 351.43262 280.15613Q352.17285 279.7694 352.86893 279.89096Q353.56497 280.01248 354.12845 280.57596Q354.90186 281.34937 354.87976 282.43213Q354.8687 283.5038 353.96274 284.40982Q353.06778 285.30475 351.98505 285.32684Q350.90228 285.34894 350.10678 284.55344Q349.51016 283.95682 349.41074 283.26077Q349.32233 282.55365 349.73114 281.8576ZM348.30588 280.7417Q348.73676 281.17258 349.28918 281.17258Q349.85266 281.16153 350.29462 280.7196Q350.7255 280.2887 350.73654 279.7473Q350.73654 279.1949 350.3388 278.79715Q349.93 278.38837 349.36652 278.3994Q348.792 278.3994 348.37216 278.81924Q347.94128 279.25015 347.9302 279.8136Q347.9302 280.36603 348.30588 280.7417ZM350.8802 283.78003Q351.2006 284.10046 351.64252 284.25513Q352.09552 284.39877 352.55957 284.26617Q353.0236 284.1336 353.3661 283.79108Q353.89642 283.26077 353.89642 282.57574Q353.90747 281.8797 353.37717 281.34937Q352.8358 280.80798 352.12866 280.80798Q351.42157 280.80798 350.8802 281.34937Q350.34985 281.8797 350.3609 282.57574Q350.3609 283.26077 350.8802 283.78003ZM357.71924 280.45444L357.02316 281.15048L350.94647 275.0738L351.69778 274.32248L353.86328 276.488Q353.7528 275.42734 354.482 274.69815Q354.8908 274.28934 355.4101 274.10153Q355.92935 273.8916 356.4597 273.9579Q357.00107 274.01312 357.5535 274.30038Q358.10593 274.58765 358.58102 275.06274Q359.70798 276.1897 359.7632 277.3719Q359.81845 278.55408 359.04504 279.32748Q358.26062 280.11194 357.1668 279.902L357.71924 280.45444ZM355.47638 278.23367Q356.26083 279.01813 356.83536 279.1507Q357.76343 279.37167 358.36005 278.77505Q358.8462 278.2889 358.77988 277.5155Q358.72464 276.73108 357.8739 275.88034Q357.01212 275.01855 356.26083 274.95224Q355.50952 274.88596 355.02338 275.3721Q354.53726 275.85825 354.60355 276.65372Q354.66983 277.42712 355.47638 278.23367Z" fill-rule="nonzero"/><path fill="#000000" d="M359.78827 318.5277L353.71158 312.451L356.00967 310.1529Q356.6063 309.55627 356.98196 309.2911Q357.51227 308.91547 358.0205 308.8271Q358.5398 308.72763 359.09222 308.9265Q359.6557 309.11435 360.10867 309.56732Q360.88208 310.34073 360.92627 311.3793Q360.97046 312.39575 359.6778 313.68845L358.11996 315.24628L360.59482 317.72116L359.78827 318.5277ZM357.41284 314.53918L358.98175 312.97028Q359.76617 312.18585 359.79932 311.57816Q359.8325 310.9484 359.30215 310.41806Q358.92648 310.04242 358.46246 309.97614Q357.9984 309.88773 357.60068 310.1087Q357.3355 310.2634 356.79413 310.80478L355.23627 312.3626L357.41284 314.53918ZM367.01404 314.6828L366.22958 314.07513Q366.53894 313.89838 366.72678 313.71054Q366.96982 313.46747 367.0251 313.23544Q367.10242 313.00342 367.05823 312.76038Q367.003 312.57254 366.72678 311.96487Q366.68256 311.8986 366.61627 311.7218L360.52853 308.9928L361.33508 308.18628L364.79327 309.8104Q365.45618 310.11975 366.1412 310.51752Q365.7545 309.86563 365.44513 309.20273L363.82098 305.70035L364.56125 304.96008L367.36758 311.1031Q367.8095 312.09744 367.9421 312.5173Q368.1189 313.09183 368.01944 313.5227Q367.9421 313.9536 367.58856 314.30716Q367.37863 314.5171 367.01404 314.6828ZM369.85352 307.13666L370.61584 307.67804Q370.36172 308.06473 370.11868 308.3078Q369.70987 308.71658 369.36737 308.81604Q369.01382 308.90442 368.70447 308.79395Q368.40616 308.6724 367.73218 307.99844L365.20206 305.46832L364.66068 306.0097L364.08615 305.43518L364.62753 304.8938L363.53372 303.8L363.83206 302.6178L365.3678 304.15353L366.1191 303.40225L366.69363 303.97678L365.94232 304.72806L368.51663 307.30237Q368.83704 307.6228 368.95856 307.67804Q369.09116 307.72223 369.23477 307.6891Q369.37842 307.65594 369.54413 307.4902Q369.67673 307.35764 369.85352 307.13666ZM371.0136 307.30237L364.9369 301.22568L365.67715 300.48544L367.85373 302.662Q367.77637 301.54608 368.57187 300.7506Q369.06906 300.25342 369.6215 300.09872Q370.17392 299.92197 370.67108 300.10977Q371.15723 300.28656 371.80908 300.93842L374.59332 303.72266L373.8531 304.46292L371.06885 301.67868Q370.50537 301.1152 370.00818 301.10416Q369.511 301.0931 369.06906 301.53503Q368.7376 301.8665 368.61606 302.34158Q368.49454 302.7946 368.66025 303.22546Q368.826 303.63428 369.34528 304.15353L371.75385 306.56213L371.0136 307.30237ZM370.74844 297.13773L369.88666 296.27594L370.63794 295.52463L371.49973 296.3864L370.74844 297.13773ZM375.96335 302.35263L371.56604 297.95532L372.31732 297.204L376.71466 301.60132L375.96335 302.35263ZM380.41592 296.81732Q380.3496 297.5907 380.10654 298.12103Q379.87454 298.64032 379.4326 299.08228Q378.7034 299.81146 377.96313 299.8446Q377.22287 299.87775 376.67044 299.32535Q376.35004 299.0049 376.22852 298.59613Q376.09592 298.17627 376.18433 297.77853Q376.26166 297.36975 376.48264 296.99408Q376.62625 296.71786 377.02402 296.20966Q377.8195 295.21527 378.0957 294.6297Q377.94104 294.47504 377.9079 294.44186Q377.44385 293.97784 377.0461 293.99994Q376.51578 294.04413 375.9523 294.6076Q375.433 295.1269 375.36673 295.56882Q375.2894 295.99973 375.6319 296.5853L374.80325 297.21506Q374.43866 296.65158 374.3834 296.1323Q374.32816 295.61304 374.60437 295.02744Q374.88058 294.44186 375.44406 293.8784Q376.00754 293.3149 376.49368 293.09396Q376.97983 292.873 377.34442 292.90613Q377.709 292.93927 378.08466 293.18234Q378.30563 293.33704 378.80283 293.8342L379.79718 294.82858Q380.83575 295.86713 381.15616 296.09915Q381.4876 296.32013 381.88538 296.4306L381.10092 297.21506Q380.75842 297.09354 380.41592 296.81732ZM378.68127 295.21527Q378.43823 295.7898 377.7532 296.71786Q377.35547 297.2482 377.256 297.5244Q377.14554 297.78958 377.18973 298.05475Q377.24496 298.30887 377.44385 298.50775Q377.74216 298.80606 378.16202 298.78397Q378.5929 298.75082 379.0238 298.31992Q379.45468 297.889 379.59833 297.36975Q379.753 296.83942 379.57623 296.35327Q379.44363 295.97763 378.9575 295.4915L378.68127 295.21527ZM384.22766 284.91803L383.54263 285.71353Q383.00128 285.37103 382.6256 285.34894Q381.99585 285.3379 381.55392 285.77982Q381.20035 286.13336 381.12302 286.60846Q381.0457 287.21613 381.33295 287.92325Q381.6202 288.60825 382.51514 289.52527Q382.3715 288.85132 382.55933 288.26575Q382.7582 287.66913 383.1891 287.23822Q383.92935 286.498 385.00107 286.53113Q386.0838 286.55322 386.9456 287.415Q387.5201 287.98953 387.76318 288.7408Q388.00626 289.47003 387.84055 290.16608Q387.66376 290.8511 387.12238 291.3925Q386.18326 292.3316 384.91266 292.23218Q383.6421 292.13272 382.07318 290.56384Q380.30542 288.79608 380.1618 287.34872Q380.0292 286.08917 380.99045 285.12796Q381.7086 284.4098 382.57037 284.3656Q383.43216 284.29932 384.22766 284.91803ZM383.8078 290.5749Q384.19452 290.96158 384.70276 291.16046Q385.21097 291.33725 385.68607 291.2378Q386.1722 291.12732 386.50366 290.79587Q386.96768 290.33182 386.93454 289.61368Q386.89035 288.88446 386.2385 288.2326Q385.60873 287.6028 384.9016 287.58072Q384.20557 287.54758 383.69733 288.05582Q383.1891 288.56406 383.20013 289.2822Q383.22223 289.98932 383.8078 290.5749ZM390.3154 288.00058L389.46466 287.14984L390.3154 286.2991L391.16614 287.14984L390.3154 288.00058ZM390.7242 284.78546L391.37607 284.001Q391.9727 284.42084 392.45883 284.39874Q392.94495 284.35455 393.3427 283.95682Q393.6852 283.61432 393.78464 283.2055Q393.8841 282.77463 393.7957 282.35477Q393.69626 281.9239 393.3648 281.37146Q393.0223 280.80798 392.55826 280.34393Q392.50302 280.2887 392.4036 280.18927Q392.53616 280.7638 392.38147 281.3825Q392.21576 281.99017 391.76276 282.44315Q391.00043 283.2055 389.93976 283.1834Q388.86804 283.15027 387.9731 282.25534Q387.04504 281.32727 387.02295 280.2224Q387.0119 279.1065 387.8295 278.2889Q388.41507 277.70334 389.2216 277.5376Q390.03918 277.36084 390.88992 277.70334Q391.7296 278.0348 392.84552 279.1507Q394.0056 280.3108 394.44757 281.26096Q394.8895 282.18906 394.74588 283.0619Q394.60223 283.91263 393.93933 284.57553Q393.22116 285.29367 392.38147 285.36Q391.53073 285.41522 390.7242 284.78546ZM391.0888 279.05127Q390.448 278.41043 389.72983 278.3773Q389.02274 278.3331 388.5366 278.81924Q388.0394 279.3164 388.07254 280.10086Q388.10568 280.86322 388.75757 281.51508Q389.3321 282.0896 390.05023 282.10065Q390.7684 282.1117 391.27664 281.60345Q391.7959 281.0842 391.76276 280.38812Q391.7296 279.69208 391.0888 279.05127ZM397.86157 280.4544L397.1655 281.15048L391.0888 275.0738L391.84012 274.32248L394.0056 276.488Q393.89514 275.42734 394.62433 274.69812Q395.03314 274.28934 395.55243 274.1015Q396.0717 273.89157 396.60202 273.9579Q397.1434 274.01312 397.69583 274.30038Q398.24826 274.58765 398.72336 275.06274Q399.8503 276.1897 399.90555 277.3719Q399.9608 278.55408 399.18738 279.32748Q398.40295 280.1119 397.30914 279.902L397.86157 280.4544ZM395.6187 278.23367Q396.40317 279.0181 396.9777 279.1507Q397.90576 279.37167 398.50238 278.77505Q398.98853 278.2889 398.9222 277.5155Q398.86697 276.73105 398.01624 275.8803Q397.15445 275.01852 396.40317 274.95224Q395.65186 274.88596 395.1657 275.3721Q394.67957 275.85822 394.74588 276.65372Q394.81216 277.42712 395.6187 278.23367Z" fill-rule="nonzero"/><path fill="#000000" d="M402.0519 316.4064L395.97522 310.32968L398.27332 308.0316Q398.86993 307.43497 399.24557 307.1698Q399.7759 306.79416 400.28415 306.70578Q400.80344 306.60632 401.35587 306.8052Q401.9193 306.99304 402.3723 307.446Q403.14572 308.21942 403.1899 309.258Q403.2341 310.27444 401.94144 311.56714L400.38358 313.12497L402.85846 315.59985L402.0519 316.4064ZM399.67648 312.41788L401.24536 310.84897Q402.02982 310.06454 402.06296 309.45685Q402.0961 308.8271 401.56577 308.29675Q401.19012 307.9211 400.72607 307.85483Q400.26205 307.76642 399.8643 307.9874Q399.59912 308.1421 399.05774 308.68347L397.4999 310.2413L399.67648 312.41788ZM409.27765 312.5615L408.49323 311.95383Q408.80258 311.77707 408.9904 311.58923Q409.23346 311.34616 409.2887 311.11414Q409.36606 310.8821 409.32184 310.63907Q409.2666 310.45123 408.9904 309.84357Q408.9462 309.77728 408.8799 309.6005L402.79218 306.8715L403.5987 306.06497L407.0569 307.6891Q407.71982 307.99844 408.40482 308.3962Q408.01813 307.74432 407.70877 307.08142L406.08463 303.57904L406.8249 302.83878L409.6312 308.98178Q410.07315 309.97614 410.20572 310.396Q410.3825 310.97052 410.28308 311.4014Q410.20572 311.8323 409.85217 312.18585Q409.64227 312.39578 409.27765 312.5615ZM412.11713 305.01535L412.8795 305.55673Q412.62537 305.94342 412.3823 306.1865Q411.9735 306.59528 411.63098 306.69473Q411.27744 306.7831 410.96808 306.67264Q410.66977 306.5511 409.99582 305.87714L407.4657 303.34702L406.92432 303.8884L406.3498 303.31387L406.89117 302.7725L405.79736 301.67868L406.09567 300.4965L407.6314 302.03223L408.38272 301.28094L408.95724 301.85547L408.20593 302.60675L410.78027 305.18106Q411.10068 305.5015 411.2222 305.55673Q411.3548 305.60092 411.4984 305.56778Q411.64206 305.53464 411.80777 305.3689Q411.94037 305.23633 412.11713 305.01535ZM413.27722 305.18106L407.20053 299.10437L407.9408 298.36414L410.11734 300.54068Q410.04 299.42477 410.8355 298.6293Q411.33267 298.1321 411.8851 297.97742Q412.43753 297.80066 412.93472 297.98846Q413.42087 298.16525 414.07272 298.8171L416.85696 301.60135L416.1167 302.3416L413.33246 299.55737Q412.76898 298.9939 412.27182 298.98285Q411.77463 298.9718 411.33267 299.41373Q411.00122 299.74518 410.8797 300.22028Q410.75815 300.67328 410.9239 301.10416Q411.08963 301.51297 411.6089 302.03223L414.0175 304.44083L413.27722 305.18106ZM413.01205 295.01642L412.15027 294.15463L412.90158 293.40332L413.76337 294.2651L413.01205 295.01642ZM418.227 300.23132L413.82965 295.834L414.58096 295.0827L418.97827 299.48L418.227 300.23132ZM422.67953 294.696Q422.61325 295.4694 422.37018 295.99973Q422.13815 296.519 421.69623 296.96097Q420.967 297.69016 420.22678 297.7233Q419.4865 297.75644 418.93408 297.20404Q418.61368 296.8836 418.49216 296.47482Q418.35956 296.055 418.44794 295.65723Q418.5253 295.24844 418.74625 294.87277Q418.8899 294.59656 419.28763 294.08835Q420.08313 293.09396 420.35934 292.5084Q420.20465 292.35373 420.1715 292.32056Q419.7075 291.85654 419.30972 291.87863Q418.77942 291.92282 418.21594 292.4863Q417.69666 293.00558 417.63034 293.4475Q417.553 293.87842 417.8955 294.464L417.0669 295.09375Q416.70227 294.53027 416.64703 294.011Q416.5918 293.49173 416.868 292.90613Q417.14423 292.32056 417.7077 291.75708Q418.27118 291.1936 418.7573 290.97266Q419.24344 290.75168 419.60803 290.78482Q419.97266 290.81796 420.3483 291.06104Q420.56927 291.21573 421.06647 291.7129L422.06082 292.70728Q423.0994 293.74582 423.4198 293.97784Q423.75125 294.19882 424.149 294.3093L423.36456 295.09375Q423.02203 294.97223 422.67953 294.696ZM420.94492 293.09396Q420.70184 293.6685 420.01685 294.59656Q419.61908 295.1269 419.51965 295.4031Q419.40918 295.66827 419.45337 295.93344Q419.5086 296.18756 419.7075 296.38644Q420.0058 296.68475 420.42563 296.66266Q420.85654 296.62952 421.2874 296.1986Q421.71832 295.7677 421.86194 295.24844Q422.01663 294.7181 421.83984 294.23196Q421.70728 293.85632 421.22113 293.37018L420.94492 293.09396ZM430.01578 288.44254L429.2755 289.18277L424.52466 284.43192Q424.50256 284.96225 424.32578 285.66934Q424.149 286.35437 423.92804 286.8184L423.20987 286.10025Q423.53027 285.1832 423.5855 284.31036Q423.64078 283.41544 423.4419 282.81882L423.91696 282.34375L430.01578 288.44254ZM435.36328 281.65872L436.08142 282.3769L432.05975 286.39856Q431.7946 286.1334 431.62885 285.7909Q431.37476 285.22742 431.30844 284.4982Q431.2532 283.75793 431.37476 282.59784Q431.5515 280.7859 431.41895 279.9683Q431.2974 279.13965 430.87756 278.71982Q430.4356 278.27786 429.8169 278.29996Q429.18713 278.311 428.6789 278.81924Q428.1375 279.36063 428.1375 280.00143Q428.1375 280.64227 428.701 281.22784L427.8613 281.91284Q427.07687 280.97372 427.14316 280.02353Q427.20944 279.05127 428.08228 278.17844Q428.9551 277.3056 429.9495 277.2835Q430.94385 277.2614 431.66202 277.97955Q432.0266 278.34418 432.2255 278.8524Q432.42435 279.33853 432.46854 280.08984Q432.51276 280.81903 432.3912 282.28848Q432.28073 283.52594 432.29178 283.93472Q432.30283 284.3214 432.38016 284.64185L435.36328 281.65872ZM438.00388 280.45444L437.3078 281.15048L431.2311 275.0738L431.98242 274.32248L434.14792 276.488Q434.03745 275.42734 434.76663 274.69815Q435.17545 274.28934 435.69473 274.10153Q436.21402 273.8916 436.74432 273.9579Q437.2857 274.01312 437.83813 274.30038Q438.39056 274.58765 438.86566 275.06274Q439.9926 276.1897 440.04785 277.3719Q440.1031 278.55408 439.32968 279.32748Q438.54526 280.11194 437.45145 279.902L438.00388 280.45444ZM435.76102 278.23367Q436.54547 279.01813 437.12 279.1507Q438.04807 279.37167 438.64468 278.77505Q439.13083 278.2889 439.06454 277.51553Q439.00928 276.73108 438.15854 275.88034Q437.29675 275.01855 436.54547 274.95227Q435.79416 274.88596 435.308 275.3721Q434.8219 275.85825 434.88818 276.65375Q434.95447 277.42712 435.76102 278.23367Z" fill-rule="nonzero"/><path fill="#000000" d="M422.108 335.1889Q423.05817 335.01215 423.69897 334.72488L424.03043 335.52036Q423.1355 335.92917 421.9754 336.07278Q421.6771 337.1224 420.8595 337.94Q420.03085 338.76865 418.95917 339.04486Q417.8985 339.31003 416.81573 338.95645Q415.73297 338.6029 414.827 337.69693Q413.93207 336.802 413.55643 335.69714Q413.18076 334.5923 413.46802 333.53162Q413.75528 332.47098 414.58392 331.64233Q415.4236 330.80264 416.50638 330.53748Q417.58914 330.2502 418.66083 330.6148Q419.73254 330.9794 420.63852 331.8854Q421.38983 332.6367 421.75443 333.46533Q422.1301 334.28293 422.108 335.1889ZM419.3127 335.92917Q420.20764 335.43198 421.04733 335.3657Q421.10257 334.0067 419.80988 332.71405Q419.06964 331.9738 418.2631 331.67548Q417.45654 331.37717 416.67212 331.565Q415.88766 331.7307 415.29105 332.32733Q414.38507 333.2333 414.40717 334.44867Q414.42926 335.6419 415.65564 336.8683Q416.83783 338.05048 418.0642 338.1057Q419.27957 338.14993 420.1966 337.23288Q420.62747 336.802 420.8374 336.26062Q420.2187 336.3932 419.6994 336.71362L419.3127 335.92917ZM425.2347 333.3659L419.48947 330.3165L420.26288 329.5431L423.5001 331.3882L424.7044 332.06216Q424.6602 331.9738 424.03043 330.92416L422.1522 327.6538L422.91452 326.89145L426.12967 328.78076L427.1903 329.39948L426.5937 328.29462L424.80383 325.00217L425.53305 324.27295L428.5493 330.05133L427.77588 330.82474L424.43924 328.8802L423.5222 328.3167L426.01917 332.58145L425.2347 333.3659ZM432.38315 323.38907L433.24493 322.70407Q433.7421 323.55478 433.62057 324.42764Q433.49902 325.30048 432.7367 326.0628Q431.77545 327.02405 430.6043 327.00195Q429.4442 326.96878 428.3725 325.8971Q427.26767 324.79224 427.2345 323.61005Q427.1903 322.41678 428.09628 321.5108Q428.9802 320.62692 430.12924 320.6711Q431.28934 320.70428 432.38315 321.79807Q432.44943 321.86438 432.582 321.99695L429.3006 325.27838Q430.07397 325.96338 430.8253 325.98547Q431.56555 325.99652 432.11798 325.4441Q432.52676 325.0353 432.6041 324.53812Q432.68146 324.01883 432.38315 323.38907ZM428.73712 324.6265L431.18988 322.17374Q430.5822 321.65445 430.07397 321.61026Q429.2785 321.54395 428.71503 322.10742Q428.19574 322.6267 428.1847 323.32278Q428.1847 324.00778 428.73712 324.6265ZM435.74188 322.85873L431.34457 318.46143L432.00748 317.7985L432.6262 318.4172Q432.3942 317.21292 433.31122 316.2959Q433.70895 315.89816 434.18405 315.71033Q434.6702 315.51144 435.06793 315.57776Q435.46567 315.64404 435.84134 315.88712Q436.08438 316.06387 436.60367 316.58316L439.31058 319.29007L438.5703 320.0303L435.89658 317.35657Q435.43253 316.89252 435.12317 316.75995Q434.8138 316.62735 434.46027 316.71576Q434.09564 316.7931 433.79733 317.0914Q433.32227 317.5665 433.27808 318.2294Q433.23386 318.8702 434.07355 319.7099L436.48215 322.11847L435.74188 322.85873ZM443.6858 313.47852L444.40396 314.1967L440.38226 318.21835Q440.11713 317.9532 439.9514 317.6107Q439.69727 317.0472 439.63098 316.318Q439.57574 315.57776 439.69727 314.41766Q439.87405 312.60568 439.74146 311.7881Q439.61993 310.95944 439.20007 310.5396Q438.75815 310.09766 438.13943 310.11975Q437.50964 310.1308 437.00143 310.63904Q436.46005 311.18042 436.46005 311.82123Q436.46005 312.46207 437.02353 313.04764L436.18384 313.73264Q435.39938 312.79352 435.46567 311.84332Q435.53198 310.87106 436.40482 309.99823Q437.27765 309.1254 438.272 309.1033Q439.2664 309.0812 439.98453 309.79935Q440.34912 310.16397 440.548 310.67218Q440.7469 311.15833 440.79108 311.90964Q440.83527 312.63882 440.71375 314.10828Q440.60324 315.34573 440.6143 315.75452Q440.62534 316.14124 440.7027 316.46164L443.6858 313.47852ZM445.85132 312.74933L445.00058 311.8986L445.85132 311.04785L446.70206 311.8986L445.85132 312.74933ZM445.9618 309.45685L446.67996 308.6061Q447.34286 309.09225 447.93948 309.07016Q448.54715 309.03702 449.00015 308.584Q449.5305 308.05368 449.4973 307.26923Q449.46417 306.4848 448.80127 305.82187Q448.16046 305.18106 447.43124 305.18106Q446.70206 305.15897 446.1165 305.74454Q445.7629 306.09808 445.63034 306.56213Q445.5088 307.01514 445.5972 307.43497L444.81274 308.04263L442.28262 304.34137L445.30994 301.3141L446.01703 302.02118L443.58636 304.45187L444.90112 306.40744Q445.05582 305.47937 445.65244 304.88275Q446.44794 304.08725 447.54175 304.0983Q448.64658 304.0983 449.5194 304.97113Q450.337 305.78873 450.4696 306.8715Q450.61322 308.18628 449.60782 309.19168Q448.77917 310.02032 447.7848 310.0866Q446.80148 310.14188 445.9618 309.45685ZM450.59113 304.36346L449.83984 303.61218L452.13794 301.3141L452.88922 302.06537L450.59113 304.36346ZM457.839 296.49692L458.8444 295.91135Q459.5736 297.14877 459.441 298.31992Q459.30844 299.49106 458.35825 300.44125Q457.37494 301.42456 456.35846 301.64554Q455.342 301.86652 454.2703 301.4356Q453.18753 300.99368 452.3147 300.12082Q451.36453 299.17065 451.02203 298.09894Q450.67953 297.02725 450.97784 295.99973Q451.2872 294.96115 452.09372 294.15463Q452.99973 293.24863 454.08246 293.09396Q455.17627 292.92822 456.25903 293.52484L455.65137 294.50818Q454.77853 294.05518 454.0714 294.16568Q453.36432 294.25406 452.75665 294.86172Q452.06058 295.55777 451.928 296.37537Q451.7954 297.17087 452.16003 297.93323Q452.53568 298.6845 453.14334 299.2922Q453.91675 300.06558 454.71225 300.41916Q455.51877 300.76166 456.28113 300.57382Q457.0435 300.386 457.60696 299.8225Q458.2809 299.14856 458.35825 298.29782Q458.44666 297.43604 457.839 296.49692ZM459.42996 294.77335Q458.20358 293.54694 458.29196 292.2874Q458.3693 291.2378 459.1869 290.42023Q460.09286 289.51422 461.26404 289.53632Q462.43518 289.53632 463.48477 290.58594Q464.3355 291.43668 464.56754 292.17694Q464.79956 292.91718 464.57858 293.69058Q464.3576 294.4419 463.78308 295.01642Q462.86606 295.93344 461.70596 295.9224Q460.54587 295.88925 459.42996 294.77335ZM460.19232 294.011Q461.032 294.85068 461.81647 294.9059Q462.61194 294.9501 463.16437 294.39767Q463.72784 293.8342 463.6726 293.04977Q463.61737 292.26532 462.75558 291.40353Q461.938 290.58594 461.1425 290.54175Q460.35803 290.4865 459.8056 291.03894Q459.2532 291.59137 459.2974 292.38684Q459.34158 293.16025 460.19232 294.011ZM469.7051 288.8955L469.15268 288.34308Q469.3847 289.4148 468.57816 290.22134Q468.04782 290.75168 467.31863 290.90634Q466.57837 291.05 465.81604 290.77377Q465.05368 290.49756 464.3797 289.82358Q463.72784 289.17172 463.40744 288.40936Q463.08704 287.64703 463.25278 286.92886Q463.40744 286.19968 463.94882 285.6583Q464.34656 285.26053 464.82166 285.1169Q465.29675 284.97327 465.76077 285.03958L463.58423 282.863L464.32446 282.12274L470.40118 288.19946L469.7051 288.8955ZM465.1531 289.0502Q466.00385 289.90094 466.77725 289.96722Q467.5396 290.02246 468.02573 289.53632Q468.51187 289.0502 468.45663 288.30994Q468.4014 287.5697 467.5838 286.7521Q466.67783 285.8461 465.90442 285.77982Q465.14206 285.70248 464.63382 286.21072Q464.13666 286.70792 464.214 287.44815Q464.28027 288.17737 465.1531 289.0502ZM473.39532 282.37686L474.2571 281.69186Q474.7543 282.5426 474.63275 283.41544Q474.51123 284.28827 473.74887 285.05063Q472.78766 286.01184 471.61652 285.98975Q470.45642 285.9566 469.3847 284.8849Q468.27985 283.78003 468.2467 282.59784Q468.2025 281.4046 469.1085 280.49863Q469.99237 279.61475 471.14142 279.65894Q472.3015 279.69208 473.39532 280.7859Q473.4616 280.85217 473.5942 280.98474L470.31277 284.26617Q471.08618 284.95117 471.8375 284.97327Q472.57773 284.9843 473.13016 284.43192Q473.53897 284.0231 473.6163 283.5259Q473.69363 283.00665 473.39532 282.37686ZM469.7493 283.61432L472.2021 281.16153Q471.59442 280.64224 471.08618 280.59805Q470.29068 280.53177 469.7272 281.09525Q469.20792 281.61453 469.19687 282.31058Q469.19687 282.9956 469.7493 283.61432ZM476.74304 281.8576L472.3457 277.46027L473.01968 276.78632L473.6826 277.44922Q473.47266 276.73108 473.53897 276.3775Q473.60526 276.00186 473.87042 275.7367Q474.24606 275.36105 474.86478 275.20636L475.30673 276.15656Q474.86478 276.26703 474.5996 276.5322Q474.3455 276.78632 474.3013 277.13986Q474.2571 277.4713 474.44495 277.8138Q474.7101 278.34415 475.17413 278.8082L477.48328 281.11734L476.74304 281.8576ZM477.46118 277.4934L476.7099 276.74213L479.008 274.44403L479.75928 275.1953L477.46118 277.4934Z" fill-rule="nonzero"/><path fill="#000000" d="M461.0902 337.65274L455.0135 331.57605L455.82004 330.7695L461.1786 336.12805L464.17273 333.13388L464.8909 333.85205L461.0902 337.65274ZM465.96262 332.78033L459.8859 326.70364L460.6372 325.95233L466.7139 332.02905L465.96262 332.78033ZM470.43726 327.22293Q470.37097 327.9963 470.1279 328.52664Q469.89587 329.04593 469.45395 329.48788Q468.72473 330.21707 467.9845 330.2502Q467.24423 330.28336 466.6918 329.73096Q466.3714 329.41052 466.24988 329.00174Q466.11728 328.5819 466.2057 328.18414Q466.28302 327.77536 466.504 327.3997Q466.6476 327.12347 467.04535 326.61526Q467.84085 325.62088 468.11707 325.0353Q467.9624 324.88065 467.92926 324.84747Q467.4652 324.38345 467.06747 324.40555Q466.53714 324.44974 465.97366 325.0132Q465.45438 325.5325 465.3881 325.97443Q465.31073 326.40533 465.65326 326.9909L464.82462 327.62067Q464.46 327.0572 464.40475 326.5379Q464.34952 326.01865 464.62573 325.43304Q464.90195 324.84747 465.46542 324.284Q466.0289 323.72052 466.51505 323.49957Q467.00116 323.2786 467.36578 323.31174Q467.73038 323.34488 468.10602 323.58795Q468.327 323.74265 468.8242 324.2398L469.81854 325.2342Q470.85712 326.27274 471.17752 326.50476Q471.50897 326.72574 471.90674 326.8362L471.12228 327.62067Q470.7798 327.49915 470.43726 327.22293ZM468.70264 325.62088Q468.45956 326.1954 467.77457 327.12347Q467.37683 327.6538 467.27737 327.93002Q467.1669 328.1952 467.2111 328.46036Q467.26633 328.71448 467.4652 328.91336Q467.76352 329.21167 468.18335 329.18958Q468.61426 329.15643 469.04514 328.72552Q469.47604 328.29465 469.6197 327.77536Q469.77435 327.24503 469.59756 326.75888Q469.465 326.38324 468.97885 325.8971L468.70264 325.62088ZM473.0558 325.68716L468.65845 321.28986L469.32135 320.62695L469.9401 321.24567Q469.81854 320.70428 469.97324 320.17395Q470.11685 319.63257 470.5588 319.19064Q471.04492 318.7045 471.55316 318.59402Q472.07245 318.47247 472.5586 318.71555Q472.32657 317.42285 473.1552 316.59424Q473.8181 315.9313 474.52524 315.9534Q475.23233 315.9534 475.9947 316.71576L479.01093 319.73203L478.2707 320.47226L475.4975 317.69907Q475.05557 317.25714 474.77936 317.1356Q474.5142 317.00302 474.20483 317.0693Q473.89545 317.1356 473.6303 317.40076Q473.16626 317.8648 473.16626 318.48352Q473.1773 319.0912 473.8623 319.7762L476.41452 322.32843L475.66324 323.0797L472.80167 320.21814Q472.30447 319.72095 471.87357 319.6657Q471.4427 319.58838 471.03387 319.99716Q470.71347 320.3176 470.61404 320.74847Q470.51462 321.17938 470.71347 321.6213Q470.91235 322.06326 471.50897 322.65988L473.79602 324.94693L473.0558 325.68716ZM483.1652 314.495Q483.0989 315.2684 482.85583 315.79874Q482.6238 316.31802 482.18185 316.75995Q481.45267 317.48917 480.7124 317.5223Q479.97217 317.55545 479.41974 317.00302Q479.09933 316.68262 478.97778 316.2738Q478.8452 315.85397 478.9336 315.45624Q479.01093 315.04742 479.2319 314.67178Q479.37555 314.39557 479.7733 313.88733Q480.5688 312.89297 480.845 312.3074Q480.6903 312.1527 480.65717 312.11957Q480.19315 311.65552 479.79538 311.6776Q479.26505 311.7218 478.70157 312.28528Q478.18228 312.80457 478.116 313.24652Q478.03867 313.6774 478.38116 314.26297L477.55252 314.89276Q477.18793 314.32928 477.1327 313.81Q477.07745 313.2907 477.35367 312.70514Q477.62988 312.11957 478.19336 311.5561Q478.7568 310.9926 479.24295 310.77164Q479.7291 310.55066 480.0937 310.58383Q480.45828 310.61697 480.83395 310.86002Q481.05493 311.0147 481.5521 311.5119L482.54648 312.50626Q483.58502 313.54483 483.90546 313.77686Q484.2369 313.9978 484.63464 314.1083L483.8502 314.89276Q483.5077 314.7712 483.1652 314.495ZM481.43057 312.89297Q481.1875 313.4675 480.5025 314.39557Q480.10474 314.9259 480.0053 315.20212Q479.8948 315.4673 479.93903 315.73245Q479.99426 315.98654 480.19315 316.18542Q480.49146 316.48373 480.9113 316.46164Q481.3422 316.4285 481.77307 315.9976Q482.20398 315.5667 482.3476 315.04742Q482.5023 314.5171 482.3255 314.03098Q482.19293 313.6553 481.7068 313.1692L481.43057 312.89297ZM486.09305 309.44583L486.7449 308.5951Q487.49622 309.1033 488.09283 309.0812Q488.6784 309.04807 489.12036 308.60614Q489.6507 308.0758 489.6507 307.3466Q489.6507 306.6174 489.1093 306.07602Q488.60107 305.56778 487.92712 305.57883Q487.25314 305.56778 486.73386 306.08707Q486.52396 306.297 486.29193 306.70578L485.7174 305.95447Q485.8058 305.88818 485.84998 305.844Q486.32507 305.3689 486.45764 304.75018Q486.59024 304.10938 486.07095 303.5901Q485.66217 303.1813 485.1208 303.19235Q484.56836 303.19235 484.1264 303.63428Q483.69553 304.0652 483.67343 304.6397Q483.66238 305.2032 484.1264 305.8219L483.24252 306.4406Q482.63486 305.56778 482.7122 304.67285Q482.7785 303.76688 483.49664 303.0487Q483.99384 302.5515 484.63464 302.35266Q485.2644 302.14273 485.84998 302.28635Q486.43555 302.43 486.8554 302.84982Q487.2421 303.23654 487.36365 303.77792Q487.47412 304.30826 487.25314 304.90488Q487.90503 304.49606 488.60107 304.59552Q489.28607 304.6839 489.8827 305.28052Q490.6782 306.07602 490.64505 307.21402Q490.62296 308.34097 489.73907 309.22485Q488.94357 310.02036 487.93817 310.0756Q486.9217 310.11978 486.09305 309.44583ZM493.0647 305.67825L492.21396 304.8275L493.0647 303.97678L493.91544 304.8275L493.0647 305.67825ZM497.57248 301.17047L496.83224 301.9107L492.08136 297.15985Q492.05927 297.69016 491.88248 298.39728Q491.70572 299.08228 491.48474 299.54633L490.7666 298.82816Q491.087 297.91113 491.14224 297.0383Q491.19748 296.14337 490.9986 295.54675L491.47366 295.0717L497.57248 301.17047ZM504.2237 294.51926L502.7653 293.06085L500.13574 295.6904L499.4507 295.0054L498.29062 288.29892L498.8983 287.69125L502.83157 291.62454L503.64917 290.80695L504.33417 291.49194L503.51657 292.30954L504.975 293.76794L504.2237 294.51926ZM502.08026 292.37582L499.3513 289.64685L500.17993 294.27618L502.08026 292.37582ZM503.7928 288.96185Q502.71005 287.8791 502.27914 287.00626Q501.83722 286.12238 501.91455 285.33792Q502.00293 284.54242 502.66583 283.87952Q503.15198 283.39337 503.71545 283.22763Q504.28998 283.05087 504.9087 283.18344Q505.51636 283.305 506.1793 283.70273Q506.8422 284.1005 507.74817 285.00647Q508.8199 286.07816 509.2508 286.95102Q509.69272 287.8128 509.6154 288.61932Q509.53806 289.40378 508.86407 290.07773Q507.99124 290.95056 506.85324 290.82904Q505.5053 290.67438 503.7928 288.96185ZM504.55515 288.1995Q506.0467 289.69104 506.89743 289.8347Q507.74817 289.9783 508.2564 289.47006Q508.7757 288.9508 508.621 288.1111Q508.4774 287.26038 506.98584 285.7688Q505.48322 284.2662 504.64352 284.13364Q503.80383 283.97894 503.27353 284.50928Q502.7653 285.01752 502.8868 285.75775Q503.05255 286.6969 504.55515 288.1995ZM510.14572 285.41525L510.86386 284.5645Q511.52676 285.05066 512.1234 285.02856Q512.7311 284.99542 513.1841 284.54242Q513.7144 284.0121 513.6813 283.22763Q513.6481 282.4432 512.98517 281.78027Q512.34436 281.13947 511.61517 281.13947Q510.88596 281.11737 510.30038 281.70294Q509.94684 282.0565 509.81424 282.52054Q509.69272 282.97354 509.7811 283.39337L508.99667 284.00104L506.46655 280.29977L509.49384 277.2725L510.20096 277.97958L507.77026 280.41028L509.08505 282.36584Q509.23972 281.43777 509.83636 280.84116Q510.63184 280.04565 511.72565 280.0567Q512.8305 280.0567 513.70337 280.92953Q514.52094 281.74713 514.6535 282.8299Q514.7971 284.14468 513.79175 285.1501Q512.9631 285.97873 511.96872 286.045Q510.9854 286.10028 510.14572 285.41525ZM516.9516 281.79132L510.8749 275.71463L513.162 273.42758Q513.85803 272.73154 514.4657 272.4995Q515.07336 272.2675 515.6921 272.42218Q516.3108 272.55475 516.73065 272.9746Q517.1174 273.3613 517.24994 273.91373Q517.3825 274.46616 517.16156 275.10696Q517.8797 274.72028 518.5647 274.83075Q519.2497 274.91913 519.78 275.44946Q520.1999 275.86932 520.39874 276.42175Q520.5866 276.96313 520.52026 277.42715Q520.454 277.8912 520.14465 278.39944Q519.8463 278.8966 519.2718 279.47113L516.9516 281.79132ZM514.23364 277.4603L515.54846 276.14554Q516.0788 275.6152 516.2445 275.3169Q516.46545 274.91913 516.4102 274.55453Q516.34393 274.1789 516.02356 273.8585Q515.7252 273.56018 515.34955 273.47177Q514.97394 273.3834 514.62036 273.58228Q514.26685 273.75903 513.6149 274.41092L512.3996 275.62625L514.23364 277.4603ZM517.04 280.26663L518.55365 278.753Q518.94037 278.36627 519.0619 278.17847Q519.30493 277.84702 519.3712 277.55975Q519.43756 277.2504 519.3381 276.90787Q519.23865 276.56537 518.9514 276.2781Q518.6089 275.9356 518.178 275.85828Q517.7582 275.76987 517.34937 275.9798Q516.94055 276.18973 516.355 276.7753L514.95184 278.17847L517.04 280.26663Z" fill-rule="nonzero"/><path fill="#000000" d="M509.04385 329.84143L502.96716 323.7647L505.06635 321.66553Q505.77347 320.9584 506.2375 320.67114Q506.87833 320.2734 507.55228 320.21817Q508.4472 320.1408 509.32004 320.54962Q510.19287 320.9363 510.99942 321.74286Q511.69547 322.4389 512.06006 323.13498Q512.4357 323.81998 512.53516 324.42764Q512.6346 325.03534 512.5241 325.54355Q512.4247 326.04074 512.1153 326.57108Q511.79492 327.09036 511.2425 327.6428L509.04385 329.84143ZM509.1322 328.31674L510.4249 327.02405Q511.03256 326.41638 511.2646 325.9634Q511.4966 325.5104 511.48557 325.10162Q511.4966 324.53815 511.16516 323.89734Q510.84473 323.24545 510.15973 322.56046Q509.20956 321.6103 508.38092 321.42245Q507.55228 321.21252 506.93356 321.4777Q506.48056 321.68762 505.77347 322.3947L504.49182 323.67636L509.1322 328.31674ZM516.9104 319.14645L517.77216 318.46146Q518.26935 319.31216 518.1478 320.18503Q518.0263 321.05786 517.2639 321.8202Q516.30273 322.78143 515.1316 322.75934Q513.9715 322.72617 512.8998 321.65448Q511.79492 320.54962 511.76178 319.36743Q511.7176 318.1742 512.62354 317.2682Q513.50745 316.3843 514.6565 316.4285Q515.8166 316.46167 516.9104 317.55545Q516.9767 317.62177 517.10925 317.75433L513.8278 321.03577Q514.60126 321.72076 515.35254 321.74286Q516.0928 321.7539 516.6452 321.20148Q517.054 320.7927 517.13135 320.2955Q517.2087 319.7762 516.9104 319.14645ZM513.26434 320.38388L515.71716 317.93112Q515.1095 317.41183 514.60126 317.36765Q513.8057 317.30133 513.24225 317.8648Q512.723 318.3841 512.712 319.08017Q512.712 319.76517 513.26434 320.38388ZM521.86017 314.19672L522.7219 313.5117Q523.2191 314.36243 523.0976 315.23526Q522.976 316.1081 522.2137 316.87045Q521.25244 317.83167 520.0813 317.80957Q518.9212 317.77643 517.8495 316.7047Q516.7447 315.59988 516.71155 314.41766Q516.6673 313.22443 517.5733 312.31845Q518.4572 311.43457 519.60626 311.47876Q520.76636 311.5119 521.86017 312.6057Q521.92645 312.672 522.059 312.8046L518.7776 316.086Q519.55096 316.77103 520.3023 316.79312Q521.04254 316.80417 521.595 316.25174Q522.0038 315.84293 522.0811 315.34576Q522.15845 314.82648 521.86017 314.19672ZM518.2141 315.43414L520.6669 312.98135Q520.0592 312.4621 519.55096 312.41788Q518.7555 312.3516 518.192 312.91507Q517.6727 313.43436 517.6617 314.1304Q517.6617 314.81543 518.2141 315.43414ZM526.9093 315.3568L520.8216 309.26904L521.49554 308.5951L522.059 309.15857Q521.97064 308.58405 522.1032 308.12Q522.2468 307.64493 522.67773 307.21402Q523.2412 306.65054 523.95935 306.50693Q524.6775 306.36328 525.4178 306.6837Q526.16907 306.99304 526.7988 307.62283Q527.4728 308.29678 527.7711 309.08124Q528.08044 309.8546 527.9037 310.60593Q527.7269 311.35724 527.2187 311.86545Q526.843 312.24112 526.39 312.38474Q525.926 312.51733 525.50616 312.47314L527.6496 314.61655L526.9093 315.3568ZM523.7163 310.81586Q524.567 311.6666 525.31836 311.73288Q526.0586 311.78812 526.54474 311.30197Q527.04193 310.8048 526.9756 310.0314Q526.9093 309.258 526.02545 308.3741Q525.1857 307.53442 524.43445 307.46814Q523.6721 307.3908 523.186 307.87692Q522.7109 308.35202 522.7882 309.15857Q522.86554 309.96512 523.7163 310.81586ZM528.03625 306.9378L528.7213 306.1202Q529.24054 306.52902 529.7267 306.6174Q530.2128 306.70578 530.80945 306.48483Q531.40607 306.24176 531.92535 305.72247Q532.37836 305.26947 532.5993 304.78336Q532.80927 304.28616 532.743 303.88843Q532.67664 303.46857 532.40045 303.19235Q532.11316 302.9051 531.73755 302.8609Q531.3508 302.80566 530.83154 303.0377Q530.478 303.19235 529.43945 303.83316Q528.4119 304.46295 527.9037 304.6176Q527.22974 304.82755 526.68835 304.706Q526.1359 304.57343 525.71606 304.15356Q525.26306 303.7006 525.11945 303.04874Q524.9758 302.37476 525.2741 301.6787Q525.57245 300.96054 526.1801 300.35287Q526.85406 299.67892 527.59436 299.3806Q528.32355 299.07126 529.03064 299.22592Q529.7267 299.36957 530.2791 299.87778L529.561 300.70642Q528.92017 300.1982 528.2683 300.27554Q527.61646 300.33078 526.92035 301.02682Q526.19116 301.75604 526.1249 302.35266Q526.0586 302.94928 526.43427 303.32495Q526.7657 303.6564 527.20764 303.6343Q527.6496 303.6122 528.84283 302.8609Q530.0471 302.09854 530.57745 301.8997Q531.3619 301.62347 531.99164 301.745Q532.61035 301.85547 533.10754 302.35266Q533.5937 302.8388 533.74835 303.5459Q533.892 304.24197 533.6158 305.0043Q533.32855 305.7556 532.67664 306.40747Q531.848 307.2361 531.05255 307.56757Q530.257 307.87692 529.4505 307.7112Q528.65497 307.53442 528.03625 306.9378ZM537.4165 298.64035L538.27826 297.95535Q538.77545 298.8061 538.65393 299.67892Q538.5324 300.55176 537.77 301.3141Q536.80884 302.27533 535.6377 302.25323Q534.4776 302.2201 533.4059 301.14838Q532.301 300.04352 532.2679 298.86133Q532.2237 297.6681 533.12964 296.76212Q534.01355 295.8782 535.1626 295.92242Q536.3227 295.95557 537.4165 297.04938Q537.4828 297.11566 537.61536 297.24823L534.3339 300.52966Q535.10736 301.21466 535.85864 301.23676Q536.5989 301.2478 537.1513 300.69537Q537.5601 300.2866 537.63745 299.7894Q537.7148 299.2701 537.4165 298.64035ZM533.77045 299.87778L536.22327 297.42502Q535.6156 296.90573 535.10736 296.86154Q534.3118 296.79526 533.74835 297.35873Q533.22906 297.878 533.218 298.57407Q533.218 299.25906 533.77045 299.87778ZM542.3662 293.6906L543.228 293.00558Q543.7252 293.85632 543.6037 294.72916Q543.4821 295.60202 542.7198 296.36435Q541.75854 297.3256 540.5874 297.30347Q539.4273 297.27032 538.3556 296.19864Q537.25073 295.09378 537.2176 293.9116Q537.1734 292.71832 538.0794 291.81235Q538.96326 290.92847 540.1123 290.97266Q541.2724 291.0058 542.3662 292.0996Q542.43256 292.1659 542.5651 292.2985L539.2837 295.5799Q540.05707 296.26492 540.8084 296.28702Q541.54865 296.29807 542.1011 295.74564Q542.5099 295.33685 542.5872 294.83966Q542.66455 294.32037 542.3662 293.6906ZM538.7202 294.92804L541.173 292.47528Q540.5653 291.956 540.05707 291.9118Q539.2616 291.8455 538.6981 292.40897Q538.17883 292.92825 538.1678 293.62433Q538.1678 294.30933 538.7202 294.92804ZM545.725 293.16028L539.6483 287.0836L540.3996 286.33228L543.86884 289.8015L543.8357 286.25494L544.808 285.28265L544.7417 288.59723L549.37103 289.51425L548.454 290.43127L544.7417 289.6358L544.73065 290.6633L546.4763 292.40897L545.725 293.16028ZM547.8463 287.39294L547.09503 286.64163L549.3931 284.34354L550.1444 285.09485L547.8463 287.39294ZM554.6191 284.2662L546.189 280.54285L547.0619 279.67L553.0612 282.5095Q553.77936 282.852 554.376 283.18344Q554.02246 282.54263 553.7131 281.8576L550.92883 275.803L551.74646 274.9854L555.4477 283.43756L554.6191 284.2662ZM555.93384 279.74734L556.5857 278.8966Q557.33704 279.40485 557.93365 279.38275Q558.5192 279.3496 558.9611 278.90765Q559.49146 278.37732 559.49146 277.64813Q559.49146 276.9189 558.9501 276.37753Q558.4419 275.8693 557.7679 275.88034Q557.09393 275.8693 556.57465 276.38858Q556.36475 276.5985 556.1327 277.0073L555.55817 276.256Q555.6466 276.18973 555.6908 276.1455Q556.1659 275.67044 556.29846 275.05173Q556.431 274.4109 555.91174 273.89163Q555.5029 273.48282 554.96155 273.49387Q554.4091 273.49387 553.9672 273.93582Q553.5363 274.3667 553.5142 274.94122Q553.5032 275.5047 553.9672 276.1234L553.0833 276.74213Q552.47565 275.8693 552.553 274.97437Q552.61926 274.0684 553.33746 273.35025Q553.8346 272.85306 554.47546 272.65417Q555.1052 272.44424 555.6908 272.5879Q556.27637 272.7315 556.69617 273.15137Q557.0829 273.53806 557.2044 274.07944Q557.31494 274.60977 557.09393 275.2064Q557.7458 274.7976 558.4419 274.89703Q559.1269 274.9854 559.7235 275.58203Q560.519 276.37753 560.48584 277.51553Q560.46375 278.6425 559.5799 279.52637Q558.78436 280.32187 557.77893 280.3771Q556.7625 280.4213 555.93384 279.74734Z" fill-rule="nonzero"/></svg>