<svg version="1.1" viewBox="0.0 0.0 600.0 371.0" fill="none" stroke="none" stroke-linecap="square" stroke-miterlimit="10" width="600" height="371" xmlns:xlink="http://www.w3.org/1999/xlink" xmlns="http://www.w3.org/2000/svg"><path fill="#ffffff" d="M0 0L600.0 0L600.0 371.0L0 371.0L0 0Z" fill-rule="nonzero"/><path stroke="#333333" stroke-width="1.0" stroke-linecap="butt" d="M45.5 318.5L581.5 318.5" fill-rule="nonzero"/><path stroke="#cccccc" stroke-width="1.0" stroke-linecap="butt" d="M45.5 229.5L581.5 229.5" fill-rule="nonzero"/><path stroke="#cccccc" stroke-width="1.0" stroke-linecap="butt" d="M45.5 140.5L581.5 140.5" fill-rule="nonzero"/><path stroke="#cccccc" stroke-width="1.0" stroke-linecap="butt" d="M45.5 51.5L581.5 51.5" fill-rule="nonzero"/><clipPath id="id_0"><path d="M45.55 51.916668L581.45 51.916668L581.45 318.45L45.55 318.45L45.55 51.916668Z" clip-rule="nonzero"/></clipPath><path stroke="#000000" stroke-width="2.0" stroke-linecap="butt" stroke-opacity="0.0" clip-path="url(#id_0)" d="M80.0 318.0L65.0 318.0L65.0 318.0L80.0 318.0Z" fill-rule="nonzero"/><path fill="#4285f4" clip-path="url(#id_0)" d="M80.0 318.0L65.0 318.0L65.0 318.0L80.0 318.0Z" fill-rule="nonzero"/><path stroke="#000000" stroke-width="2.0" stroke-linecap="butt" stroke-opacity="0.0" clip-path="url(#id_0)" d="M131.0 318.0L116.0 318.0L116.0 318.0L131.0 318.0Z" fill-rule="nonzero"/><path fill="#4285f4" clip-path="url(#id_0)" d="M131.0 318.0L116.0 318.0L116.0 318.0L131.0 318.0Z" fill-rule="nonzero"/><path stroke="#000000" stroke-width="2.0" stroke-linecap="butt" stroke-opacity="0.0" clip-path="url(#id_0)" d="M183.0 318.0L168.0 318.0L168.0 318.0L183.0 318.0Z" fill-rule="nonzero"/><path fill="#4285f4" clip-path="url(#id_0)" d="M183.0 318.0L168.0 318.0L168.0 318.0L183.0 318.0Z" fill-rule="nonzero"/><path stroke="#000000" stroke-width="2.0" stroke-linecap="butt" stroke-opacity="0.0" clip-path="url(#id_0)" d="M235.0 318.0L220.0 318.0L220.0 318.0L235.0 318.0Z" fill-rule="nonzero"/><path fill="#4285f4" clip-path="url(#id_0)" d="M235.0 318.0L220.0 318.0L220.0 318.0L235.0 318.0Z" fill-rule="nonzero"/><path stroke="#000000" stroke-width="2.0" stroke-linecap="butt" stroke-opacity="0.0" clip-path="url(#id_0)" d="M287.0 318.0L272.0 318.0L272.0 285.0C272.0 283.89542 272.89542 283.0 274.0 283.0L285.0 283.0C286.10458 283.0 287.0 283.89542 287.0 285.0Z" fill-rule="nonzero"/><path fill="#4285f4" clip-path="url(#id_0)" d="M287.0 318.0L272.0 318.0L272.0 285.0C272.0 283.89542 272.89542 283.0 274.0 283.0L285.0 283.0C286.10458 283.0 287.0 283.89542 287.0 285.0Z" fill-rule="nonzero"/><path stroke="#000000" stroke-width="2.0" stroke-linecap="butt" stroke-opacity="0.0" clip-path="url(#id_0)" d="M338.0 318.0L323.0 318.0L323.0 267.0C323.0 265.89542 323.89542 265.0 325.0 265.0L336.0 265.0C337.10458 265.0 338.0 265.89542 338.0 267.0Z" fill-rule="nonzero"/><path fill="#4285f4" clip-path="url(#id_0)" d="M338.0 318.0L323.0 318.0L323.0 267.0C323.0 265.89542 323.89542 265.0 325.0 265.0L336.0 265.0C337.10458 265.0 338.0 265.89542 338.0 267.0Z" fill-rule="nonzero"/><path stroke="#000000" stroke-width="2.0" stroke-linecap="butt" stroke-opacity="0.0" clip-path="url(#id_0)" d="M390.0 318.0L375.0 318.0L375.0 267.0C375.0 265.89542 375.89542 265.0 377.0 265.0L388.0 265.0C389.10458 265.0 390.0 265.89542 390.0 267.0Z" fill-rule="nonzero"/><path fill="#4285f4" clip-path="url(#id_0)" d="M390.0 318.0L375.0 318.0L375.0 267.0C375.0 265.89542 375.89542 265.0 377.0 265.0L388.0 265.0C389.10458 265.0 390.0 265.89542 390.0 267.0Z" fill-rule="nonzero"/><path stroke="#000000" stroke-width="2.0" stroke-linecap="butt" stroke-opacity="0.0" clip-path="url(#id_0)" d="M442.0 318.0L427.0 318.0L427.0 178.0C427.0 176.89543 427.89542 176.0 429.0 176.0L440.0 176.0C441.10458 176.0 442.0 176.89543 442.0 178.0Z" fill-rule="nonzero"/><path fill="#4285f4" clip-path="url(#id_0)" d="M442.0 318.0L427.0 318.0L427.0 178.0C427.0 176.89543 427.89542 176.0 429.0 176.0L440.0 176.0C441.10458 176.0 442.0 176.89543 442.0 178.0Z" fill-rule="nonzero"/><path stroke="#000000" stroke-width="2.0" stroke-linecap="butt" stroke-opacity="0.0" clip-path="url(#id_0)" d="M494.0 318.0L479.0 318.0L479.0 161.0C479.0 159.89543 479.89542 159.0 481.0 159.0L492.0 159.0C493.10458 159.0 494.0 159.89543 494.0 161.0Z" fill-rule="nonzero"/><path fill="#4285f4" clip-path="url(#id_0)" d="M494.0 318.0L479.0 318.0L479.0 161.0C479.0 159.89543 479.89542 159.0 481.0 159.0L492.0 159.0C493.10458 159.0 494.0 159.89543 494.0 161.0Z" fill-rule="nonzero"/><path stroke="#000000" stroke-width="2.0" stroke-linecap="butt" stroke-opacity="0.0" clip-path="url(#id_0)" d="M546.0 318.0L531.0 318.0L531.0 196.0C531.0 194.89543 531.89545 194.0 533.0 194.0L544.0 194.0C545.10455 194.0 546.0 194.89543 546.0 196.0Z" fill-rule="nonzero"/><path fill="#4285f4" clip-path="url(#id_0)" d="M546.0 318.0L531.0 318.0L531.0 196.0C531.0 194.89543 531.89545 194.0 533.0 194.0L544.0 194.0C545.10455 194.0 546.0 194.89543 546.0 196.0Z" fill-rule="nonzero"/><path stroke="#000000" stroke-width="2.0" stroke-linecap="butt" stroke-opacity="0.0" clip-path="url(#id_0)" d="M97.0 318.0L82.0 318.0L82.0 318.0L97.0 318.0Z" fill-rule="nonzero"/><path fill="#ea4335" clip-path="url(#id_0)" d="M97.0 318.0L82.0 318.0L82.0 318.0L97.0 318.0Z" fill-rule="nonzero"/><path stroke="#000000" stroke-width="2.0" stroke-linecap="butt" stroke-opacity="0.0" clip-path="url(#id_0)" d="M148.0 318.0L133.0 318.0L133.0 318.0L148.0 318.0Z" fill-rule="nonzero"/><path fill="#ea4335" clip-path="url(#id_0)" d="M148.0 318.0L133.0 318.0L133.0 318.0L148.0 318.0Z" fill-rule="nonzero"/><path stroke="#000000" stroke-width="2.0" stroke-linecap="butt" stroke-opacity="0.0" clip-path="url(#id_0)" d="M200.0 318.0L185.0 318.0L185.0 303.0C185.0 301.89542 185.89543 301.0 187.0 301.0L198.0 301.0C199.10457 301.0 200.0 301.89542 200.0 303.0Z" fill-rule="nonzero"/><path fill="#ea4335" clip-path="url(#id_0)" d="M200.0 318.0L185.0 318.0L185.0 303.0C185.0 301.89542 185.89543 301.0 187.0 301.0L198.0 301.0C199.10457 301.0 200.0 301.89542 200.0 303.0Z" fill-rule="nonzero"/><path stroke="#000000" stroke-width="2.0" stroke-linecap="butt" stroke-opacity="0.0" clip-path="url(#id_0)" d="M252.0 318.0L237.0 318.0L237.0 318.0L252.0 318.0Z" fill-rule="nonzero"/><path fill="#ea4335" clip-path="url(#id_0)" d="M252.0 318.0L237.0 318.0L237.0 318.0L252.0 318.0Z" fill-rule="nonzero"/><path stroke="#000000" stroke-width="2.0" stroke-linecap="butt" stroke-opacity="0.0" clip-path="url(#id_0)" d="M304.0 318.0L289.0 318.0L289.0 249.0C289.0 247.89543 289.89542 247.0 291.0 247.0L302.0 247.0C303.10458 247.0 304.0 247.89543 304.0 249.0Z" fill-rule="nonzero"/><path fill="#ea4335" clip-path="url(#id_0)" d="M304.0 318.0L289.0 318.0L289.0 249.0C289.0 247.89543 289.89542 247.0 291.0 247.0L302.0 247.0C303.10458 247.0 304.0 247.89543 304.0 249.0Z" fill-rule="nonzero"/><path stroke="#000000" stroke-width="2.0" stroke-linecap="butt" stroke-opacity="0.0" clip-path="url(#id_0)" d="M355.0 318.0L340.0 318.0L340.0 178.0C340.0 176.89543 340.89542 176.0 342.0 176.0L353.0 176.0C354.10458 176.0 355.0 176.89543 355.0 178.0Z" fill-rule="nonzero"/><path fill="#ea4335" clip-path="url(#id_0)" d="M355.0 318.0L340.0 318.0L340.0 178.0C340.0 176.89543 340.89542 176.0 342.0 176.0L353.0 176.0C354.10458 176.0 355.0 176.89543 355.0 178.0Z" fill-rule="nonzero"/><path stroke="#000000" stroke-width="2.0" stroke-linecap="butt" stroke-opacity="0.0" clip-path="url(#id_0)" d="M407.0 318.0L392.0 318.0L392.0 178.0C392.0 176.89543 392.89542 176.0 394.0 176.0L405.0 176.0C406.10458 176.0 407.0 176.89543 407.0 178.0Z" fill-rule="nonzero"/><path fill="#ea4335" clip-path="url(#id_0)" d="M407.0 318.0L392.0 318.0L392.0 178.0C392.0 176.89543 392.89542 176.0 394.0 176.0L405.0 176.0C406.10458 176.0 407.0 176.89543 407.0 178.0Z" fill-rule="nonzero"/><path stroke="#000000" stroke-width="2.0" stroke-linecap="butt" stroke-opacity="0.0" clip-path="url(#id_0)" d="M459.0 318.0L444.0 318.0L444.0 125.0C444.0 123.89543 444.89542 123.0 446.0 123.0L457.0 123.0C458.10458 123.0 459.0 123.89543 459.0 125.0Z" fill-rule="nonzero"/><path fill="#ea4335" clip-path="url(#id_0)" d="M459.0 318.0L444.0 318.0L444.0 125.0C444.0 123.89543 444.89542 123.0 446.0 123.0L457.0 123.0C458.10458 123.0 459.0 123.89543 459.0 125.0Z" fill-rule="nonzero"/><path stroke="#000000" stroke-width="2.0" stroke-linecap="butt" stroke-opacity="0.0" clip-path="url(#id_0)" d="M511.0 318.0L496.0 318.0L496.0 125.0C496.0 123.89543 496.89542 123.0 498.0 123.0L509.0 123.0C510.10458 123.0 511.0 123.89543 511.0 125.0Z" fill-rule="nonzero"/><path fill="#ea4335" clip-path="url(#id_0)" d="M511.0 318.0L496.0 318.0L496.0 125.0C496.0 123.89543 496.89542 123.0 498.0 123.0L509.0 123.0C510.10458 123.0 511.0 123.89543 511.0 125.0Z" fill-rule="nonzero"/><path stroke="#000000" stroke-width="2.0" stroke-linecap="butt" stroke-opacity="0.0" clip-path="url(#id_0)" d="M563.0 318.0L548.0 318.0L548.0 125.0C548.0 123.89543 548.89545 123.0 550.0 123.0L561.0 123.0C562.10455 123.0 563.0 123.89543 563.0 125.0Z" fill-rule="nonzero"/><path fill="#ea4335" clip-path="url(#id_0)" d="M563.0 318.0L548.0 318.0L548.0 125.0C548.0 123.89543 548.89545 123.0 550.0 123.0L561.0 123.0C562.10455 123.0 563.0 123.89543 563.0 125.0Z" fill-rule="nonzero"/><path fill="#000000" d="M33.05 318.21564Q33.05 316.6844 33.3625 315.7625Q33.675 314.825 34.284374 314.325Q34.909374 313.825 35.846874 313.825Q36.534374 313.825 37.05 314.10626Q37.58125 314.3875 37.925 314.91876Q38.26875 315.4344 38.45625 316.1844Q38.64375 316.9344 38.64375 318.21564Q38.64375 319.73126 38.33125 320.65314Q38.034374 321.575 37.409374 322.09064Q36.8 322.59064 35.846874 322.59064Q34.6125 322.59064 33.89375 321.7Q33.05 320.6375 33.05 318.21564ZM34.128124 318.21564Q34.128124 320.325 34.628124 321.02814Q35.128124 321.73126 35.846874 321.73126Q36.58125 321.73126 37.065624 321.02814Q37.565624 320.325 37.565624 318.21564Q37.565624 316.09064 37.065624 315.40314Q36.58125 314.7 35.83125 314.7Q35.1125 314.7 34.675 315.3094Q34.128124 316.09064 34.128124 318.21564Z" fill-rule="nonzero"/><path fill="#000000" d="M33.05 231.35556L34.159374 231.26181Q34.284374 232.07431 34.721874 232.48056Q35.175 232.88681 35.815624 232.88681Q36.565624 232.88681 37.096874 232.30869Q37.628124 231.73056 37.628124 230.79306Q37.628124 229.88681 37.1125 229.37119Q36.6125 228.83994 35.784374 228.83994Q35.284374 228.83994 34.8625 229.07431Q34.45625 229.30869 34.221874 229.66806L33.2375 229.54306L34.065624 225.13681L38.346874 225.13681L38.346874 226.13681L34.909374 226.13681L34.45625 228.44931Q35.221874 227.90244 36.065624 227.90244Q37.190624 227.90244 37.95625 228.68369Q38.7375 229.46494 38.7375 230.69931Q38.7375 231.85556 38.065624 232.71494Q37.2375 233.74619 35.815624 233.74619Q34.64375 233.74619 33.89375 233.08994Q33.159374 232.43369 33.05 231.35556Z" fill-rule="nonzero"/><path fill="#000000" d="M30.01875 144.76111L28.971874 144.76111L28.971874 138.04236Q28.58125 138.40173 27.95625 138.77673Q27.346874 139.13611 26.8625 139.30798L26.8625 138.29236Q27.7375 137.87048 28.39375 137.29236Q29.065624 136.69861 29.346874 136.13611L30.01875 136.13611L30.01875 144.76111ZM33.05 140.52673Q33.05 138.99548 33.3625 138.07361Q33.675 137.13611 34.284374 136.63611Q34.909374 136.13611 35.846874 136.13611Q36.534374 136.13611 37.05 136.41736Q37.58125 136.69861 37.925 137.22986Q38.26875 137.74548 38.45625 138.49548Q38.64375 139.24548 38.64375 140.52673Q38.64375 142.04236 38.33125 142.96423Q38.034374 143.88611 37.409374 144.40173Q36.8 144.90173 35.846874 144.90173Q34.6125 144.90173 33.89375 144.01111Q33.05 142.94861 33.05 140.52673ZM34.128124 140.52673Q34.128124 142.63611 34.628124 143.33923Q35.128124 144.04236 35.846874 144.04236Q36.58125 144.04236 37.065624 143.33923Q37.565624 142.63611 37.565624 140.52673Q37.565624 138.40173 37.065624 137.71423Q36.58125 137.01111 35.83125 137.01111Q35.1125 137.01111 34.675 137.62048Q34.128124 138.40173 34.128124 140.52673Z" fill-rule="nonzero"/><path fill="#000000" d="M30.01875 55.916668L28.971874 55.916668L28.971874 49.197918Q28.58125 49.557293 27.95625 49.932293Q27.346874 50.291668 26.8625 50.463543L26.8625 49.447918Q27.7375 49.026043 28.39375 48.447918Q29.065624 47.854168 29.346874 47.291668L30.01875 47.291668L30.01875 55.916668ZM33.05 53.666668L34.159374 53.572918Q34.284374 54.385418 34.721874 54.791668Q35.175 55.197918 35.815624 55.197918Q36.565624 55.197918 37.096874 54.619793Q37.628124 54.041668 37.628124 53.104168Q37.628124 52.197918 37.1125 51.682293Q36.6125 51.151043 35.784374 51.151043Q35.284374 51.151043 34.8625 51.385418Q34.45625 51.619793 34.221874 51.979168L33.2375 51.854168L34.065624 47.447918L38.346874 47.447918L38.346874 48.447918L34.909374 48.447918L34.45625 50.760418Q35.221874 50.213543 36.065624 50.213543Q37.190624 50.213543 37.95625 50.994793Q38.7375 51.776043 38.7375 53.010418Q38.7375 54.166668 38.065624 55.026043Q37.2375 56.057293 35.815624 56.057293Q34.64375 56.057293 33.89375 55.401043Q33.159374 54.744793 33.05 53.666668Z" fill-rule="nonzero"/><path fill="#000000" d="M64.921875 335.45L64.921875 326.85626L68.171875 326.85626Q69.015625 326.85626 69.46875 326.9344Q70.109375 327.04376 70.53125 327.34064Q70.96875 327.6375 71.21875 328.16876Q71.484375 328.7 71.484375 329.34064Q71.484375 330.4344 70.78125 331.2Q70.09375 331.95 68.265625 331.95L66.0625 331.95L66.0625 335.45L64.921875 335.45ZM66.0625 330.95L68.28125 330.95Q69.390625 330.95 69.84375 330.54376Q70.3125 330.1219 70.3125 329.3719Q70.3125 328.84064 70.03125 328.46564Q69.765625 328.075 69.328125 327.95Q69.03125 327.8719 68.265625 327.8719L66.0625 327.8719L66.0625 330.95ZM72.75 337.84064L72.625 336.85626Q72.96875 336.95 73.234375 336.95Q73.578125 336.95 73.78125 336.825Q74.0 336.71564 74.140625 336.5125Q74.234375 336.34064 74.46875 335.71564Q74.484375 335.6375 74.5625 335.46564L72.1875 329.23126L73.328125 329.23126L74.625 332.825Q74.875 333.5125 75.078125 334.27814Q75.265625 333.54376 75.515625 332.85626L76.84375 329.23126L77.890625 329.23126L75.53125 335.5594Q75.140625 336.575 74.9375 336.96564Q74.65625 337.4969 74.28125 337.73126Q73.921875 337.98126 73.421875 337.98126Q73.125 337.98126 72.75 337.84064ZM80.09375 334.5125L80.25 335.4344Q79.796875 335.52814 79.453125 335.52814Q78.875 335.52814 78.5625 335.35626Q78.25 335.16876 78.109375 334.8719Q77.984375 334.575 77.984375 333.6219L77.984375 330.04376L77.21875 330.04376L77.21875 329.23126L77.984375 329.23126L77.984375 327.6844L79.03125 327.0594L79.03125 329.23126L80.09375 329.23126L80.09375 330.04376L79.03125 330.04376L79.03125 333.6844Q79.03125 334.1375 79.078125 334.2625Q79.140625 334.3875 79.265625 334.46564Q79.390625 334.54376 79.625 334.54376Q79.8125 334.54376 80.09375 334.5125ZM80.796875 335.45L80.796875 326.85626L81.84375 326.85626L81.84375 329.9344Q82.578125 329.09064 83.703125 329.09064Q84.40625 329.09064 84.90625 329.3719Q85.421875 329.6375 85.640625 330.1219Q85.859375 330.59064 85.859375 331.5125L85.859375 335.45L84.8125 335.45L84.8125 331.5125Q84.8125 330.71564 84.46875 330.35626Q84.125 329.9969 83.5 329.9969Q83.03125 329.9969 82.609375 330.2469Q82.203125 330.48126 82.015625 330.90314Q81.84375 331.3094 81.84375 332.04376L81.84375 335.45L80.796875 335.45ZM87.796875 328.075L87.796875 326.85626L88.859375 326.85626L88.859375 328.075L87.796875 328.075ZM87.796875 335.45L87.796875 329.23126L88.859375 329.23126L88.859375 335.45L87.796875 335.45ZM94.859375 334.6844Q94.265625 335.1844 93.71875 335.3875Q93.1875 335.59064 92.5625 335.59064Q91.53125 335.59064 90.984375 335.09064Q90.4375 334.59064 90.4375 333.8094Q90.4375 333.35626 90.640625 332.98126Q90.84375 332.59064 91.1875 332.3719Q91.53125 332.1375 91.953125 332.02814Q92.25 331.9344 92.890625 331.85626Q94.15625 331.71564 94.765625 331.4969Q94.765625 331.27814 94.765625 331.23126Q94.765625 330.575 94.46875 330.3094Q94.0625 329.96564 93.265625 329.96564Q92.53125 329.96564 92.171875 330.23126Q91.8125 330.48126 91.640625 331.1375L90.609375 330.9969Q90.75 330.34064 91.078125 329.9344Q91.40625 329.52814 92.015625 329.3094Q92.625 329.09064 93.421875 329.09064Q94.21875 329.09064 94.71875 329.27814Q95.21875 329.46564 95.453125 329.7469Q95.6875 330.02814 95.78125 330.46564Q95.828125 330.73126 95.828125 331.4344L95.828125 332.84064Q95.828125 334.3094 95.890625 334.7Q95.96875 335.09064 96.171875 335.45L95.0625 335.45Q94.90625 335.1219 94.859375 334.6844ZM94.765625 332.325Q94.1875 332.5594 93.046875 332.73126Q92.390625 332.825 92.125 332.95Q91.859375 333.0594 91.703125 333.27814Q91.5625 333.4969 91.5625 333.77814Q91.5625 334.2 91.875 334.48126Q92.203125 334.7625 92.8125 334.7625Q93.421875 334.7625 93.890625 334.4969Q94.375 334.23126 94.59375 333.7625Q94.765625 333.40314 94.765625 332.71564L94.765625 332.325Z" fill-rule="nonzero"/><path fill="#000000" d="M72.46875 349.45L71.421875 349.45L71.421875 342.73126Q71.03125 343.09064 70.40625 343.46564Q69.796875 343.825 69.3125 343.9969L69.3125 342.98126Q70.1875 342.5594 70.84375 341.98126Q71.515625 341.3875 71.796875 340.825L72.46875 340.825L72.46875 349.45ZM78.875 349.45L78.875 347.3875L75.15625 347.3875L75.15625 346.41876L79.078125 340.85626L79.9375 340.85626L79.9375 346.41876L81.09375 346.41876L81.09375 347.3875L79.9375 347.3875L79.9375 349.45L78.875 349.45ZM78.875 346.41876L78.875 342.5594L76.1875 346.41876L78.875 346.41876ZM82.796875 349.45L82.796875 343.23126L83.734375 343.23126L83.734375 344.10626Q84.03125 343.6375 84.515625 343.3719Q85.0 343.09064 85.625 343.09064Q86.3125 343.09064 86.75 343.3719Q87.203125 343.65314 87.375 344.16876Q88.125 343.09064 89.296875 343.09064Q90.234375 343.09064 90.71875 343.60626Q91.21875 344.10626 91.21875 345.1844L91.21875 349.45L90.171875 349.45L90.171875 345.52814Q90.171875 344.90314 90.0625 344.6219Q89.96875 344.34064 89.703125 344.16876Q89.4375 343.9969 89.0625 343.9969Q88.40625 343.9969 87.96875 344.4344Q87.546875 344.8719 87.546875 345.84064L87.546875 349.45L86.484375 349.45L86.484375 345.40314Q86.484375 344.7 86.21875 344.35626Q85.96875 343.9969 85.390625 343.9969Q84.9375 343.9969 84.5625 344.23126Q84.1875 344.46564 84.015625 344.91876Q83.84375 345.3719 83.84375 346.21564L83.84375 349.45L82.796875 349.45Z" fill-rule="nonzero"/><path fill="#000000" d="M116.69965 335.45L116.69965 326.85626L119.94965 326.85626Q120.7934 326.85626 121.24653 326.9344Q121.88715 327.04376 122.30903 327.34064Q122.74653 327.6375 122.99653 328.16876Q123.26215 328.7 123.26215 329.34064Q123.26215 330.4344 122.55903 331.2Q121.87153 331.95 120.0434 331.95L117.84028 331.95L117.84028 335.45L116.69965 335.45ZM117.84028 330.95L120.05903 330.95Q121.1684 330.95 121.62153 330.54376Q122.09028 330.1219 122.09028 329.3719Q122.09028 328.84064 121.80903 328.46564Q121.5434 328.075 121.1059 327.95Q120.80903 327.8719 120.0434 327.8719L117.84028 327.8719L117.84028 330.95ZM124.52778 337.84064L124.40278 336.85626Q124.74653 336.95 125.01215 336.95Q125.3559 336.95 125.55903 336.825Q125.77778 336.71564 125.9184 336.5125Q126.01215 336.34064 126.24653 335.71564Q126.26215 335.6375 126.34028 335.46564L123.96528 329.23126L125.1059 329.23126L126.40278 332.825Q126.65278 333.5125 126.8559 334.27814Q127.0434 333.54376 127.2934 332.85626L128.62152 329.23126L129.6684 329.23126L127.30903 335.5594Q126.9184 336.575 126.71528 336.96564Q126.43403 337.4969 126.05903 337.73126Q125.69965 337.98126 125.19965 337.98126Q124.90278 337.98126 124.52778 337.84064ZM131.87152 334.5125L132.02777 335.4344Q131.57465 335.52814 131.2309 335.52814Q130.65277 335.52814 130.34027 335.35626Q130.02777 335.16876 129.88715 334.8719Q129.76215 334.575 129.76215 333.6219L129.76215 330.04376L128.99652 330.04376L128.99652 329.23126L129.76215 329.23126L129.76215 327.6844L130.80902 327.0594L130.80902 329.23126L131.87152 329.23126L131.87152 330.04376L130.80902 330.04376L130.80902 333.6844Q130.80902 334.1375 130.8559 334.2625Q130.9184 334.3875 131.0434 334.46564Q131.1684 334.54376 131.40277 334.54376Q131.59027 334.54376 131.87152 334.5125ZM132.57465 335.45L132.57465 326.85626L133.62152 326.85626L133.62152 329.9344Q134.3559 329.09064 135.4809 329.09064Q136.18402 329.09064 136.68402 329.3719Q137.19965 329.6375 137.4184 330.1219Q137.63715 330.59064 137.63715 331.5125L137.63715 335.45L136.59027 335.45L136.59027 331.5125Q136.59027 330.71564 136.24652 330.35626Q135.90277 329.9969 135.27777 329.9969Q134.80902 329.9969 134.38715 330.2469Q133.9809 330.48126 133.7934 330.90314Q133.62152 331.3094 133.62152 332.04376L133.62152 335.45L132.57465 335.45ZM139.57465 328.075L139.57465 326.85626L140.63715 326.85626L140.63715 328.075L139.57465 328.075ZM139.57465 335.45L139.57465 329.23126L140.63715 329.23126L140.63715 335.45L139.57465 335.45ZM146.63715 334.6844Q146.0434 335.1844 145.49652 335.3875Q144.96527 335.59064 144.34027 335.59064Q143.30902 335.59064 142.76215 335.09064Q142.21527 334.59064 142.21527 333.8094Q142.21527 333.35626 142.4184 332.98126Q142.62152 332.59064 142.96527 332.3719Q143.30902 332.1375 143.7309 332.02814Q144.02777 331.9344 144.6684 331.85626Q145.93402 331.71564 146.5434 331.4969Q146.5434 331.27814 146.5434 331.23126Q146.5434 330.575 146.24652 330.3094Q145.84027 329.96564 145.0434 329.96564Q144.30902 329.96564 143.94965 330.23126Q143.59027 330.48126 143.4184 331.1375L142.38715 330.9969Q142.52777 330.34064 142.8559 329.9344Q143.18402 329.52814 143.7934 329.3094Q144.40277 329.09064 145.19965 329.09064Q145.99652 329.09064 146.49652 329.27814Q146.99652 329.46564 147.2309 329.7469Q147.46527 330.02814 147.55902 330.46564Q147.6059 330.73126 147.6059 331.4344L147.6059 332.84064Q147.6059 334.3094 147.6684 334.7Q147.74652 335.09064 147.94965 335.45L146.84027 335.45Q146.68402 335.1219 146.63715 334.6844ZM146.5434 332.325Q145.96527 332.5594 144.82465 332.73126Q144.1684 332.825 143.90277 332.95Q143.63715 333.0594 143.4809 333.27814Q143.34027 333.4969 143.34027 333.77814Q143.34027 334.2 143.65277 334.48126Q143.9809 334.7625 144.59027 334.7625Q145.19965 334.7625 145.6684 334.4969Q146.15277 334.23126 146.37152 333.7625Q146.5434 333.40314 146.5434 332.71564L146.5434 332.325Z" fill-rule="nonzero"/><path fill="#000000" d="M120.27778 347.1844L121.34028 347.04376Q121.51215 347.9344 121.94965 348.34064Q122.38715 348.73126 123.01215 348.73126Q123.76215 348.73126 124.27778 348.21564Q124.7934 347.7 124.7934 346.9344Q124.7934 346.21564 124.30903 345.7469Q123.84028 345.2625 123.1059 345.2625Q122.80903 345.2625 122.3559 345.3875L122.4809 344.45Q122.59028 344.46564 122.65278 344.46564Q123.32465 344.46564 123.8559 344.1219Q124.40278 343.7625 124.40278 343.02814Q124.40278 342.45 124.01215 342.075Q123.62153 341.6844 122.99653 341.6844Q122.38715 341.6844 121.96528 342.075Q121.55903 342.46564 121.44965 343.23126L120.38715 343.04376Q120.57465 341.9969 121.26215 341.41876Q121.94965 340.825 122.96528 340.825Q123.6684 340.825 124.26215 341.1375Q124.8559 341.4344 125.1684 341.95Q125.4809 342.46564 125.4809 343.0594Q125.4809 343.60626 125.18403 344.075Q124.88715 344.52814 124.30903 344.79376Q125.05903 344.96564 125.4809 345.52814Q125.90278 346.075 125.90278 346.91876Q125.90278 348.04376 125.07465 348.825Q124.26215 349.60626 123.01215 349.60626Q121.88715 349.60626 121.13715 348.9344Q120.38715 348.2469 120.27778 347.1844ZM131.24652 349.45L130.19965 349.45L130.19965 342.73126Q129.80902 343.09064 129.18402 343.46564Q128.57465 343.825 128.09027 343.9969L128.09027 342.98126Q128.96527 342.5594 129.62152 341.98126Q130.2934 341.3875 130.57465 340.825L131.24652 340.825L131.24652 349.45ZM134.57465 349.45L134.57465 343.23126L135.51215 343.23126L135.51215 344.10626Q135.80902 343.6375 136.2934 343.3719Q136.77777 343.09064 137.40277 343.09064Q138.09027 343.09064 138.52777 343.3719Q138.9809 343.65314 139.15277 344.16876Q139.90277 343.09064 141.07465 343.09064Q142.01215 343.09064 142.49652 343.60626Q142.99652 344.10626 142.99652 345.1844L142.99652 349.45L141.94965 349.45L141.94965 345.52814Q141.94965 344.90314 141.84027 344.6219Q141.74652 344.34064 141.4809 344.16876Q141.21527 343.9969 140.84027 343.9969Q140.18402 343.9969 139.74652 344.4344Q139.32465 344.8719 139.32465 345.84064L139.32465 349.45L138.26215 349.45L138.26215 345.40314Q138.26215 344.7 137.99652 344.35626Q137.74652 343.9969 137.1684 343.9969Q136.71527 343.9969 136.34027 344.23126Q135.96527 344.46564 135.7934 344.91876Q135.62152 345.3719 135.62152 346.21564L135.62152 349.45L134.57465 349.45Z" fill-rule="nonzero"/><path fill="#000000" d="M168.47743 335.45L168.47743 326.85626L171.72743 326.85626Q172.57118 326.85626 173.0243 326.9344Q173.66493 327.04376 174.0868 327.34064Q174.5243 327.6375 174.7743 328.16876Q175.03993 328.7 175.03993 329.34064Q175.03993 330.4344 174.3368 331.2Q173.6493 331.95 171.82118 331.95L169.61806 331.95L169.61806 335.45L168.47743 335.45ZM169.61806 330.95L171.8368 330.95Q172.94618 330.95 173.3993 330.54376Q173.86806 330.1219 173.86806 329.3719Q173.86806 328.84064 173.5868 328.46564Q173.32118 328.075 172.88368 327.95Q172.5868 327.8719 171.82118 327.8719L169.61806 327.8719L169.61806 330.95ZM176.30556 337.84064L176.18056 336.85626Q176.5243 336.95 176.78993 336.95Q177.13368 336.95 177.3368 336.825Q177.55556 336.71564 177.69618 336.5125Q177.78993 336.34064 178.0243 335.71564Q178.03993 335.6375 178.11806 335.46564L175.74306 329.23126L176.88368 329.23126L178.18056 332.825Q178.43056 333.5125 178.63368 334.27814Q178.82118 333.54376 179.07118 332.85626L180.3993 329.23126L181.44618 329.23126L179.0868 335.5594Q178.69618 336.575 178.49306 336.96564Q178.2118 337.4969 177.8368 337.73126Q177.47743 337.98126 176.97743 337.98126Q176.68056 337.98126 176.30556 337.84064ZM183.6493 334.5125L183.80556 335.4344Q183.35243 335.52814 183.00868 335.52814Q182.43056 335.52814 182.11806 335.35626Q181.80556 335.16876 181.66493 334.8719Q181.53993 334.575 181.53993 333.6219L181.53993 330.04376L180.7743 330.04376L180.7743 329.23126L181.53993 329.23126L181.53993 327.6844L182.5868 327.0594L182.5868 329.23126L183.6493 329.23126L183.6493 330.04376L182.5868 330.04376L182.5868 333.6844Q182.5868 334.1375 182.63368 334.2625Q182.69618 334.3875 182.82118 334.46564Q182.94618 334.54376 183.18056 334.54376Q183.36806 334.54376 183.6493 334.5125ZM184.35243 335.45L184.35243 326.85626L185.3993 326.85626L185.3993 329.9344Q186.13368 329.09064 187.25868 329.09064Q187.9618 329.09064 188.4618 329.3719Q188.97743 329.6375 189.19618 330.1219Q189.41493 330.59064 189.41493 331.5125L189.41493 335.45L188.36806 335.45L188.36806 331.5125Q188.36806 330.71564 188.0243 330.35626Q187.68056 329.9969 187.05556 329.9969Q186.5868 329.9969 186.16493 330.2469Q185.75868 330.48126 185.57118 330.90314Q185.3993 331.3094 185.3993 332.04376L185.3993 335.45L184.35243 335.45ZM191.35243 328.075L191.35243 326.85626L192.41493 326.85626L192.41493 328.075L191.35243 328.075ZM191.35243 335.45L191.35243 329.23126L192.41493 329.23126L192.41493 335.45L191.35243 335.45ZM198.41493 334.6844Q197.82118 335.1844 197.2743 335.3875Q196.74306 335.59064 196.11806 335.59064Q195.0868 335.59064 194.53993 335.09064Q193.99306 334.59064 193.99306 333.8094Q193.99306 333.35626 194.19618 332.98126Q194.3993 332.59064 194.74306 332.3719Q195.0868 332.1375 195.50868 332.02814Q195.80556 331.9344 196.44618 331.85626Q197.7118 331.71564 198.32118 331.4969Q198.32118 331.27814 198.32118 331.23126Q198.32118 330.575 198.0243 330.3094Q197.61806 329.96564 196.82118 329.96564Q196.0868 329.96564 195.72743 330.23126Q195.36806 330.48126 195.19618 331.1375L194.16493 330.9969Q194.30556 330.34064 194.63368 329.9344Q194.9618 329.52814 195.57118 329.3094Q196.18056 329.09064 196.97743 329.09064Q197.7743 329.09064 198.2743 329.27814Q198.7743 329.46564 199.00868 329.7469Q199.24306 330.02814 199.3368 330.46564Q199.38368 330.73126 199.38368 331.4344L199.38368 332.84064Q199.38368 334.3094 199.44618 334.7Q199.5243 335.09064 199.72743 335.45L198.61806 335.45Q198.4618 335.1219 198.41493 334.6844ZM198.32118 332.325Q197.74306 332.5594 196.60243 332.73126Q195.94618 332.825 195.68056 332.95Q195.41493 333.0594 195.25868 333.27814Q195.11806 333.4969 195.11806 333.77814Q195.11806 334.2 195.43056 334.48126Q195.75868 334.7625 196.36806 334.7625Q196.97743 334.7625 197.44618 334.4969Q197.93056 334.23126 198.1493 333.7625Q198.32118 333.40314 198.32118 332.71564L198.32118 332.325Z" fill-rule="nonzero"/><path fill="#000000" d="M172.11806 341.98126L172.11806 340.96564L177.68056 340.96564L177.68056 341.79376Q176.86806 342.66876 176.05556 344.1219Q175.25868 345.5594 174.82118 347.09064Q174.49306 348.16876 174.41493 349.45L173.32118 349.45Q173.3368 348.4344 173.7118 346.9969Q174.10243 345.5594 174.80556 344.23126Q175.5243 342.90314 176.3368 341.98126L172.11806 341.98126ZM179.05556 345.21564Q179.05556 343.6844 179.36806 342.7625Q179.68056 341.825 180.28993 341.325Q180.91493 340.825 181.85243 340.825Q182.53993 340.825 183.05556 341.10626Q183.5868 341.3875 183.93056 341.91876Q184.2743 342.4344 184.4618 343.1844Q184.6493 343.9344 184.6493 345.21564Q184.6493 346.73126 184.3368 347.65314Q184.03993 348.575 183.41493 349.09064Q182.80556 349.59064 181.85243 349.59064Q180.61806 349.59064 179.8993 348.7Q179.05556 347.6375 179.05556 345.21564ZM180.13368 345.21564Q180.13368 347.325 180.63368 348.02814Q181.13368 348.73126 181.85243 348.73126Q182.5868 348.73126 183.07118 348.02814Q183.57118 347.325 183.57118 345.21564Q183.57118 343.09064 183.07118 342.40314Q182.5868 341.7 181.8368 341.7Q181.11806 341.7 180.68056 342.3094Q180.13368 343.09064 180.13368 345.21564ZM186.35243 349.45L186.35243 343.23126L187.28993 343.23126L187.28993 344.10626Q187.5868 343.6375 188.07118 343.3719Q188.55556 343.09064 189.18056 343.09064Q189.86806 343.09064 190.30556 343.3719Q190.75868 343.65314 190.93056 344.16876Q191.68056 343.09064 192.85243 343.09064Q193.78993 343.09064 194.2743 343.60626Q194.7743 344.10626 194.7743 345.1844L194.7743 349.45L193.72743 349.45L193.72743 345.52814Q193.72743 344.90314 193.61806 344.6219Q193.5243 344.34064 193.25868 344.16876Q192.99306 343.9969 192.61806 343.9969Q191.9618 343.9969 191.5243 344.4344Q191.10243 344.8719 191.10243 345.84064L191.10243 349.45L190.03993 349.45L190.03993 345.40314Q190.03993 344.7 189.7743 344.35626Q189.5243 343.9969 188.94618 343.9969Q188.49306 343.9969 188.11806 344.23126Q187.74306 344.46564 187.57118 344.91876Q187.3993 345.3719 187.3993 346.21564L187.3993 349.45L186.35243 349.45Z" fill-rule="nonzero"/><path fill="#000000" d="M220.2552 335.45L220.2552 326.85626L223.5052 326.85626Q224.34895 326.85626 224.80208 326.9344Q225.4427 327.04376 225.86458 327.34064Q226.30208 327.6375 226.55208 328.16876Q226.8177 328.7 226.8177 329.34064Q226.8177 330.4344 226.11458 331.2Q225.42708 331.95 223.59895 331.95L221.39583 331.95L221.39583 335.45L220.2552 335.45ZM221.39583 330.95L223.61458 330.95Q224.72395 330.95 225.17708 330.54376Q225.64583 330.1219 225.64583 329.3719Q225.64583 328.84064 225.36458 328.46564Q225.09895 328.075 224.66145 327.95Q224.36458 327.8719 223.59895 327.8719L221.39583 327.8719L221.39583 330.95ZM228.08333 337.84064L227.95833 336.85626Q228.30208 336.95 228.5677 336.95Q228.91145 336.95 229.11458 336.825Q229.33333 336.71564 229.47395 336.5125Q229.5677 336.34064 229.80208 335.71564Q229.8177 335.6375 229.89583 335.46564L227.52083 329.23126L228.66145 329.23126L229.95833 332.825Q230.20833 333.5125 230.41145 334.27814Q230.59895 333.54376 230.84895 332.85626L232.17708 329.23126L233.22395 329.23126L230.86458 335.5594Q230.47395 336.575 230.27083 336.96564Q229.98958 337.4969 229.61458 337.73126Q229.2552 337.98126 228.7552 337.98126Q228.45833 337.98126 228.08333 337.84064ZM235.42708 334.5125L235.58333 335.4344Q235.1302 335.52814 234.78645 335.52814Q234.20833 335.52814 233.89583 335.35626Q233.58333 335.16876 233.4427 334.8719Q233.3177 334.575 233.3177 333.6219L233.3177 330.04376L232.55208 330.04376L232.55208 329.23126L233.3177 329.23126L233.3177 327.6844L234.36458 327.0594L234.36458 329.23126L235.42708 329.23126L235.42708 330.04376L234.36458 330.04376L234.36458 333.6844Q234.36458 334.1375 234.41145 334.2625Q234.47395 334.3875 234.59895 334.46564Q234.72395 334.54376 234.95833 334.54376Q235.14583 334.54376 235.42708 334.5125ZM236.1302 335.45L236.1302 326.85626L237.17708 326.85626L237.17708 329.9344Q237.91145 329.09064 239.03645 329.09064Q239.73958 329.09064 240.23958 329.3719Q240.7552 329.6375 240.97395 330.1219Q241.1927 330.59064 241.1927 331.5125L241.1927 335.45L240.14583 335.45L240.14583 331.5125Q240.14583 330.71564 239.80208 330.35626Q239.45833 329.9969 238.83333 329.9969Q238.36458 329.9969 237.9427 330.2469Q237.53645 330.48126 237.34895 330.90314Q237.17708 331.3094 237.17708 332.04376L237.17708 335.45L236.1302 335.45ZM243.1302 328.075L243.1302 326.85626L244.1927 326.85626L244.1927 328.075L243.1302 328.075ZM243.1302 335.45L243.1302 329.23126L244.1927 329.23126L244.1927 335.45L243.1302 335.45ZM250.1927 334.6844Q249.59895 335.1844 249.05208 335.3875Q248.52083 335.59064 247.89583 335.59064Q246.86458 335.59064 246.3177 335.09064Q245.77083 334.59064 245.77083 333.8094Q245.77083 333.35626 245.97395 332.98126Q246.17708 332.59064 246.52083 332.3719Q246.86458 332.1375 247.28645 332.02814Q247.58333 331.9344 248.22395 331.85626Q249.48958 331.71564 250.09895 331.4969Q250.09895 331.27814 250.09895 331.23126Q250.09895 330.575 249.80208 330.3094Q249.39583 329.96564 248.59895 329.96564Q247.86458 329.96564 247.5052 330.23126Q247.14583 330.48126 246.97395 331.1375L245.9427 330.9969Q246.08333 330.34064 246.41145 329.9344Q246.73958 329.52814 247.34895 329.3094Q247.95833 329.09064 248.7552 329.09064Q249.55208 329.09064 250.05208 329.27814Q250.55208 329.46564 250.78645 329.7469Q251.02083 330.02814 251.11458 330.46564Q251.16145 330.73126 251.16145 331.4344L251.16145 332.84064Q251.16145 334.3094 251.22395 334.7Q251.30208 335.09064 251.5052 335.45L250.39583 335.45Q250.23958 335.1219 250.1927 334.6844ZM250.09895 332.325Q249.52083 332.5594 248.3802 332.73126Q247.72395 332.825 247.45833 332.95Q247.1927 333.0594 247.03645 333.27814Q246.89583 333.4969 246.89583 333.77814Q246.89583 334.2 247.20833 334.48126Q247.53645 334.7625 248.14583 334.7625Q248.7552 334.7625 249.22395 334.4969Q249.70833 334.23126 249.92708 333.7625Q250.09895 333.40314 250.09895 332.71564L250.09895 332.325Z" fill-rule="nonzero"/><path fill="#000000" d="M224.30208 349.45L223.2552 349.45L223.2552 342.73126Q222.86458 343.09064 222.23958 343.46564Q221.6302 343.825 221.14583 343.9969L221.14583 342.98126Q222.02083 342.5594 222.67708 341.98126Q223.34895 341.3875 223.6302 340.825L224.30208 340.825L224.30208 349.45ZM232.80208 342.96564L231.7552 343.04376Q231.61458 342.41876 231.36458 342.1375Q230.92708 341.6844 230.30208 341.6844Q229.80208 341.6844 229.41145 341.96564Q228.92708 342.34064 228.6302 343.04376Q228.34895 343.73126 228.33333 345.0125Q228.70833 344.4344 229.2552 344.15314Q229.8177 343.8719 230.42708 343.8719Q231.47395 343.8719 232.20833 344.65314Q232.95833 345.4344 232.95833 346.65314Q232.95833 347.46564 232.59895 348.16876Q232.2552 348.85626 231.64583 349.23126Q231.03645 349.59064 230.27083 349.59064Q228.9427 349.59064 228.11458 348.6219Q227.28645 347.65314 227.28645 345.4344Q227.28645 342.9344 228.20833 341.8094Q229.0052 340.825 230.36458 340.825Q231.3802 340.825 232.02083 341.40314Q232.67708 341.96564 232.80208 342.96564ZM228.5052 346.66876Q228.5052 347.21564 228.72395 347.71564Q228.95833 348.2 229.36458 348.46564Q229.78645 348.73126 230.2552 348.73126Q230.91145 348.73126 231.39583 348.2Q231.8802 347.65314 231.8802 346.73126Q231.8802 345.84064 231.39583 345.325Q230.92708 344.8094 230.20833 344.8094Q229.48958 344.8094 228.98958 345.325Q228.5052 345.84064 228.5052 346.66876ZM234.33333 345.21564Q234.33333 343.6844 234.64583 342.7625Q234.95833 341.825 235.5677 341.325Q236.1927 340.825 237.1302 340.825Q237.8177 340.825 238.33333 341.10626Q238.86458 341.3875 239.20833 341.91876Q239.55208 342.4344 239.73958 343.1844Q239.92708 343.9344 239.92708 345.21564Q239.92708 346.73126 239.61458 347.65314Q239.3177 348.575 238.6927 349.09064Q238.08333 349.59064 237.1302 349.59064Q235.89583 349.59064 235.17708 348.7Q234.33333 347.6375 234.33333 345.21564ZM235.41145 345.21564Q235.41145 347.325 235.91145 348.02814Q236.41145 348.73126 237.1302 348.73126Q237.86458 348.73126 238.34895 348.02814Q238.84895 347.325 238.84895 345.21564Q238.84895 343.09064 238.34895 342.40314Q237.86458 341.7 237.11458 341.7Q236.39583 341.7 235.95833 342.3094Q235.41145 343.09064 235.41145 345.21564ZM241.6302 349.45L241.6302 343.23126L242.5677 343.23126L242.5677 344.10626Q242.86458 343.6375 243.34895 343.3719Q243.83333 343.09064 244.45833 343.09064Q245.14583 343.09064 245.58333 343.3719Q246.03645 343.65314 246.20833 344.16876Q246.95833 343.09064 248.1302 343.09064Q249.0677 343.09064 249.55208 343.60626Q250.05208 344.10626 250.05208 345.1844L250.05208 349.45L249.0052 349.45L249.0052 345.52814Q249.0052 344.90314 248.89583 344.6219Q248.80208 344.34064 248.53645 344.16876Q248.27083 343.9969 247.89583 343.9969Q247.23958 343.9969 246.80208 344.4344Q246.3802 344.8719 246.3802 345.84064L246.3802 349.45L245.3177 349.45L245.3177 345.40314Q245.3177 344.7 245.05208 344.35626Q244.80208 343.9969 244.22395 343.9969Q243.77083 343.9969 243.39583 344.23126Q243.02083 344.46564 242.84895 344.91876Q242.67708 345.3719 242.67708 346.21564L242.67708 349.45L241.6302 349.45Z" fill-rule="nonzero"/><path fill="#000000" d="M272.033 335.45L272.033 326.85626L275.283 326.85626Q276.12674 326.85626 276.57986 326.9344Q277.2205 327.04376 277.64236 327.34064Q278.07986 327.6375 278.32986 328.16876Q278.5955 328.7 278.5955 329.34064Q278.5955 330.4344 277.89236 331.2Q277.20486 331.95 275.37674 331.95L273.1736 331.95L273.1736 335.45L272.033 335.45ZM273.1736 330.95L275.39236 330.95Q276.50174 330.95 276.95486 330.54376Q277.4236 330.1219 277.4236 329.3719Q277.4236 328.84064 277.14236 328.46564Q276.87674 328.075 276.43924 327.95Q276.14236 327.8719 275.37674 327.8719L273.1736 327.8719L273.1736 330.95ZM279.8611 337.84064L279.7361 336.85626Q280.07986 336.95 280.3455 336.95Q280.68924 336.95 280.89236 336.825Q281.1111 336.71564 281.25174 336.5125Q281.3455 336.34064 281.57986 335.71564Q281.5955 335.6375 281.6736 335.46564L279.2986 329.23126L280.43924 329.23126L281.7361 332.825Q281.9861 333.5125 282.18924 334.27814Q282.37674 333.54376 282.62674 332.85626L283.95486 329.23126L285.00174 329.23126L282.64236 335.5594Q282.25174 336.575 282.0486 336.96564Q281.76736 337.4969 281.39236 337.73126Q281.033 337.98126 280.533 337.98126Q280.2361 337.98126 279.8611 337.84064ZM287.20486 334.5125L287.3611 335.4344Q286.908 335.52814 286.56424 335.52814Q285.9861 335.52814 285.6736 335.35626Q285.3611 335.16876 285.2205 334.8719Q285.0955 334.575 285.0955 333.6219L285.0955 330.04376L284.32986 330.04376L284.32986 329.23126L285.0955 329.23126L285.0955 327.6844L286.14236 327.0594L286.14236 329.23126L287.20486 329.23126L287.20486 330.04376L286.14236 330.04376L286.14236 333.6844Q286.14236 334.1375 286.18924 334.2625Q286.25174 334.3875 286.37674 334.46564Q286.50174 334.54376 286.7361 334.54376Q286.9236 334.54376 287.20486 334.5125ZM287.908 335.45L287.908 326.85626L288.95486 326.85626L288.95486 329.9344Q289.68924 329.09064 290.81424 329.09064Q291.51736 329.09064 292.01736 329.3719Q292.533 329.6375 292.75174 330.1219Q292.9705 330.59064 292.9705 331.5125L292.9705 335.45L291.9236 335.45L291.9236 331.5125Q291.9236 330.71564 291.57986 330.35626Q291.2361 329.9969 290.6111 329.9969Q290.14236 329.9969 289.7205 330.2469Q289.31424 330.48126 289.12674 330.90314Q288.95486 331.3094 288.95486 332.04376L288.95486 335.45L287.908 335.45ZM294.908 328.075L294.908 326.85626L295.9705 326.85626L295.9705 328.075L294.908 328.075ZM294.908 335.45L294.908 329.23126L295.9705 329.23126L295.9705 335.45L294.908 335.45ZM301.9705 334.6844Q301.37674 335.1844 300.82986 335.3875Q300.2986 335.59064 299.6736 335.59064Q298.64236 335.59064 298.0955 335.09064Q297.5486 334.59064 297.5486 333.8094Q297.5486 333.35626 297.75174 332.98126Q297.95486 332.59064 298.2986 332.3719Q298.64236 332.1375 299.06424 332.02814Q299.3611 331.9344 300.00174 331.85626Q301.26736 331.71564 301.87674 331.4969Q301.87674 331.27814 301.87674 331.23126Q301.87674 330.575 301.57986 330.3094Q301.1736 329.96564 300.37674 329.96564Q299.64236 329.96564 299.283 330.23126Q298.9236 330.48126 298.75174 331.1375L297.7205 330.9969Q297.8611 330.34064 298.18924 329.9344Q298.51736 329.52814 299.12674 329.3094Q299.7361 329.09064 300.533 329.09064Q301.32986 329.09064 301.82986 329.27814Q302.32986 329.46564 302.56424 329.7469Q302.7986 330.02814 302.89236 330.46564Q302.93924 330.73126 302.93924 331.4344L302.93924 332.84064Q302.93924 334.3094 303.00174 334.7Q303.07986 335.09064 303.283 335.45L302.1736 335.45Q302.01736 335.1219 301.9705 334.6844ZM301.87674 332.325Q301.2986 332.5594 300.158 332.73126Q299.50174 332.825 299.2361 332.95Q298.9705 333.0594 298.81424 333.27814Q298.6736 333.4969 298.6736 333.77814Q298.6736 334.2 298.9861 334.48126Q299.31424 334.7625 299.9236 334.7625Q300.533 334.7625 301.00174 334.4969Q301.4861 334.23126 301.70486 333.7625Q301.87674 333.40314 301.87674 332.71564L301.87674 332.325Z" fill-rule="nonzero"/><path fill="#000000" d="M275.4861 349.45L275.4861 347.3875L271.76736 347.3875L271.76736 346.41876L275.68924 340.85626L276.5486 340.85626L276.5486 346.41876L277.70486 346.41876L277.70486 347.3875L276.5486 347.3875L276.5486 349.45L275.4861 349.45ZM275.4861 346.41876L275.4861 342.5594L272.7986 346.41876L275.4861 346.41876ZM283.07986 349.45L282.033 349.45L282.033 342.73126Q281.64236 343.09064 281.01736 343.46564Q280.408 343.825 279.9236 343.9969L279.9236 342.98126Q280.7986 342.5594 281.45486 341.98126Q282.12674 341.3875 282.408 340.825L283.07986 340.825L283.07986 349.45ZM286.1111 345.21564Q286.1111 343.6844 286.4236 342.7625Q286.7361 341.825 287.3455 341.325Q287.9705 340.825 288.908 340.825Q289.5955 340.825 290.1111 341.10626Q290.64236 341.3875 290.9861 341.91876Q291.32986 342.4344 291.51736 343.1844Q291.70486 343.9344 291.70486 345.21564Q291.70486 346.73126 291.39236 347.65314Q291.0955 348.575 290.4705 349.09064Q289.8611 349.59064 288.908 349.59064Q287.6736 349.59064 286.95486 348.7Q286.1111 347.6375 286.1111 345.21564ZM287.18924 345.21564Q287.18924 347.325 287.68924 348.02814Q288.18924 348.73126 288.908 348.73126Q289.64236 348.73126 290.12674 348.02814Q290.62674 347.325 290.62674 345.21564Q290.62674 343.09064 290.12674 342.40314Q289.64236 341.7 288.89236 341.7Q288.1736 341.7 287.7361 342.3094Q287.18924 343.09064 287.18924 345.21564ZM293.408 349.45L293.408 343.23126L294.3455 343.23126L294.3455 344.10626Q294.64236 343.6375 295.12674 343.3719Q295.6111 343.09064 296.2361 343.09064Q296.9236 343.09064 297.3611 343.3719Q297.81424 343.65314 297.9861 344.16876Q298.7361 343.09064 299.908 343.09064Q300.8455 343.09064 301.32986 343.60626Q301.82986 344.10626 301.82986 345.1844L301.82986 349.45L300.783 349.45L300.783 345.52814Q300.783 344.90314 300.6736 344.6219Q300.57986 344.34064 300.31424 344.16876Q300.0486 343.9969 299.6736 343.9969Q299.01736 343.9969 298.57986 344.4344Q298.158 344.8719 298.158 345.84064L298.158 349.45L297.0955 349.45L297.0955 345.40314Q297.0955 344.7 296.82986 344.35626Q296.57986 343.9969 296.00174 343.9969Q295.5486 343.9969 295.1736 344.23126Q294.7986 344.46564 294.62674 344.91876Q294.45486 345.3719 294.45486 346.21564L294.45486 349.45L293.408 349.45Z" fill-rule="nonzero"/><path fill="#000000" d="M323.81076 335.45L323.81076 326.85626L327.06076 326.85626Q327.9045 326.85626 328.35764 326.9344Q328.99826 327.04376 329.42014 327.34064Q329.85764 327.6375 330.10764 328.16876Q330.37326 328.7 330.37326 329.34064Q330.37326 330.4344 329.67014 331.2Q328.98264 331.95 327.1545 331.95L324.9514 331.95L324.9514 335.45L323.81076 335.45ZM324.9514 330.95L327.17014 330.95Q328.2795 330.95 328.73264 330.54376Q329.2014 330.1219 329.2014 329.3719Q329.2014 328.84064 328.92014 328.46564Q328.6545 328.075 328.217 327.95Q327.92014 327.8719 327.1545 327.8719L324.9514 327.8719L324.9514 330.95ZM331.6389 337.84064L331.5139 336.85626Q331.85764 336.95 332.12326 336.95Q332.467 336.95 332.67014 336.825Q332.8889 336.71564 333.0295 336.5125Q333.12326 336.34064 333.35764 335.71564Q333.37326 335.6375 333.4514 335.46564L331.0764 329.23126L332.217 329.23126L333.5139 332.825Q333.7639 333.5125 333.967 334.27814Q334.1545 333.54376 334.4045 332.85626L335.73264 329.23126L336.7795 329.23126L334.42014 335.5594Q334.0295 336.575 333.8264 336.96564Q333.54514 337.4969 333.17014 337.73126Q332.81076 337.98126 332.31076 337.98126Q332.0139 337.98126 331.6389 337.84064ZM338.98264 334.5125L339.1389 335.4344Q338.68576 335.52814 338.342 335.52814Q337.7639 335.52814 337.4514 335.35626Q337.1389 335.16876 336.99826 334.8719Q336.87326 334.575 336.87326 333.6219L336.87326 330.04376L336.10764 330.04376L336.10764 329.23126L336.87326 329.23126L336.87326 327.6844L337.92014 327.0594L337.92014 329.23126L338.98264 329.23126L338.98264 330.04376L337.92014 330.04376L337.92014 333.6844Q337.92014 334.1375 337.967 334.2625Q338.0295 334.3875 338.1545 334.46564Q338.2795 334.54376 338.5139 334.54376Q338.7014 334.54376 338.98264 334.5125ZM339.68576 335.45L339.68576 326.85626L340.73264 326.85626L340.73264 329.9344Q341.467 329.09064 342.592 329.09064Q343.29514 329.09064 343.79514 329.3719Q344.31076 329.6375 344.5295 330.1219Q344.74826 330.59064 344.74826 331.5125L344.74826 335.45L343.7014 335.45L343.7014 331.5125Q343.7014 330.71564 343.35764 330.35626Q343.0139 329.9969 342.3889 329.9969Q341.92014 329.9969 341.49826 330.2469Q341.092 330.48126 340.9045 330.90314Q340.73264 331.3094 340.73264 332.04376L340.73264 335.45L339.68576 335.45ZM346.68576 328.075L346.68576 326.85626L347.74826 326.85626L347.74826 328.075L346.68576 328.075ZM346.68576 335.45L346.68576 329.23126L347.74826 329.23126L347.74826 335.45L346.68576 335.45ZM353.74826 334.6844Q353.1545 335.1844 352.60764 335.3875Q352.0764 335.59064 351.4514 335.59064Q350.42014 335.59064 349.87326 335.09064Q349.3264 334.59064 349.3264 333.8094Q349.3264 333.35626 349.5295 332.98126Q349.73264 332.59064 350.0764 332.3719Q350.42014 332.1375 350.842 332.02814Q351.1389 331.9344 351.7795 331.85626Q353.04514 331.71564 353.6545 331.4969Q353.6545 331.27814 353.6545 331.23126Q353.6545 330.575 353.35764 330.3094Q352.9514 329.96564 352.1545 329.96564Q351.42014 329.96564 351.06076 330.23126Q350.7014 330.48126 350.5295 331.1375L349.49826 330.9969Q349.6389 330.34064 349.967 329.9344Q350.29514 329.52814 350.9045 329.3094Q351.5139 329.09064 352.31076 329.09064Q353.10764 329.09064 353.60764 329.27814Q354.10764 329.46564 354.342 329.7469Q354.5764 330.02814 354.67014 330.46564Q354.717 330.73126 354.717 331.4344L354.717 332.84064Q354.717 334.3094 354.7795 334.7Q354.85764 335.09064 355.06076 335.45L353.9514 335.45Q353.79514 335.1219 353.74826 334.6844ZM353.6545 332.325Q353.0764 332.5594 351.93576 332.73126Q351.2795 332.825 351.0139 332.95Q350.74826 333.0594 350.592 333.27814Q350.4514 333.4969 350.4514 333.77814Q350.4514 334.2 350.7639 334.48126Q351.092 334.7625 351.7014 334.7625Q352.31076 334.7625 352.7795 334.4969Q353.2639 334.23126 353.48264 333.7625Q353.6545 333.40314 353.6545 332.71564L353.6545 332.325Z" fill-rule="nonzero"/><path fill="#000000" d="M336.85764 349.45L335.81076 349.45L335.81076 342.73126Q335.42014 343.09064 334.79514 343.46564Q334.18576 343.825 333.7014 343.9969L333.7014 342.98126Q334.5764 342.5594 335.23264 341.98126Q335.9045 341.3875 336.18576 340.825L336.85764 340.825L336.85764 349.45ZM341.1545 349.45L340.17014 349.45L340.17014 340.85626L341.23264 340.85626L341.23264 343.91876Q341.9045 343.09064 342.93576 343.09064Q343.5139 343.09064 344.0139 343.325Q344.5295 343.54376 344.85764 343.96564Q345.2014 344.3875 345.3889 344.98126Q345.5764 345.575 345.5764 346.2469Q345.5764 347.84064 344.7795 348.71564Q343.98264 349.59064 342.8889 349.59064Q341.7795 349.59064 341.1545 348.66876L341.1545 349.45ZM341.1389 346.29376Q341.1389 347.40314 341.4514 347.90314Q341.9514 348.71564 342.79514 348.71564Q343.48264 348.71564 343.98264 348.1219Q344.49826 347.52814 344.49826 346.325Q344.49826 345.10626 344.0139 344.52814Q343.5295 343.95 342.842 343.95Q342.1545 343.95 341.6389 344.5594Q341.1389 345.15314 341.1389 346.29376Z" fill-rule="nonzero"/><path fill="#000000" d="M375.58853 335.45L375.58853 326.85626L378.83853 326.85626Q379.68228 326.85626 380.1354 326.9344Q380.77603 327.04376 381.1979 327.34064Q381.6354 327.6375 381.8854 328.16876Q382.15103 328.7 382.15103 329.34064Q382.15103 330.4344 381.4479 331.2Q380.7604 331.95 378.93228 331.95L376.72916 331.95L376.72916 335.45L375.58853 335.45ZM376.72916 330.95L378.9479 330.95Q380.05728 330.95 380.5104 330.54376Q380.97916 330.1219 380.97916 329.3719Q380.97916 328.84064 380.6979 328.46564Q380.43228 328.075 379.99478 327.95Q379.6979 327.8719 378.93228 327.8719L376.72916 327.8719L376.72916 330.95ZM383.41666 337.84064L383.29166 336.85626Q383.6354 336.95 383.90103 336.95Q384.24478 336.95 384.4479 336.825Q384.66666 336.71564 384.80728 336.5125Q384.90103 336.34064 385.1354 335.71564Q385.15103 335.6375 385.22916 335.46564L382.85416 329.23126L383.99478 329.23126L385.29166 332.825Q385.54166 333.5125 385.74478 334.27814Q385.93228 333.54376 386.18228 332.85626L387.5104 329.23126L388.55728 329.23126L386.1979 335.5594Q385.80728 336.575 385.60416 336.96564Q385.3229 337.4969 384.9479 337.73126Q384.58853 337.98126 384.08853 337.98126Q383.79166 337.98126 383.41666 337.84064ZM390.7604 334.5125L390.91666 335.4344Q390.46353 335.52814 390.11978 335.52814Q389.54166 335.52814 389.22916 335.35626Q388.91666 335.16876 388.77603 334.8719Q388.65103 334.575 388.65103 333.6219L388.65103 330.04376L387.8854 330.04376L387.8854 329.23126L388.65103 329.23126L388.65103 327.6844L389.6979 327.0594L389.6979 329.23126L390.7604 329.23126L390.7604 330.04376L389.6979 330.04376L389.6979 333.6844Q389.6979 334.1375 389.74478 334.2625Q389.80728 334.3875 389.93228 334.46564Q390.05728 334.54376 390.29166 334.54376Q390.47916 334.54376 390.7604 334.5125ZM391.46353 335.45L391.46353 326.85626L392.5104 326.85626L392.5104 329.9344Q393.24478 329.09064 394.36978 329.09064Q395.0729 329.09064 395.5729 329.3719Q396.08853 329.6375 396.30728 330.1219Q396.52603 330.59064 396.52603 331.5125L396.52603 335.45L395.47916 335.45L395.47916 331.5125Q395.47916 330.71564 395.1354 330.35626Q394.79166 329.9969 394.16666 329.9969Q393.6979 329.9969 393.27603 330.2469Q392.86978 330.48126 392.68228 330.90314Q392.5104 331.3094 392.5104 332.04376L392.5104 335.45L391.46353 335.45ZM398.46353 328.075L398.46353 326.85626L399.52603 326.85626L399.52603 328.075L398.46353 328.075ZM398.46353 335.45L398.46353 329.23126L399.52603 329.23126L399.52603 335.45L398.46353 335.45ZM405.52603 334.6844Q404.93228 335.1844 404.3854 335.3875Q403.85416 335.59064 403.22916 335.59064Q402.1979 335.59064 401.65103 335.09064Q401.10416 334.59064 401.10416 333.8094Q401.10416 333.35626 401.30728 332.98126Q401.5104 332.59064 401.85416 332.3719Q402.1979 332.1375 402.61978 332.02814Q402.91666 331.9344 403.55728 331.85626Q404.8229 331.71564 405.43228 331.4969Q405.43228 331.27814 405.43228 331.23126Q405.43228 330.575 405.1354 330.3094Q404.72916 329.96564 403.93228 329.96564Q403.1979 329.96564 402.83853 330.23126Q402.47916 330.48126 402.30728 331.1375L401.27603 330.9969Q401.41666 330.34064 401.74478 329.9344Q402.0729 329.52814 402.68228 329.3094Q403.29166 329.09064 404.08853 329.09064Q404.8854 329.09064 405.3854 329.27814Q405.8854 329.46564 406.11978 329.7469Q406.35416 330.02814 406.4479 330.46564Q406.49478 330.73126 406.49478 331.4344L406.49478 332.84064Q406.49478 334.3094 406.55728 334.7Q406.6354 335.09064 406.83853 335.45L405.72916 335.45Q405.5729 335.1219 405.52603 334.6844ZM405.43228 332.325Q404.85416 332.5594 403.71353 332.73126Q403.05728 332.825 402.79166 332.95Q402.52603 333.0594 402.36978 333.27814Q402.22916 333.4969 402.22916 333.77814Q402.22916 334.2 402.54166 334.48126Q402.86978 334.7625 403.47916 334.7625Q404.08853 334.7625 404.55728 334.4969Q405.04166 334.23126 405.2604 333.7625Q405.43228 333.40314 405.43228 332.71564L405.43228 332.325Z" fill-rule="nonzero"/><path fill="#000000" d="M383.6354 349.45L382.58853 349.45L382.58853 342.73126Q382.1979 343.09064 381.5729 343.46564Q380.96353 343.825 380.47916 343.9969L380.47916 342.98126Q381.35416 342.5594 382.0104 341.98126Q382.68228 341.3875 382.96353 340.825L383.6354 340.825L383.6354 349.45ZM387.2604 349.45L387.2604 348.2469L388.46353 348.2469L388.46353 349.45L387.2604 349.45ZM393.04166 349.45L393.04166 347.3875L389.3229 347.3875L389.3229 346.41876L393.24478 340.85626L394.10416 340.85626L394.10416 346.41876L395.2604 346.41876L395.2604 347.3875L394.10416 347.3875L394.10416 349.45L393.04166 349.45ZM393.04166 346.41876L393.04166 342.5594L390.35416 346.41876L393.04166 346.41876ZM397.93228 349.45L396.9479 349.45L396.9479 340.85626L398.0104 340.85626L398.0104 343.91876Q398.68228 343.09064 399.71353 343.09064Q400.29166 343.09064 400.79166 343.325Q401.30728 343.54376 401.6354 343.96564Q401.97916 344.3875 402.16666 344.98126Q402.35416 345.575 402.35416 346.2469Q402.35416 347.84064 401.55728 348.71564Q400.7604 349.59064 399.66666 349.59064Q398.55728 349.59064 397.93228 348.66876L397.93228 349.45ZM397.91666 346.29376Q397.91666 347.40314 398.22916 347.90314Q398.72916 348.71564 399.5729 348.71564Q400.2604 348.71564 400.7604 348.1219Q401.27603 347.52814 401.27603 346.325Q401.27603 345.10626 400.79166 344.52814Q400.30728 343.95 399.61978 343.95Q398.93228 343.95 398.41666 344.5594Q397.91666 345.15314 397.91666 346.29376Z" fill-rule="nonzero"/><path fill="#000000" d="M427.36633 335.45L427.36633 326.85626L430.61633 326.85626Q431.46008 326.85626 431.9132 326.9344Q432.55383 327.04376 432.9757 327.34064Q433.4132 327.6375 433.6632 328.16876Q433.92883 328.7 433.92883 329.34064Q433.92883 330.4344 433.2257 331.2Q432.5382 331.95 430.71008 331.95L428.50696 331.95L428.50696 335.45L427.36633 335.45ZM428.50696 330.95L430.7257 330.95Q431.83508 330.95 432.2882 330.54376Q432.75696 330.1219 432.75696 329.3719Q432.75696 328.84064 432.4757 328.46564Q432.21008 328.075 431.77258 327.95Q431.4757 327.8719 430.71008 327.8719L428.50696 327.8719L428.50696 330.95ZM435.19446 337.84064L435.06946 336.85626Q435.4132 336.95 435.67883 336.95Q436.02258 336.95 436.2257 336.825Q436.44446 336.71564 436.58508 336.5125Q436.67883 336.34064 436.9132 335.71564Q436.92883 335.6375 437.00696 335.46564L434.63196 329.23126L435.77258 329.23126L437.06946 332.825Q437.31946 333.5125 437.52258 334.27814Q437.71008 333.54376 437.96008 332.85626L439.2882 329.23126L440.33508 329.23126L437.9757 335.5594Q437.58508 336.575 437.38196 336.96564Q437.1007 337.4969 436.7257 337.73126Q436.36633 337.98126 435.86633 337.98126Q435.56946 337.98126 435.19446 337.84064ZM442.5382 334.5125L442.69446 335.4344Q442.24133 335.52814 441.89758 335.52814Q441.31946 335.52814 441.00696 335.35626Q440.69446 335.16876 440.55383 334.8719Q440.42883 334.575 440.42883 333.6219L440.42883 330.04376L439.6632 330.04376L439.6632 329.23126L440.42883 329.23126L440.42883 327.6844L441.4757 327.0594L441.4757 329.23126L442.5382 329.23126L442.5382 330.04376L441.4757 330.04376L441.4757 333.6844Q441.4757 334.1375 441.52258 334.2625Q441.58508 334.3875 441.71008 334.46564Q441.83508 334.54376 442.06946 334.54376Q442.25696 334.54376 442.5382 334.5125ZM443.24133 335.45L443.24133 326.85626L444.2882 326.85626L444.2882 329.9344Q445.02258 329.09064 446.14758 329.09064Q446.8507 329.09064 447.3507 329.3719Q447.86633 329.6375 448.08508 330.1219Q448.30383 330.59064 448.30383 331.5125L448.30383 335.45L447.25696 335.45L447.25696 331.5125Q447.25696 330.71564 446.9132 330.35626Q446.56946 329.9969 445.94446 329.9969Q445.4757 329.9969 445.05383 330.2469Q444.64758 330.48126 444.46008 330.90314Q444.2882 331.3094 444.2882 332.04376L444.2882 335.45L443.24133 335.45ZM450.24133 328.075L450.24133 326.85626L451.30383 326.85626L451.30383 328.075L450.24133 328.075ZM450.24133 335.45L450.24133 329.23126L451.30383 329.23126L451.30383 335.45L450.24133 335.45ZM457.30383 334.6844Q456.71008 335.1844 456.1632 335.3875Q455.63196 335.59064 455.00696 335.59064Q453.9757 335.59064 453.42883 335.09064Q452.88196 334.59064 452.88196 333.8094Q452.88196 333.35626 453.08508 332.98126Q453.2882 332.59064 453.63196 332.3719Q453.9757 332.1375 454.39758 332.02814Q454.69446 331.9344 455.33508 331.85626Q456.6007 331.71564 457.21008 331.4969Q457.21008 331.27814 457.21008 331.23126Q457.21008 330.575 456.9132 330.3094Q456.50696 329.96564 455.71008 329.96564Q454.9757 329.96564 454.61633 330.23126Q454.25696 330.48126 454.08508 331.1375L453.05383 330.9969Q453.19446 330.34064 453.52258 329.9344Q453.8507 329.52814 454.46008 329.3094Q455.06946 329.09064 455.86633 329.09064Q456.6632 329.09064 457.1632 329.27814Q457.6632 329.46564 457.89758 329.7469Q458.13196 330.02814 458.2257 330.46564Q458.27258 330.73126 458.27258 331.4344L458.27258 332.84064Q458.27258 334.3094 458.33508 334.7Q458.4132 335.09064 458.61633 335.45L457.50696 335.45Q457.3507 335.1219 457.30383 334.6844ZM457.21008 332.325Q456.63196 332.5594 455.49133 332.73126Q454.83508 332.825 454.56946 332.95Q454.30383 333.0594 454.14758 333.27814Q454.00696 333.4969 454.00696 333.77814Q454.00696 334.2 454.31946 334.48126Q454.64758 334.7625 455.25696 334.7625Q455.86633 334.7625 456.33508 334.4969Q456.81946 334.23126 457.0382 333.7625Q457.21008 333.40314 457.21008 332.71564L457.21008 332.325Z" fill-rule="nonzero"/><path fill="#000000" d="M436.99133 348.4344L436.99133 349.45L431.30383 349.45Q431.30383 349.075 431.42883 348.71564Q431.64758 348.1375 432.11633 347.575Q432.6007 347.0125 433.50696 346.27814Q434.9132 345.1219 435.39758 344.45Q435.89758 343.77814 435.89758 343.1844Q435.89758 342.5594 435.44446 342.1375Q434.99133 341.7 434.27258 341.7Q433.50696 341.7 433.05383 342.15314Q432.6007 342.60626 432.58508 343.41876L431.50696 343.3094Q431.61633 342.09064 432.33508 341.46564Q433.06946 340.825 434.30383 340.825Q435.5382 340.825 436.25696 341.5125Q436.9757 342.2 436.9757 343.21564Q436.9757 343.73126 436.75696 344.23126Q436.55383 344.71564 436.05383 345.27814Q435.56946 345.825 434.44446 346.77814Q433.49133 347.575 433.21008 347.8719Q432.94446 348.15314 432.77258 348.4344L436.99133 348.4344ZM439.0382 349.45L439.0382 348.2469L440.24133 348.2469L440.24133 349.45L439.0382 349.45ZM443.06946 344.79376Q442.4132 344.54376 442.08508 344.10626Q441.77258 343.65314 441.77258 343.04376Q441.77258 342.10626 442.44446 341.46564Q443.13196 340.825 444.24133 340.825Q445.36633 340.825 446.05383 341.48126Q446.74133 342.1375 446.74133 343.075Q446.74133 343.66876 446.42883 344.10626Q446.11633 344.54376 445.4757 344.79376Q446.27258 345.04376 446.67883 345.6219Q447.08508 346.2 447.08508 346.9969Q447.08508 348.09064 446.30383 348.84064Q445.5382 349.59064 444.25696 349.59064Q442.99133 349.59064 442.21008 348.84064Q441.42883 348.09064 441.42883 346.96564Q441.42883 346.1219 441.8507 345.5594Q442.2882 344.9969 443.06946 344.79376ZM442.8507 342.9969Q442.8507 343.60626 443.24133 343.9969Q443.64758 344.3875 444.27258 344.3875Q444.88196 344.3875 445.27258 344.0125Q445.6632 343.6219 445.6632 343.0594Q445.6632 342.48126 445.25696 342.09064Q444.8507 341.6844 444.25696 341.6844Q443.64758 341.6844 443.24133 342.075Q442.8507 342.46564 442.8507 342.9969ZM442.52258 346.96564Q442.52258 347.41876 442.7257 347.84064Q442.94446 348.2625 443.36633 348.4969Q443.7882 348.73126 444.27258 348.73126Q445.02258 348.73126 445.50696 348.2469Q446.00696 347.7625 446.00696 347.0125Q446.00696 346.2469 445.50696 345.7469Q445.00696 345.2469 444.24133 345.2469Q443.49133 345.2469 443.00696 345.7469Q442.52258 346.23126 442.52258 346.96564ZM449.71008 349.45L448.7257 349.45L448.7257 340.85626L449.7882 340.85626L449.7882 343.91876Q450.46008 343.09064 451.49133 343.09064Q452.06946 343.09064 452.56946 343.325Q453.08508 343.54376 453.4132 343.96564Q453.75696 344.3875 453.94446 344.98126Q454.13196 345.575 454.13196 346.2469Q454.13196 347.84064 453.33508 348.71564Q452.5382 349.59064 451.44446 349.59064Q450.33508 349.59064 449.71008 348.66876L449.71008 349.45ZM449.69446 346.29376Q449.69446 347.40314 450.00696 347.90314Q450.50696 348.71564 451.3507 348.71564Q452.0382 348.71564 452.5382 348.1219Q453.05383 347.52814 453.05383 346.325Q453.05383 345.10626 452.56946 344.52814Q452.08508 343.95 451.39758 343.95Q450.71008 343.95 450.19446 344.5594Q449.69446 345.15314 449.69446 346.29376Z" fill-rule="nonzero"/><path fill="#000000" d="M479.1441 335.45L479.1441 326.85626L482.3941 326.85626Q483.23785 326.85626 483.69098 326.9344Q484.3316 327.04376 484.75348 327.34064Q485.19098 327.6375 485.44098 328.16876Q485.7066 328.7 485.7066 329.34064Q485.7066 330.4344 485.00348 331.2Q484.31598 331.95 482.48785 331.95L480.28473 331.95L480.28473 335.45L479.1441 335.45ZM480.28473 330.95L482.50348 330.95Q483.61285 330.95 484.06598 330.54376Q484.53473 330.1219 484.53473 329.3719Q484.53473 328.84064 484.25348 328.46564Q483.98785 328.075 483.55035 327.95Q483.25348 327.8719 482.48785 327.8719L480.28473 327.8719L480.28473 330.95ZM486.97223 337.84064L486.84723 336.85626Q487.19098 336.95 487.4566 336.95Q487.80035 336.95 488.00348 336.825Q488.22223 336.71564 488.36285 336.5125Q488.4566 336.34064 488.69098 335.71564Q488.7066 335.6375 488.78473 335.46564L486.40973 329.23126L487.55035 329.23126L488.84723 332.825Q489.09723 333.5125 489.30035 334.27814Q489.48785 333.54376 489.73785 332.85626L491.06598 329.23126L492.11285 329.23126L489.75348 335.5594Q489.36285 336.575 489.15973 336.96564Q488.87848 337.4969 488.50348 337.73126Q488.1441 337.98126 487.6441 337.98126Q487.34723 337.98126 486.97223 337.84064ZM494.31598 334.5125L494.47223 335.4344Q494.0191 335.52814 493.67535 335.52814Q493.09723 335.52814 492.78473 335.35626Q492.47223 335.16876 492.3316 334.8719Q492.2066 334.575 492.2066 333.6219L492.2066 330.04376L491.44098 330.04376L491.44098 329.23126L492.2066 329.23126L492.2066 327.6844L493.25348 327.0594L493.25348 329.23126L494.31598 329.23126L494.31598 330.04376L493.25348 330.04376L493.25348 333.6844Q493.25348 334.1375 493.30035 334.2625Q493.36285 334.3875 493.48785 334.46564Q493.61285 334.54376 493.84723 334.54376Q494.03473 334.54376 494.31598 334.5125ZM495.0191 335.45L495.0191 326.85626L496.06598 326.85626L496.06598 329.9344Q496.80035 329.09064 497.92535 329.09064Q498.62848 329.09064 499.12848 329.3719Q499.6441 329.6375 499.86285 330.1219Q500.0816 330.59064 500.0816 331.5125L500.0816 335.45L499.03473 335.45L499.03473 331.5125Q499.03473 330.71564 498.69098 330.35626Q498.34723 329.9969 497.72223 329.9969Q497.25348 329.9969 496.8316 330.2469Q496.42535 330.48126 496.23785 330.90314Q496.06598 331.3094 496.06598 332.04376L496.06598 335.45L495.0191 335.45ZM502.0191 328.075L502.0191 326.85626L503.0816 326.85626L503.0816 328.075L502.0191 328.075ZM502.0191 335.45L502.0191 329.23126L503.0816 329.23126L503.0816 335.45L502.0191 335.45ZM509.0816 334.6844Q508.48785 335.1844 507.94098 335.3875Q507.40973 335.59064 506.78473 335.59064Q505.75348 335.59064 505.2066 335.09064Q504.65973 334.59064 504.65973 333.8094Q504.65973 333.35626 504.86285 332.98126Q505.06598 332.59064 505.40973 332.3719Q505.75348 332.1375 506.17535 332.02814Q506.47223 331.9344 507.11285 331.85626Q508.37848 331.71564 508.98785 331.4969Q508.98785 331.27814 508.98785 331.23126Q508.98785 330.575 508.69098 330.3094Q508.28473 329.96564 507.48785 329.96564Q506.75348 329.96564 506.3941 330.23126Q506.03473 330.48126 505.86285 331.1375L504.8316 330.9969Q504.97223 330.34064 505.30035 329.9344Q505.62848 329.52814 506.23785 329.3094Q506.84723 329.09064 507.6441 329.09064Q508.44098 329.09064 508.94098 329.27814Q509.44098 329.46564 509.67535 329.7469Q509.90973 330.02814 510.00348 330.46564Q510.05035 330.73126 510.05035 331.4344L510.05035 332.84064Q510.05035 334.3094 510.11285 334.7Q510.19098 335.09064 510.3941 335.45L509.28473 335.45Q509.12848 335.1219 509.0816 334.6844ZM508.98785 332.325Q508.40973 332.5594 507.2691 332.73126Q506.61285 332.825 506.34723 332.95Q506.0816 333.0594 505.92535 333.27814Q505.78473 333.4969 505.78473 333.77814Q505.78473 334.2 506.09723 334.48126Q506.42535 334.7625 507.03473 334.7625Q507.6441 334.7625 508.11285 334.4969Q508.59723 334.23126 508.81598 333.7625Q508.98785 333.40314 508.98785 332.71564L508.98785 332.325Z" fill-rule="nonzero"/><path fill="#000000" d="M488.69098 342.96564L487.6441 343.04376Q487.50348 342.41876 487.25348 342.1375Q486.81598 341.6844 486.19098 341.6844Q485.69098 341.6844 485.30035 341.96564Q484.81598 342.34064 484.5191 343.04376Q484.23785 343.73126 484.22223 345.0125Q484.59723 344.4344 485.1441 344.15314Q485.7066 343.8719 486.31598 343.8719Q487.36285 343.8719 488.09723 344.65314Q488.84723 345.4344 488.84723 346.65314Q488.84723 347.46564 488.48785 348.16876Q488.1441 348.85626 487.53473 349.23126Q486.92535 349.59064 486.15973 349.59064Q484.8316 349.59064 484.00348 348.6219Q483.17535 347.65314 483.17535 345.4344Q483.17535 342.9344 484.09723 341.8094Q484.8941 340.825 486.25348 340.825Q487.2691 340.825 487.90973 341.40314Q488.56598 341.96564 488.69098 342.96564ZM484.3941 346.66876Q484.3941 347.21564 484.61285 347.71564Q484.84723 348.2 485.25348 348.46564Q485.67535 348.73126 486.1441 348.73126Q486.80035 348.73126 487.28473 348.2Q487.7691 347.65314 487.7691 346.73126Q487.7691 345.84064 487.28473 345.325Q486.81598 344.8094 486.09723 344.8094Q485.37848 344.8094 484.87848 345.325Q484.3941 345.84064 484.3941 346.66876ZM490.81598 349.45L490.81598 348.2469L492.0191 348.2469L492.0191 349.45L490.81598 349.45ZM493.37848 347.46564L494.3941 347.3719Q494.5191 348.09064 494.87848 348.41876Q495.25348 348.73126 495.81598 348.73126Q496.30035 348.73126 496.65973 348.5125Q497.03473 348.27814 497.2691 347.91876Q497.50348 347.54376 497.65973 346.91876Q497.81598 346.27814 497.81598 345.6219Q497.81598 345.54376 497.81598 345.40314Q497.50348 345.90314 496.9566 346.23126Q496.40973 346.54376 495.7691 346.54376Q494.69098 346.54376 493.9566 345.77814Q493.22223 344.9969 493.22223 343.73126Q493.22223 342.41876 493.98785 341.6219Q494.7691 340.825 495.92535 340.825Q496.75348 340.825 497.44098 341.27814Q498.1441 341.73126 498.50348 342.575Q498.86285 343.40314 498.86285 344.98126Q498.86285 346.6219 498.50348 347.60626Q498.15973 348.575 497.44098 349.09064Q496.73785 349.59064 495.80035 349.59064Q494.78473 349.59064 494.1441 349.04376Q493.50348 348.48126 493.37848 347.46564ZM497.69098 343.66876Q497.69098 342.7625 497.2066 342.23126Q496.73785 341.7 496.05035 341.7Q495.34723 341.7 494.81598 342.27814Q494.30035 342.84064 494.30035 343.7625Q494.30035 344.575 494.80035 345.09064Q495.30035 345.60626 496.0191 345.60626Q496.75348 345.60626 497.22223 345.09064Q497.69098 344.575 497.69098 343.66876ZM501.48785 349.45L500.50348 349.45L500.50348 340.85626L501.56598 340.85626L501.56598 343.91876Q502.23785 343.09064 503.2691 343.09064Q503.84723 343.09064 504.34723 343.325Q504.86285 343.54376 505.19098 343.96564Q505.53473 344.3875 505.72223 344.98126Q505.90973 345.575 505.90973 346.2469Q505.90973 347.84064 505.11285 348.71564Q504.31598 349.59064 503.22223 349.59064Q502.11285 349.59064 501.48785 348.66876L501.48785 349.45ZM501.47223 346.29376Q501.47223 347.40314 501.78473 347.90314Q502.28473 348.71564 503.12848 348.71564Q503.81598 348.71564 504.31598 348.1219Q504.8316 347.52814 504.8316 346.325Q504.8316 345.10626 504.34723 344.52814Q503.86285 343.95 503.17535 343.95Q502.48785 343.95 501.97223 344.5594Q501.47223 345.15314 501.47223 346.29376Z" fill-rule="nonzero"/><path fill="#000000" d="M530.9219 335.45L530.9219 326.85626L534.1719 326.85626Q535.0156 326.85626 535.46875 326.9344Q536.1094 327.04376 536.53125 327.34064Q536.96875 327.6375 537.21875 328.16876Q537.4844 328.7 537.4844 329.34064Q537.4844 330.4344 536.78125 331.2Q536.09375 331.95 534.2656 331.95L532.0625 331.95L532.0625 335.45L530.9219 335.45ZM532.0625 330.95L534.28125 330.95Q535.3906 330.95 535.84375 330.54376Q536.3125 330.1219 536.3125 329.3719Q536.3125 328.84064 536.03125 328.46564Q535.7656 328.075 535.3281 327.95Q535.03125 327.8719 534.2656 327.8719L532.0625 327.8719L532.0625 330.95ZM538.75 337.84064L538.625 336.85626Q538.96875 336.95 539.2344 336.95Q539.5781 336.95 539.78125 336.825Q540.0 336.71564 540.1406 336.5125Q540.2344 336.34064 540.46875 335.71564Q540.4844 335.6375 540.5625 335.46564L538.1875 329.23126L539.3281 329.23126L540.625 332.825Q540.875 333.5125 541.0781 334.27814Q541.2656 333.54376 541.5156 332.85626L542.84375 329.23126L543.8906 329.23126L541.53125 335.5594Q541.1406 336.575 540.9375 336.96564Q540.65625 337.4969 540.28125 337.73126Q539.9219 337.98126 539.4219 337.98126Q539.125 337.98126 538.75 337.84064ZM546.09375 334.5125L546.25 335.4344Q545.7969 335.52814 545.4531 335.52814Q544.875 335.52814 544.5625 335.35626Q544.25 335.16876 544.1094 334.8719Q543.9844 334.575 543.9844 333.6219L543.9844 330.04376L543.21875 330.04376L543.21875 329.23126L543.9844 329.23126L543.9844 327.6844L545.03125 327.0594L545.03125 329.23126L546.09375 329.23126L546.09375 330.04376L545.03125 330.04376L545.03125 333.6844Q545.03125 334.1375 545.0781 334.2625Q545.1406 334.3875 545.2656 334.46564Q545.3906 334.54376 545.625 334.54376Q545.8125 334.54376 546.09375 334.5125ZM546.7969 335.45L546.7969 326.85626L547.84375 326.85626L547.84375 329.9344Q548.5781 329.09064 549.7031 329.09064Q550.40625 329.09064 550.90625 329.3719Q551.4219 329.6375 551.6406 330.1219Q551.8594 330.59064 551.8594 331.5125L551.8594 335.45L550.8125 335.45L550.8125 331.5125Q550.8125 330.71564 550.46875 330.35626Q550.125 329.9969 549.5 329.9969Q549.03125 329.9969 548.6094 330.2469Q548.2031 330.48126 548.0156 330.90314Q547.84375 331.3094 547.84375 332.04376L547.84375 335.45L546.7969 335.45ZM553.7969 328.075L553.7969 326.85626L554.8594 326.85626L554.8594 328.075L553.7969 328.075ZM553.7969 335.45L553.7969 329.23126L554.8594 329.23126L554.8594 335.45L553.7969 335.45ZM560.8594 334.6844Q560.2656 335.1844 559.71875 335.3875Q559.1875 335.59064 558.5625 335.59064Q557.53125 335.59064 556.9844 335.09064Q556.4375 334.59064 556.4375 333.8094Q556.4375 333.35626 556.6406 332.98126Q556.84375 332.59064 557.1875 332.3719Q557.53125 332.1375 557.9531 332.02814Q558.25 331.9344 558.8906 331.85626Q560.15625 331.71564 560.7656 331.4969Q560.7656 331.27814 560.7656 331.23126Q560.7656 330.575 560.46875 330.3094Q560.0625 329.96564 559.2656 329.96564Q558.53125 329.96564 558.1719 330.23126Q557.8125 330.48126 557.6406 331.1375L556.6094 330.9969Q556.75 330.34064 557.0781 329.9344Q557.40625 329.52814 558.0156 329.3094Q558.625 329.09064 559.4219 329.09064Q560.21875 329.09064 560.71875 329.27814Q561.21875 329.46564 561.4531 329.7469Q561.6875 330.02814 561.78125 330.46564Q561.8281 330.73126 561.8281 331.4344L561.8281 332.84064Q561.8281 334.3094 561.8906 334.7Q561.96875 335.09064 562.1719 335.45L561.0625 335.45Q560.90625 335.1219 560.8594 334.6844ZM560.7656 332.325Q560.1875 332.5594 559.0469 332.73126Q558.3906 332.825 558.125 332.95Q557.8594 333.0594 557.7031 333.27814Q557.5625 333.4969 557.5625 333.77814Q557.5625 334.2 557.875 334.48126Q558.2031 334.7625 558.8125 334.7625Q559.4219 334.7625 559.8906 334.4969Q560.375 334.23126 560.59375 333.7625Q560.7656 333.40314 560.7656 332.71564L560.7656 332.325Z" fill-rule="nonzero"/><path fill="#000000" d="M540.46875 349.45L539.4219 349.45L539.4219 342.73126Q539.03125 343.09064 538.40625 343.46564Q537.7969 343.825 537.3125 343.9969L537.3125 342.98126Q538.1875 342.5594 538.84375 341.98126Q539.5156 341.3875 539.7969 340.825L540.46875 340.825L540.46875 349.45ZM549.0469 348.4344L549.0469 349.45L543.3594 349.45Q543.3594 349.075 543.4844 348.71564Q543.7031 348.1375 544.1719 347.575Q544.65625 347.0125 545.5625 346.27814Q546.96875 345.1219 547.4531 344.45Q547.9531 343.77814 547.9531 343.1844Q547.9531 342.5594 547.5 342.1375Q547.0469 341.7 546.3281 341.7Q545.5625 341.7 545.1094 342.15314Q544.65625 342.60626 544.6406 343.41876L543.5625 343.3094Q543.6719 342.09064 544.3906 341.46564Q545.125 340.825 546.3594 340.825Q547.59375 340.825 548.3125 341.5125Q549.03125 342.2 549.03125 343.21564Q549.03125 343.73126 548.8125 344.23126Q548.6094 344.71564 548.1094 345.27814Q547.625 345.825 546.5 346.77814Q545.5469 347.575 545.2656 347.8719Q545.0 348.15314 544.8281 348.4344L549.0469 348.4344ZM551.7656 349.45L550.78125 349.45L550.78125 340.85626L551.84375 340.85626L551.84375 343.91876Q552.5156 343.09064 553.5469 343.09064Q554.125 343.09064 554.625 343.325Q555.1406 343.54376 555.46875 343.96564Q555.8125 344.3875 556.0 344.98126Q556.1875 345.575 556.1875 346.2469Q556.1875 347.84064 555.3906 348.71564Q554.59375 349.59064 553.5 349.59064Q552.3906 349.59064 551.7656 348.66876L551.7656 349.45ZM551.75 346.29376Q551.75 347.40314 552.0625 347.90314Q552.5625 348.71564 553.40625 348.71564Q554.09375 348.71564 554.59375 348.1219Q555.1094 347.52814 555.1094 346.325Q555.1094 345.10626 554.625 344.52814Q554.1406 343.95 553.4531 343.95Q552.7656 343.95 552.25 344.5594Q551.75 345.15314 551.75 346.29376Z" fill-rule="nonzero"/><path fill="#4285f4" d="M173.0 20.55C173.0 19.997715 173.44771 19.55 174.0 19.55L184.0 19.55C184.55229 19.55 185.0 19.997715 185.0 20.55L185.0 30.55C185.0 31.102285 184.55229 31.55 184.0 31.55L174.0 31.55C173.44771 31.55 173.0 31.102285 173.0 30.55Z" fill-rule="nonzero"/><path fill="#1a1a1a" d="M193.60938 29.690624L194.10938 27.20625L193.125 27.20625L193.125 26.33125L194.29688 26.33125L194.71875 24.20625L193.125 24.20625L193.125 23.33125L194.90625 23.33125L195.40625 20.815624L196.28125 20.815624L195.78125 23.33125L197.625 23.33125L198.14062 20.815624L199.01562 20.815624L198.51562 23.33125L199.51562 23.33125L199.51562 24.20625L198.32812 24.20625L197.89062 26.33125L199.51562 26.33125L199.51562 27.20625L197.71875 27.20625L197.20312 29.690624L196.32812 29.690624L196.82812 27.20625L195.0 27.20625L194.48438 29.690624L193.60938 29.690624ZM195.17188 26.33125L197.01562 26.33125L197.45312 24.20625L195.60938 24.20625L195.17188 26.33125ZM203.92188 29.55L203.92188 20.95625L207.17188 20.95625Q208.01562 20.95625 208.46875 21.034374Q209.10938 21.14375 209.53125 21.440624Q209.96875 21.7375 210.21875 22.26875Q210.48438 22.8 210.48438 23.440624Q210.48438 24.534374 209.78125 25.3Q209.09375 26.05 207.26562 26.05L205.0625 26.05L205.0625 29.55L203.92188 29.55ZM205.0625 25.05L207.28125 25.05Q208.39062 25.05 208.84375 24.64375Q209.3125 24.221874 209.3125 23.471874Q209.3125 22.940624 209.03125 22.565624Q208.76562 22.175 208.32812 22.05Q208.03125 21.971874 207.26562 21.971874L205.0625 21.971874L205.0625 25.05ZM215.85938 28.784374Q215.26562 29.284374 214.71875 29.4875Q214.1875 29.690624 213.5625 29.690624Q212.53125 29.690624 211.98438 29.190624Q211.4375 28.690624 211.4375 27.909374Q211.4375 27.45625 211.64062 27.08125Q211.84375 26.690624 212.1875 26.471874Q212.53125 26.2375 212.95312 26.128124Q213.25 26.034374 213.89062 25.95625Q215.15625 25.815624 215.76562 25.596874Q215.76562 25.378124 215.76562 25.33125Q215.76562 24.675 215.46875 24.409374Q215.0625 24.065624 214.26562 24.065624Q213.53125 24.065624 213.17188 24.33125Q212.8125 24.58125 212.64062 25.2375L211.60938 25.096874Q211.75 24.440624 212.07812 24.034374Q212.40625 23.628124 213.01562 23.409374Q213.625 23.190624 214.42188 23.190624Q215.21875 23.190624 215.71875 23.378124Q216.21875 23.565624 216.45312 23.846874Q216.6875 24.128124 216.78125 24.565624Q216.82812 24.83125 216.82812 25.534374L216.82812 26.940624Q216.82812 28.409374 216.89062 28.8Q216.96875 29.190624 217.17188 29.55L216.0625 29.55Q215.90625 29.221874 215.85938 28.784374ZM215.76562 26.425Q215.1875 26.659374 214.04688 26.83125Q213.39062 26.925 213.125 27.05Q212.85938 27.159374 212.70312 27.378124Q212.5625 27.596874 212.5625 27.878124Q212.5625 28.3 212.875 28.58125Q213.20312 28.8625 213.8125 28.8625Q214.42188 28.8625 214.89062 28.596874Q215.375 28.33125 215.59375 27.8625Q215.76562 27.503124 215.76562 26.815624L215.76562 26.425ZM218.375 27.690624L219.40625 27.534374Q219.5 28.159374 219.89062 28.4875Q220.29688 28.815624 221.03125 28.815624Q221.75 28.815624 222.09375 28.534374Q222.45312 28.2375 222.45312 27.83125Q222.45312 27.471874 222.14062 27.26875Q221.92188 27.128124 221.0625 26.909374Q219.90625 26.6125 219.45312 26.409374Q219.01562 26.190624 218.78125 25.815624Q218.54688 25.440624 218.54688 24.971874Q218.54688 24.565624 218.73438 24.20625Q218.92188 23.846874 219.25 23.6125Q219.5 23.440624 219.92188 23.315624Q220.34375 23.190624 220.84375 23.190624Q221.5625 23.190624 222.10938 23.409374Q222.67188 23.6125 222.9375 23.971874Q223.20312 24.33125 223.29688 24.925L222.26562 25.065624Q222.20312 24.596874 221.85938 24.33125Q221.53125 24.05 220.90625 24.05Q220.1875 24.05 219.875 24.3Q219.5625 24.534374 219.5625 24.8625Q219.5625 25.065624 219.6875 25.221874Q219.82812 25.39375 220.09375 25.503124Q220.25 25.565624 221.03125 25.76875Q222.15625 26.08125 222.59375 26.26875Q223.03125 26.45625 223.28125 26.815624Q223.53125 27.175 223.53125 27.721874Q223.53125 28.253124 223.21875 28.721874Q222.92188 29.175 222.34375 29.440624Q221.76562 29.690624 221.03125 29.690624Q219.8125 29.690624 219.17188 29.190624Q218.54688 28.675 218.375 27.690624ZM225.375 27.690624L226.40625 27.534374Q226.5 28.159374 226.89062 28.4875Q227.29688 28.815624 228.03125 28.815624Q228.75 28.815624 229.09375 28.534374Q229.45312 28.2375 229.45312 27.83125Q229.45312 27.471874 229.14062 27.26875Q228.92188 27.128124 228.0625 26.909374Q226.90625 26.6125 226.45312 26.409374Q226.01562 26.190624 225.78125 25.815624Q225.54688 25.440624 225.54688 24.971874Q225.54688 24.565624 225.73438 24.20625Q225.92188 23.846874 226.25 23.6125Q226.5 23.440624 226.92188 23.315624Q227.34375 23.190624 227.84375 23.190624Q228.5625 23.190624 229.10938 23.409374Q229.67188 23.6125 229.9375 23.971874Q230.20312 24.33125 230.29688 24.925L229.26562 25.065624Q229.20312 24.596874 228.85938 24.33125Q228.53125 24.05 227.90625 24.05Q227.1875 24.05 226.875 24.3Q226.5625 24.534374 226.5625 24.8625Q226.5625 25.065624 226.6875 25.221874Q226.82812 25.39375 227.09375 25.503124Q227.25 25.565624 228.03125 25.76875Q229.15625 26.08125 229.59375 26.26875Q230.03125 26.45625 230.28125 26.815624Q230.53125 27.175 230.53125 27.721874Q230.53125 28.253124 230.21875 28.721874Q229.92188 29.175 229.34375 29.440624Q228.76562 29.690624 228.03125 29.690624Q226.8125 29.690624 226.17188 29.190624Q225.54688 28.675 225.375 27.690624ZM237.04688 27.55L238.14062 27.675Q237.89062 28.628124 237.1875 29.159374Q236.48438 29.690624 235.40625 29.690624Q234.04688 29.690624 233.23438 28.846874Q232.4375 28.003124 232.4375 26.4875Q232.4375 24.925 233.25 24.065624Q234.0625 23.190624 235.34375 23.190624Q236.59375 23.190624 237.375 24.034374Q238.17188 24.878124 238.17188 26.425Q238.17188 26.51875 238.17188 26.70625L233.53125 26.70625Q233.59375 27.7375 234.10938 28.284374Q234.625 28.815624 235.40625 28.815624Q235.98438 28.815624 236.39062 28.51875Q236.8125 28.20625 237.04688 27.55ZM233.59375 25.846874L237.0625 25.846874Q237.0 25.05 236.67188 24.659374Q236.15625 24.05 235.35938 24.05Q234.625 24.05 234.125 24.534374Q233.64062 25.01875 233.59375 25.846874ZM239.375 27.690624L240.40625 27.534374Q240.5 28.159374 240.89062 28.4875Q241.29688 28.815624 242.03125 28.815624Q242.75 28.815624 243.09375 28.534374Q243.45312 28.2375 243.45312 27.83125Q243.45312 27.471874 243.14062 27.26875Q242.92188 27.128124 242.0625 26.909374Q240.90625 26.6125 240.45312 26.409374Q240.01562 26.190624 239.78125 25.815624Q239.54688 25.440624 239.54688 24.971874Q239.54688 24.565624 239.73438 24.20625Q239.92188 23.846874 240.25 23.6125Q240.5 23.440624 240.92188 23.315624Q241.34375 23.190624 241.84375 23.190624Q242.5625 23.190624 243.10938 23.409374Q243.67188 23.6125 243.9375 23.971874Q244.20312 24.33125 244.29688 24.925L243.26562 25.065624Q243.20312 24.596874 242.85938 24.33125Q242.53125 24.05 241.90625 24.05Q241.1875 24.05 240.875 24.3Q240.5625 24.534374 240.5625 24.8625Q240.5625 25.065624 240.6875 25.221874Q240.82812 25.39375 241.09375 25.503124Q241.25 25.565624 242.03125 25.76875Q243.15625 26.08125 243.59375 26.26875Q244.03125 26.45625 244.28125 26.815624Q244.53125 27.175 244.53125 27.721874Q244.53125 28.253124 244.21875 28.721874Q243.92188 29.175 243.34375 29.440624Q242.76562 29.690624 242.03125 29.690624Q240.8125 29.690624 240.17188 29.190624Q239.54688 28.675 239.375 27.690624ZM251.8125 32.08125Q250.9375 30.971874 250.32812 29.503124Q249.73438 28.01875 249.73438 26.440624Q249.73438 25.05 250.17188 23.76875Q250.70312 22.284374 251.8125 20.815624L252.5625 20.815624Q251.85938 22.034374 251.625 22.55Q251.26562 23.3625 251.0625 24.2375Q250.8125 25.33125 250.8125 26.440624Q250.8125 29.26875 252.5625 32.08125L251.8125 32.08125ZM253.79688 29.55L253.79688 23.33125L254.73438 23.33125L254.73438 24.20625Q255.03125 23.7375 255.51562 23.471874Q256.0 23.190624 256.625 23.190624Q257.3125 23.190624 257.75 23.471874Q258.20312 23.753124 258.375 24.26875Q259.125 23.190624 260.29688 23.190624Q261.23438 23.190624 261.71875 23.70625Q262.21875 24.20625 262.21875 25.284374L262.21875 29.55L261.17188 29.55L261.17188 25.628124Q261.17188 25.003124 261.0625 24.721874Q260.96875 24.440624 260.70312 24.26875Q260.4375 24.096874 260.0625 24.096874Q259.40625 24.096874 258.96875 24.534374Q258.54688 24.971874 258.54688 25.940624L258.54688 29.55L257.48438 29.55L257.48438 25.503124Q257.48438 24.8 257.21875 24.45625Q256.96875 24.096874 256.39062 24.096874Q255.9375 24.096874 255.5625 24.33125Q255.1875 24.565624 255.01562 25.01875Q254.84375 25.471874 254.84375 26.315624L254.84375 29.55L253.79688 29.55ZM264.75 31.940624L264.625 30.95625Q264.96875 31.05 265.23438 31.05Q265.57812 31.05 265.78125 30.925Q266.0 30.815624 266.14062 30.6125Q266.23438 30.440624 266.46875 29.815624Q266.48438 29.7375 266.5625 29.565624L264.1875 23.33125L265.32812 23.33125L266.625 26.925Q266.875 27.6125 267.07812 28.378124Q267.26562 27.64375 267.51562 26.95625L268.84375 23.33125L269.89062 23.33125L267.53125 29.659374Q267.14062 30.675 266.9375 31.065624Q266.65625 31.596874 266.28125 31.83125Q265.92188 32.08125 265.42188 32.08125Q265.125 32.08125 264.75 31.940624ZM269.79688 31.940624L269.79688 23.33125L270.75 23.33125L270.75 24.128124Q271.09375 23.659374 271.51562 23.425Q271.95312 23.190624 272.5625 23.190624Q273.35938 23.190624 273.96875 23.596874Q274.57812 24.003124 274.875 24.753124Q275.1875 25.503124 275.1875 26.39375Q275.1875 27.346874 274.84375 28.1125Q274.51562 28.878124 273.85938 29.284374Q273.20312 29.690624 272.48438 29.690624Q271.95312 29.690624 271.53125 29.471874Q271.10938 29.2375 270.84375 28.909374L270.84375 31.940624L269.79688 31.940624ZM270.75 26.471874Q270.75 27.675 271.23438 28.253124Q271.71875 28.815624 272.40625 28.815624Q273.10938 28.815624 273.60938 28.221874Q274.10938 27.628124 274.10938 26.378124Q274.10938 25.190624 273.625 24.6125Q273.14062 24.01875 272.45312 24.01875Q271.78125 24.01875 271.26562 24.64375Q270.75 25.26875 270.75 26.471874ZM276.75 31.940624L276.625 30.95625Q276.96875 31.05 277.23438 31.05Q277.57812 31.05 277.78125 30.925Q278.0 30.815624 278.14062 30.6125Q278.23438 30.440624 278.46875 29.815624Q278.48438 29.7375 278.5625 29.565624L276.1875 23.33125L277.32812 23.33125L278.625 26.925Q278.875 27.6125 279.07812 28.378124Q279.26562 27.64375 279.51562 26.95625L280.84375 23.33125L281.89062 23.33125L279.53125 29.659374Q279.14062 30.675 278.9375 31.065624Q278.65625 31.596874 278.28125 31.83125Q277.92188 32.08125 277.42188 32.08125Q277.125 32.08125 276.75 31.940624ZM284.0 28.159374L284.0 25.8L281.67188 25.8L281.67188 24.815624L284.0 24.815624L284.0 22.4875L285.0 22.4875L285.0 24.815624L287.34375 24.815624L287.34375 25.8L285.0 25.8L285.0 28.159374L284.0 28.159374ZM291.0 28.159374L291.0 25.8L288.67188 25.8L288.67188 24.815624L291.0 24.815624L291.0 22.4875L292.0 22.4875L292.0 24.815624L294.34375 24.815624L294.34375 25.8L292.0 25.8L292.0 28.159374L291.0 28.159374ZM296.48438 32.08125L295.73438 32.08125Q297.48438 29.26875 297.48438 26.440624Q297.48438 25.346874 297.23438 24.253124Q297.03125 23.378124 296.67188 22.565624Q296.4375 22.05 295.73438 20.815624L296.48438 20.815624Q297.57812 22.284374 298.10938 23.76875Q298.5625 25.05 298.5625 26.440624Q298.5625 28.01875 297.95312 29.503124Q297.34375 30.971874 296.48438 32.08125Z" fill-rule="nonzero"/><path fill="#ea4335" d="M315.0 20.55C315.0 19.997715 315.44772 19.55 316.0 19.55L326.0 19.55C326.55228 19.55 327.0 19.997715 327.0 20.55L327.0 30.55C327.0 31.102285 326.55228 31.55 326.0 31.55L316.0 31.55C315.44772 31.55 315.0 31.102285 315.0 30.55Z" fill-rule="nonzero"/><path fill="#1a1a1a" d="M335.60938 29.690624L336.10938 27.20625L335.125 27.20625L335.125 26.33125L336.29688 26.33125L336.71875 24.20625L335.125 24.20625L335.125 23.33125L336.90625 23.33125L337.40625 20.815624L338.28125 20.815624L337.78125 23.33125L339.625 23.33125L340.14062 20.815624L341.01562 20.815624L340.51562 23.33125L341.51562 23.33125L341.51562 24.20625L340.32812 24.20625L339.89062 26.33125L341.51562 26.33125L341.51562 27.20625L339.71875 27.20625L339.20312 29.690624L338.32812 29.690624L338.82812 27.20625L337.0 27.20625L336.48438 29.690624L335.60938 29.690624ZM337.17188 26.33125L339.01562 26.33125L339.45312 24.20625L337.60938 24.20625L337.17188 26.33125ZM345.92188 29.55L345.92188 20.95625L349.17188 20.95625Q350.01562 20.95625 350.46875 21.034374Q351.10938 21.14375 351.53125 21.440624Q351.96875 21.7375 352.21875 22.26875Q352.48438 22.8 352.48438 23.440624Q352.48438 24.534374 351.78125 25.3Q351.09375 26.05 349.26562 26.05L347.0625 26.05L347.0625 29.55L345.92188 29.55ZM347.0625 25.05L349.28125 25.05Q350.39062 25.05 350.84375 24.64375Q351.3125 24.221874 351.3125 23.471874Q351.3125 22.940624 351.03125 22.565624Q350.76562 22.175 350.32812 22.05Q350.03125 21.971874 349.26562 21.971874L347.0625 21.971874L347.0625 25.05ZM357.85938 28.784374Q357.26562 29.284374 356.71875 29.4875Q356.1875 29.690624 355.5625 29.690624Q354.53125 29.690624 353.98438 29.190624Q353.4375 28.690624 353.4375 27.909374Q353.4375 27.45625 353.64062 27.08125Q353.84375 26.690624 354.1875 26.471874Q354.53125 26.2375 354.95312 26.128124Q355.25 26.034374 355.89062 25.95625Q357.15625 25.815624 357.76562 25.596874Q357.76562 25.378124 357.76562 25.33125Q357.76562 24.675 357.46875 24.409374Q357.0625 24.065624 356.26562 24.065624Q355.53125 24.065624 355.17188 24.33125Q354.8125 24.58125 354.64062 25.2375L353.60938 25.096874Q353.75 24.440624 354.07812 24.034374Q354.40625 23.628124 355.01562 23.409374Q355.625 23.190624 356.42188 23.190624Q357.21875 23.190624 357.71875 23.378124Q358.21875 23.565624 358.45312 23.846874Q358.6875 24.128124 358.78125 24.565624Q358.82812 24.83125 358.82812 25.534374L358.82812 26.940624Q358.82812 28.409374 358.89062 28.8Q358.96875 29.190624 359.17188 29.55L358.0625 29.55Q357.90625 29.221874 357.85938 28.784374ZM357.76562 26.425Q357.1875 26.659374 356.04688 26.83125Q355.39062 26.925 355.125 27.05Q354.85938 27.159374 354.70312 27.378124Q354.5625 27.596874 354.5625 27.878124Q354.5625 28.3 354.875 28.58125Q355.20312 28.8625 355.8125 28.8625Q356.42188 28.8625 356.89062 28.596874Q357.375 28.33125 357.59375 27.8625Q357.76562 27.503124 357.76562 26.815624L357.76562 26.425ZM360.375 27.690624L361.40625 27.534374Q361.5 28.159374 361.89062 28.4875Q362.29688 28.815624 363.03125 28.815624Q363.75 28.815624 364.09375 28.534374Q364.45312 28.2375 364.45312 27.83125Q364.45312 27.471874 364.14062 27.26875Q363.92188 27.128124 363.0625 26.909374Q361.90625 26.6125 361.45312 26.409374Q361.01562 26.190624 360.78125 25.815624Q360.54688 25.440624 360.54688 24.971874Q360.54688 24.565624 360.73438 24.20625Q360.92188 23.846874 361.25 23.6125Q361.5 23.440624 361.92188 23.315624Q362.34375 23.190624 362.84375 23.190624Q363.5625 23.190624 364.10938 23.409374Q364.67188 23.6125 364.9375 23.971874Q365.20312 24.33125 365.29688 24.925L364.26562 25.065624Q364.20312 24.596874 363.85938 24.33125Q363.53125 24.05 362.90625 24.05Q362.1875 24.05 361.875 24.3Q361.5625 24.534374 361.5625 24.8625Q361.5625 25.065624 361.6875 25.221874Q361.82812 25.39375 362.09375 25.503124Q362.25 25.565624 363.03125 25.76875Q364.15625 26.08125 364.59375 26.26875Q365.03125 26.45625 365.28125 26.815624Q365.53125 27.175 365.53125 27.721874Q365.53125 28.253124 365.21875 28.721874Q364.92188 29.175 364.34375 29.440624Q363.76562 29.690624 363.03125 29.690624Q361.8125 29.690624 361.17188 29.190624Q360.54688 28.675 360.375 27.690624ZM367.375 27.690624L368.40625 27.534374Q368.5 28.159374 368.89062 28.4875Q369.29688 28.815624 370.03125 28.815624Q370.75 28.815624 371.09375 28.534374Q371.45312 28.2375 371.45312 27.83125Q371.45312 27.471874 371.14062 27.26875Q370.92188 27.128124 370.0625 26.909374Q368.90625 26.6125 368.45312 26.409374Q368.01562 26.190624 367.78125 25.815624Q367.54688 25.440624 367.54688 24.971874Q367.54688 24.565624 367.73438 24.20625Q367.92188 23.846874 368.25 23.6125Q368.5 23.440624 368.92188 23.315624Q369.34375 23.190624 369.84375 23.190624Q370.5625 23.190624 371.10938 23.409374Q371.67188 23.6125 371.9375 23.971874Q372.20312 24.33125 372.29688 24.925L371.26562 25.065624Q371.20312 24.596874 370.85938 24.33125Q370.53125 24.05 369.90625 24.05Q369.1875 24.05 368.875 24.3Q368.5625 24.534374 368.5625 24.8625Q368.5625 25.065624 368.6875 25.221874Q368.82812 25.39375 369.09375 25.503124Q369.25 25.565624 370.03125 25.76875Q371.15625 26.08125 371.59375 26.26875Q372.03125 26.45625 372.28125 26.815624Q372.53125 27.175 372.53125 27.721874Q372.53125 28.253124 372.21875 28.721874Q371.92188 29.175 371.34375 29.440624Q370.76562 29.690624 370.03125 29.690624Q368.8125 29.690624 368.17188 29.190624Q367.54688 28.675 367.375 27.690624ZM379.04688 27.55L380.14062 27.675Q379.89062 28.628124 379.1875 29.159374Q378.48438 29.690624 377.40625 29.690624Q376.04688 29.690624 375.23438 28.846874Q374.4375 28.003124 374.4375 26.4875Q374.4375 24.925 375.25 24.065624Q376.0625 23.190624 377.34375 23.190624Q378.59375 23.190624 379.375 24.034374Q380.17188 24.878124 380.17188 26.425Q380.17188 26.51875 380.17188 26.70625L375.53125 26.70625Q375.59375 27.7375 376.10938 28.284374Q376.625 28.815624 377.40625 28.815624Q377.98438 28.815624 378.39062 28.51875Q378.8125 28.20625 379.04688 27.55ZM375.59375 25.846874L379.0625 25.846874Q379.0 25.05 378.67188 24.659374Q378.15625 24.05 377.35938 24.05Q376.625 24.05 376.125 24.534374Q375.64062 25.01875 375.59375 25.846874ZM381.375 27.690624L382.40625 27.534374Q382.5 28.159374 382.89062 28.4875Q383.29688 28.815624 384.03125 28.815624Q384.75 28.815624 385.09375 28.534374Q385.45312 28.2375 385.45312 27.83125Q385.45312 27.471874 385.14062 27.26875Q384.92188 27.128124 384.0625 26.909374Q382.90625 26.6125 382.45312 26.409374Q382.01562 26.190624 381.78125 25.815624Q381.54688 25.440624 381.54688 24.971874Q381.54688 24.565624 381.73438 24.20625Q381.92188 23.846874 382.25 23.6125Q382.5 23.440624 382.92188 23.315624Q383.34375 23.190624 383.84375 23.190624Q384.5625 23.190624 385.10938 23.409374Q385.67188 23.6125 385.9375 23.971874Q386.20312 24.33125 386.29688 24.925L385.26562 25.065624Q385.20312 24.596874 384.85938 24.33125Q384.53125 24.05 383.90625 24.05Q383.1875 24.05 382.875 24.3Q382.5625 24.534374 382.5625 24.8625Q382.5625 25.065624 382.6875 25.221874Q382.82812 25.39375 383.09375 25.503124Q383.25 25.565624 384.03125 25.76875Q385.15625 26.08125 385.59375 26.26875Q386.03125 26.45625 386.28125 26.815624Q386.53125 27.175 386.53125 27.721874Q386.53125 28.253124 386.21875 28.721874Q385.92188 29.175 385.34375 29.440624Q384.76562 29.690624 384.03125 29.690624Q382.8125 29.690624 382.17188 29.190624Q381.54688 28.675 381.375 27.690624ZM393.8125 32.08125Q392.9375 30.971874 392.32812 29.503124Q391.73438 28.01875 391.73438 26.440624Q391.73438 25.05 392.17188 23.76875Q392.70312 22.284374 393.8125 20.815624L394.5625 20.815624Q393.85938 22.034374 393.625 22.55Q393.26562 23.3625 393.0625 24.2375Q392.8125 25.33125 392.8125 26.440624Q392.8125 29.26875 394.5625 32.08125L393.8125 32.08125ZM395.79688 29.55L395.79688 23.33125L396.73438 23.33125L396.73438 24.20625Q397.03125 23.7375 397.51562 23.471874Q398.0 23.190624 398.625 23.190624Q399.3125 23.190624 399.75 23.471874Q400.20312 23.753124 400.375 24.26875Q401.125 23.190624 402.29688 23.190624Q403.23438 23.190624 403.71875 23.70625Q404.21875 24.20625 404.21875 25.284374L404.21875 29.55L403.17188 29.55L403.17188 25.628124Q403.17188 25.003124 403.0625 24.721874Q402.96875 24.440624 402.70312 24.26875Q402.4375 24.096874 402.0625 24.096874Q401.40625 24.096874 400.96875 24.534374Q400.54688 24.971874 400.54688 25.940624L400.54688 29.55L399.48438 29.55L399.48438 25.503124Q399.48438 24.8 399.21875 24.45625Q398.96875 24.096874 398.39062 24.096874Q397.9375 24.096874 397.5625 24.33125Q397.1875 24.565624 397.01562 25.01875Q396.84375 25.471874 396.84375 26.315624L396.84375 29.55L395.79688 29.55ZM406.75 31.940624L406.625 30.95625Q406.96875 31.05 407.23438 31.05Q407.57812 31.05 407.78125 30.925Q408.0 30.815624 408.14062 30.6125Q408.23438 30.440624 408.46875 29.815624Q408.48438 29.7375 408.5625 29.565624L406.1875 23.33125L407.32812 23.33125L408.625 26.925Q408.875 27.6125 409.07812 28.378124Q409.26562 27.64375 409.51562 26.95625L410.84375 23.33125L411.89062 23.33125L409.53125 29.659374Q409.14062 30.675 408.9375 31.065624Q408.65625 31.596874 408.28125 31.83125Q407.92188 32.08125 407.42188 32.08125Q407.125 32.08125 406.75 31.940624ZM411.79688 31.940624L411.79688 23.33125L412.75 23.33125L412.75 24.128124Q413.09375 23.659374 413.51562 23.425Q413.95312 23.190624 414.5625 23.190624Q415.35938 23.190624 415.96875 23.596874Q416.57812 24.003124 416.875 24.753124Q417.1875 25.503124 417.1875 26.39375Q417.1875 27.346874 416.84375 28.1125Q416.51562 28.878124 415.85938 29.284374Q415.20312 29.690624 414.48438 29.690624Q413.95312 29.690624 413.53125 29.471874Q413.10938 29.2375 412.84375 28.909374L412.84375 31.940624L411.79688 31.940624ZM412.75 26.471874Q412.75 27.675 413.23438 28.253124Q413.71875 28.815624 414.40625 28.815624Q415.10938 28.815624 415.60938 28.221874Q416.10938 27.628124 416.10938 26.378124Q416.10938 25.190624 415.625 24.6125Q415.14062 24.01875 414.45312 24.01875Q413.78125 24.01875 413.26562 24.64375Q412.75 25.26875 412.75 26.471874ZM418.75 31.940624L418.625 30.95625Q418.96875 31.05 419.23438 31.05Q419.57812 31.05 419.78125 30.925Q420.0 30.815624 420.14062 30.6125Q420.23438 30.440624 420.46875 29.815624Q420.48438 29.7375 420.5625 29.565624L418.1875 23.33125L419.32812 23.33125L420.625 26.925Q420.875 27.6125 421.07812 28.378124Q421.26562 27.64375 421.51562 26.95625L422.84375 23.33125L423.89062 23.33125L421.53125 29.659374Q421.14062 30.675 420.9375 31.065624Q420.65625 31.596874 420.28125 31.83125Q419.92188 32.08125 419.42188 32.08125Q419.125 32.08125 418.75 31.940624ZM424.48438 32.08125L423.73438 32.08125Q425.48438 29.26875 425.48438 26.440624Q425.48438 25.346874 425.23438 24.253124Q425.03125 23.378124 424.67188 22.565624Q424.4375 22.05 423.73438 20.815624L424.48438 20.815624Q425.57812 22.284374 426.10938 23.76875Q426.5625 25.05 426.5625 26.440624Q426.5625 28.01875 425.95312 29.503124Q425.34375 30.971874 424.48438 32.08125Z" fill-rule="nonzero"/></svg>