<svg version="1.1" viewBox="0.0 0.0 600.0 371.0" fill="none" stroke="none" stroke-linecap="square" stroke-miterlimit="10" width="600" height="371" xmlns:xlink="http://www.w3.org/1999/xlink" xmlns="http://www.w3.org/2000/svg"><path fill="#ffffff" d="M0 0L600.0 0L600.0 371.0L0 371.0L0 0Z" fill-rule="nonzero"/><path stroke="#333333" stroke-width="1.0" stroke-linecap="butt" d="M45.5 332.5L581.5 332.5" fill-rule="nonzero"/><path stroke="#cccccc" stroke-width="1.0" stroke-linecap="butt" d="M45.5 276.5L581.5 276.5" fill-rule="nonzero"/><path stroke="#cccccc" stroke-width="1.0" stroke-linecap="butt" d="M45.5 220.5L581.5 220.5" fill-rule="nonzero"/><path stroke="#cccccc" stroke-width="1.0" stroke-linecap="butt" d="M45.5 164.5L581.5 164.5" fill-rule="nonzero"/><path stroke="#cccccc" stroke-width="1.0" stroke-linecap="butt" d="M45.5 108.5L581.5 108.5" fill-rule="nonzero"/><path stroke="#cccccc" stroke-width="1.0" stroke-linecap="butt" d="M45.5 51.5L581.5 51.5" fill-rule="nonzero"/><clipPath id="id_0"><path d="M45.55 51.916668L581.45 51.916668L581.45 332.45L45.55 332.45L45.55 51.916668Z" clip-rule="nonzero"/></clipPath><path stroke="#000000" stroke-width="2.0" stroke-linecap="butt" stroke-opacity="0.0" clip-path="url(#id_0)" d="M83.0 332.0L66.0 332.0L66.0 199.0C66.0 197.89543 66.89543 197.0 68.0 197.0L81.0 197.0C82.10457 197.0 83.0 197.89543 83.0 199.0Z" fill-rule="nonzero"/><path fill="#4285f4" clip-path="url(#id_0)" d="M83.0 332.0L66.0 332.0L66.0 199.0C66.0 197.89543 66.89543 197.0 68.0 197.0L81.0 197.0C82.10457 197.0 83.0 197.89543 83.0 199.0Z" fill-rule="nonzero"/><path stroke="#000000" stroke-width="2.0" stroke-linecap="butt" stroke-opacity="0.0" clip-path="url(#id_0)" d="M141.0 332.0L124.0 332.0L124.0 213.0C124.0 211.89543 124.89543 211.0 126.0 211.0L139.0 211.0C140.10457 211.0 141.0 211.89543 141.0 213.0Z" fill-rule="nonzero"/><path fill="#4285f4" clip-path="url(#id_0)" d="M141.0 332.0L124.0 332.0L124.0 213.0C124.0 211.89543 124.89543 211.0 126.0 211.0L139.0 211.0C140.10457 211.0 141.0 211.89543 141.0 213.0Z" fill-rule="nonzero"/><path stroke="#000000" stroke-width="2.0" stroke-linecap="butt" stroke-opacity="0.0" clip-path="url(#id_0)" d="M198.0 332.0L181.0 332.0L181.0 220.0C181.0 218.89543 181.89543 218.0 183.0 218.0L196.0 218.0C197.10457 218.0 198.0 218.89543 198.0 220.0Z" fill-rule="nonzero"/><path fill="#4285f4" clip-path="url(#id_0)" d="M198.0 332.0L181.0 332.0L181.0 220.0C181.0 218.89543 181.89543 218.0 183.0 218.0L196.0 218.0C197.10457 218.0 198.0 218.89543 198.0 220.0Z" fill-rule="nonzero"/><path stroke="#000000" stroke-width="2.0" stroke-linecap="butt" stroke-opacity="0.0" clip-path="url(#id_0)" d="M255.0 332.0L238.0 332.0L238.0 242.0C238.0 240.89543 238.89543 240.0 240.0 240.0L253.0 240.0C254.10457 240.0 255.0 240.89543 255.0 242.0Z" fill-rule="nonzero"/><path fill="#4285f4" clip-path="url(#id_0)" d="M255.0 332.0L238.0 332.0L238.0 242.0C238.0 240.89543 238.89543 240.0 240.0 240.0L253.0 240.0C254.10457 240.0 255.0 240.89543 255.0 242.0Z" fill-rule="nonzero"/><path stroke="#000000" stroke-width="2.0" stroke-linecap="butt" stroke-opacity="0.0" clip-path="url(#id_0)" d="M313.0 332.0L296.0 332.0L296.0 240.0C296.0 238.89543 296.89542 238.0 298.0 238.0L311.0 238.0C312.10458 238.0 313.0 238.89543 313.0 240.0Z" fill-rule="nonzero"/><path fill="#4285f4" clip-path="url(#id_0)" d="M313.0 332.0L296.0 332.0L296.0 240.0C296.0 238.89543 296.89542 238.0 298.0 238.0L311.0 238.0C312.10458 238.0 313.0 238.89543 313.0 240.0Z" fill-rule="nonzero"/><path stroke="#000000" stroke-width="2.0" stroke-linecap="butt" stroke-opacity="0.0" clip-path="url(#id_0)" d="M370.0 332.0L353.0 332.0L353.0 244.0C353.0 242.89543 353.89542 242.0 355.0 242.0L368.0 242.0C369.10458 242.0 370.0 242.89543 370.0 244.0Z" fill-rule="nonzero"/><path fill="#4285f4" clip-path="url(#id_0)" d="M370.0 332.0L353.0 332.0L353.0 244.0C353.0 242.89543 353.89542 242.0 355.0 242.0L368.0 242.0C369.10458 242.0 370.0 242.89543 370.0 244.0Z" fill-rule="nonzero"/><path stroke="#000000" stroke-width="2.0" stroke-linecap="butt" stroke-opacity="0.0" clip-path="url(#id_0)" d="M427.0 332.0L410.0 332.0L410.0 230.0C410.0 228.89543 410.89542 228.0 412.0 228.0L425.0 228.0C426.10458 228.0 427.0 228.89543 427.0 230.0Z" fill-rule="nonzero"/><path fill="#4285f4" clip-path="url(#id_0)" d="M427.0 332.0L410.0 332.0L410.0 230.0C410.0 228.89543 410.89542 228.0 412.0 228.0L425.0 228.0C426.10458 228.0 427.0 228.89543 427.0 230.0Z" fill-rule="nonzero"/><path stroke="#000000" stroke-width="2.0" stroke-linecap="butt" stroke-opacity="0.0" clip-path="url(#id_0)" d="M484.0 332.0L467.0 332.0L467.0 260.0C467.0 258.89542 467.89542 258.0 469.0 258.0L482.0 258.0C483.10458 258.0 484.0 258.89542 484.0 260.0Z" fill-rule="nonzero"/><path fill="#4285f4" clip-path="url(#id_0)" d="M484.0 332.0L467.0 332.0L467.0 260.0C467.0 258.89542 467.89542 258.0 469.0 258.0L482.0 258.0C483.10458 258.0 484.0 258.89542 484.0 260.0Z" fill-rule="nonzero"/><path stroke="#000000" stroke-width="2.0" stroke-linecap="butt" stroke-opacity="0.0" clip-path="url(#id_0)" d="M542.0 332.0L525.0 332.0L525.0 272.0C525.0 270.89542 525.89545 270.0 527.0 270.0L540.0 270.0C541.10455 270.0 542.0 270.89542 542.0 272.0Z" fill-rule="nonzero"/><path fill="#4285f4" clip-path="url(#id_0)" d="M542.0 332.0L525.0 332.0L525.0 272.0C525.0 270.89542 525.89545 270.0 527.0 270.0L540.0 270.0C541.10455 270.0 542.0 270.89542 542.0 272.0Z" fill-rule="nonzero"/><path stroke="#000000" stroke-width="2.0" stroke-linecap="butt" stroke-opacity="0.0" clip-path="url(#id_0)" d="M102.0 332.0L85.0 332.0L85.0 72.0C85.0 70.89543 85.89543 70.0 87.0 70.0L100.0 70.0C101.10457 70.0 102.0 70.89543 102.0 72.0Z" fill-rule="nonzero"/><path fill="#ea4335" clip-path="url(#id_0)" d="M102.0 332.0L85.0 332.0L85.0 72.0C85.0 70.89543 85.89543 70.0 87.0 70.0L100.0 70.0C101.10457 70.0 102.0 70.89543 102.0 72.0Z" fill-rule="nonzero"/><path stroke="#000000" stroke-width="2.0" stroke-linecap="butt" stroke-opacity="0.0" clip-path="url(#id_0)" d="M160.0 332.0L143.0 332.0L143.0 191.0C143.0 189.89543 143.89543 189.0 145.0 189.0L158.0 189.0C159.10457 189.0 160.0 189.89543 160.0 191.0Z" fill-rule="nonzero"/><path fill="#ea4335" clip-path="url(#id_0)" d="M160.0 332.0L143.0 332.0L143.0 191.0C143.0 189.89543 143.89543 189.0 145.0 189.0L158.0 189.0C159.10457 189.0 160.0 189.89543 160.0 191.0Z" fill-rule="nonzero"/><path stroke="#000000" stroke-width="2.0" stroke-linecap="butt" stroke-opacity="0.0" clip-path="url(#id_0)" d="M217.0 332.0L200.0 332.0L200.0 189.0C200.0 187.89543 200.89543 187.0 202.0 187.0L215.0 187.0C216.10457 187.0 217.0 187.89543 217.0 189.0Z" fill-rule="nonzero"/><path fill="#ea4335" clip-path="url(#id_0)" d="M217.0 332.0L200.0 332.0L200.0 189.0C200.0 187.89543 200.89543 187.0 202.0 187.0L215.0 187.0C216.10457 187.0 217.0 187.89543 217.0 189.0Z" fill-rule="nonzero"/><path stroke="#000000" stroke-width="2.0" stroke-linecap="butt" stroke-opacity="0.0" clip-path="url(#id_0)" d="M274.0 332.0L257.0 332.0L257.0 217.0C257.0 215.89543 257.89542 215.0 259.0 215.0L272.0 215.0C273.10458 215.0 274.0 215.89543 274.0 217.0Z" fill-rule="nonzero"/><path fill="#ea4335" clip-path="url(#id_0)" d="M274.0 332.0L257.0 332.0L257.0 217.0C257.0 215.89543 257.89542 215.0 259.0 215.0L272.0 215.0C273.10458 215.0 274.0 215.89543 274.0 217.0Z" fill-rule="nonzero"/><path stroke="#000000" stroke-width="2.0" stroke-linecap="butt" stroke-opacity="0.0" clip-path="url(#id_0)" d="M332.0 332.0L315.0 332.0L315.0 271.0C315.0 269.89542 315.89542 269.0 317.0 269.0L330.0 269.0C331.10458 269.0 332.0 269.89542 332.0 271.0Z" fill-rule="nonzero"/><path fill="#ea4335" clip-path="url(#id_0)" d="M332.0 332.0L315.0 332.0L315.0 271.0C315.0 269.89542 315.89542 269.0 317.0 269.0L330.0 269.0C331.10458 269.0 332.0 269.89542 332.0 271.0Z" fill-rule="nonzero"/><path stroke="#000000" stroke-width="2.0" stroke-linecap="butt" stroke-opacity="0.0" clip-path="url(#id_0)" d="M389.0 332.0L372.0 332.0L372.0 266.0C372.0 264.89542 372.89542 264.0 374.0 264.0L387.0 264.0C388.10458 264.0 389.0 264.89542 389.0 266.0Z" fill-rule="nonzero"/><path fill="#ea4335" clip-path="url(#id_0)" d="M389.0 332.0L372.0 332.0L372.0 266.0C372.0 264.89542 372.89542 264.0 374.0 264.0L387.0 264.0C388.10458 264.0 389.0 264.89542 389.0 266.0Z" fill-rule="nonzero"/><path stroke="#000000" stroke-width="2.0" stroke-linecap="butt" stroke-opacity="0.0" clip-path="url(#id_0)" d="M446.0 332.0L429.0 332.0L429.0 286.0C429.0 284.89542 429.89542 284.0 431.0 284.0L444.0 284.0C445.10458 284.0 446.0 284.89542 446.0 286.0Z" fill-rule="nonzero"/><path fill="#ea4335" clip-path="url(#id_0)" d="M446.0 332.0L429.0 332.0L429.0 286.0C429.0 284.89542 429.89542 284.0 431.0 284.0L444.0 284.0C445.10458 284.0 446.0 284.89542 446.0 286.0Z" fill-rule="nonzero"/><path stroke="#000000" stroke-width="2.0" stroke-linecap="butt" stroke-opacity="0.0" clip-path="url(#id_0)" d="M503.0 332.0L486.0 332.0L486.0 276.0C486.0 274.89542 486.89542 274.0 488.0 274.0L501.0 274.0C502.10458 274.0 503.0 274.89542 503.0 276.0Z" fill-rule="nonzero"/><path fill="#ea4335" clip-path="url(#id_0)" d="M503.0 332.0L486.0 332.0L486.0 276.0C486.0 274.89542 486.89542 274.0 488.0 274.0L501.0 274.0C502.10458 274.0 503.0 274.89542 503.0 276.0Z" fill-rule="nonzero"/><path stroke="#000000" stroke-width="2.0" stroke-linecap="butt" stroke-opacity="0.0" clip-path="url(#id_0)" d="M561.0 332.0L544.0 332.0L544.0 290.0C544.0 288.89542 544.89545 288.0 546.0 288.0L559.0 288.0C560.10455 288.0 561.0 288.89542 561.0 290.0Z" fill-rule="nonzero"/><path fill="#ea4335" clip-path="url(#id_0)" d="M561.0 332.0L544.0 332.0L544.0 290.0C544.0 288.89542 544.89545 288.0 546.0 288.0L559.0 288.0C560.10455 288.0 561.0 288.89542 561.0 290.0Z" fill-rule="nonzero"/><path fill="#000000" d="M33.05 332.21564Q33.05 330.6844 33.3625 329.7625Q33.675 328.825 34.284374 328.325Q34.909374 327.825 35.846874 327.825Q36.534374 327.825 37.05 328.10626Q37.58125 328.3875 37.925 328.91876Q38.26875 329.4344 38.45625 330.1844Q38.64375 330.9344 38.64375 332.21564Q38.64375 333.73126 38.33125 334.65314Q38.034374 335.575 37.409374 336.09064Q36.8 336.59064 35.846874 336.59064Q34.6125 336.59064 33.89375 335.7Q33.05 334.6375 33.05 332.21564ZM34.128124 332.21564Q34.128124 334.325 34.628124 335.02814Q35.128124 335.73126 35.846874 335.73126Q36.58125 335.73126 37.065624 335.02814Q37.565624 334.325 37.565624 332.21564Q37.565624 330.09064 37.065624 329.40314Q36.58125 328.7 35.83125 328.7Q35.1125 328.7 34.675 329.3094Q34.128124 330.09064 34.128124 332.21564Z" fill-rule="nonzero"/><path fill="#000000" d="M37.01875 280.34332L35.971874 280.34332L35.971874 273.62457Q35.58125 273.98395 34.95625 274.35895Q34.346874 274.71832 33.8625 274.8902L33.8625 273.87457Q34.7375 273.4527 35.39375 272.87457Q36.065624 272.28082 36.346874 271.71832L37.01875 271.71832L37.01875 280.34332Z" fill-rule="nonzero"/><path fill="#000000" d="M38.596874 223.22104L38.596874 224.23666L32.909374 224.23666Q32.909374 223.86166 33.034374 223.50229Q33.253124 222.92416 33.721874 222.36166Q34.20625 221.79916 35.1125 221.06479Q36.51875 219.90854 37.003124 219.23666Q37.503124 218.56479 37.503124 217.97104Q37.503124 217.34604 37.05 216.92416Q36.596874 216.48666 35.878124 216.48666Q35.1125 216.48666 34.659374 216.93979Q34.20625 217.39291 34.190624 218.20541L33.1125 218.09604Q33.221874 216.87729 33.940624 216.25229Q34.675 215.61166 35.909374 215.61166Q37.14375 215.61166 37.8625 216.29916Q38.58125 216.98666 38.58125 218.00229Q38.58125 218.51791 38.3625 219.01791Q38.159374 219.50229 37.659374 220.06479Q37.175 220.61166 36.05 221.56479Q35.096874 222.36166 34.815624 222.65854Q34.55 222.93979 34.378124 223.22104L38.596874 223.22104Z" fill-rule="nonzero"/><path fill="#000000" d="M33.05 165.86438L34.1125 165.72375Q34.284374 166.61438 34.721874 167.02063Q35.159374 167.41125 35.784374 167.41125Q36.534374 167.41125 37.05 166.89563Q37.565624 166.38 37.565624 165.61438Q37.565624 164.89563 37.08125 164.42688Q36.6125 163.9425 35.878124 163.9425Q35.58125 163.9425 35.128124 164.0675L35.253124 163.13Q35.3625 163.14563 35.425 163.14563Q36.096874 163.14563 36.628124 162.80188Q37.175 162.4425 37.175 161.70813Q37.175 161.13 36.784374 160.755Q36.39375 160.36438 35.76875 160.36438Q35.159374 160.36438 34.7375 160.755Q34.33125 161.14563 34.221874 161.91125L33.159374 161.72375Q33.346874 160.67688 34.034374 160.09875Q34.721874 159.505 35.7375 159.505Q36.440624 159.505 37.034374 159.8175Q37.628124 160.11438 37.940624 160.63Q38.253124 161.14563 38.253124 161.73938Q38.253124 162.28625 37.95625 162.755Q37.659374 163.20813 37.08125 163.47375Q37.83125 163.64563 38.253124 164.20813Q38.675 164.755 38.675 165.59875Q38.675 166.72375 37.846874 167.505Q37.034374 168.28625 35.784374 168.28625Q34.659374 168.28625 33.909374 167.61438Q33.159374 166.92688 33.05 165.86438Z" fill-rule="nonzero"/><path fill="#000000" d="M36.425 112.02333L36.425 109.96083L32.70625 109.96083L32.70625 108.99208L36.628124 103.42958L37.4875 103.42958L37.4875 108.99208L38.64375 108.99208L38.64375 109.96083L37.4875 109.96083L37.4875 112.02333L36.425 112.02333ZM36.425 108.99208L36.425 105.132706L33.7375 108.99208L36.425 108.99208Z" fill-rule="nonzero"/><path fill="#000000" d="M33.05 53.666668L34.159374 53.572918Q34.284374 54.385418 34.721874 54.791668Q35.175 55.197918 35.815624 55.197918Q36.565624 55.197918 37.096874 54.619793Q37.628124 54.041668 37.628124 53.104168Q37.628124 52.197918 37.1125 51.682293Q36.6125 51.151043 35.784374 51.151043Q35.284374 51.151043 34.8625 51.385418Q34.45625 51.619793 34.221874 51.979168L33.2375 51.854168L34.065624 47.447918L38.346874 47.447918L38.346874 48.447918L34.909374 48.447918L34.45625 50.760418Q35.221874 50.213543 36.065624 50.213543Q37.190624 50.213543 37.95625 50.994793Q38.7375 51.776043 38.7375 53.010418Q38.7375 54.166668 38.065624 55.026043Q37.2375 56.057293 35.815624 56.057293Q34.64375 56.057293 33.89375 55.401043Q33.159374 54.744793 33.05 53.666668Z" fill-rule="nonzero"/><path fill="#000000" d="M76.20672 349.45L75.15984 349.45L75.15984 342.73126Q74.76922 343.09064 74.14422 343.46564Q73.53484 343.825 73.05047 343.9969L73.05047 342.98126Q73.92547 342.5594 74.58172 341.98126Q75.25359 341.3875 75.53484 340.825L76.20672 340.825L76.20672 349.45ZM82.61297 349.45L82.61297 347.3875L78.89422 347.3875L78.89422 346.41876L82.81609 340.85626L83.67547 340.85626L83.67547 346.41876L84.83172 346.41876L84.83172 347.3875L83.67547 347.3875L83.67547 349.45L82.61297 349.45ZM82.61297 346.41876L82.61297 342.5594L79.92547 346.41876L82.61297 346.41876ZM86.53484 349.45L86.53484 343.23126L87.47234 343.23126L87.47234 344.10626Q87.76922 343.6375 88.25359 343.3719Q88.73797 343.09064 89.36297 343.09064Q90.05047 343.09064 90.48797 343.3719Q90.94109 343.65314 91.11297 344.16876Q91.86297 343.09064 93.03484 343.09064Q93.97234 343.09064 94.45672 343.60626Q94.95672 344.10626 94.95672 345.1844L94.95672 349.45L93.90984 349.45L93.90984 345.52814Q93.90984 344.90314 93.80047 344.6219Q93.70672 344.34064 93.44109 344.16876Q93.17547 343.9969 92.80047 343.9969Q92.14422 343.9969 91.70672 344.4344Q91.28484 344.8719 91.28484 345.84064L91.28484 349.45L90.22234 349.45L90.22234 345.40314Q90.22234 344.7 89.95672 344.35626Q89.70672 343.9969 89.12859 343.9969Q88.67547 343.9969 88.30047 344.23126Q87.92547 344.46564 87.75359 344.91876Q87.58172 345.3719 87.58172 346.21564L87.58172 349.45L86.53484 349.45Z" fill-rule="nonzero"/><path fill="#000000" d="M129.55348 347.1844L130.61598 347.04376Q130.78786 347.9344 131.22536 348.34064Q131.66286 348.73126 132.28786 348.73126Q133.03786 348.73126 133.55348 348.21564Q134.0691 347.7 134.0691 346.9344Q134.0691 346.21564 133.58473 345.7469Q133.11598 345.2625 132.3816 345.2625Q132.08473 345.2625 131.6316 345.3875L131.7566 344.45Q131.86598 344.46564 131.92848 344.46564Q132.60036 344.46564 133.1316 344.1219Q133.67848 343.7625 133.67848 343.02814Q133.67848 342.45 133.28786 342.075Q132.89723 341.6844 132.27223 341.6844Q131.66286 341.6844 131.24098 342.075Q130.83473 342.46564 130.72536 343.23126L129.66286 343.04376Q129.85036 341.9969 130.53786 341.41876Q131.22536 340.825 132.24098 340.825Q132.9441 340.825 133.53786 341.1375Q134.1316 341.4344 134.4441 341.95Q134.7566 342.46564 134.7566 343.0594Q134.7566 343.60626 134.45973 344.075Q134.16286 344.52814 133.58473 344.79376Q134.33473 344.96564 134.7566 345.52814Q135.17848 346.075 135.17848 346.91876Q135.17848 348.04376 134.35036 348.825Q133.53786 349.60626 132.28786 349.60626Q131.16286 349.60626 130.41286 348.9344Q129.66286 348.2469 129.55348 347.1844ZM140.52223 349.45L139.47536 349.45L139.47536 342.73126Q139.08473 343.09064 138.45973 343.46564Q137.85036 343.825 137.36598 343.9969L137.36598 342.98126Q138.24098 342.5594 138.89723 341.98126Q139.5691 341.3875 139.85036 340.825L140.52223 340.825L140.52223 349.45ZM143.85036 349.45L143.85036 343.23126L144.78786 343.23126L144.78786 344.10626Q145.08473 343.6375 145.5691 343.3719Q146.05348 343.09064 146.67848 343.09064Q147.36598 343.09064 147.80348 343.3719Q148.2566 343.65314 148.42848 344.16876Q149.17848 343.09064 150.35036 343.09064Q151.28786 343.09064 151.77223 343.60626Q152.27223 344.10626 152.27223 345.1844L152.27223 349.45L151.22536 349.45L151.22536 345.52814Q151.22536 344.90314 151.11598 344.6219Q151.02223 344.34064 150.7566 344.16876Q150.49098 343.9969 150.11598 343.9969Q149.45973 343.9969 149.02223 344.4344Q148.60036 344.8719 148.60036 345.84064L148.60036 349.45L147.53786 349.45L147.53786 345.40314Q147.53786 344.7 147.27223 344.35626Q147.02223 343.9969 146.4441 343.9969Q145.99098 343.9969 145.61598 344.23126Q145.24098 344.46564 145.0691 344.91876Q144.89723 345.3719 144.89723 346.21564L144.89723 349.45L143.85036 349.45Z" fill-rule="nonzero"/><path fill="#000000" d="M186.93149 341.98126L186.93149 340.96564L192.49399 340.96564L192.49399 341.79376Q191.68149 342.66876 190.86899 344.1219Q190.07211 345.5594 189.63461 347.09064Q189.30649 348.16876 189.22836 349.45L188.13461 349.45Q188.15024 348.4344 188.52524 346.9969Q188.91586 345.5594 189.61899 344.23126Q190.33774 342.90314 191.15024 341.98126L186.93149 341.98126ZM193.86899 345.21564Q193.86899 343.6844 194.18149 342.7625Q194.49399 341.825 195.10336 341.325Q195.72836 340.825 196.66586 340.825Q197.35336 340.825 197.86899 341.10626Q198.40024 341.3875 198.74399 341.91876Q199.08774 342.4344 199.27524 343.1844Q199.46274 343.9344 199.46274 345.21564Q199.46274 346.73126 199.15024 347.65314Q198.85336 348.575 198.22836 349.09064Q197.61899 349.59064 196.66586 349.59064Q195.43149 349.59064 194.71274 348.7Q193.86899 347.6375 193.86899 345.21564ZM194.94711 345.21564Q194.94711 347.325 195.44711 348.02814Q195.94711 348.73126 196.66586 348.73126Q197.40024 348.73126 197.88461 348.02814Q198.38461 347.325 198.38461 345.21564Q198.38461 343.09064 197.88461 342.40314Q197.40024 341.7 196.65024 341.7Q195.93149 341.7 195.49399 342.3094Q194.94711 343.09064 194.94711 345.21564ZM201.16586 349.45L201.16586 343.23126L202.10336 343.23126L202.10336 344.10626Q202.40024 343.6375 202.88461 343.3719Q203.36899 343.09064 203.99399 343.09064Q204.68149 343.09064 205.11899 343.3719Q205.57211 343.65314 205.74399 344.16876Q206.49399 343.09064 207.66586 343.09064Q208.60336 343.09064 209.08774 343.60626Q209.58774 344.10626 209.58774 345.1844L209.58774 349.45L208.54086 349.45L208.54086 345.52814Q208.54086 344.90314 208.43149 344.6219Q208.33774 344.34064 208.07211 344.16876Q207.80649 343.9969 207.43149 343.9969Q206.77524 343.9969 206.33774 344.4344Q205.91586 344.8719 205.91586 345.84064L205.91586 349.45L204.85336 349.45L204.85336 345.40314Q204.85336 344.7 204.58774 344.35626Q204.33774 343.9969 203.75961 343.9969Q203.30649 343.9969 202.93149 344.23126Q202.55649 344.46564 202.38461 344.91876Q202.21274 345.3719 202.21274 346.21564L202.21274 349.45L201.16586 349.45Z" fill-rule="nonzero"/><path fill="#000000" d="M244.65324 349.45L243.60637 349.45L243.60637 342.73126Q243.21574 343.09064 242.59074 343.46564Q241.98137 343.825 241.497 343.9969L241.497 342.98126Q242.372 342.5594 243.02824 341.98126Q243.70012 341.3875 243.98137 340.825L244.65324 340.825L244.65324 349.45ZM253.15324 342.96564L252.10637 343.04376Q251.96574 342.41876 251.71574 342.1375Q251.27824 341.6844 250.65324 341.6844Q250.15324 341.6844 249.76262 341.96564Q249.27824 342.34064 248.98137 343.04376Q248.70012 343.73126 248.6845 345.0125Q249.0595 344.4344 249.60637 344.15314Q250.16887 343.8719 250.77824 343.8719Q251.82512 343.8719 252.5595 344.65314Q253.3095 345.4344 253.3095 346.65314Q253.3095 347.46564 252.95012 348.16876Q252.60637 348.85626 251.997 349.23126Q251.38762 349.59064 250.622 349.59064Q249.29387 349.59064 248.46574 348.6219Q247.63762 347.65314 247.63762 345.4344Q247.63762 342.9344 248.5595 341.8094Q249.35637 340.825 250.71574 340.825Q251.73137 340.825 252.372 341.40314Q253.02824 341.96564 253.15324 342.96564ZM248.85637 346.66876Q248.85637 347.21564 249.07512 347.71564Q249.3095 348.2 249.71574 348.46564Q250.13762 348.73126 250.60637 348.73126Q251.26262 348.73126 251.747 348.2Q252.23137 347.65314 252.23137 346.73126Q252.23137 345.84064 251.747 345.325Q251.27824 344.8094 250.5595 344.8094Q249.84074 344.8094 249.34074 345.325Q248.85637 345.84064 248.85637 346.66876ZM254.6845 345.21564Q254.6845 343.6844 254.997 342.7625Q255.3095 341.825 255.91887 341.325Q256.54388 340.825 257.48138 340.825Q258.16888 340.825 258.6845 341.10626Q259.21576 341.3875 259.5595 341.91876Q259.90326 342.4344 260.09076 343.1844Q260.27826 343.9344 260.27826 345.21564Q260.27826 346.73126 259.96576 347.65314Q259.66888 348.575 259.04388 349.09064Q258.4345 349.59064 257.48138 349.59064Q256.247 349.59064 255.52824 348.7Q254.6845 347.6375 254.6845 345.21564ZM255.76262 345.21564Q255.76262 347.325 256.26263 348.02814Q256.76263 348.73126 257.48138 348.73126Q258.21576 348.73126 258.70013 348.02814Q259.20013 347.325 259.20013 345.21564Q259.20013 343.09064 258.70013 342.40314Q258.21576 341.7 257.46576 341.7Q256.747 341.7 256.3095 342.3094Q255.76262 343.09064 255.76262 345.21564ZM261.98138 349.45L261.98138 343.23126L262.91888 343.23126L262.91888 344.10626Q263.21576 343.6375 263.70013 343.3719Q264.1845 343.09064 264.8095 343.09064Q265.497 343.09064 265.9345 343.3719Q266.38763 343.65314 266.5595 344.16876Q267.3095 343.09064 268.48138 343.09064Q269.41888 343.09064 269.90326 343.60626Q270.40326 344.10626 270.40326 345.1844L270.40326 349.45L269.35638 349.45L269.35638 345.52814Q269.35638 344.90314 269.247 344.6219Q269.15326 344.34064 268.88763 344.16876Q268.622 343.9969 268.247 343.9969Q267.59076 343.9969 267.15326 344.4344Q266.73138 344.8719 266.73138 345.84064L266.73138 349.45L265.66888 349.45L265.66888 345.40314Q265.66888 344.7 265.40326 344.35626Q265.15326 343.9969 264.57513 343.9969Q264.122 343.9969 263.747 344.23126Q263.372 344.46564 263.20013 344.91876Q263.02826 345.3719 263.02826 346.21564L263.02826 349.45L261.98138 349.45Z" fill-rule="nonzero"/><path fill="#000000" d="M301.375 349.45L301.375 347.3875L297.65625 347.3875L297.65625 346.41876L301.57812 340.85626L302.4375 340.85626L302.4375 346.41876L303.59375 346.41876L303.59375 347.3875L302.4375 347.3875L302.4375 349.45L301.375 349.45ZM301.375 346.41876L301.375 342.5594L298.6875 346.41876L301.375 346.41876ZM308.96875 349.45L307.92188 349.45L307.92188 342.73126Q307.53125 343.09064 306.90625 343.46564Q306.29688 343.825 305.8125 343.9969L305.8125 342.98126Q306.6875 342.5594 307.34375 341.98126Q308.01562 341.3875 308.29688 340.825L308.96875 340.825L308.96875 349.45ZM312.0 345.21564Q312.0 343.6844 312.3125 342.7625Q312.625 341.825 313.23438 341.325Q313.85938 340.825 314.79688 340.825Q315.48438 340.825 316.0 341.10626Q316.53125 341.3875 316.875 341.91876Q317.21875 342.4344 317.40625 343.1844Q317.59375 343.9344 317.59375 345.21564Q317.59375 346.73126 317.28125 347.65314Q316.98438 348.575 316.35938 349.09064Q315.75 349.59064 314.79688 349.59064Q313.5625 349.59064 312.84375 348.7Q312.0 347.6375 312.0 345.21564ZM313.07812 345.21564Q313.07812 347.325 313.57812 348.02814Q314.07812 348.73126 314.79688 348.73126Q315.53125 348.73126 316.01562 348.02814Q316.51562 347.325 316.51562 345.21564Q316.51562 343.09064 316.01562 342.40314Q315.53125 341.7 314.78125 341.7Q314.0625 341.7 313.625 342.3094Q313.07812 343.09064 313.07812 345.21564ZM319.29688 349.45L319.29688 343.23126L320.23438 343.23126L320.23438 344.10626Q320.53125 343.6375 321.01562 343.3719Q321.5 343.09064 322.125 343.09064Q322.8125 343.09064 323.25 343.3719Q323.70312 343.65314 323.875 344.16876Q324.625 343.09064 325.79688 343.09064Q326.73438 343.09064 327.21875 343.60626Q327.71875 344.10626 327.71875 345.1844L327.71875 349.45L326.67188 349.45L326.67188 345.52814Q326.67188 344.90314 326.5625 344.6219Q326.46875 344.34064 326.20312 344.16876Q325.9375 343.9969 325.5625 343.9969Q324.90625 343.9969 324.46875 344.4344Q324.04688 344.8719 324.04688 345.84064L324.04688 349.45L322.98438 349.45L322.98438 345.40314Q322.98438 344.7 322.71875 344.35626Q322.46875 343.9969 321.89062 343.9969Q321.4375 343.9969 321.0625 344.23126Q320.6875 344.46564 320.51562 344.91876Q320.34375 345.3719 320.34375 346.21564L320.34375 349.45L319.29688 349.45Z" fill-rule="nonzero"/><path fill="#000000" d="M368.28427 349.45L367.2374 349.45L367.2374 342.73126Q366.84677 343.09064 366.22177 343.46564Q365.6124 343.825 365.12802 343.9969L365.12802 342.98126Q366.00302 342.5594 366.65927 341.98126Q367.33115 341.3875 367.6124 340.825L368.28427 340.825L368.28427 349.45ZM372.58115 349.45L371.59677 349.45L371.59677 340.85626L372.65927 340.85626L372.65927 343.91876Q373.33115 343.09064 374.3624 343.09064Q374.94052 343.09064 375.44052 343.325Q375.95615 343.54376 376.28427 343.96564Q376.62802 344.3875 376.81552 344.98126Q377.00302 345.575 377.00302 346.2469Q377.00302 347.84064 376.20615 348.71564Q375.40927 349.59064 374.31552 349.59064Q373.20615 349.59064 372.58115 348.66876L372.58115 349.45ZM372.56552 346.29376Q372.56552 347.40314 372.87802 347.90314Q373.37802 348.71564 374.22177 348.71564Q374.90927 348.71564 375.40927 348.1219Q375.9249 347.52814 375.9249 346.325Q375.9249 345.10626 375.44052 344.52814Q374.95615 343.95 374.26865 343.95Q373.58115 343.95 373.06552 344.5594Q372.56552 345.15314 372.56552 346.29376Z" fill-rule="nonzero"/><path fill="#000000" d="M420.59976 349.45L419.5529 349.45L419.5529 342.73126Q419.16226 343.09064 418.53726 343.46564Q417.9279 343.825 417.4435 343.9969L417.4435 342.98126Q418.3185 342.5594 418.97476 341.98126Q419.64664 341.3875 419.9279 340.825L420.59976 340.825L420.59976 349.45ZM424.22476 349.45L424.22476 348.2469L425.4279 348.2469L425.4279 349.45L424.22476 349.45ZM430.006 349.45L430.006 347.3875L426.28726 347.3875L426.28726 346.41876L430.20914 340.85626L431.0685 340.85626L431.0685 346.41876L432.22476 346.41876L432.22476 347.3875L431.0685 347.3875L431.0685 349.45L430.006 349.45ZM430.006 346.41876L430.006 342.5594L427.3185 346.41876L430.006 346.41876ZM434.89664 349.45L433.91226 349.45L433.91226 340.85626L434.97476 340.85626L434.97476 343.91876Q435.64664 343.09064 436.6779 343.09064Q437.256 343.09064 437.756 343.325Q438.27164 343.54376 438.59976 343.96564Q438.9435 344.3875 439.131 344.98126Q439.3185 345.575 439.3185 346.2469Q439.3185 347.84064 438.52164 348.71564Q437.72476 349.59064 436.631 349.59064Q435.52164 349.59064 434.89664 348.66876L434.89664 349.45ZM434.881 346.29376Q434.881 347.40314 435.1935 347.90314Q435.6935 348.71564 436.53726 348.71564Q437.22476 348.71564 437.72476 348.1219Q438.2404 347.52814 438.2404 346.325Q438.2404 345.10626 437.756 344.52814Q437.27164 343.95 436.58414 343.95Q435.89664 343.95 435.381 344.5594Q434.881 345.15314 434.881 346.29376Z" fill-rule="nonzero"/><path fill="#000000" d="M479.4934 348.4344L479.4934 349.45L473.8059 349.45Q473.8059 349.075 473.9309 348.71564Q474.14966 348.1375 474.6184 347.575Q475.10278 347.0125 476.00903 346.27814Q477.41528 345.1219 477.89966 344.45Q478.39966 343.77814 478.39966 343.1844Q478.39966 342.5594 477.94653 342.1375Q477.4934 341.7 476.77466 341.7Q476.00903 341.7 475.5559 342.15314Q475.10278 342.60626 475.08716 343.41876L474.00903 343.3094Q474.1184 342.09064 474.83716 341.46564Q475.57153 340.825 476.8059 340.825Q478.04028 340.825 478.75903 341.5125Q479.47778 342.2 479.47778 343.21564Q479.47778 343.73126 479.25903 344.23126Q479.0559 344.71564 478.5559 345.27814Q478.07153 345.825 476.94653 346.77814Q475.9934 347.575 475.71216 347.8719Q475.44653 348.15314 475.27466 348.4344L479.4934 348.4344ZM481.54028 349.45L481.54028 348.2469L482.7434 348.2469L482.7434 349.45L481.54028 349.45ZM485.57153 344.79376Q484.91528 344.54376 484.58716 344.10626Q484.27466 343.65314 484.27466 343.04376Q484.27466 342.10626 484.94653 341.46564Q485.63403 340.825 486.7434 340.825Q487.8684 340.825 488.5559 341.48126Q489.2434 342.1375 489.2434 343.075Q489.2434 343.66876 488.9309 344.10626Q488.6184 344.54376 487.97778 344.79376Q488.77466 345.04376 489.1809 345.6219Q489.58716 346.2 489.58716 346.9969Q489.58716 348.09064 488.8059 348.84064Q488.04028 349.59064 486.75903 349.59064Q485.4934 349.59064 484.71216 348.84064Q483.9309 348.09064 483.9309 346.96564Q483.9309 346.1219 484.35278 345.5594Q484.79028 344.9969 485.57153 344.79376ZM485.35278 342.9969Q485.35278 343.60626 485.7434 343.9969Q486.14966 344.3875 486.77466 344.3875Q487.38403 344.3875 487.77466 344.0125Q488.16528 343.6219 488.16528 343.0594Q488.16528 342.48126 487.75903 342.09064Q487.35278 341.6844 486.75903 341.6844Q486.14966 341.6844 485.7434 342.075Q485.35278 342.46564 485.35278 342.9969ZM485.02466 346.96564Q485.02466 347.41876 485.22778 347.84064Q485.44653 348.2625 485.8684 348.4969Q486.29028 348.73126 486.77466 348.73126Q487.52466 348.73126 488.00903 348.2469Q488.50903 347.7625 488.50903 347.0125Q488.50903 346.2469 488.00903 345.7469Q487.50903 345.2469 486.7434 345.2469Q485.9934 345.2469 485.50903 345.7469Q485.02466 346.23126 485.02466 346.96564ZM492.21216 349.45L491.22778 349.45L491.22778 340.85626L492.29028 340.85626L492.29028 343.91876Q492.96216 343.09064 493.9934 343.09064Q494.57153 343.09064 495.07153 343.325Q495.58716 343.54376 495.91528 343.96564Q496.25903 344.3875 496.44653 344.98126Q496.63403 345.575 496.63403 346.2469Q496.63403 347.84064 495.83716 348.71564Q495.04028 349.59064 493.94653 349.59064Q492.83716 349.59064 492.21216 348.66876L492.21216 349.45ZM492.19653 346.29376Q492.19653 347.40314 492.50903 347.90314Q493.00903 348.71564 493.85278 348.71564Q494.54028 348.71564 495.04028 348.1219Q495.5559 347.52814 495.5559 346.325Q495.5559 345.10626 495.07153 344.52814Q494.58716 343.95 493.89966 343.95Q493.21216 343.95 492.69653 344.5594Q492.19653 345.15314 492.19653 346.29376Z" fill-rule="nonzero"/><path fill="#000000" d="M536.7308 342.96564L535.6839 343.04376Q535.5433 342.41876 535.2933 342.1375Q534.8558 341.6844 534.2308 341.6844Q533.7308 341.6844 533.34015 341.96564Q532.8558 342.34064 532.5589 343.04376Q532.27765 343.73126 532.262 345.0125Q532.637 344.4344 533.1839 344.15314Q533.7464 343.8719 534.3558 343.8719Q535.40265 343.8719 536.137 344.65314Q536.887 345.4344 536.887 346.65314Q536.887 347.46564 536.52765 348.16876Q536.1839 348.85626 535.5745 349.23126Q534.96515 349.59064 534.1995 349.59064Q532.8714 349.59064 532.0433 348.6219Q531.21515 347.65314 531.21515 345.4344Q531.21515 342.9344 532.137 341.8094Q532.9339 340.825 534.2933 340.825Q535.3089 340.825 535.9495 341.40314Q536.6058 341.96564 536.7308 342.96564ZM532.4339 346.66876Q532.4339 347.21564 532.65265 347.71564Q532.887 348.2 533.2933 348.46564Q533.71515 348.73126 534.1839 348.73126Q534.84015 348.73126 535.3245 348.2Q535.8089 347.65314 535.8089 346.73126Q535.8089 345.84064 535.3245 345.325Q534.8558 344.8094 534.137 344.8094Q533.4183 344.8094 532.9183 345.325Q532.4339 345.84064 532.4339 346.66876ZM538.8558 349.45L538.8558 348.2469L540.0589 348.2469L540.0589 349.45L538.8558 349.45ZM541.4183 347.46564L542.4339 347.3719Q542.5589 348.09064 542.9183 348.41876Q543.2933 348.73126 543.8558 348.73126Q544.34015 348.73126 544.6995 348.5125Q545.0745 348.27814 545.3089 347.91876Q545.5433 347.54376 545.6995 346.91876Q545.8558 346.27814 545.8558 345.6219Q545.8558 345.54376 545.8558 345.40314Q545.5433 345.90314 544.9964 346.23126Q544.4495 346.54376 543.8089 346.54376Q542.7308 346.54376 541.9964 345.77814Q541.262 344.9969 541.262 343.73126Q541.262 342.41876 542.02765 341.6219Q542.8089 340.825 543.96515 340.825Q544.7933 340.825 545.4808 341.27814Q546.1839 341.73126 546.5433 342.575Q546.90265 343.40314 546.90265 344.98126Q546.90265 346.6219 546.5433 347.60626Q546.1995 348.575 545.4808 349.09064Q544.77765 349.59064 543.84015 349.59064Q542.8245 349.59064 542.1839 349.04376Q541.5433 348.48126 541.4183 347.46564ZM545.7308 343.66876Q545.7308 342.7625 545.2464 342.23126Q544.77765 341.7 544.09015 341.7Q543.387 341.7 542.8558 342.27814Q542.34015 342.84064 542.34015 343.7625Q542.34015 344.575 542.84015 345.09064Q543.34015 345.60626 544.0589 345.60626Q544.7933 345.60626 545.262 345.09064Q545.7308 344.575 545.7308 343.66876ZM549.52765 349.45L548.5433 349.45L548.5433 340.85626L549.6058 340.85626L549.6058 343.91876Q550.27765 343.09064 551.3089 343.09064Q551.887 343.09064 552.387 343.325Q552.90265 343.54376 553.2308 343.96564Q553.5745 344.3875 553.762 344.98126Q553.9495 345.575 553.9495 346.2469Q553.9495 347.84064 553.15265 348.71564Q552.3558 349.59064 551.262 349.59064Q550.15265 349.59064 549.52765 348.66876L549.52765 349.45ZM549.512 346.29376Q549.512 347.40314 549.8245 347.90314Q550.3245 348.71564 551.1683 348.71564Q551.8558 348.71564 552.3558 348.1219Q552.8714 347.52814 552.8714 346.325Q552.8714 345.10626 552.387 344.52814Q551.90265 343.95 551.21515 343.95Q550.52765 343.95 550.012 344.5594Q549.512 345.15314 549.512 346.29376Z" fill-rule="nonzero"/><path fill="#4285f4" d="M244.0 20.55C244.0 19.997715 244.44771 19.55 245.0 19.55L255.0 19.55C255.55229 19.55 256.0 19.997715 256.0 20.55L256.0 30.55C256.0 31.102285 255.55229 31.55 255.0 31.55L245.0 31.55C244.44771 31.55 244.0 31.102285 244.0 30.55Z" fill-rule="nonzero"/><path fill="#1a1a1a" d="M264.89062 29.55L264.89062 20.95625L266.60938 20.95625L268.64062 27.034374Q268.92188 27.89375 269.04688 28.315624Q269.1875 27.846874 269.5 26.940624L271.5625 20.95625L273.09375 20.95625L273.09375 29.55L272.0 29.55L272.0 22.3625L269.5 29.55L268.46875 29.55L265.98438 22.2375L265.98438 29.55L264.89062 29.55ZM273.89062 29.55L273.89062 20.95625L275.60938 20.95625L277.64062 27.034374Q277.92188 27.89375 278.04688 28.315624Q278.1875 27.846874 278.5 26.940624L280.5625 20.95625L282.09375 20.95625L282.09375 29.55L281.0 29.55L281.0 22.3625L278.5 29.55L277.46875 29.55L274.98438 22.2375L274.98438 29.55L273.89062 29.55Z" fill-rule="nonzero"/><path fill="#ea4335" d="M298.0 20.55C298.0 19.997715 298.44772 19.55 299.0 19.55L309.0 19.55C309.55228 19.55 310.0 19.997715 310.0 20.55L310.0 30.55C310.0 31.102285 309.55228 31.55 309.0 31.55L299.0 31.55C298.44772 31.55 298.0 31.102285 298.0 30.55Z" fill-rule="nonzero"/><path fill="#1a1a1a" d="M318.89062 29.55L318.89062 20.95625L320.60938 20.95625L322.64062 27.034374Q322.92188 27.89375 323.04688 28.315624Q323.1875 27.846874 323.5 26.940624L325.5625 20.95625L327.09375 20.95625L327.09375 29.55L326.0 29.55L326.0 22.3625L323.5 29.55L322.46875 29.55L319.98438 22.2375L319.98438 29.55L318.89062 29.55ZM327.89062 29.55L327.89062 20.95625L329.60938 20.95625L331.64062 27.034374Q331.92188 27.89375 332.04688 28.315624Q332.1875 27.846874 332.5 26.940624L334.5625 20.95625L336.09375 20.95625L336.09375 29.55L335.0 29.55L335.0 22.3625L332.5 29.55L331.46875 29.55L328.98438 22.2375L328.98438 29.55L327.89062 29.55ZM336.375 26.971874L336.375 25.909374L339.625 25.909374L339.625 26.971874L336.375 26.971874ZM340.875 29.55L340.875 20.95625L342.01562 20.95625L342.01562 28.534374L346.25 28.534374L346.25 29.55L340.875 29.55ZM347.9375 29.55L347.9375 20.95625L351.75 20.95625Q352.90625 20.95625 353.5 21.190624Q354.09375 21.425 354.45312 22.01875Q354.8125 22.596874 354.8125 23.3Q354.8125 24.221874 354.21875 24.846874Q353.625 25.471874 352.39062 25.64375Q352.84375 25.8625 353.07812 26.065624Q353.57812 26.51875 354.01562 27.20625L355.51562 29.55L354.07812 29.55L352.95312 27.76875Q352.45312 26.9875 352.125 26.58125Q351.8125 26.175 351.54688 26.01875Q351.29688 25.846874 351.03125 25.76875Q350.84375 25.7375 350.40625 25.7375L349.07812 25.7375L349.07812 29.55L347.9375 29.55ZM349.07812 24.753124L351.53125 24.753124Q352.29688 24.753124 352.73438 24.596874Q353.1875 24.425 353.40625 24.08125Q353.64062 23.721874 353.64062 23.3Q353.64062 22.690624 353.1875 22.3Q352.75 21.909374 351.79688 21.909374L349.07812 21.909374L349.07812 24.753124Z" fill-rule="nonzero"/></svg>