<svg version="1.1" viewBox="0.0 0.0 600.0 371.0" fill="none" stroke="none" stroke-linecap="square" stroke-miterlimit="10" width="600" height="371" xmlns:xlink="http://www.w3.org/1999/xlink" xmlns="http://www.w3.org/2000/svg"><path fill="#ffffff" d="M0 0L600.0 0L600.0 371.0L0 371.0L0 0Z" fill-rule="nonzero"/><path stroke="#333333" stroke-width="1.0" stroke-linecap="butt" d="M45.5 332.5L581.5 332.5" fill-rule="nonzero"/><path stroke="#cccccc" stroke-width="1.0" stroke-linecap="butt" d="M45.5 276.5L581.5 276.5" fill-rule="nonzero"/><path stroke="#cccccc" stroke-width="1.0" stroke-linecap="butt" d="M45.5 220.5L581.5 220.5" fill-rule="nonzero"/><path stroke="#cccccc" stroke-width="1.0" stroke-linecap="butt" d="M45.5 164.5L581.5 164.5" fill-rule="nonzero"/><path stroke="#cccccc" stroke-width="1.0" stroke-linecap="butt" d="M45.5 108.5L581.5 108.5" fill-rule="nonzero"/><path stroke="#cccccc" stroke-width="1.0" stroke-linecap="butt" d="M45.5 51.5L581.5 51.5" fill-rule="nonzero"/><clipPath id="id_0"><path d="M45.55 51.916668L581.45 51.916668L581.45 332.45L45.55 332.45L45.55 51.916668Z" clip-rule="nonzero"/></clipPath><path stroke="#000000" stroke-width="2.0" stroke-linecap="butt" stroke-opacity="0.0" clip-path="url(#id_0)" d="M80.0 332.0L65.0 332.0L65.0 199.0C65.0 197.89543 65.89543 197.0 67.0 197.0L78.0 197.0C79.10457 197.0 80.0 197.89543 80.0 199.0Z" fill-rule="nonzero"/><path fill="#4285f4" clip-path="url(#id_0)" d="M80.0 332.0L65.0 332.0L65.0 199.0C65.0 197.89543 65.89543 197.0 67.0 197.0L78.0 197.0C79.10457 197.0 80.0 197.89543 80.0 199.0Z" fill-rule="nonzero"/><path stroke="#000000" stroke-width="2.0" stroke-linecap="butt" stroke-opacity="0.0" clip-path="url(#id_0)" d="M131.0 332.0L116.0 332.0L116.0 213.0C116.0 211.89543 116.89543 211.0 118.0 211.0L129.0 211.0C130.10457 211.0 131.0 211.89543 131.0 213.0Z" fill-rule="nonzero"/><path fill="#4285f4" clip-path="url(#id_0)" d="M131.0 332.0L116.0 332.0L116.0 213.0C116.0 211.89543 116.89543 211.0 118.0 211.0L129.0 211.0C130.10457 211.0 131.0 211.89543 131.0 213.0Z" fill-rule="nonzero"/><path stroke="#000000" stroke-width="2.0" stroke-linecap="butt" stroke-opacity="0.0" clip-path="url(#id_0)" d="M183.0 332.0L168.0 332.0L168.0 220.0C168.0 218.89543 168.89543 218.0 170.0 218.0L181.0 218.0C182.10457 218.0 183.0 218.89543 183.0 220.0Z" fill-rule="nonzero"/><path fill="#4285f4" clip-path="url(#id_0)" d="M183.0 332.0L168.0 332.0L168.0 220.0C168.0 218.89543 168.89543 218.0 170.0 218.0L181.0 218.0C182.10457 218.0 183.0 218.89543 183.0 220.0Z" fill-rule="nonzero"/><path stroke="#000000" stroke-width="2.0" stroke-linecap="butt" stroke-opacity="0.0" clip-path="url(#id_0)" d="M235.0 332.0L220.0 332.0L220.0 242.0C220.0 240.89543 220.89543 240.0 222.0 240.0L233.0 240.0C234.10457 240.0 235.0 240.89543 235.0 242.0Z" fill-rule="nonzero"/><path fill="#4285f4" clip-path="url(#id_0)" d="M235.0 332.0L220.0 332.0L220.0 242.0C220.0 240.89543 220.89543 240.0 222.0 240.0L233.0 240.0C234.10457 240.0 235.0 240.89543 235.0 242.0Z" fill-rule="nonzero"/><path stroke="#000000" stroke-width="2.0" stroke-linecap="butt" stroke-opacity="0.0" clip-path="url(#id_0)" d="M287.0 332.0L272.0 332.0L272.0 240.0C272.0 238.89543 272.89542 238.0 274.0 238.0L285.0 238.0C286.10458 238.0 287.0 238.89543 287.0 240.0Z" fill-rule="nonzero"/><path fill="#4285f4" clip-path="url(#id_0)" d="M287.0 332.0L272.0 332.0L272.0 240.0C272.0 238.89543 272.89542 238.0 274.0 238.0L285.0 238.0C286.10458 238.0 287.0 238.89543 287.0 240.0Z" fill-rule="nonzero"/><path stroke="#000000" stroke-width="2.0" stroke-linecap="butt" stroke-opacity="0.0" clip-path="url(#id_0)" d="M338.0 332.0L323.0 332.0L323.0 244.0C323.0 242.89543 323.89542 242.0 325.0 242.0L336.0 242.0C337.10458 242.0 338.0 242.89543 338.0 244.0Z" fill-rule="nonzero"/><path fill="#4285f4" clip-path="url(#id_0)" d="M338.0 332.0L323.0 332.0L323.0 244.0C323.0 242.89543 323.89542 242.0 325.0 242.0L336.0 242.0C337.10458 242.0 338.0 242.89543 338.0 244.0Z" fill-rule="nonzero"/><path stroke="#000000" stroke-width="2.0" stroke-linecap="butt" stroke-opacity="0.0" clip-path="url(#id_0)" d="M390.0 332.0L375.0 332.0L375.0 230.0C375.0 228.89543 375.89542 228.0 377.0 228.0L388.0 228.0C389.10458 228.0 390.0 228.89543 390.0 230.0Z" fill-rule="nonzero"/><path fill="#4285f4" clip-path="url(#id_0)" d="M390.0 332.0L375.0 332.0L375.0 230.0C375.0 228.89543 375.89542 228.0 377.0 228.0L388.0 228.0C389.10458 228.0 390.0 228.89543 390.0 230.0Z" fill-rule="nonzero"/><path stroke="#000000" stroke-width="2.0" stroke-linecap="butt" stroke-opacity="0.0" clip-path="url(#id_0)" d="M442.0 332.0L427.0 332.0L427.0 260.0C427.0 258.89542 427.89542 258.0 429.0 258.0L440.0 258.0C441.10458 258.0 442.0 258.89542 442.0 260.0Z" fill-rule="nonzero"/><path fill="#4285f4" clip-path="url(#id_0)" d="M442.0 332.0L427.0 332.0L427.0 260.0C427.0 258.89542 427.89542 258.0 429.0 258.0L440.0 258.0C441.10458 258.0 442.0 258.89542 442.0 260.0Z" fill-rule="nonzero"/><path stroke="#000000" stroke-width="2.0" stroke-linecap="butt" stroke-opacity="0.0" clip-path="url(#id_0)" d="M494.0 332.0L479.0 332.0L479.0 272.0C479.0 270.89542 479.89542 270.0 481.0 270.0L492.0 270.0C493.10458 270.0 494.0 270.89542 494.0 272.0Z" fill-rule="nonzero"/><path fill="#4285f4" clip-path="url(#id_0)" d="M494.0 332.0L479.0 332.0L479.0 272.0C479.0 270.89542 479.89542 270.0 481.0 270.0L492.0 270.0C493.10458 270.0 494.0 270.89542 494.0 272.0Z" fill-rule="nonzero"/><path stroke="#000000" stroke-width="2.0" stroke-linecap="butt" stroke-opacity="0.0" clip-path="url(#id_0)" d="M546.0 332.0L531.0 332.0L531.0 270.0C531.0 268.89542 531.89545 268.0 533.0 268.0L544.0 268.0C545.10455 268.0 546.0 268.89542 546.0 270.0Z" fill-rule="nonzero"/><path fill="#4285f4" clip-path="url(#id_0)" d="M546.0 332.0L531.0 332.0L531.0 270.0C531.0 268.89542 531.89545 268.0 533.0 268.0L544.0 268.0C545.10455 268.0 546.0 268.89542 546.0 270.0Z" fill-rule="nonzero"/><path stroke="#000000" stroke-width="2.0" stroke-linecap="butt" stroke-opacity="0.0" clip-path="url(#id_0)" d="M97.0 332.0L82.0 332.0L82.0 72.0C82.0 70.89543 82.89543 70.0 84.0 70.0L95.0 70.0C96.10457 70.0 97.0 70.89543 97.0 72.0Z" fill-rule="nonzero"/><path fill="#ea4335" clip-path="url(#id_0)" d="M97.0 332.0L82.0 332.0L82.0 72.0C82.0 70.89543 82.89543 70.0 84.0 70.0L95.0 70.0C96.10457 70.0 97.0 70.89543 97.0 72.0Z" fill-rule="nonzero"/><path stroke="#000000" stroke-width="2.0" stroke-linecap="butt" stroke-opacity="0.0" clip-path="url(#id_0)" d="M148.0 332.0L133.0 332.0L133.0 191.0C133.0 189.89543 133.89543 189.0 135.0 189.0L146.0 189.0C147.10457 189.0 148.0 189.89543 148.0 191.0Z" fill-rule="nonzero"/><path fill="#ea4335" clip-path="url(#id_0)" d="M148.0 332.0L133.0 332.0L133.0 191.0C133.0 189.89543 133.89543 189.0 135.0 189.0L146.0 189.0C147.10457 189.0 148.0 189.89543 148.0 191.0Z" fill-rule="nonzero"/><path stroke="#000000" stroke-width="2.0" stroke-linecap="butt" stroke-opacity="0.0" clip-path="url(#id_0)" d="M200.0 332.0L185.0 332.0L185.0 189.0C185.0 187.89543 185.89543 187.0 187.0 187.0L198.0 187.0C199.10457 187.0 200.0 187.89543 200.0 189.0Z" fill-rule="nonzero"/><path fill="#ea4335" clip-path="url(#id_0)" d="M200.0 332.0L185.0 332.0L185.0 189.0C185.0 187.89543 185.89543 187.0 187.0 187.0L198.0 187.0C199.10457 187.0 200.0 187.89543 200.0 189.0Z" fill-rule="nonzero"/><path stroke="#000000" stroke-width="2.0" stroke-linecap="butt" stroke-opacity="0.0" clip-path="url(#id_0)" d="M252.0 332.0L237.0 332.0L237.0 217.0C237.0 215.89543 237.89543 215.0 239.0 215.0L250.0 215.0C251.10457 215.0 252.0 215.89543 252.0 217.0Z" fill-rule="nonzero"/><path fill="#ea4335" clip-path="url(#id_0)" d="M252.0 332.0L237.0 332.0L237.0 217.0C237.0 215.89543 237.89543 215.0 239.0 215.0L250.0 215.0C251.10457 215.0 252.0 215.89543 252.0 217.0Z" fill-rule="nonzero"/><path stroke="#000000" stroke-width="2.0" stroke-linecap="butt" stroke-opacity="0.0" clip-path="url(#id_0)" d="M304.0 332.0L289.0 332.0L289.0 271.0C289.0 269.89542 289.89542 269.0 291.0 269.0L302.0 269.0C303.10458 269.0 304.0 269.89542 304.0 271.0Z" fill-rule="nonzero"/><path fill="#ea4335" clip-path="url(#id_0)" d="M304.0 332.0L289.0 332.0L289.0 271.0C289.0 269.89542 289.89542 269.0 291.0 269.0L302.0 269.0C303.10458 269.0 304.0 269.89542 304.0 271.0Z" fill-rule="nonzero"/><path stroke="#000000" stroke-width="2.0" stroke-linecap="butt" stroke-opacity="0.0" clip-path="url(#id_0)" d="M355.0 332.0L340.0 332.0L340.0 266.0C340.0 264.89542 340.89542 264.0 342.0 264.0L353.0 264.0C354.10458 264.0 355.0 264.89542 355.0 266.0Z" fill-rule="nonzero"/><path fill="#ea4335" clip-path="url(#id_0)" d="M355.0 332.0L340.0 332.0L340.0 266.0C340.0 264.89542 340.89542 264.0 342.0 264.0L353.0 264.0C354.10458 264.0 355.0 264.89542 355.0 266.0Z" fill-rule="nonzero"/><path stroke="#000000" stroke-width="2.0" stroke-linecap="butt" stroke-opacity="0.0" clip-path="url(#id_0)" d="M407.0 332.0L392.0 332.0L392.0 286.0C392.0 284.89542 392.89542 284.0 394.0 284.0L405.0 284.0C406.10458 284.0 407.0 284.89542 407.0 286.0Z" fill-rule="nonzero"/><path fill="#ea4335" clip-path="url(#id_0)" d="M407.0 332.0L392.0 332.0L392.0 286.0C392.0 284.89542 392.89542 284.0 394.0 284.0L405.0 284.0C406.10458 284.0 407.0 284.89542 407.0 286.0Z" fill-rule="nonzero"/><path stroke="#000000" stroke-width="2.0" stroke-linecap="butt" stroke-opacity="0.0" clip-path="url(#id_0)" d="M459.0 332.0L444.0 332.0L444.0 276.0C444.0 274.89542 444.89542 274.0 446.0 274.0L457.0 274.0C458.10458 274.0 459.0 274.89542 459.0 276.0Z" fill-rule="nonzero"/><path fill="#ea4335" clip-path="url(#id_0)" d="M459.0 332.0L444.0 332.0L444.0 276.0C444.0 274.89542 444.89542 274.0 446.0 274.0L457.0 274.0C458.10458 274.0 459.0 274.89542 459.0 276.0Z" fill-rule="nonzero"/><path stroke="#000000" stroke-width="2.0" stroke-linecap="butt" stroke-opacity="0.0" clip-path="url(#id_0)" d="M511.0 332.0L496.0 332.0L496.0 290.0C496.0 288.89542 496.89542 288.0 498.0 288.0L509.0 288.0C510.10458 288.0 511.0 288.89542 511.0 290.0Z" fill-rule="nonzero"/><path fill="#ea4335" clip-path="url(#id_0)" d="M511.0 332.0L496.0 332.0L496.0 290.0C496.0 288.89542 496.89542 288.0 498.0 288.0L509.0 288.0C510.10458 288.0 511.0 288.89542 511.0 290.0Z" fill-rule="nonzero"/><path stroke="#000000" stroke-width="2.0" stroke-linecap="butt" stroke-opacity="0.0" clip-path="url(#id_0)" d="M563.0 332.0L548.0 332.0L548.0 300.0C548.0 298.89542 548.89545 298.0 550.0 298.0L561.0 298.0C562.10455 298.0 563.0 298.89542 563.0 300.0Z" fill-rule="nonzero"/><path fill="#ea4335" clip-path="url(#id_0)" d="M563.0 332.0L548.0 332.0L548.0 300.0C548.0 298.89542 548.89545 298.0 550.0 298.0L561.0 298.0C562.10455 298.0 563.0 298.89542 563.0 300.0Z" fill-rule="nonzero"/><path fill="#000000" d="M33.05 332.21564Q33.05 330.6844 33.3625 329.7625Q33.675 328.825 34.284374 328.325Q34.909374 327.825 35.846874 327.825Q36.534374 327.825 37.05 328.10626Q37.58125 328.3875 37.925 328.91876Q38.26875 329.4344 38.45625 330.1844Q38.64375 330.9344 38.64375 332.21564Q38.64375 333.73126 38.33125 334.65314Q38.034374 335.575 37.409374 336.09064Q36.8 336.59064 35.846874 336.59064Q34.6125 336.59064 33.89375 335.7Q33.05 334.6375 33.05 332.21564ZM34.128124 332.21564Q34.128124 334.325 34.628124 335.02814Q35.128124 335.73126 35.846874 335.73126Q36.58125 335.73126 37.065624 335.02814Q37.565624 334.325 37.565624 332.21564Q37.565624 330.09064 37.065624 329.40314Q36.58125 328.7 35.83125 328.7Q35.1125 328.7 34.675 329.3094Q34.128124 330.09064 34.128124 332.21564Z" fill-rule="nonzero"/><path fill="#000000" d="M37.01875 280.34332L35.971874 280.34332L35.971874 273.62457Q35.58125 273.98395 34.95625 274.35895Q34.346874 274.71832 33.8625 274.8902L33.8625 273.87457Q34.7375 273.4527 35.39375 272.87457Q36.065624 272.28082 36.346874 271.71832L37.01875 271.71832L37.01875 280.34332Z" fill-rule="nonzero"/><path fill="#000000" d="M38.596874 223.22104L38.596874 224.23666L32.909374 224.23666Q32.909374 223.86166 33.034374 223.50229Q33.253124 222.92416 33.721874 222.36166Q34.20625 221.79916 35.1125 221.06479Q36.51875 219.90854 37.003124 219.23666Q37.503124 218.56479 37.503124 217.97104Q37.503124 217.34604 37.05 216.92416Q36.596874 216.48666 35.878124 216.48666Q35.1125 216.48666 34.659374 216.93979Q34.20625 217.39291 34.190624 218.20541L33.1125 218.09604Q33.221874 216.87729 33.940624 216.25229Q34.675 215.61166 35.909374 215.61166Q37.14375 215.61166 37.8625 216.29916Q38.58125 216.98666 38.58125 218.00229Q38.58125 218.51791 38.3625 219.01791Q38.159374 219.50229 37.659374 220.06479Q37.175 220.61166 36.05 221.56479Q35.096874 222.36166 34.815624 222.65854Q34.55 222.93979 34.378124 223.22104L38.596874 223.22104Z" fill-rule="nonzero"/><path fill="#000000" d="M33.05 165.86438L34.1125 165.72375Q34.284374 166.61438 34.721874 167.02063Q35.159374 167.41125 35.784374 167.41125Q36.534374 167.41125 37.05 166.89563Q37.565624 166.38 37.565624 165.61438Q37.565624 164.89563 37.08125 164.42688Q36.6125 163.9425 35.878124 163.9425Q35.58125 163.9425 35.128124 164.0675L35.253124 163.13Q35.3625 163.14563 35.425 163.14563Q36.096874 163.14563 36.628124 162.80188Q37.175 162.4425 37.175 161.70813Q37.175 161.13 36.784374 160.755Q36.39375 160.36438 35.76875 160.36438Q35.159374 160.36438 34.7375 160.755Q34.33125 161.14563 34.221874 161.91125L33.159374 161.72375Q33.346874 160.67688 34.034374 160.09875Q34.721874 159.505 35.7375 159.505Q36.440624 159.505 37.034374 159.8175Q37.628124 160.11438 37.940624 160.63Q38.253124 161.14563 38.253124 161.73938Q38.253124 162.28625 37.95625 162.755Q37.659374 163.20813 37.08125 163.47375Q37.83125 163.64563 38.253124 164.20813Q38.675 164.755 38.675 165.59875Q38.675 166.72375 37.846874 167.505Q37.034374 168.28625 35.784374 168.28625Q34.659374 168.28625 33.909374 167.61438Q33.159374 166.92688 33.05 165.86438Z" fill-rule="nonzero"/><path fill="#000000" d="M36.425 112.02333L36.425 109.96083L32.70625 109.96083L32.70625 108.99208L36.628124 103.42958L37.4875 103.42958L37.4875 108.99208L38.64375 108.99208L38.64375 109.96083L37.4875 109.96083L37.4875 112.02333L36.425 112.02333ZM36.425 108.99208L36.425 105.132706L33.7375 108.99208L36.425 108.99208Z" fill-rule="nonzero"/><path fill="#000000" d="M33.05 53.666668L34.159374 53.572918Q34.284374 54.385418 34.721874 54.791668Q35.175 55.197918 35.815624 55.197918Q36.565624 55.197918 37.096874 54.619793Q37.628124 54.041668 37.628124 53.104168Q37.628124 52.197918 37.1125 51.682293Q36.6125 51.151043 35.784374 51.151043Q35.284374 51.151043 34.8625 51.385418Q34.45625 51.619793 34.221874 51.979168L33.2375 51.854168L34.065624 47.447918L38.346874 47.447918L38.346874 48.447918L34.909374 48.447918L34.45625 50.760418Q35.221874 50.213543 36.065624 50.213543Q37.190624 50.213543 37.95625 50.994793Q38.7375 51.776043 38.7375 53.010418Q38.7375 54.166668 38.065624 55.026043Q37.2375 56.057293 35.815624 56.057293Q34.64375 56.057293 33.89375 55.401043Q33.159374 54.744793 33.05 53.666668Z" fill-rule="nonzero"/><path fill="#000000" d="M72.46875 349.45L71.421875 349.45L71.421875 342.73126Q71.03125 343.09064 70.40625 343.46564Q69.796875 343.825 69.3125 343.9969L69.3125 342.98126Q70.1875 342.5594 70.84375 341.98126Q71.515625 341.3875 71.796875 340.825L72.46875 340.825L72.46875 349.45ZM78.875 349.45L78.875 347.3875L75.15625 347.3875L75.15625 346.41876L79.078125 340.85626L79.9375 340.85626L79.9375 346.41876L81.09375 346.41876L81.09375 347.3875L79.9375 347.3875L79.9375 349.45L78.875 349.45ZM78.875 346.41876L78.875 342.5594L76.1875 346.41876L78.875 346.41876ZM82.796875 349.45L82.796875 343.23126L83.734375 343.23126L83.734375 344.10626Q84.03125 343.6375 84.515625 343.3719Q85.0 343.09064 85.625 343.09064Q86.3125 343.09064 86.75 343.3719Q87.203125 343.65314 87.375 344.16876Q88.125 343.09064 89.296875 343.09064Q90.234375 343.09064 90.71875 343.60626Q91.21875 344.10626 91.21875 345.1844L91.21875 349.45L90.171875 349.45L90.171875 345.52814Q90.171875 344.90314 90.0625 344.6219Q89.96875 344.34064 89.703125 344.16876Q89.4375 343.9969 89.0625 343.9969Q88.40625 343.9969 87.96875 344.4344Q87.546875 344.8719 87.546875 345.84064L87.546875 349.45L86.484375 349.45L86.484375 345.40314Q86.484375 344.7 86.21875 344.35626Q85.96875 343.9969 85.390625 343.9969Q84.9375 343.9969 84.5625 344.23126Q84.1875 344.46564 84.015625 344.91876Q83.84375 345.3719 83.84375 346.21564L83.84375 349.45L82.796875 349.45Z" fill-rule="nonzero"/><path fill="#000000" d="M120.27778 347.1844L121.34028 347.04376Q121.51215 347.9344 121.94965 348.34064Q122.38715 348.73126 123.01215 348.73126Q123.76215 348.73126 124.27778 348.21564Q124.7934 347.7 124.7934 346.9344Q124.7934 346.21564 124.30903 345.7469Q123.84028 345.2625 123.1059 345.2625Q122.80903 345.2625 122.3559 345.3875L122.4809 344.45Q122.59028 344.46564 122.65278 344.46564Q123.32465 344.46564 123.8559 344.1219Q124.40278 343.7625 124.40278 343.02814Q124.40278 342.45 124.01215 342.075Q123.62153 341.6844 122.99653 341.6844Q122.38715 341.6844 121.96528 342.075Q121.55903 342.46564 121.44965 343.23126L120.38715 343.04376Q120.57465 341.9969 121.26215 341.41876Q121.94965 340.825 122.96528 340.825Q123.6684 340.825 124.26215 341.1375Q124.8559 341.4344 125.1684 341.95Q125.4809 342.46564 125.4809 343.0594Q125.4809 343.60626 125.18403 344.075Q124.88715 344.52814 124.30903 344.79376Q125.05903 344.96564 125.4809 345.52814Q125.90278 346.075 125.90278 346.91876Q125.90278 348.04376 125.07465 348.825Q124.26215 349.60626 123.01215 349.60626Q121.88715 349.60626 121.13715 348.9344Q120.38715 348.2469 120.27778 347.1844ZM131.24652 349.45L130.19965 349.45L130.19965 342.73126Q129.80902 343.09064 129.18402 343.46564Q128.57465 343.825 128.09027 343.9969L128.09027 342.98126Q128.96527 342.5594 129.62152 341.98126Q130.2934 341.3875 130.57465 340.825L131.24652 340.825L131.24652 349.45ZM134.57465 349.45L134.57465 343.23126L135.51215 343.23126L135.51215 344.10626Q135.80902 343.6375 136.2934 343.3719Q136.77777 343.09064 137.40277 343.09064Q138.09027 343.09064 138.52777 343.3719Q138.9809 343.65314 139.15277 344.16876Q139.90277 343.09064 141.07465 343.09064Q142.01215 343.09064 142.49652 343.60626Q142.99652 344.10626 142.99652 345.1844L142.99652 349.45L141.94965 349.45L141.94965 345.52814Q141.94965 344.90314 141.84027 344.6219Q141.74652 344.34064 141.4809 344.16876Q141.21527 343.9969 140.84027 343.9969Q140.18402 343.9969 139.74652 344.4344Q139.32465 344.8719 139.32465 345.84064L139.32465 349.45L138.26215 349.45L138.26215 345.40314Q138.26215 344.7 137.99652 344.35626Q137.74652 343.9969 137.1684 343.9969Q136.71527 343.9969 136.34027 344.23126Q135.96527 344.46564 135.7934 344.91876Q135.62152 345.3719 135.62152 346.21564L135.62152 349.45L134.57465 349.45Z" fill-rule="nonzero"/><path fill="#000000" d="M172.11806 341.98126L172.11806 340.96564L177.68056 340.96564L177.68056 341.79376Q176.86806 342.66876 176.05556 344.1219Q175.25868 345.5594 174.82118 347.09064Q174.49306 348.16876 174.41493 349.45L173.32118 349.45Q173.3368 348.4344 173.7118 346.9969Q174.10243 345.5594 174.80556 344.23126Q175.5243 342.90314 176.3368 341.98126L172.11806 341.98126ZM179.05556 345.21564Q179.05556 343.6844 179.36806 342.7625Q179.68056 341.825 180.28993 341.325Q180.91493 340.825 181.85243 340.825Q182.53993 340.825 183.05556 341.10626Q183.5868 341.3875 183.93056 341.91876Q184.2743 342.4344 184.4618 343.1844Q184.6493 343.9344 184.6493 345.21564Q184.6493 346.73126 184.3368 347.65314Q184.03993 348.575 183.41493 349.09064Q182.80556 349.59064 181.85243 349.59064Q180.61806 349.59064 179.8993 348.7Q179.05556 347.6375 179.05556 345.21564ZM180.13368 345.21564Q180.13368 347.325 180.63368 348.02814Q181.13368 348.73126 181.85243 348.73126Q182.5868 348.73126 183.07118 348.02814Q183.57118 347.325 183.57118 345.21564Q183.57118 343.09064 183.07118 342.40314Q182.5868 341.7 181.8368 341.7Q181.11806 341.7 180.68056 342.3094Q180.13368 343.09064 180.13368 345.21564ZM186.35243 349.45L186.35243 343.23126L187.28993 343.23126L187.28993 344.10626Q187.5868 343.6375 188.07118 343.3719Q188.55556 343.09064 189.18056 343.09064Q189.86806 343.09064 190.30556 343.3719Q190.75868 343.65314 190.93056 344.16876Q191.68056 343.09064 192.85243 343.09064Q193.78993 343.09064 194.2743 343.60626Q194.7743 344.10626 194.7743 345.1844L194.7743 349.45L193.72743 349.45L193.72743 345.52814Q193.72743 344.90314 193.61806 344.6219Q193.5243 344.34064 193.25868 344.16876Q192.99306 343.9969 192.61806 343.9969Q191.9618 343.9969 191.5243 344.4344Q191.10243 344.8719 191.10243 345.84064L191.10243 349.45L190.03993 349.45L190.03993 345.40314Q190.03993 344.7 189.7743 344.35626Q189.5243 343.9969 188.94618 343.9969Q188.49306 343.9969 188.11806 344.23126Q187.74306 344.46564 187.57118 344.91876Q187.3993 345.3719 187.3993 346.21564L187.3993 349.45L186.35243 349.45Z" fill-rule="nonzero"/><path fill="#000000" d="M224.30208 349.45L223.2552 349.45L223.2552 342.73126Q222.86458 343.09064 222.23958 343.46564Q221.6302 343.825 221.14583 343.9969L221.14583 342.98126Q222.02083 342.5594 222.67708 341.98126Q223.34895 341.3875 223.6302 340.825L224.30208 340.825L224.30208 349.45ZM232.80208 342.96564L231.7552 343.04376Q231.61458 342.41876 231.36458 342.1375Q230.92708 341.6844 230.30208 341.6844Q229.80208 341.6844 229.41145 341.96564Q228.92708 342.34064 228.6302 343.04376Q228.34895 343.73126 228.33333 345.0125Q228.70833 344.4344 229.2552 344.15314Q229.8177 343.8719 230.42708 343.8719Q231.47395 343.8719 232.20833 344.65314Q232.95833 345.4344 232.95833 346.65314Q232.95833 347.46564 232.59895 348.16876Q232.2552 348.85626 231.64583 349.23126Q231.03645 349.59064 230.27083 349.59064Q228.9427 349.59064 228.11458 348.6219Q227.28645 347.65314 227.28645 345.4344Q227.28645 342.9344 228.20833 341.8094Q229.0052 340.825 230.36458 340.825Q231.3802 340.825 232.02083 341.40314Q232.67708 341.96564 232.80208 342.96564ZM228.5052 346.66876Q228.5052 347.21564 228.72395 347.71564Q228.95833 348.2 229.36458 348.46564Q229.78645 348.73126 230.2552 348.73126Q230.91145 348.73126 231.39583 348.2Q231.8802 347.65314 231.8802 346.73126Q231.8802 345.84064 231.39583 345.325Q230.92708 344.8094 230.20833 344.8094Q229.48958 344.8094 228.98958 345.325Q228.5052 345.84064 228.5052 346.66876ZM234.33333 345.21564Q234.33333 343.6844 234.64583 342.7625Q234.95833 341.825 235.5677 341.325Q236.1927 340.825 237.1302 340.825Q237.8177 340.825 238.33333 341.10626Q238.86458 341.3875 239.20833 341.91876Q239.55208 342.4344 239.73958 343.1844Q239.92708 343.9344 239.92708 345.21564Q239.92708 346.73126 239.61458 347.65314Q239.3177 348.575 238.6927 349.09064Q238.08333 349.59064 237.1302 349.59064Q235.89583 349.59064 235.17708 348.7Q234.33333 347.6375 234.33333 345.21564ZM235.41145 345.21564Q235.41145 347.325 235.91145 348.02814Q236.41145 348.73126 237.1302 348.73126Q237.86458 348.73126 238.34895 348.02814Q238.84895 347.325 238.84895 345.21564Q238.84895 343.09064 238.34895 342.40314Q237.86458 341.7 237.11458 341.7Q236.39583 341.7 235.95833 342.3094Q235.41145 343.09064 235.41145 345.21564ZM241.6302 349.45L241.6302 343.23126L242.5677 343.23126L242.5677 344.10626Q242.86458 343.6375 243.34895 343.3719Q243.83333 343.09064 244.45833 343.09064Q245.14583 343.09064 245.58333 343.3719Q246.03645 343.65314 246.20833 344.16876Q246.95833 343.09064 248.1302 343.09064Q249.0677 343.09064 249.55208 343.60626Q250.05208 344.10626 250.05208 345.1844L250.05208 349.45L249.0052 349.45L249.0052 345.52814Q249.0052 344.90314 248.89583 344.6219Q248.80208 344.34064 248.53645 344.16876Q248.27083 343.9969 247.89583 343.9969Q247.23958 343.9969 246.80208 344.4344Q246.3802 344.8719 246.3802 345.84064L246.3802 349.45L245.3177 349.45L245.3177 345.40314Q245.3177 344.7 245.05208 344.35626Q244.80208 343.9969 244.22395 343.9969Q243.77083 343.9969 243.39583 344.23126Q243.02083 344.46564 242.84895 344.91876Q242.67708 345.3719 242.67708 346.21564L242.67708 349.45L241.6302 349.45Z" fill-rule="nonzero"/><path fill="#000000" d="M275.4861 349.45L275.4861 347.3875L271.76736 347.3875L271.76736 346.41876L275.68924 340.85626L276.5486 340.85626L276.5486 346.41876L277.70486 346.41876L277.70486 347.3875L276.5486 347.3875L276.5486 349.45L275.4861 349.45ZM275.4861 346.41876L275.4861 342.5594L272.7986 346.41876L275.4861 346.41876ZM283.07986 349.45L282.033 349.45L282.033 342.73126Q281.64236 343.09064 281.01736 343.46564Q280.408 343.825 279.9236 343.9969L279.9236 342.98126Q280.7986 342.5594 281.45486 341.98126Q282.12674 341.3875 282.408 340.825L283.07986 340.825L283.07986 349.45ZM286.1111 345.21564Q286.1111 343.6844 286.4236 342.7625Q286.7361 341.825 287.3455 341.325Q287.9705 340.825 288.908 340.825Q289.5955 340.825 290.1111 341.10626Q290.64236 341.3875 290.9861 341.91876Q291.32986 342.4344 291.51736 343.1844Q291.70486 343.9344 291.70486 345.21564Q291.70486 346.73126 291.39236 347.65314Q291.0955 348.575 290.4705 349.09064Q289.8611 349.59064 288.908 349.59064Q287.6736 349.59064 286.95486 348.7Q286.1111 347.6375 286.1111 345.21564ZM287.18924 345.21564Q287.18924 347.325 287.68924 348.02814Q288.18924 348.73126 288.908 348.73126Q289.64236 348.73126 290.12674 348.02814Q290.62674 347.325 290.62674 345.21564Q290.62674 343.09064 290.12674 342.40314Q289.64236 341.7 288.89236 341.7Q288.1736 341.7 287.7361 342.3094Q287.18924 343.09064 287.18924 345.21564ZM293.408 349.45L293.408 343.23126L294.3455 343.23126L294.3455 344.10626Q294.64236 343.6375 295.12674 343.3719Q295.6111 343.09064 296.2361 343.09064Q296.9236 343.09064 297.3611 343.3719Q297.81424 343.65314 297.9861 344.16876Q298.7361 343.09064 299.908 343.09064Q300.8455 343.09064 301.32986 343.60626Q301.82986 344.10626 301.82986 345.1844L301.82986 349.45L300.783 349.45L300.783 345.52814Q300.783 344.90314 300.6736 344.6219Q300.57986 344.34064 300.31424 344.16876Q300.0486 343.9969 299.6736 343.9969Q299.01736 343.9969 298.57986 344.4344Q298.158 344.8719 298.158 345.84064L298.158 349.45L297.0955 349.45L297.0955 345.40314Q297.0955 344.7 296.82986 344.35626Q296.57986 343.9969 296.00174 343.9969Q295.5486 343.9969 295.1736 344.23126Q294.7986 344.46564 294.62674 344.91876Q294.45486 345.3719 294.45486 346.21564L294.45486 349.45L293.408 349.45Z" fill-rule="nonzero"/><path fill="#000000" d="M336.85764 349.45L335.81076 349.45L335.81076 342.73126Q335.42014 343.09064 334.79514 343.46564Q334.18576 343.825 333.7014 343.9969L333.7014 342.98126Q334.5764 342.5594 335.23264 341.98126Q335.9045 341.3875 336.18576 340.825L336.85764 340.825L336.85764 349.45ZM341.1545 349.45L340.17014 349.45L340.17014 340.85626L341.23264 340.85626L341.23264 343.91876Q341.9045 343.09064 342.93576 343.09064Q343.5139 343.09064 344.0139 343.325Q344.5295 343.54376 344.85764 343.96564Q345.2014 344.3875 345.3889 344.98126Q345.5764 345.575 345.5764 346.2469Q345.5764 347.84064 344.7795 348.71564Q343.98264 349.59064 342.8889 349.59064Q341.7795 349.59064 341.1545 348.66876L341.1545 349.45ZM341.1389 346.29376Q341.1389 347.40314 341.4514 347.90314Q341.9514 348.71564 342.79514 348.71564Q343.48264 348.71564 343.98264 348.1219Q344.49826 347.52814 344.49826 346.325Q344.49826 345.10626 344.0139 344.52814Q343.5295 343.95 342.842 343.95Q342.1545 343.95 341.6389 344.5594Q341.1389 345.15314 341.1389 346.29376Z" fill-rule="nonzero"/><path fill="#000000" d="M383.6354 349.45L382.58853 349.45L382.58853 342.73126Q382.1979 343.09064 381.5729 343.46564Q380.96353 343.825 380.47916 343.9969L380.47916 342.98126Q381.35416 342.5594 382.0104 341.98126Q382.68228 341.3875 382.96353 340.825L383.6354 340.825L383.6354 349.45ZM387.2604 349.45L387.2604 348.2469L388.46353 348.2469L388.46353 349.45L387.2604 349.45ZM393.04166 349.45L393.04166 347.3875L389.3229 347.3875L389.3229 346.41876L393.24478 340.85626L394.10416 340.85626L394.10416 346.41876L395.2604 346.41876L395.2604 347.3875L394.10416 347.3875L394.10416 349.45L393.04166 349.45ZM393.04166 346.41876L393.04166 342.5594L390.35416 346.41876L393.04166 346.41876ZM397.93228 349.45L396.9479 349.45L396.9479 340.85626L398.0104 340.85626L398.0104 343.91876Q398.68228 343.09064 399.71353 343.09064Q400.29166 343.09064 400.79166 343.325Q401.30728 343.54376 401.6354 343.96564Q401.97916 344.3875 402.16666 344.98126Q402.35416 345.575 402.35416 346.2469Q402.35416 347.84064 401.55728 348.71564Q400.7604 349.59064 399.66666 349.59064Q398.55728 349.59064 397.93228 348.66876L397.93228 349.45ZM397.91666 346.29376Q397.91666 347.40314 398.22916 347.90314Q398.72916 348.71564 399.5729 348.71564Q400.2604 348.71564 400.7604 348.1219Q401.27603 347.52814 401.27603 346.325Q401.27603 345.10626 400.79166 344.52814Q400.30728 343.95 399.61978 343.95Q398.93228 343.95 398.41666 344.5594Q397.91666 345.15314 397.91666 346.29376Z" fill-rule="nonzero"/><path fill="#000000" d="M436.99133 348.4344L436.99133 349.45L431.30383 349.45Q431.30383 349.075 431.42883 348.71564Q431.64758 348.1375 432.11633 347.575Q432.6007 347.0125 433.50696 346.27814Q434.9132 345.1219 435.39758 344.45Q435.89758 343.77814 435.89758 343.1844Q435.89758 342.5594 435.44446 342.1375Q434.99133 341.7 434.27258 341.7Q433.50696 341.7 433.05383 342.15314Q432.6007 342.60626 432.58508 343.41876L431.50696 343.3094Q431.61633 342.09064 432.33508 341.46564Q433.06946 340.825 434.30383 340.825Q435.5382 340.825 436.25696 341.5125Q436.9757 342.2 436.9757 343.21564Q436.9757 343.73126 436.75696 344.23126Q436.55383 344.71564 436.05383 345.27814Q435.56946 345.825 434.44446 346.77814Q433.49133 347.575 433.21008 347.8719Q432.94446 348.15314 432.77258 348.4344L436.99133 348.4344ZM439.0382 349.45L439.0382 348.2469L440.24133 348.2469L440.24133 349.45L439.0382 349.45ZM443.06946 344.79376Q442.4132 344.54376 442.08508 344.10626Q441.77258 343.65314 441.77258 343.04376Q441.77258 342.10626 442.44446 341.46564Q443.13196 340.825 444.24133 340.825Q445.36633 340.825 446.05383 341.48126Q446.74133 342.1375 446.74133 343.075Q446.74133 343.66876 446.42883 344.10626Q446.11633 344.54376 445.4757 344.79376Q446.27258 345.04376 446.67883 345.6219Q447.08508 346.2 447.08508 346.9969Q447.08508 348.09064 446.30383 348.84064Q445.5382 349.59064 444.25696 349.59064Q442.99133 349.59064 442.21008 348.84064Q441.42883 348.09064 441.42883 346.96564Q441.42883 346.1219 441.8507 345.5594Q442.2882 344.9969 443.06946 344.79376ZM442.8507 342.9969Q442.8507 343.60626 443.24133 343.9969Q443.64758 344.3875 444.27258 344.3875Q444.88196 344.3875 445.27258 344.0125Q445.6632 343.6219 445.6632 343.0594Q445.6632 342.48126 445.25696 342.09064Q444.8507 341.6844 444.25696 341.6844Q443.64758 341.6844 443.24133 342.075Q442.8507 342.46564 442.8507 342.9969ZM442.52258 346.96564Q442.52258 347.41876 442.7257 347.84064Q442.94446 348.2625 443.36633 348.4969Q443.7882 348.73126 444.27258 348.73126Q445.02258 348.73126 445.50696 348.2469Q446.00696 347.7625 446.00696 347.0125Q446.00696 346.2469 445.50696 345.7469Q445.00696 345.2469 444.24133 345.2469Q443.49133 345.2469 443.00696 345.7469Q442.52258 346.23126 442.52258 346.96564ZM449.71008 349.45L448.7257 349.45L448.7257 340.85626L449.7882 340.85626L449.7882 343.91876Q450.46008 343.09064 451.49133 343.09064Q452.06946 343.09064 452.56946 343.325Q453.08508 343.54376 453.4132 343.96564Q453.75696 344.3875 453.94446 344.98126Q454.13196 345.575 454.13196 346.2469Q454.13196 347.84064 453.33508 348.71564Q452.5382 349.59064 451.44446 349.59064Q450.33508 349.59064 449.71008 348.66876L449.71008 349.45ZM449.69446 346.29376Q449.69446 347.40314 450.00696 347.90314Q450.50696 348.71564 451.3507 348.71564Q452.0382 348.71564 452.5382 348.1219Q453.05383 347.52814 453.05383 346.325Q453.05383 345.10626 452.56946 344.52814Q452.08508 343.95 451.39758 343.95Q450.71008 343.95 450.19446 344.5594Q449.69446 345.15314 449.69446 346.29376Z" fill-rule="nonzero"/><path fill="#000000" d="M488.69098 342.96564L487.6441 343.04376Q487.50348 342.41876 487.25348 342.1375Q486.81598 341.6844 486.19098 341.6844Q485.69098 341.6844 485.30035 341.96564Q484.81598 342.34064 484.5191 343.04376Q484.23785 343.73126 484.22223 345.0125Q484.59723 344.4344 485.1441 344.15314Q485.7066 343.8719 486.31598 343.8719Q487.36285 343.8719 488.09723 344.65314Q488.84723 345.4344 488.84723 346.65314Q488.84723 347.46564 488.48785 348.16876Q488.1441 348.85626 487.53473 349.23126Q486.92535 349.59064 486.15973 349.59064Q484.8316 349.59064 484.00348 348.6219Q483.17535 347.65314 483.17535 345.4344Q483.17535 342.9344 484.09723 341.8094Q484.8941 340.825 486.25348 340.825Q487.2691 340.825 487.90973 341.40314Q488.56598 341.96564 488.69098 342.96564ZM484.3941 346.66876Q484.3941 347.21564 484.61285 347.71564Q484.84723 348.2 485.25348 348.46564Q485.67535 348.73126 486.1441 348.73126Q486.80035 348.73126 487.28473 348.2Q487.7691 347.65314 487.7691 346.73126Q487.7691 345.84064 487.28473 345.325Q486.81598 344.8094 486.09723 344.8094Q485.37848 344.8094 484.87848 345.325Q484.3941 345.84064 484.3941 346.66876ZM490.81598 349.45L490.81598 348.2469L492.0191 348.2469L492.0191 349.45L490.81598 349.45ZM493.37848 347.46564L494.3941 347.3719Q494.5191 348.09064 494.87848 348.41876Q495.25348 348.73126 495.81598 348.73126Q496.30035 348.73126 496.65973 348.5125Q497.03473 348.27814 497.2691 347.91876Q497.50348 347.54376 497.65973 346.91876Q497.81598 346.27814 497.81598 345.6219Q497.81598 345.54376 497.81598 345.40314Q497.50348 345.90314 496.9566 346.23126Q496.40973 346.54376 495.7691 346.54376Q494.69098 346.54376 493.9566 345.77814Q493.22223 344.9969 493.22223 343.73126Q493.22223 342.41876 493.98785 341.6219Q494.7691 340.825 495.92535 340.825Q496.75348 340.825 497.44098 341.27814Q498.1441 341.73126 498.50348 342.575Q498.86285 343.40314 498.86285 344.98126Q498.86285 346.6219 498.50348 347.60626Q498.15973 348.575 497.44098 349.09064Q496.73785 349.59064 495.80035 349.59064Q494.78473 349.59064 494.1441 349.04376Q493.50348 348.48126 493.37848 347.46564ZM497.69098 343.66876Q497.69098 342.7625 497.2066 342.23126Q496.73785 341.7 496.05035 341.7Q495.34723 341.7 494.81598 342.27814Q494.30035 342.84064 494.30035 343.7625Q494.30035 344.575 494.80035 345.09064Q495.30035 345.60626 496.0191 345.60626Q496.75348 345.60626 497.22223 345.09064Q497.69098 344.575 497.69098 343.66876ZM501.48785 349.45L500.50348 349.45L500.50348 340.85626L501.56598 340.85626L501.56598 343.91876Q502.23785 343.09064 503.2691 343.09064Q503.84723 343.09064 504.34723 343.325Q504.86285 343.54376 505.19098 343.96564Q505.53473 344.3875 505.72223 344.98126Q505.90973 345.575 505.90973 346.2469Q505.90973 347.84064 505.11285 348.71564Q504.31598 349.59064 503.22223 349.59064Q502.11285 349.59064 501.48785 348.66876L501.48785 349.45ZM501.47223 346.29376Q501.47223 347.40314 501.78473 347.90314Q502.28473 348.71564 503.12848 348.71564Q503.81598 348.71564 504.31598 348.1219Q504.8316 347.52814 504.8316 346.325Q504.8316 345.10626 504.34723 344.52814Q503.86285 343.95 503.17535 343.95Q502.48785 343.95 501.97223 344.5594Q501.47223 345.15314 501.47223 346.29376Z" fill-rule="nonzero"/><path fill="#000000" d="M540.46875 349.45L539.4219 349.45L539.4219 342.73126Q539.03125 343.09064 538.40625 343.46564Q537.7969 343.825 537.3125 343.9969L537.3125 342.98126Q538.1875 342.5594 538.84375 341.98126Q539.5156 341.3875 539.7969 340.825L540.46875 340.825L540.46875 349.45ZM549.0469 348.4344L549.0469 349.45L543.3594 349.45Q543.3594 349.075 543.4844 348.71564Q543.7031 348.1375 544.1719 347.575Q544.65625 347.0125 545.5625 346.27814Q546.96875 345.1219 547.4531 344.45Q547.9531 343.77814 547.9531 343.1844Q547.9531 342.5594 547.5 342.1375Q547.0469 341.7 546.3281 341.7Q545.5625 341.7 545.1094 342.15314Q544.65625 342.60626 544.6406 343.41876L543.5625 343.3094Q543.6719 342.09064 544.3906 341.46564Q545.125 340.825 546.3594 340.825Q547.59375 340.825 548.3125 341.5125Q549.03125 342.2 549.03125 343.21564Q549.03125 343.73126 548.8125 344.23126Q548.6094 344.71564 548.1094 345.27814Q547.625 345.825 546.5 346.77814Q545.5469 347.575 545.2656 347.8719Q545.0 348.15314 544.8281 348.4344L549.0469 348.4344ZM551.7656 349.45L550.78125 349.45L550.78125 340.85626L551.84375 340.85626L551.84375 343.91876Q552.5156 343.09064 553.5469 343.09064Q554.125 343.09064 554.625 343.325Q555.1406 343.54376 555.46875 343.96564Q555.8125 344.3875 556.0 344.98126Q556.1875 345.575 556.1875 346.2469Q556.1875 347.84064 555.3906 348.71564Q554.59375 349.59064 553.5 349.59064Q552.3906 349.59064 551.7656 348.66876L551.7656 349.45ZM551.75 346.29376Q551.75 347.40314 552.0625 347.90314Q552.5625 348.71564 553.40625 348.71564Q554.09375 348.71564 554.59375 348.1219Q555.1094 347.52814 555.1094 346.325Q555.1094 345.10626 554.625 344.52814Q554.1406 343.95 553.4531 343.95Q552.7656 343.95 552.25 344.5594Q551.75 345.15314 551.75 346.29376Z" fill-rule="nonzero"/><path fill="#4285f4" d="M244.0 20.55C244.0 19.997715 244.44771 19.55 245.0 19.55L255.0 19.55C255.55229 19.55 256.0 19.997715 256.0 20.55L256.0 30.55C256.0 31.102285 255.55229 31.55 255.0 31.55L245.0 31.55C244.44771 31.55 244.0 31.102285 244.0 30.55Z" fill-rule="nonzero"/><path fill="#1a1a1a" d="M264.89062 29.55L264.89062 20.95625L266.60938 20.95625L268.64062 27.034374Q268.92188 27.89375 269.04688 28.315624Q269.1875 27.846874 269.5 26.940624L271.5625 20.95625L273.09375 20.95625L273.09375 29.55L272.0 29.55L272.0 22.3625L269.5 29.55L268.46875 29.55L265.98438 22.2375L265.98438 29.55L264.89062 29.55ZM273.89062 29.55L273.89062 20.95625L275.60938 20.95625L277.64062 27.034374Q277.92188 27.89375 278.04688 28.315624Q278.1875 27.846874 278.5 26.940624L280.5625 20.95625L282.09375 20.95625L282.09375 29.55L281.0 29.55L281.0 22.3625L278.5 29.55L277.46875 29.55L274.98438 22.2375L274.98438 29.55L273.89062 29.55Z" fill-rule="nonzero"/><path fill="#ea4335" d="M298.0 20.55C298.0 19.997715 298.44772 19.55 299.0 19.55L309.0 19.55C309.55228 19.55 310.0 19.997715 310.0 20.55L310.0 30.55C310.0 31.102285 309.55228 31.55 309.0 31.55L299.0 31.55C298.44772 31.55 298.0 31.102285 298.0 30.55Z" fill-rule="nonzero"/><path fill="#1a1a1a" d="M318.89062 29.55L318.89062 20.95625L320.60938 20.95625L322.64062 27.034374Q322.92188 27.89375 323.04688 28.315624Q323.1875 27.846874 323.5 26.940624L325.5625 20.95625L327.09375 20.95625L327.09375 29.55L326.0 29.55L326.0 22.3625L323.5 29.55L322.46875 29.55L319.98438 22.2375L319.98438 29.55L318.89062 29.55ZM327.89062 29.55L327.89062 20.95625L329.60938 20.95625L331.64062 27.034374Q331.92188 27.89375 332.04688 28.315624Q332.1875 27.846874 332.5 26.940624L334.5625 20.95625L336.09375 20.95625L336.09375 29.55L335.0 29.55L335.0 22.3625L332.5 29.55L331.46875 29.55L328.98438 22.2375L328.98438 29.55L327.89062 29.55ZM336.375 26.971874L336.375 25.909374L339.625 25.909374L339.625 26.971874L336.375 26.971874ZM340.875 29.55L340.875 20.95625L342.01562 20.95625L342.01562 28.534374L346.25 28.534374L346.25 29.55L340.875 29.55ZM347.9375 29.55L347.9375 20.95625L351.75 20.95625Q352.90625 20.95625 353.5 21.190624Q354.09375 21.425 354.45312 22.01875Q354.8125 22.596874 354.8125 23.3Q354.8125 24.221874 354.21875 24.846874Q353.625 25.471874 352.39062 25.64375Q352.84375 25.8625 353.07812 26.065624Q353.57812 26.51875 354.01562 27.20625L355.51562 29.55L354.07812 29.55L352.95312 27.76875Q352.45312 26.9875 352.125 26.58125Q351.8125 26.175 351.54688 26.01875Q351.29688 25.846874 351.03125 25.76875Q350.84375 25.7375 350.40625 25.7375L349.07812 25.7375L349.07812 29.55L347.9375 29.55ZM349.07812 24.753124L351.53125 24.753124Q352.29688 24.753124 352.73438 24.596874Q353.1875 24.425 353.40625 24.08125Q353.64062 23.721874 353.64062 23.3Q353.64062 22.690624 353.1875 22.3Q352.75 21.909374 351.79688 21.909374L349.07812 21.909374L349.07812 24.753124Z" fill-rule="nonzero"/></svg>