<?xml version="1.0" standalone="no"?>
<svg xmlns="http://www.w3.org/2000/svg" viewBox="0 0 691 480" preserveAspectRatio="xMidYMid slice">
  <defs>
    <filter id="writhe" x="-15%" y="-50%" width="130%" height="200%">
      <feTurbulence type="fractalNoise" baseFrequency="0.005 0.018" numOctaves="1" seed="3" result="noise"/>
      <feOffset in="noise" dx="0" dy="0" result="moved">
        <animate attributeName="dx" values="0;600" dur="3s" repeatCount="indefinite"/>
      </feOffset>
      <feDisplacementMap in="SourceGraphic" in2="moved" scale="70"/>
    </filter>
  </defs>
  <g transform="translate(0,480) scale(0.1,-0.1)" fill="hsla(120, 44%, 86%, 1)" stroke="none" fill-rule="evenodd" filter="url(#writhe)">
<path d="M6852 3566 c-85 -104 -251 -227 -555 -410 l-128 -77 -261 11 c-329
13 -520 41 -813 120 -213 57 -277 64 -560 63 -178 0 -339 -7 -510 -22 -485
-42 -603 -60 -721 -107 l-68 -27 -336 67 c-797 157 -922 167 -1358 106 -185
-26 -412 -43 -470 -35 -138 18 -510 105 -937 219 -120 32 -159 37 -126 17 17
-11 591 -159 791 -205 287 -65 367 -66 780 -11 402 54 520 45 1206 -89 608
-119 1151 -241 1469 -330 212 -60 426 -113 905 -227 162 -38 313 -75 335 -81
l40 -11 -40 -18 c-22 -9 -50 -18 -62 -18 -50 -2 -891 215 -1218 314 -588 178
-687 200 -1358 295 -196 28 -406 60 -465 71 -363 67 -535 67 -947 -1 -243 -40
-369 -82 -729 -244 l-189 -85 -46 32 -46 31 110 52 c61 29 189 80 285 114 279
99 290 112 109 121 -69 4 -159 17 -229 33 -167 40 -491 121 -595 151 -97 27
-115 29 -115 17 0 -9 69 -28 403 -112 346 -88 456 -110 544 -110 45 0 73 -4
68 -9 -6 -5 -84 -35 -175 -66 -91 -32 -223 -84 -294 -117 l-129 -58 -140 91
c-163 108 -277 161 -277 129 0 -5 6 -10 13 -10 32 0 174 -81 330 -187 192
-130 377 -262 377 -268 0 -3 -17 -14 -39 -24 l-39 -20 -18 21 c-23 26 -221
176 -327 247 -73 50 -257 141 -284 141 -32 0 -6 -18 72 -49 46 -19 121 -57
165 -86 l82 -52 -64 -28 c-35 -16 -108 -43 -163 -61 -55 -18 -101 -37 -103
-43 -2 -6 -2 -11 0 -11 13 0 243 82 291 104 l59 26 44 -34 43 -33 -97 -43
c-53 -24 -151 -63 -217 -88 -66 -24 -122 -46 -124 -48 -30 -29 187 43 337 112
127 59 113 59 184 5 35 -27 72 -58 82 -70 l19 -21 -74 -34 c-41 -18 -120 -51
-174 -72 -94 -35 -108 -38 -237 -42 -76 -2 -138 -8 -138 -13 0 -15 221 -10
285 7 95 24 223 78 475 199 437 210 515 244 582 260 36 8 160 22 275 30 114 8
224 17 243 20 222 32 403 26 605 -22 115 -26 315 -99 315 -115 0 -4 -11 -14
-25 -20 -22 -10 -48 -4 -173 35 -240 76 -234 75 -737 47 -235 -13 -313 -24
-470 -65 -257 -67 -458 -145 -575 -225 -113 -77 -386 -200 -411 -185 -4 3 -52
-6 -106 -21 -61 -17 -133 -29 -190 -31 -51 -3 -93 -9 -93 -14 0 -5 39 -9 88
-9 150 0 354 52 531 136 51 24 97 44 102 44 5 0 32 -18 61 -40 144 -110 533
-266 719 -290 45 -5 84 -11 86 -13 11 -12 -141 -15 -327 -7 -118 5 -307 12
-420 15 -113 3 -346 13 -518 21 -277 14 -337 14 -321 0 7 -6 410 -26 839 -41
228 -8 422 -15 430 -16 8 -1 -18 -9 -59 -19 -58 -14 -88 -16 -135 -9 -34 4
-257 8 -496 8 -239 -1 -468 2 -507 6 -47 5 -73 4 -73 -2 0 -18 149 -24 593
-22 241 1 440 -1 444 -4 7 -8 10 -7 -167 -51 -80 -19 -273 -72 -430 -116
l-285 -81 -72 26 c-80 28 -83 29 -83 16 0 -5 22 -17 50 -26 27 -9 52 -21 55
-26 4 -5 14 -9 24 -9 9 0 123 -38 252 -85 318 -116 393 -135 557 -142 250 -10
327 13 684 207 416 227 1021 525 1156 570 218 73 374 86 603 50 265 -41 452
-91 641 -174 68 -29 200 -77 293 -106 94 -29 171 -54 173 -55 2 -2 -21 -8 -50
-14 -54 -12 -54 -12 -320 83 -496 176 -683 225 -903 233 -160 6 -232 -7 -419
-77 -234 -87 -720 -322 -902 -436 -190 -120 -585 -296 -739 -329 -65 -15 -106
-17 -225 -12 -196 9 -278 31 -632 172 -157 63 -289 115 -292 115 -3 0 -6 -4
-6 -9 0 -12 533 -223 645 -256 151 -44 389 -58 518 -30 131 27 539 207 704
309 50 31 96 56 102 56 14 0 264 -90 273 -99 5 -4 -40 -27 -100 -50 -59 -24
-156 -69 -217 -99 -125 -62 -479 -183 -712 -243 -90 -23 -200 -43 -270 -50
-233 -22 -806 19 -925 66 -10 4 -18 3 -18 -2 0 -44 373 -86 755 -86 263 0 323
9 586 87 272 80 480 155 639 231 230 109 298 135 332 123 15 -6 30 -13 32 -17
2 -3 -59 -31 -137 -60 -78 -30 -246 -98 -373 -152 -261 -111 -386 -151 -624
-203 -263 -56 -286 -59 -465 -59 -198 0 -340 13 -572 53 -92 15 -170 26 -172
24 -11 -10 19 -19 141 -40 211 -37 409 -55 603 -55 198 -1 249 6 529 71 213
50 320 85 511 167 217 94 575 233 599 233 20 0 126 -55 126 -65 0 -13 -156
-104 -274 -160 -382 -182 -733 -292 -1116 -350 -163 -25 -509 -36 -805 -25
-322 12 -315 12 -315 1 0 -21 807 -30 1000 -11 336 35 674 123 1016 265 226
95 334 147 429 209 91 60 102 63 128 43 15 -10 6 -20 -79 -76 -212 -142 -443
-236 -864 -350 -360 -98 -455 -114 -831 -137 -341 -20 -652 -21 -737 -2 -42
10 -61 11 -59 4 12 -37 362 -46 793 -21 314 18 430 34 639 85 533 131 834 245
1070 405 53 36 101 65 107 65 6 0 69 -32 140 -71 l130 -71 -83 -45 c-298 -160
-567 -263 -949 -362 -213 -55 -312 -74 -632 -120 -306 -45 -480 -77 -608 -115
-121 -36 -603 -229 -608 -244 -3 -9 2 -10 20 -3 172 72 535 210 613 233 124
36 295 68 581 108 311 45 413 64 634 121 367 95 528 153 842 306 l218 106 35
-19 c19 -10 35 -21 35 -24 0 -3 -39 -19 -87 -35 -49 -16 -202 -87 -341 -158
-140 -71 -282 -139 -317 -152 -70 -27 -487 -133 -642 -164 -128 -25 -582 -96
-748 -116 -173 -21 -226 -35 -380 -104 -71 -32 -204 -89 -295 -126 -180 -74
-176 -72 -167 -82 7 -7 222 80 454 183 167 75 216 88 388 109 478 57 1072 174
1354 267 52 17 208 88 345 158 138 70 301 146 362 169 l110 41 55 -23 c99 -44
293 -106 394 -126 267 -53 892 -86 1146 -61 260 27 522 126 968 367 l183 99
177 -38 c229 -49 301 -71 387 -118 39 -21 98 -48 131 -59 66 -22 445 -102 452
-95 10 10 -18 18 -195 55 -224 46 -260 57 -385 120 -103 51 -145 64 -370 113
-81 17 -146 36 -145 41 3 23 249 -5 361 -42 28 -9 113 -42 190 -74 144 -59
229 -83 426 -119 102 -18 132 -19 117 -5 -2 3 -65 16 -139 30 -196 36 -267 57
-429 125 -154 65 -207 81 -364 104 -54 8 -100 17 -103 19 -2 3 20 18 49 34 69
39 87 37 423 -54 308 -84 334 -90 445 -103 103 -12 120 -12 120 -1 0 4 -48 14
-107 20 -103 12 -278 52 -531 123 l-117 33 82 3 c59 2 91 -2 112 -12 30 -16
549 -91 559 -81 3 3 3 7 1 9 -3 3 -92 17 -199 31 -107 14 -224 31 -260 37
l-65 11 165 19 c158 18 346 51 358 62 15 16 -13 16 -70 2 -168 -41 -504 -69
-703 -58 l-130 7 45 24 c38 20 57 23 131 22 103 -3 273 18 533 65 179 32 205
38 195 48 -2 3 -121 -15 -264 -40 -176 -30 -302 -46 -390 -49 l-130 -5 190 95
c226 112 358 166 494 202 56 14 101 30 101 35 0 12 -10 11 -128 -22 -179 -48
-537 -213 -822 -378 -531 -306 -902 -484 -1141 -546 -178 -46 -405 -56 -769
-36 -411 23 -596 52 -810 126 -175 59 -232 86 -553 261 -276 150 -372 194
-581 268 l-118 42 45 25 45 26 119 -53 c152 -67 245 -114 439 -223 393 -220
490 -262 739 -323 309 -75 585 -103 945 -96 370 7 410 16 840 198 512 216 606
261 865 417 77 46 172 100 210 119 69 35 497 203 605 238 56 18 78 31 68 40
-3 3 -42 -8 -87 -25 -45 -16 -94 -30 -109 -30 -25 0 -1060 173 -1112 186 -23
6 -21 8 24 28 46 21 53 22 116 10 104 -20 275 -41 690 -84 212 -22 406 -44
433 -49 42 -7 61 -1 39 13 -5 3 -137 19 -293 36 -572 62 -656 71 -759 86 -128
18 -141 22 -120 34 27 15 279 99 435 145 325 96 612 154 702 141 49 -6 59 9
12 19 -152 33 -938 -180 -1314 -357 -379 -178 -619 -283 -738 -324 -152 -52
-527 -148 -640 -163 -44 -6 -233 -11 -431 -11 -399 0 -451 -5 -644 -69 -65
-21 -191 -69 -280 -106 -148 -62 -165 -67 -190 -55 l-27 12 30 24 c49 40 160
90 322 143 270 89 293 92 798 95 l440 3 100 32 c55 17 152 45 216 60 63 16
178 53 255 84 205 81 676 283 774 332 118 59 441 186 580 228 214 65 517 117
683 117 66 0 97 4 97 11 0 9 -37 10 -137 6 -205 -9 -487 -61 -693 -129 -123
-40 -403 -149 -466 -181 l-50 -25 -224 54 c-894 215 -1171 286 -1159 298 8 7
369 86 441 96 111 16 352 -18 868 -122 127 -25 180 -31 295 -32 153 -1 212 10
313 55 49 22 131 40 355 79 161 27 327 56 370 63 73 13 96 22 86 31 -2 2 -157
-23 -344 -55 -187 -33 -343 -58 -348 -56 -4 1 27 23 70 48 64 38 93 49 158 58
78 11 452 104 463 115 16 17 -23 10 -218 -38 -229 -57 -280 -68 -280 -61 0 2
15 12 33 21 125 64 506 364 462 364 -2 0 -76 -57 -164 -127 -87 -71 -200 -153
-250 -183 -50 -30 -148 -91 -218 -134 -171 -105 -236 -135 -340 -153 -120 -21
-246 -13 -468 31 -527 103 -645 120 -798 113 -116 -4 -309 -41 -482 -92 -45
-13 -56 -12 -135 7 l-85 22 60 14 c33 8 140 36 239 64 214 60 318 78 451 78
129 0 175 -7 570 -86 499 -100 604 -100 814 2 165 79 538 313 647 407 92 78
189 197 161 197 -2 0 -27 -29 -55 -64z m-2066 -317 c61 -6 195 -32 305 -60
346 -85 574 -118 838 -120 58 0 126 -4 151 -7 l45 -7 -65 -28 c-36 -16 -85
-31 -110 -33 -53 -6 -443 49 -745 106 -409 77 -448 82 -675 87 -245 6 -469 -9
-926 -59 -303 -33 -369 -32 -280 3 100 40 267 64 691 99 393 32 594 37 771 19z
m-2626 -50 c41 -6 147 -23 235 -39 88 -16 277 -45 420 -65 143 -19 275 -38
293 -42 32 -5 26 -10 -132 -100 l-165 -94 -32 16 c-105 55 -284 109 -445 135
-95 16 -281 14 -459 -4 -82 -8 -197 -18 -255 -21 -255 -15 -339 -34 -489 -110
-113 -57 -371 -175 -383 -175 -5 0 -52 30 -104 67 l-94 68 57 28 c114 58 395
178 510 217 222 77 689 146 898 133 39 -2 104 -9 145 -14z m2710 -58 c69 -12
231 -41 360 -65 129 -24 327 -57 440 -73 136 -18 193 -30 170 -33 -74 -11
-237 11 -553 74 -180 36 -364 70 -409 76 -171 21 -354 7 -513 -40 -38 -12
-154 -43 -256 -69 l-187 -48 -248 57 c-137 31 -256 59 -263 61 -17 6 421 55
664 75 244 19 638 12 795 -15z m-1640 -106 c0 -2 -64 -38 -142 -81 -266 -144
-403 -226 -543 -323 -171 -119 -241 -159 -606 -343 -332 -168 -383 -188 -489
-188 -76 0 -256 -20 -360 -41 -30 -6 -199 -46 -376 -90 -176 -43 -356 -85
-400 -94 -91 -17 -136 -19 -89 -3 17 5 39 13 50 18 42 19 603 171 714 194 349
73 421 85 501 86 91 0 153 15 147 33 -2 7 -46 17 -103 24 -219 26 -548 153
-737 286 l-58 41 23 18 c41 32 53 30 131 -22 98 -66 213 -115 472 -203 193
-66 216 -72 290 -71 60 0 100 7 159 28 107 36 352 157 511 251 152 90 454 264
675 389 85 49 156 91 158 95 2 7 72 2 72 -4z m187 -30 c235 -43 465 -105 389
-105 -10 0 -90 -25 -179 -55 -190 -64 -273 -85 -342 -85 -63 0 -262 34 -328
56 -49 16 -50 17 -26 30 13 7 94 51 179 98 85 47 158 86 162 86 4 0 69 -11
145 -25z m-1022 -110 c82 -17 305 -86 305 -94 0 -3 -28 -21 -63 -40 -34 -19
-145 -84 -247 -144 -196 -117 -482 -261 -589 -297 -124 -41 -164 -39 -361 24
-290 92 -455 162 -566 241 l-46 33 64 35 c73 40 235 101 392 147 221 64 265
70 691 99 196 13 344 12 420 -4z m1525 -12 c33 -9 60 -19 60 -22 0 -4 -44 -17
-97 -30 -54 -13 -156 -47 -228 -76 -154 -63 -256 -87 -385 -88 -86 -2 -111 3
-265 47 -93 27 -176 52 -184 56 -11 6 -4 13 26 29 l41 21 59 -21 c32 -11 112
-29 178 -40 179 -31 227 -25 502 65 125 41 229 75 231 76 1 0 29 -7 62 -17z
m378 -114 c147 -44 449 -125 672 -180 223 -55 412 -102 420 -105 8 -3 -76 -44
-190 -93 -181 -77 -207 -86 -225 -75 -35 23 -146 43 -291 53 -165 12 -715 32
-829 30 -56 -1 -111 7 -184 25 -214 53 -345 70 -516 70 -146 -1 -170 -3 -277
-31 -148 -39 -243 -81 -591 -254 l-280 -141 -136 27 c-75 14 -149 28 -165 32
-25 4 13 26 271 157 356 182 410 212 573 325 69 48 148 102 177 120 l51 32
134 -40 c221 -66 257 -73 358 -73 129 0 228 22 378 83 100 40 230 81 380 118
2 1 123 -35 270 -80z m1802 -429 c294 -50 543 -94 554 -98 13 -6 -18 -22 -125
-62 -194 -72 -320 -129 -402 -178 -37 -23 -71 -42 -75 -42 -4 0 -57 22 -117
49 -123 55 -215 83 -559 170 -132 34 -241 62 -242 64 -5 5 411 194 421 191 6
-2 251 -44 545 -94z m-2806 65 c61 -6 178 -28 251 -47 l40 -10 -135 -39 c-162
-46 -397 -136 -655 -251 -104 -47 -241 -105 -303 -128 l-113 -43 -72 32 c-40
18 -100 44 -134 58 -35 15 -63 30 -63 33 0 10 369 187 535 258 252 107 432
155 550 146 22 -2 67 -6 99 -9z m1241 -46 c225 -11 343 -26 405 -51 l34 -14
-63 -25 c-60 -24 -65 -25 -134 -13 -72 13 -648 63 -743 65 -33 0 -69 10 -109
30 l-60 29 225 -5 c124 -3 324 -10 445 -16z m-848 -40 c24 -7 42 -13 40 -15
-2 -2 -41 -11 -88 -19 -189 -36 -459 -125 -614 -203 -38 -20 -182 -81 -319
-138 -243 -99 -249 -101 -276 -86 l-28 16 122 47 c66 25 193 79 281 119 271
123 494 206 760 283 28 8 56 13 64 11 7 -3 33 -9 58 -15z m704 -44 c334 -27
397 -34 404 -45 3 -4 -37 -23 -88 -43 -172 -65 -142 -67 -402 18 -232 75 -280
95 -239 95 12 0 158 -11 325 -25z m-394 -61 c120 -41 245 -85 278 -96 33 -11
64 -24 68 -28 4 -4 -25 -17 -65 -30 -71 -23 -83 -24 -517 -27 -514 -4 -534 -6
-809 -99 -168 -56 -262 -98 -320 -142 l-33 -25 -55 29 c-30 16 -54 31 -54 34
0 3 82 38 183 79 100 40 259 109 352 151 253 116 522 198 747 229 4 1 105 -33
225 -75z m1413 -65 c297 -75 427 -115 551 -172 74 -34 74 -34 47 -47 -23 -11
-32 -10 -61 3 -29 14 -710 211 -854 248 -29 7 -53 16 -53 20 0 10 52 28 70 24
8 -2 143 -36 300 -76z m0 -78 c217 -61 422 -120 455 -130 l60 -19 -49 -1 c-92
-2 -591 30 -711 45 -66 8 -187 32 -270 54 -238 62 -223 53 -125 83 47 14 117
39 155 56 39 16 75 28 80 26 6 -1 188 -52 405 -114z m-3575 10 l140 -26 -49
-28 c-27 -15 -54 -27 -60 -27 -6 0 -54 16 -108 35 -53 19 -120 37 -150 41
l-53 7 39 18 c43 19 37 19 241 -20z m-277 -17 c103 -16 287 -73 275 -85 -21
-18 -456 -249 -513 -272 -173 -69 -388 -79 -591 -27 -97 25 -459 152 -459 161
0 4 20 10 45 13 25 4 198 45 384 91 541 134 664 151 859 119z m3222 -35 c282
-80 364 -91 855 -117 l310 -17 -36 -22 c-45 -28 -87 -29 -389 -8 -295 21 -514
43 -646 65 -110 19 -344 87 -344 101 0 10 112 38 130 32 8 -2 62 -18 120 -34z
m-140 -62 c176 -59 416 -91 923 -124 l268 -17 -53 -26 c-53 -25 -54 -26 -228
-19 -182 6 -354 0 -675 -25 -104 -8 -298 -20 -430 -26 -616 -27 -862 -55
-1357 -151 l-107 -21 -146 78 -146 78 128 54 c175 74 400 149 503 169 68 13
166 17 485 18 l400 3 145 34 c119 28 149 32 165 22 11 -7 67 -28 125 -47z
m894 -204 c158 -6 159 -6 125 -23 -30 -16 -47 -16 -139 -8 -143 13 -299 4
-530 -32 -324 -51 -430 -60 -810 -70 -400 -11 -501 -19 -695 -56 -71 -13 -190
-34 -263 -46 -127 -20 -134 -21 -169 -4 -19 9 -34 19 -32 21 2 2 121 24 264
49 421 74 592 91 1150 116 127 6 322 18 435 26 471 37 451 36 664 27z m-29
-50 c94 -8 118 7 -255 -153 -351 -150 -442 -184 -570 -210 -282 -57 -813 -37
-1200 46 -132 28 -328 83 -335 94 -2 4 21 10 53 14 31 4 125 20 207 36 249 48
363 59 751 70 414 11 485 17 804 65 124 19 241 36 260 38 62 7 205 7 285 0z"/>
  </g>
</svg>
