<svg version="1.1" viewBox="0.0 0.0 600.0 371.0" fill="none" stroke="none" stroke-linecap="square" stroke-miterlimit="10" width="600" height="371" xmlns:xlink="http://www.w3.org/1999/xlink" xmlns="http://www.w3.org/2000/svg"><path fill="#ffffff" d="M0 0L600.0 0L600.0 371.0L0 371.0L0 0Z" fill-rule="nonzero"/><path stroke="#333333" stroke-width="1.0" stroke-linecap="butt" d="M45.5 265.5L581.5 265.5" fill-rule="nonzero"/><path stroke="#cccccc" stroke-width="1.0" stroke-linecap="butt" d="M45.5 185.5L581.5 185.5" fill-rule="nonzero"/><path stroke="#cccccc" stroke-width="1.0" stroke-linecap="butt" d="M45.5 105.5L581.5 105.5" fill-rule="nonzero"/><path stroke="#cccccc" stroke-width="1.0" stroke-linecap="butt" d="M45.5 25.5L581.5 25.5" fill-rule="nonzero"/><clipPath id="id_0"><path d="M45.55 25.55L581.45 25.55L581.45 265.8398L45.55 265.8398L45.55 25.55Z" clip-rule="nonzero"/></clipPath><path stroke="#000000" stroke-width="2.0" stroke-linecap="butt" stroke-opacity="0.0" clip-path="url(#id_0)" d="M86.0 266.0L60.0 266.0L60.0 266.0L86.0 266.0Z" fill-rule="nonzero"/><path fill="#4285f4" clip-path="url(#id_0)" d="M86.0 266.0L60.0 266.0L60.0 266.0L86.0 266.0Z" fill-rule="nonzero"/><path stroke="#000000" stroke-width="2.0" stroke-linecap="butt" stroke-opacity="0.0" clip-path="url(#id_0)" d="M126.0 266.0L100.0 266.0L100.0 266.0L126.0 266.0Z" fill-rule="nonzero"/><path fill="#4285f4" clip-path="url(#id_0)" d="M126.0 266.0L100.0 266.0L100.0 266.0L126.0 266.0Z" fill-rule="nonzero"/><path stroke="#000000" stroke-width="2.0" stroke-linecap="butt" stroke-opacity="0.0" clip-path="url(#id_0)" d="M166.0 266.0L140.0 266.0L140.0 266.0L166.0 266.0Z" fill-rule="nonzero"/><path fill="#4285f4" clip-path="url(#id_0)" d="M166.0 266.0L140.0 266.0L140.0 266.0L166.0 266.0Z" fill-rule="nonzero"/><path stroke="#000000" stroke-width="2.0" stroke-linecap="butt" stroke-opacity="0.0" clip-path="url(#id_0)" d="M206.0 266.0L180.0 266.0L180.0 266.0L206.0 266.0Z" fill-rule="nonzero"/><path fill="#4285f4" clip-path="url(#id_0)" d="M206.0 266.0L180.0 266.0L180.0 266.0L206.0 266.0Z" fill-rule="nonzero"/><path stroke="#000000" stroke-width="2.0" stroke-linecap="butt" stroke-opacity="0.0" clip-path="url(#id_0)" d="M246.0 266.0L220.0 266.0L220.0 236.0C220.0 234.89543 220.89543 234.0 222.0 234.0L244.0 234.0C245.10457 234.0 246.0 234.89543 246.0 236.0Z" fill-rule="nonzero"/><path fill="#4285f4" clip-path="url(#id_0)" d="M246.0 266.0L220.0 266.0L220.0 236.0C220.0 234.89543 220.89543 234.0 222.0 234.0L244.0 234.0C245.10457 234.0 246.0 234.89543 246.0 236.0Z" fill-rule="nonzero"/><path stroke="#000000" stroke-width="2.0" stroke-linecap="butt" stroke-opacity="0.0" clip-path="url(#id_0)" d="M286.0 266.0L260.0 266.0L260.0 220.0C260.0 218.89543 260.89542 218.0 262.0 218.0L284.0 218.0C285.10458 218.0 286.0 218.89543 286.0 220.0Z" fill-rule="nonzero"/><path fill="#4285f4" clip-path="url(#id_0)" d="M286.0 266.0L260.0 266.0L260.0 220.0C260.0 218.89543 260.89542 218.0 262.0 218.0L284.0 218.0C285.10458 218.0 286.0 218.89543 286.0 220.0Z" fill-rule="nonzero"/><path stroke="#000000" stroke-width="2.0" stroke-linecap="butt" stroke-opacity="0.0" clip-path="url(#id_0)" d="M327.0 266.0L301.0 266.0L301.0 220.0C301.0 218.89543 301.89542 218.0 303.0 218.0L325.0 218.0C326.10458 218.0 327.0 218.89543 327.0 220.0Z" fill-rule="nonzero"/><path fill="#4285f4" clip-path="url(#id_0)" d="M327.0 266.0L301.0 266.0L301.0 220.0C301.0 218.89543 301.89542 218.0 303.0 218.0L325.0 218.0C326.10458 218.0 327.0 218.89543 327.0 220.0Z" fill-rule="nonzero"/><path stroke="#000000" stroke-width="2.0" stroke-linecap="butt" stroke-opacity="0.0" clip-path="url(#id_0)" d="M367.0 266.0L341.0 266.0L341.0 140.0C341.0 138.89543 341.89542 138.0 343.0 138.0L365.0 138.0C366.10458 138.0 367.0 138.89543 367.0 140.0Z" fill-rule="nonzero"/><path fill="#4285f4" clip-path="url(#id_0)" d="M367.0 266.0L341.0 266.0L341.0 140.0C341.0 138.89543 341.89542 138.0 343.0 138.0L365.0 138.0C366.10458 138.0 367.0 138.89543 367.0 140.0Z" fill-rule="nonzero"/><path stroke="#000000" stroke-width="2.0" stroke-linecap="butt" stroke-opacity="0.0" clip-path="url(#id_0)" d="M407.0 266.0L381.0 266.0L381.0 124.0C381.0 122.89543 381.89542 122.0 383.0 122.0L405.0 122.0C406.10458 122.0 407.0 122.89543 407.0 124.0Z" fill-rule="nonzero"/><path fill="#4285f4" clip-path="url(#id_0)" d="M407.0 266.0L381.0 266.0L381.0 124.0C381.0 122.89543 381.89542 122.0 383.0 122.0L405.0 122.0C406.10458 122.0 407.0 122.89543 407.0 124.0Z" fill-rule="nonzero"/><path stroke="#000000" stroke-width="2.0" stroke-linecap="butt" stroke-opacity="0.0" clip-path="url(#id_0)" d="M447.0 266.0L421.0 266.0L421.0 156.0C421.0 154.89543 421.89542 154.0 423.0 154.0L445.0 154.0C446.10458 154.0 447.0 154.89543 447.0 156.0Z" fill-rule="nonzero"/><path fill="#4285f4" clip-path="url(#id_0)" d="M447.0 266.0L421.0 266.0L421.0 156.0C421.0 154.89543 421.89542 154.0 423.0 154.0L445.0 154.0C446.10458 154.0 447.0 154.89543 447.0 156.0Z" fill-rule="nonzero"/><path stroke="#000000" stroke-width="2.0" stroke-linecap="butt" stroke-opacity="0.0" clip-path="url(#id_0)" d="M487.0 266.0L461.0 266.0L461.0 124.0C461.0 122.89543 461.89542 122.0 463.0 122.0L485.0 122.0C486.10458 122.0 487.0 122.89543 487.0 124.0Z" fill-rule="nonzero"/><path fill="#4285f4" clip-path="url(#id_0)" d="M487.0 266.0L461.0 266.0L461.0 124.0C461.0 122.89543 461.89542 122.0 463.0 122.0L485.0 122.0C486.10458 122.0 487.0 122.89543 487.0 124.0Z" fill-rule="nonzero"/><path stroke="#000000" stroke-width="2.0" stroke-linecap="butt" stroke-opacity="0.0" clip-path="url(#id_0)" d="M527.0 266.0L501.0 266.0L501.0 44.0C501.0 42.89543 501.89542 42.0 503.0 42.0L525.0 42.0C526.10455 42.0 527.0 42.89543 527.0 44.0Z" fill-rule="nonzero"/><path fill="#4285f4" clip-path="url(#id_0)" d="M527.0 266.0L501.0 266.0L501.0 44.0C501.0 42.89543 501.89542 42.0 503.0 42.0L525.0 42.0C526.10455 42.0 527.0 42.89543 527.0 44.0Z" fill-rule="nonzero"/><path stroke="#000000" stroke-width="2.0" stroke-linecap="butt" stroke-opacity="0.0" clip-path="url(#id_0)" d="M567.0 266.0L541.0 266.0L541.0 28.0C541.0 26.89543 541.89545 26.0 543.0 26.0L565.0 26.0C566.10455 26.0 567.0 26.89543 567.0 28.0Z" fill-rule="nonzero"/><path fill="#4285f4" clip-path="url(#id_0)" d="M567.0 266.0L541.0 266.0L541.0 28.0C541.0 26.89543 541.89545 26.0 543.0 26.0L565.0 26.0C566.10455 26.0 567.0 26.89543 567.0 28.0Z" fill-rule="nonzero"/><path fill="#000000" d="M33.05 265.60544Q33.05 264.0742 33.3625 263.1523Q33.675 262.2148 34.284374 261.7148Q34.909374 261.2148 35.846874 261.2148Q36.534374 261.2148 37.05 261.49606Q37.58125 261.7773 37.925 262.30856Q38.26875 262.8242 38.45625 263.5742Q38.64375 264.3242 38.64375 265.60544Q38.64375 267.12106 38.33125 268.04294Q38.034374 268.9648 37.409374 269.48044Q36.8 269.98044 35.846874 269.98044Q34.6125 269.98044 33.89375 269.0898Q33.05 268.0273 33.05 265.60544ZM34.128124 265.60544Q34.128124 267.7148 34.628124 268.41794Q35.128124 269.12106 35.846874 269.12106Q36.58125 269.12106 37.065624 268.41794Q37.565624 267.7148 37.565624 265.60544Q37.565624 263.48044 37.065624 262.79294Q36.58125 262.0898 35.83125 262.0898Q35.1125 262.0898 34.675 262.6992Q34.128124 263.48044 34.128124 265.60544Z" fill-rule="nonzero"/><path fill="#000000" d="M33.05 187.49323L34.159374 187.39948Q34.284374 188.21198 34.721874 188.61823Q35.175 189.02448 35.815624 189.02448Q36.565624 189.02448 37.096874 188.44635Q37.628124 187.86823 37.628124 186.93073Q37.628124 186.02448 37.1125 185.50885Q36.6125 184.9776 35.784374 184.9776Q35.284374 184.9776 34.8625 185.21198Q34.45625 185.44635 34.221874 185.80573L33.2375 185.68073L34.065624 181.27448L38.346874 181.27448L38.346874 182.27448L34.909374 182.27448L34.45625 184.58698Q35.221874 184.0401 36.065624 184.0401Q37.190624 184.0401 37.95625 184.82135Q38.7375 185.6026 38.7375 186.83698Q38.7375 187.99323 38.065624 188.8526Q37.2375 189.88385 35.815624 189.88385Q34.64375 189.88385 33.89375 189.2276Q33.159374 188.57135 33.05 187.49323Z" fill-rule="nonzero"/><path fill="#000000" d="M30.01875 109.64661L28.971874 109.64661L28.971874 102.92786Q28.58125 103.28723 27.95625 103.66223Q27.346874 104.02161 26.8625 104.19348L26.8625 103.17786Q27.7375 102.75598 28.39375 102.17786Q29.065624 101.58411 29.346874 101.02161L30.01875 101.02161L30.01875 109.64661ZM33.05 105.41223Q33.05 103.88098 33.3625 102.95911Q33.675 102.02161 34.284374 101.52161Q34.909374 101.02161 35.846874 101.02161Q36.534374 101.02161 37.05 101.30286Q37.58125 101.58411 37.925 102.11536Q38.26875 102.63098 38.45625 103.38098Q38.64375 104.13098 38.64375 105.41223Q38.64375 106.92786 38.33125 107.84973Q38.034374 108.77161 37.409374 109.28723Q36.8 109.78723 35.846874 109.78723Q34.6125 109.78723 33.89375 108.89661Q33.05 107.83411 33.05 105.41223ZM34.128124 105.41223Q34.128124 107.52161 34.628124 108.22473Q35.128124 108.92786 35.846874 108.92786Q36.58125 108.92786 37.065624 108.22473Q37.565624 107.52161 37.565624 105.41223Q37.565624 103.28723 37.065624 102.59973Q36.58125 101.89661 35.83125 101.89661Q35.1125 101.89661 34.675 102.50598Q34.128124 103.28723 34.128124 105.41223Z" fill-rule="nonzero"/><path fill="#000000" d="M30.01875 29.55L28.971874 29.55L28.971874 22.83125Q28.58125 23.190624 27.95625 23.565624Q27.346874 23.925 26.8625 24.096874L26.8625 23.08125Q27.7375 22.659374 28.39375 22.08125Q29.065624 21.4875 29.346874 20.925L30.01875 20.925L30.01875 29.55ZM33.05 27.3L34.159374 27.20625Q34.284374 28.01875 34.721874 28.425Q35.175 28.83125 35.815624 28.83125Q36.565624 28.83125 37.096874 28.253124Q37.628124 27.675 37.628124 26.7375Q37.628124 25.83125 37.1125 25.315624Q36.6125 24.784374 35.784374 24.784374Q35.284374 24.784374 34.8625 25.01875Q34.45625 25.253124 34.221874 25.6125L33.2375 25.4875L34.065624 21.08125L38.346874 21.08125L38.346874 22.08125L34.909374 22.08125L34.45625 24.39375Q35.221874 23.846874 36.065624 23.846874Q37.190624 23.846874 37.95625 24.628124Q38.7375 25.409374 38.7375 26.64375Q38.7375 27.8 38.065624 28.659374Q37.2375 29.690624 35.815624 29.690624Q34.64375 29.690624 33.89375 29.034374Q33.159374 28.378124 33.05 27.3Z" fill-rule="nonzero"/><path fill="#000000" d="M37.942593 322.09964L31.865894 316.02295L34.16399 313.72485Q34.760612 313.12823 35.136265 312.86307Q35.66659 312.48743 36.174828 312.39902Q36.694107 312.2996 37.246536 312.49847Q37.81001 312.6863 38.263 313.13928Q39.0364 313.9127 39.080593 314.95123Q39.124786 315.9677 37.832108 317.2604L36.27426 318.81824L38.749138 321.29312L37.942593 322.09964ZM35.567158 318.1111L37.13605 316.54224Q37.920498 315.75778 37.95364 315.15012Q37.986786 314.52036 37.45646 313.99002Q37.080807 313.61438 36.616768 313.5481Q36.15273 313.4597 35.754982 313.68066Q35.489815 313.83536 34.948437 314.3767L33.390594 315.93457L35.567158 318.1111ZM45.16834 318.25476L44.383896 317.6471Q44.693253 317.4703 44.881077 317.2825Q45.124146 317.03943 45.17939 316.8074Q45.25673 316.57538 45.212536 316.3323Q45.15729 316.1445 44.881077 315.5368Q44.836884 315.47052 44.77059 315.29376L38.682846 312.56476L39.489388 311.7582L42.947582 313.38235Q43.610497 313.6917 44.295506 314.08945Q43.908806 313.4376 43.59945 312.7747L41.97531 309.2723L42.715565 308.53204L45.521893 314.67502Q45.963837 315.6694 46.096416 316.08923Q46.273193 316.66376 46.17376 317.09467Q46.096416 317.52554 45.742867 317.87912Q45.532944 318.08902 45.16834 318.25476ZM48.007816 310.70862L48.770164 311.24997Q48.51605 311.6367 48.27298 311.87976Q47.864185 312.28854 47.52168 312.38797Q47.168125 312.47638 46.85877 312.36588Q46.560455 312.24435 45.886497 311.5704L43.35638 309.04028L42.815002 309.58167L42.24048 309.00714L42.781857 308.46576L41.68805 307.37195L41.98636 306.18976L43.522106 307.7255L44.273407 306.9742L44.847935 307.54874L44.09663 308.30002L46.670944 310.87433Q46.991352 311.19473 47.112885 311.24997Q47.24547 311.2942 47.3891 311.26105Q47.53273 311.22787 47.698456 311.06216Q47.83104 310.92957 48.007816 310.70862ZM49.16791 310.87433L43.091213 304.79764L43.831467 304.05737L46.00803 306.23395Q45.93069 305.11804 46.726185 304.32254Q47.223366 303.82538 47.775795 303.6707Q48.32822 303.4939 48.825405 303.68173Q49.311543 303.85852 49.963406 304.51038L52.74764 307.29462L52.007385 308.03485L49.223152 305.25064Q48.65968 304.68716 48.162495 304.67612Q47.66531 304.66507 47.22337 305.107Q46.891914 305.43845 46.77038 305.91354Q46.648846 306.36652 46.814575 306.79742Q46.9803 307.2062 47.499584 307.7255L49.908165 310.1341L49.16791 310.87433ZM48.902744 300.7097L48.04096 299.8479L48.79226 299.0966L49.654045 299.95837L48.902744 300.7097ZM54.117657 305.9246L49.720337 301.52728L50.471638 300.77597L54.868958 305.17328L54.117657 305.9246ZM58.57022 300.38928Q58.50393 301.16266 58.26086 301.693Q58.028843 302.21228 57.586903 302.6542Q56.857697 303.38342 56.117443 303.41656Q55.377193 303.4497 54.824764 302.89728Q54.504356 302.57687 54.382824 302.1681Q54.25024 301.74823 54.33863 301.3505Q54.41597 300.94168 54.63694 300.56604Q54.78057 300.28983 55.178318 299.7816Q55.973812 298.78723 56.250027 298.20166Q56.09535 298.04697 56.062202 298.01382Q55.598164 297.5498 55.200417 297.5719Q54.670086 297.6161 54.10661 298.17957Q53.58733 298.69885 53.521038 299.14078Q53.4437 299.5717 53.7862 300.15726L52.95756 300.78702Q52.59296 300.22354 52.537716 299.70425Q52.482475 299.18497 52.758686 298.5994Q53.0349 298.01382 53.598377 297.45035Q54.161854 296.88687 54.647987 296.66592Q55.134125 296.44495 55.498726 296.4781Q55.863327 296.51123 56.23898 296.7543Q56.45995 296.90897 56.957134 297.40616L57.951504 298.40054Q58.990067 299.4391 59.310474 299.6711Q59.64193 299.8921 60.039677 300.00256L59.25523 300.78702Q58.912727 300.6655 58.57022 300.38928ZM56.835598 298.78723Q56.592533 299.36176 55.90752 300.28983Q55.509773 300.82016 55.41034 301.09637Q55.29985 301.36154 55.344048 301.6267Q55.39929 301.88083 55.598164 302.07968Q55.896473 302.37802 56.31632 302.3559Q56.74721 302.32275 57.178104 301.89188Q57.608997 301.46097 57.75263 300.94168Q57.907307 300.41138 57.730534 299.92523Q57.59795 299.5496 57.111813 299.06345L56.835598 298.78723ZM65.906456 294.1358L65.1662 294.87604L60.41533 290.12518Q60.39323 290.6555 60.216454 291.3626Q60.039677 292.0476 59.818707 292.51166L59.10055 291.7935Q59.42096 290.87646 59.4762 290.00363Q59.531445 289.1087 59.33257 288.5121L59.80766 288.037L65.906456 294.1358ZM70.436356 289.6059L68.97795 288.1475L66.3484 290.77704L65.66338 290.09204L64.50329 283.38556L65.11096 282.7779L69.04424 286.71118L69.86183 285.8936L70.546844 286.57858L69.72925 287.39618L71.18766 288.85458L70.436356 289.6059ZM68.29294 287.46246L65.56395 284.7335L66.39259 289.36282L68.29294 287.46246ZM73.20954 286.8327L68.81222 282.4354L69.475136 281.77246L70.09385 282.3912Q69.97232 281.84982 70.127 281.3195Q70.27063 280.7781 70.71257 280.33615Q71.19871 279.85004 71.70694 279.73953Q72.22622 279.618 72.71236 279.86108Q72.48034 278.5684 73.308975 277.73975Q73.97189 277.07684 74.679 277.09894Q75.3861 277.09894 76.14845 277.8613L79.1647 280.87753L78.42445 281.6178L75.65127 278.8446Q75.20933 278.40268 74.93311 278.28113Q74.667946 278.14856 74.35859 278.21484Q74.04923 278.28113 73.784065 278.5463Q73.32003 279.01035 73.32003 279.62906Q73.33108 280.23672 74.01608 280.92172L76.5683 283.47394L75.81699 284.22525L72.95542 281.36368Q72.45824 280.8665 72.02734 280.81125Q71.59645 280.73392 71.18766 281.1427Q70.86725 281.4631 70.767815 281.894Q70.66837 282.3249 70.86725 282.76685Q71.066124 283.20877 71.66274 283.80542L73.94979 286.09247L73.20954 286.8327Z" fill-rule="nonzero"/><path fill="#000000" d="M78.084915 322.09964L72.00822 316.02295L74.30631 313.72485Q74.90294 313.12823 75.27859 312.86307Q75.808914 312.48743 76.31715 312.39902Q76.83643 312.2996 77.388855 312.49847Q77.95233 312.68628 78.40533 313.13928Q79.17872 313.9127 79.222916 314.95123Q79.26711 315.9677 77.974434 317.2604L76.41659 318.81824L78.89146 321.29312L78.084915 322.09964ZM75.70948 318.1111L77.27837 316.54224Q78.06282 315.75778 78.09596 315.15012Q78.12911 314.52036 77.59878 313.99002Q77.22313 313.61438 76.75909 313.5481Q76.29505 313.4597 75.8973 313.68066Q75.63214 313.83536 75.09076 314.3767L73.53291 315.93457L75.70948 318.1111ZM85.31066 318.25476L84.526215 317.6471Q84.83558 317.4703 85.0234 317.2825Q85.26647 317.03943 85.32171 316.8074Q85.39905 316.57538 85.35486 316.3323Q85.299614 316.1445 85.0234 315.5368Q84.97921 315.47052 84.91292 315.29376L78.825165 312.56476L79.631714 311.7582L83.089905 313.38235Q83.752815 313.6917 84.43783 314.08945Q84.05113 313.4376 83.74177 312.7747L82.11764 309.2723L82.85789 308.53204L85.664215 314.67502Q86.106155 315.6694 86.23874 316.08923Q86.41552 316.66376 86.31608 317.09467Q86.23874 317.52554 85.885185 317.87912Q85.67526 318.08902 85.31066 318.25476ZM88.15014 310.70862L88.91249 311.24997Q88.65837 311.6367 88.415306 311.87976Q88.00651 312.28854 87.664 312.38797Q87.31045 312.47638 87.00109 312.36588Q86.70278 312.24435 86.02882 311.5704L83.4987 309.04028L82.95732 309.58167L82.3828 309.00714L82.92418 308.46576L81.83037 307.37195L82.128685 306.18976L83.66443 307.7255L84.41573 306.97418L84.99026 307.54874L84.23895 308.30002L86.81326 310.87433Q87.133675 311.19473 87.2552 311.24997Q87.38779 311.2942 87.53142 311.26105Q87.67505 311.22787 87.84078 311.06216Q87.973366 310.92957 88.15014 310.70862ZM89.310234 310.87433L83.233536 304.79764L83.97379 304.05737L86.15035 306.23395Q86.07301 305.11804 86.86851 304.32254Q87.36569 303.82535 87.91812 303.6707Q88.47054 303.4939 88.96773 303.68173Q89.453865 303.85852 90.10573 304.51038L92.88996 307.29462L92.14971 308.03485L89.36548 305.2506Q88.802 304.68713 88.30482 304.6761Q87.80763 304.66504 87.36569 305.107Q87.03423 305.43845 86.912704 305.91354Q86.79117 306.36652 86.956894 306.79742Q87.12263 307.2062 87.64191 307.7255L90.05049 310.1341L89.310234 310.87433ZM89.045074 300.7097L88.18328 299.8479L88.934586 299.0966L89.79637 299.95837L89.045074 300.7097ZM94.25999 305.9246L89.86266 301.52725L90.61396 300.77597L95.011284 305.17328L94.25999 305.9246ZM98.71255 300.38925Q98.646255 301.16266 98.40319 301.693Q98.171165 302.21228 97.729225 302.6542Q97.00002 303.38342 96.25977 303.41656Q95.519516 303.4497 94.96709 302.89728Q94.64668 302.57687 94.52515 302.1681Q94.39256 301.74823 94.48096 301.3505Q94.5583 300.94168 94.77927 300.56604Q94.9229 300.28983 95.32064 299.7816Q96.11614 298.78723 96.39235 298.20166Q96.23767 298.04697 96.20453 298.01382Q95.740486 297.5498 95.34274 297.5719Q94.81241 297.6161 94.24893 298.17957Q93.72965 298.69885 93.66336 299.14078Q93.58602 299.5717 93.92853 300.15726L93.099884 300.78702Q92.73528 300.22354 92.68004 299.70425Q92.6248 299.18497 92.90101 298.5994Q93.17722 298.01382 93.7407 297.45035Q94.30418 296.88687 94.79031 296.6659Q95.27645 296.44495 95.64105 296.4781Q96.00565 296.51123 96.3813 296.7543Q96.60227 296.90897 97.09946 297.40616L98.09383 298.4005Q99.13239 299.4391 99.4528 299.6711Q99.784256 299.8921 100.182 300.00256L99.39755 300.78702Q99.05505 300.66547 98.71255 300.38925ZM96.97793 298.78723Q96.734856 299.36176 96.04985 300.28983Q95.6521 300.82016 95.552666 301.09637Q95.44218 301.36154 95.486374 301.6267Q95.54161 301.88083 95.740486 302.07968Q96.038795 302.378 96.45864 302.3559Q96.889534 302.32275 97.32043 301.89188Q97.75132 301.46097 97.89495 300.94168Q98.04964 300.41138 97.872856 299.92523Q97.74027 299.5496 97.254135 299.06345L96.97793 298.78723ZM101.64041 295.3401L102.292274 294.48935Q103.04357 294.9976 103.6402 294.97546Q104.22577 294.94232 104.66771 294.5004Q105.198044 293.97006 105.198044 293.24084Q105.198044 292.51166 104.65666 291.97028Q104.14843 291.46204 103.47447 291.47308Q102.80051 291.46204 102.28123 291.98132Q102.071304 292.19125 101.83929 292.60004L101.26476 291.84875Q101.35315 291.78244 101.39734 291.73825Q101.87243 291.26318 102.00501 290.64444Q102.137596 290.00363 101.61832 289.48434Q101.20952 289.07556 100.66814 289.0866Q100.115715 289.0866 99.67377 289.52853Q99.242874 289.95944 99.22078 290.53397Q99.20973 291.09744 99.67377 291.71616L98.78989 292.33487Q98.18221 291.46204 98.25956 290.5671Q98.32584 289.66113 99.04401 288.94296Q99.54118 288.4458 100.182 288.24692Q100.81177 288.037 101.39734 288.18063Q101.98292 288.32425 102.40276 288.7441Q102.78946 289.1308 102.910995 289.67218Q103.02148 290.2025 102.80051 290.79913Q103.45237 290.39032 104.14843 290.48978Q104.83344 290.57816 105.43006 291.17477Q106.225555 291.97028 106.19241 293.10828Q106.17031 294.23523 105.28643 295.1191Q104.49094 295.9146 103.48552 295.96985Q102.46905 296.01404 101.64041 295.3401ZM110.99852 289.18604L110.25827 289.9263L105.50739 285.1754Q105.4853 285.70575 105.308525 286.41287Q105.131744 287.09787 104.910774 287.56192L104.19262 286.84375Q104.51302 285.92673 104.56827 285.0539Q104.62351 284.15897 104.42464 283.56235L104.89973 283.08725L110.99852 289.18604ZM113.35186 286.8327L108.954544 282.4354L109.617455 281.77246L110.23617 282.3912Q110.11464 281.84982 110.26932 281.3195Q110.41295 280.7781 110.85489 280.33615Q111.34103 279.85004 111.84926 279.73953Q112.36854 279.618 112.854675 279.86108Q112.62266 278.5684 113.4513 277.73975Q114.11421 277.07684 114.82132 277.09894Q115.52843 277.09894 116.29077 277.8613L119.30702 280.87753L118.56677 281.6178L115.79359 278.8446Q115.35165 278.40268 115.07543 278.28113Q114.81027 278.14856 114.50091 278.21484Q114.19155 278.28113 113.926384 278.5463Q113.46235 279.01035 113.46235 279.62906Q113.4734 280.23672 114.1584 280.92172L116.71062 283.47394L115.95932 284.22525L113.09775 281.36368Q112.60056 280.8665 112.16967 280.81125Q111.73878 280.73392 111.32998 281.1427Q111.00957 281.4631 110.91013 281.894Q110.8107 282.3249 111.00957 282.76685Q111.20844 283.20877 111.80506 283.80542L114.09211 286.09247L113.35186 286.8327Z" fill-rule="nonzero"/><path fill="#000000" d="M118.22724 322.09964L112.15054 316.02295L114.44864 313.72485Q115.04526 313.12823 115.42091 312.86307Q115.95124 312.48743 116.45947 312.39902Q116.97875 312.2996 117.53118 312.49847Q118.09466 312.68628 118.547646 313.13928Q119.321045 313.9127 119.36524 314.95123Q119.40943 315.9677 118.11675 317.26038L116.558914 318.81824L119.03378 321.29312L118.22724 322.09964ZM115.85181 318.1111L117.4207 316.54224Q118.20515 315.75778 118.23829 315.15012Q118.27144 314.52036 117.741104 313.99002Q117.365456 313.61438 116.90141 313.54807Q116.43738 313.4597 116.03963 313.68066Q115.77447 313.83533 115.233086 314.3767L113.67524 315.93457L115.85181 318.1111ZM125.45299 318.25476L124.66854 317.6471Q124.9779 317.4703 125.165726 317.28247Q125.40879 317.03943 125.464035 316.8074Q125.541374 316.57538 125.497185 316.3323Q125.44194 316.14447 125.165726 315.5368Q125.12153 315.47052 125.05524 315.29376L118.96749 312.56476L119.77404 311.7582L123.23223 313.38235Q123.89514 313.6917 124.580154 314.08945Q124.19345 313.4376 123.884094 312.7747L122.25996 309.27228L123.00021 308.53204L125.80654 314.67502Q126.24848 315.6694 126.381065 316.08923Q126.557846 316.66376 126.458405 317.09467Q126.381065 317.52554 126.02751 317.87912Q125.81759 318.08902 125.45299 318.25476ZM128.29247 310.7086L129.05481 311.24997Q128.80069 311.6367 128.55763 311.87976Q128.14883 312.28854 127.80633 312.38797Q127.452774 312.47638 127.14342 312.36588Q126.84511 312.24435 126.17114 311.57037L123.64103 309.04028L123.09965 309.58167L122.52512 309.00714L123.066505 308.46576L121.972694 307.37195L122.27101 306.18976L123.806755 307.7255L124.55806 306.97418L125.13258 307.5487L124.38128 308.30002L126.95559 310.87433Q127.276 311.19473 127.39753 311.24997Q127.53011 311.2942 127.673744 311.26102Q127.817375 311.22787 127.9831 311.06216Q128.11569 310.92957 128.29247 310.7086ZM129.45256 310.87433L123.37586 304.79764L124.11611 304.05737L126.29268 306.23395Q126.21534 305.11804 127.01083 304.32254Q127.50802 303.82535 128.06044 303.6707Q128.61287 303.4939 129.11006 303.68173Q129.59619 303.8585 130.24806 304.51038L133.03229 307.29462L132.29204 308.03485L129.5078 305.2506Q128.94432 304.68713 128.44714 304.6761Q127.94996 304.66504 127.50802 305.107Q127.17656 305.43845 127.05502 305.91354Q126.933495 306.36652 127.09922 306.79742Q127.264946 307.2062 127.78423 307.7255L130.19281 310.13406L129.45256 310.87433ZM129.1874 300.70966L128.3256 299.84787L129.0769 299.0966L129.93869 299.95837L129.1874 300.70966ZM134.40231 305.9246L130.00499 301.52725L130.75629 300.77597L135.15361 305.17328L134.40231 305.9246ZM138.85487 300.38925Q138.78857 301.16266 138.54552 301.693Q138.31349 302.21228 137.87155 302.6542Q137.14235 303.38342 136.4021 303.41656Q135.66183 303.4497 135.10942 302.89728Q134.789 302.57687 134.66748 302.1681Q134.5349 301.74823 134.62328 301.3505Q134.70062 300.94168 134.92159 300.56604Q135.06522 300.28983 135.46297 299.7816Q136.25847 298.78723 136.53468 298.20166Q136.38 298.04697 136.34685 298.01382Q135.88281 297.54977 135.48506 297.57187Q134.95474 297.6161 134.39127 298.17957Q133.87198 298.69882 133.8057 299.14078Q133.72835 299.57166 134.07085 300.15726L133.24222 300.78702Q132.87761 300.22354 132.82237 299.70425Q132.76712 299.18497 133.04333 298.5994Q133.31955 298.01382 133.88303 297.45035Q134.4465 296.88687 134.93263 296.6659Q135.41878 296.44495 135.78337 296.4781Q136.14798 296.51123 136.52364 296.7543Q136.7446 296.90897 137.24179 297.40616L138.23616 298.4005Q139.27472 299.4391 139.59512 299.6711Q139.92657 299.8921 140.32433 300.00256L139.53989 300.78702Q139.19737 300.66547 138.85487 300.38925ZM137.12025 298.78723Q136.87718 299.36176 136.19217 300.28983Q135.79442 300.82016 135.69499 301.09637Q135.5845 301.36154 135.6287 301.6267Q135.68394 301.88083 135.88281 302.07968Q136.18112 302.378 136.60097 302.3559Q137.03186 302.32275 137.46275 301.89188Q137.89365 301.46097 138.03728 300.94168Q138.19196 300.41135 138.01518 299.92523Q137.8826 299.54956 137.39647 299.06345L137.12025 298.78723ZM138.14777 291.61673L137.42961 290.89856L141.36288 286.96527L141.94847 287.55084Q141.99266 288.7441 142.44565 290.34613Q142.89864 291.9261 143.67204 293.3182Q144.20236 294.31256 145.0531 295.27377L144.27971 296.04718Q143.5726 295.318 142.8213 294.03635Q142.08104 292.74368 141.6391 291.30737Q141.2082 289.86 141.13087 288.6336L138.14777 291.61673ZM145.34036 288.9982Q144.25761 287.91547 143.82672 287.04263Q143.38478 286.15875 143.46211 285.3743Q143.5505 284.5788 144.21341 283.9159Q144.69955 283.42975 145.26303 283.264Q145.83755 283.08725 146.45627 283.21982Q147.06393 283.34137 147.72685 283.7391Q148.38977 284.13684 149.29575 285.04285Q150.36745 286.11453 150.79834 286.98737Q151.2403 287.84915 151.16295 288.6557Q151.0856 289.44016 150.41165 290.1141Q149.53882 290.98694 148.40082 290.86542Q147.05289 290.71072 145.34036 288.9982ZM146.10272 288.23587Q147.59427 289.72742 148.445 289.87106Q149.29575 290.01468 149.80397 289.50644Q150.32326 288.98715 150.16858 288.1475Q150.02495 287.29675 148.5334 285.80518Q147.03079 284.30258 146.1911 284.17Q145.35141 284.01532 144.82109 284.54565Q144.31285 285.0539 144.43439 285.79413Q144.60011 286.73328 146.10272 288.23587ZM153.49419 286.8327L149.09688 282.4354L149.75978 281.77246L150.37851 282.39117Q150.25697 281.8498 150.41165 281.3195Q150.55528 280.7781 150.99722 280.33615Q151.48335 279.85 151.9916 279.73953Q152.51086 279.618 152.99701 279.86105Q152.76498 278.5684 153.59363 277.73975Q154.25655 277.07684 154.96365 277.09894Q155.67076 277.09894 156.4331 277.86127L159.44936 280.87753L158.7091 281.6178L155.93591 278.8446Q155.49397 278.40265 155.21776 278.28113Q154.9526 278.14856 154.64323 278.21484Q154.33388 278.28113 154.06871 278.5463Q153.60468 279.01035 153.60468 279.62906Q153.61572 280.23672 154.30074 280.92172L156.85295 283.47394L156.10165 284.22525L153.24008 281.36368Q152.74289 280.8665 152.312 280.81125Q151.8811 280.73392 151.4723 281.1427Q151.1519 281.4631 151.05246 281.894Q150.95303 282.3249 151.1519 282.76685Q151.35077 283.20877 151.9474 283.8054L154.23445 286.09244L153.49419 286.8327Z" fill-rule="nonzero"/><path fill="#000000" d="M153.41982 327.0494L147.34311 320.9727L149.6412 318.6746Q150.23784 318.07797 150.61348 317.8128Q151.14381 317.43716 151.65204 317.3488Q152.17133 317.24933 152.72375 317.4482Q153.28723 317.63605 153.74022 318.08902Q154.51363 318.86243 154.55782 319.901Q154.602 320.91745 153.30933 322.21014L151.75148 323.76797L154.22636 326.24286L153.41982 327.0494ZM151.04437 323.06088L152.61327 321.49197Q153.39772 320.70755 153.43086 320.09985Q153.464 319.4701 152.93367 318.93976Q152.55803 318.56412 152.094 318.49783Q151.62994 318.40945 151.23221 318.6304Q150.96704 318.7851 150.42566 319.32648L148.86781 320.8843L151.04437 323.06088ZM160.64555 323.2045L159.86111 322.59683Q160.17047 322.42007 160.35829 322.23224Q160.60136 321.98917 160.65662 321.75714Q160.73395 321.52512 160.68976 321.28207Q160.6345 321.09424 160.35829 320.48657Q160.3141 320.4203 160.24782 320.2435L154.16006 317.5145L154.96661 316.70798L158.4248 318.3321Q159.08772 318.64145 159.77272 319.0392Q159.38603 318.38733 159.07666 317.72443L157.45253 314.22205L158.19278 313.48178L160.99911 319.6248Q161.44106 320.61914 161.57364 321.039Q161.75041 321.61353 161.65097 322.0444Q161.57364 322.4753 161.22008 322.82886Q161.01016 323.0388 160.64555 323.2045ZM163.48503 315.65836L164.24739 316.19974Q163.99327 316.58643 163.7502 316.8295Q163.3414 317.23828 162.9989 317.33774Q162.64534 317.42612 162.33598 317.31564Q162.03767 317.1941 161.36371 316.52014L158.8336 313.99002L158.29222 314.5314L157.7177 313.95688L158.25908 313.4155L157.16527 312.3217L157.46358 311.1395L158.99933 312.67523L159.75063 311.92395L160.32515 312.49847L159.57385 313.24976L162.14816 315.82407Q162.46857 316.1445 162.5901 316.19974Q162.72269 316.24393 162.86632 316.2108Q163.00995 316.17764 163.17567 316.0119Q163.30826 315.87933 163.48503 315.65836ZM164.64513 315.82407L158.56844 309.74738L159.30869 309.00714L161.48524 311.1837Q161.40791 310.06778 162.2034 309.2723Q162.70059 308.77512 163.25302 308.62042Q163.80545 308.44366 164.30263 308.63147Q164.78876 308.80826 165.44063 309.4601L168.22487 312.24435L167.4846 312.98462L164.70038 310.20038Q164.1369 309.6369 163.63971 309.62585Q163.14253 309.6148 162.70059 310.05673Q162.36914 310.38818 162.2476 310.86328Q162.12607 311.31628 162.2918 311.74716Q162.45752 312.15598 162.9768 312.67523L165.38539 315.08383L164.64513 315.82407ZM164.37997 305.65942L163.51819 304.79764L164.26949 304.04633L165.13127 304.9081L164.37997 305.65942ZM169.59488 310.87433L165.19756 306.47702L165.94887 305.7257L170.34618 310.12302L169.59488 310.87433ZM174.04744 305.33902Q173.98116 306.1124 173.73808 306.64273Q173.50606 307.16202 173.06412 307.60397Q172.33492 308.33316 171.59467 308.3663Q170.85442 308.39944 170.30199 307.84705Q169.98158 307.5266 169.86005 307.11783Q169.72746 306.698 169.81586 306.30023Q169.89319 305.89145 170.11417 305.51578Q170.2578 305.23956 170.65555 304.73135Q171.45103 303.73697 171.72725 303.1514Q171.57257 302.99673 171.53943 302.96356Q171.07538 302.49954 170.67764 302.52164Q170.14731 302.56583 169.58383 303.1293Q169.06454 303.6486 168.99826 304.0905Q168.92091 304.52142 169.26343 305.107L168.43478 305.73676Q168.07018 305.17328 168.01494 304.654Q167.9597 304.13474 168.23592 303.54913Q168.51213 302.96356 169.07559 302.4001Q169.63907 301.8366 170.12521 301.61566Q170.61134 301.39468 170.97595 301.42783Q171.34055 301.46097 171.7162 301.70404Q171.93716 301.85873 172.43436 302.3559L173.42873 303.35028Q174.46729 304.38882 174.78769 304.62085Q175.11916 304.84183 175.5169 304.9523L174.73245 305.73676Q174.38995 305.61523 174.04744 305.33902ZM172.31282 303.73697Q172.06975 304.3115 171.38475 305.23956Q170.987 305.7699 170.88756 306.0461Q170.77707 306.31128 170.82127 306.57645Q170.87651 306.83057 171.07538 307.02945Q171.3737 307.32776 171.79353 307.30566Q172.22444 307.27252 172.65533 306.8416Q173.08623 306.41074 173.22986 305.89145Q173.38454 305.3611 173.20775 304.87497Q173.07516 304.49933 172.58904 304.01318L172.31282 303.73697ZM181.38368 299.08554L180.64342 299.82578L175.89255 295.07492Q175.87045 295.60526 175.69368 296.31235Q175.5169 296.99738 175.29593 297.4614L174.57777 296.74326Q174.89818 295.8262 174.95343 294.95337Q175.00867 294.05844 174.8098 293.46182L175.28488 292.98676L181.38368 299.08554ZM182.80894 288.49L182.12393 289.2855Q181.58255 288.94296 181.2069 288.92087Q180.57713 288.90982 180.1352 289.35178Q179.78163 289.70532 179.7043 290.18042Q179.62695 290.7881 179.91422 291.49518Q180.20148 292.1802 181.09642 293.09723Q180.95279 292.42328 181.14061 291.83768Q181.33948 291.24106 181.77037 290.81018Q182.51064 290.06992 183.58234 290.10306Q184.6651 290.12518 185.52689 290.98697Q186.10141 291.5615 186.34447 292.31277Q186.58754 293.042 186.42181 293.73804Q186.24504 294.42307 185.70366 294.96442Q184.76453 295.90356 183.49394 295.8041Q182.22336 295.70468 180.65448 294.1358Q178.8867 292.368 178.74307 290.92065Q178.61049 289.66113 179.57172 288.69992Q180.28987 287.98175 181.15166 287.93756Q182.01344 287.87128 182.80894 288.49ZM182.3891 294.14685Q182.77579 294.53354 183.28403 294.73242Q183.79225 294.90918 184.26735 294.80975Q184.75348 294.69928 185.08495 294.3678Q185.54898 293.90378 185.51584 293.1856Q185.47163 292.45642 184.81978 291.80453Q184.19 291.17477 183.4829 291.15268Q182.78683 291.11954 182.27861 291.62778Q181.77037 292.13602 181.78142 292.85416Q181.80353 293.56128 182.3891 294.14685ZM185.48268 288.99823Q184.39993 287.91547 183.96904 287.04263Q183.5271 286.15875 183.60443 285.3743Q183.69283 284.5788 184.35573 283.9159Q184.84187 283.42975 185.40535 283.264Q185.97987 283.08725 186.59859 283.21982Q187.20625 283.34137 187.86917 283.7391Q188.53209 284.13687 189.43806 285.04285Q190.50978 286.11453 190.94067 286.9874Q191.38261 287.84918 191.30527 288.6557Q191.22794 289.44016 190.55397 290.1141Q189.68114 290.98697 188.54314 290.86542Q187.1952 290.71075 185.48268 288.99823ZM186.24504 288.23587Q187.73659 289.72742 188.58733 289.87106Q189.43806 290.01468 189.9463 289.50644Q190.46558 288.98718 190.3109 288.1475Q190.16727 287.29675 188.67572 285.80518Q187.17311 284.30258 186.33342 284.17Q185.49373 284.01532 184.96341 284.54565Q184.45517 285.0539 184.5767 285.79413Q184.74243 286.73328 186.24504 288.23587ZM193.6365 286.8327L189.2392 282.4354L189.9021 281.77246L190.52083 282.39117Q190.39929 281.84982 190.55397 281.3195Q190.6976 280.7781 191.13954 280.33615Q191.62567 279.85004 192.13391 279.73953Q192.6532 279.618 193.13933 279.86108Q192.9073 278.5684 193.73595 277.73975Q194.39886 277.07684 195.10597 277.09894Q195.81308 277.09894 196.57542 277.8613L199.59167 280.87753L198.85143 281.6178L196.07823 278.8446Q195.63629 278.40265 195.36008 278.28113Q195.09492 278.14856 194.78555 278.21484Q194.4762 278.28113 194.21103 278.5463Q193.747 279.01035 193.747 279.62906Q193.75804 280.23672 194.44305 280.92172L196.99527 283.47394L196.24397 284.22525L193.3824 281.36368Q192.88521 280.8665 192.45432 280.81125Q192.02342 280.73392 191.61462 281.1427Q191.29422 281.4631 191.19478 281.894Q191.09535 282.3249 191.29422 282.76685Q191.49309 283.20877 192.08972 283.8054L194.37677 286.09244L193.6365 286.8327Z" fill-rule="nonzero"/><path fill="#000000" d="M193.56213 327.0494L187.48543 320.97272L189.78352 318.67462Q190.38016 318.07797 190.7558 317.8128Q191.28613 317.43716 191.79437 317.3488Q192.31364 317.24936 192.86607 317.4482Q193.42955 317.63605 193.88254 318.08902Q194.65594 318.86243 194.70013 319.901Q194.74432 320.91745 193.45164 322.21014L191.8938 323.76797L194.36868 326.24286L193.56213 327.0494ZM191.18669 323.06088L192.75558 321.49197Q193.54004 320.70755 193.57318 320.09985Q193.60632 319.4701 193.076 318.93976Q192.70035 318.56412 192.23631 318.49783Q191.77226 318.40945 191.37453 318.6304Q191.10936 318.7851 190.56798 319.32648L189.01013 320.8843L191.18669 323.06088ZM200.78789 323.2045L200.00343 322.59683Q200.31279 322.42007 200.50061 322.23224Q200.74368 321.98917 200.79893 321.75714Q200.87627 321.52512 200.83208 321.28207Q200.77682 321.09424 200.50061 320.48657Q200.45642 320.4203 200.39014 320.2435L194.30238 317.5145L195.10893 316.70798L198.56712 318.3321Q199.23004 318.64145 199.91504 319.0392Q199.52835 318.38736 199.219 317.72443L197.59485 314.22205L198.3351 313.48178L201.14143 319.6248Q201.58337 320.61914 201.71596 321.039Q201.89273 321.61353 201.7933 322.0444Q201.71596 322.4753 201.36241 322.82886Q201.15248 323.0388 200.78789 323.2045ZM203.62735 315.65836L204.38971 316.19974Q204.13559 316.58643 203.89252 316.8295Q203.48372 317.23828 203.14122 317.33774Q202.78767 317.42612 202.4783 317.31564Q202.18 317.1941 201.50604 316.52014L198.97592 313.99002L198.43454 314.5314L197.86002 313.95688L198.4014 313.4155L197.30759 312.3217L197.6059 311.1395L199.14165 312.67526L199.89294 311.92395L200.46747 312.49847L199.71617 313.2498L202.29048 315.8241Q202.61089 316.1445 202.73242 316.19974Q202.865 316.24393 203.00864 316.2108Q203.15227 316.17764 203.318 316.0119Q203.45058 315.87933 203.62735 315.65836ZM204.78746 315.8241L198.71075 309.74738L199.451 309.00714L201.62756 311.1837Q201.55023 310.06778 202.34572 309.2723Q202.84291 308.77512 203.39534 308.62042Q203.94777 308.44366 204.44495 308.63147Q204.93109 308.80826 205.58295 309.4601L208.36719 312.24435L207.62692 312.98462L204.8427 310.20038Q204.27922 309.6369 203.78203 309.62585Q203.28485 309.6148 202.84291 310.05673Q202.51146 310.3882 202.38992 310.86328Q202.26839 311.31628 202.43411 311.74716Q202.59984 312.15598 203.11913 312.67526L205.52771 315.08383L204.78746 315.8241ZM204.5223 305.65942L203.6605 304.79764L204.4118 304.04633L205.27359 304.9081L204.5223 305.65942ZM209.7372 310.87433L205.33987 306.47702L206.09119 305.7257L210.4885 310.12305L209.7372 310.87433ZM214.18976 305.33902Q214.12347 306.11243 213.8804 306.64273Q213.64839 307.16202 213.20644 307.60397Q212.47723 308.33316 211.73698 308.3663Q210.99673 308.39948 210.4443 307.84705Q210.1239 307.5266 210.00237 307.11783Q209.86978 306.698 209.95818 306.30023Q210.0355 305.89145 210.25648 305.51578Q210.40012 305.23956 210.79787 304.73135Q211.59335 303.73697 211.86957 303.1514Q211.71489 302.99673 211.68175 302.9636Q211.21771 302.49954 210.81996 302.52164Q210.28963 302.56583 209.72615 303.1293Q209.20686 303.6486 209.14058 304.0905Q209.06323 304.52142 209.40575 305.107L208.5771 305.73676Q208.2125 305.17328 208.15726 304.654Q208.10202 304.13474 208.37823 303.54916Q208.65445 302.9636 209.21793 302.40012Q209.78139 301.83664 210.26753 301.61566Q210.75366 301.39468 211.11827 301.42783Q211.48286 301.46097 211.85852 301.70404Q212.0795 301.85873 212.57668 302.3559L213.57104 303.35028Q214.6096 304.38885 214.93002 304.62085Q215.26147 304.84183 215.65923 304.9523L214.87477 305.73676Q214.53227 305.61523 214.18976 305.33902ZM212.45514 303.73697Q212.21207 304.3115 211.52707 305.23956Q211.12932 305.7699 211.02988 306.0461Q210.91939 306.31128 210.9636 306.57645Q211.01883 306.83057 211.21771 307.02945Q211.51602 307.32776 211.93587 307.30566Q212.36676 307.27252 212.79765 306.8416Q213.22855 306.41074 213.37218 305.89145Q213.52686 305.3611 213.35007 304.87497Q213.2175 304.49933 212.73135 304.01318L212.45514 303.73697ZM221.10616 299.50537L219.64775 298.04697L217.01819 300.67654L216.33318 299.99152L215.17308 293.28506L215.78075 292.6774L219.71404 296.61066L220.53163 295.79306L221.21664 296.4781L220.39905 297.2957L221.85745 298.7541L221.10616 299.50537ZM218.96274 297.36197L216.23375 294.63297L217.06238 299.26233L218.96274 297.36197ZM226.47574 294.1358L225.73549 294.87604L220.98462 290.12518Q220.96252 290.6555 220.78575 291.3626Q220.60896 292.0476 220.388 292.51166L219.66985 291.7935Q219.99025 290.87646 220.04549 290.00363Q220.10074 289.1087 219.90186 288.5121L220.37695 288.037L226.47574 294.1358ZM225.625 288.99823Q224.54225 287.91547 224.11136 287.04263Q223.66942 286.15875 223.74675 285.3743Q223.83514 284.5788 224.49805 283.9159Q224.98419 283.42975 225.54767 283.26404Q226.1222 283.08725 226.7409 283.21982Q227.34857 283.34137 228.01149 283.7391Q228.67441 284.13687 229.58038 285.04285Q230.6521 286.11456 231.083 286.9874Q231.52493 287.84918 231.44759 288.6557Q231.37025 289.44016 230.69629 290.11414Q229.82346 290.98697 228.68546 290.86542Q227.33752 290.71075 225.625 288.99823ZM226.38736 288.23587Q227.8789 289.72742 228.72964 289.87106Q229.58038 290.01468 230.08862 289.50644Q230.6079 288.98718 230.45322 288.1475Q230.30959 287.29675 228.81804 285.80518Q227.31543 284.30258 226.47574 284.17Q225.63605 284.01532 225.10573 284.54565Q224.59749 285.0539 224.71902 285.79413Q224.88475 286.73328 226.38736 288.23587ZM233.77882 286.8327L229.38152 282.4354L230.04442 281.77246L230.66315 282.3912Q230.54161 281.84982 230.69629 281.3195Q230.83992 280.7781 231.28186 280.33615Q231.76799 279.85004 232.27623 279.73953Q232.79552 279.618 233.28165 279.86108Q233.04962 278.5684 233.87827 277.73975Q234.54118 277.07684 235.24829 277.09894Q235.9554 277.09894 236.71774 277.8613L239.734 280.87753L238.99374 281.6178L236.22057 278.8446Q235.77861 278.40268 235.50241 278.28113Q235.23724 278.14856 234.92789 278.21484Q234.61852 278.28113 234.35335 278.5463Q233.88931 279.01035 233.88931 279.62906Q233.90036 280.23672 234.58537 280.92172L237.13759 283.47394L236.38629 284.22525L233.52472 281.36368Q233.02753 280.8665 232.59663 280.81125Q232.16574 280.73392 231.75694 281.1427Q231.43654 281.4631 231.3371 281.894Q231.23767 282.3249 231.43654 282.76685Q231.6354 283.20877 232.23204 283.8054L234.51909 286.09244L233.77882 286.8327Z" fill-rule="nonzero"/><path fill="#000000" d="M246.43239 314.32147L240.35568 308.24478L242.65378 305.9467Q243.25041 305.35007 243.62605 305.0849Q244.15639 304.70923 244.66461 304.62085Q245.1839 304.52142 245.73633 304.72028Q246.2998 304.9081 246.75279 305.3611Q247.52618 306.1345 247.57039 307.17307Q247.61458 308.18954 246.3219 309.4822L244.76405 311.04007L247.23892 313.51492L246.43239 314.32147ZM244.05695 310.33295L245.62584 308.76407Q246.4103 307.9796 246.44344 307.37195Q246.47658 306.74216 245.94624 306.21185Q245.5706 305.83618 245.10657 305.7699Q244.64252 305.68152 244.24477 305.9025Q243.97961 306.05716 243.43823 306.59854L241.88039 308.15637L244.05695 310.33295ZM253.65813 310.4766L252.87369 309.8689Q253.18304 309.69214 253.37086 309.5043Q253.61394 309.26123 253.66917 309.0292Q253.74652 308.7972 253.70233 308.55414Q253.64708 308.3663 253.37086 307.75864Q253.32668 307.69235 253.26039 307.51556L247.17264 304.7866L247.97919 303.98004L251.43738 305.60416Q252.10028 305.91354 252.7853 306.31128Q252.3986 305.65942 252.08923 304.9965L250.4651 301.4941L251.20535 300.75388L254.01169 306.89685Q254.45363 307.8912 254.58621 308.31107Q254.76299 308.8856 254.66354 309.31647Q254.58621 309.74738 254.23265 310.10092Q254.02274 310.31085 253.65813 310.4766ZM256.49762 302.93042L257.25995 303.4718Q257.00583 303.8585 256.7628 304.10156Q256.35397 304.51038 256.01147 304.6098Q255.65791 304.69818 255.34856 304.5877Q255.05025 304.4662 254.37628 303.7922L251.84618 301.2621L251.3048 301.80347L250.73027 301.22894L251.27165 300.68756L250.17784 299.59375L250.47615 298.41156L252.0119 299.94733L252.7632 299.196L253.33772 299.77054L252.58643 300.52185L255.16074 303.09616Q255.48114 303.41656 255.60268 303.4718Q255.73526 303.516 255.87889 303.48285Q256.02252 303.4497 256.18826 303.28397Q256.32083 303.1514 256.49762 302.93042ZM257.6577 303.09616L251.58101 297.01944L252.32126 296.2792L254.49782 298.45575Q254.42049 297.33987 255.21597 296.54437Q255.71317 296.04718 256.2656 295.8925Q256.81802 295.71573 257.3152 295.90356Q257.80133 296.08032 258.4532 296.73218L261.23743 299.51642L260.4972 300.25668L257.71295 297.47244Q257.14948 296.90897 256.65228 296.89792Q256.1551 296.88687 255.71317 297.32883Q255.3817 297.66028 255.26018 298.13535Q255.13864 298.58835 255.30437 299.01923Q255.4701 299.42804 255.98938 299.94733L258.39795 302.3559L257.6577 303.09616ZM257.39255 292.9315L256.53076 292.0697L257.28204 291.3184L258.14383 292.18018L257.39255 292.9315ZM262.60745 298.1464L258.21014 293.74908L258.96143 292.99777L263.35876 297.3951L262.60745 298.1464ZM267.06003 292.61108Q266.9937 293.3845 266.75067 293.91483Q266.51865 294.43408 266.0767 294.87604Q265.3475 295.60522 264.60724 295.6384Q263.86697 295.67154 263.31454 295.1191Q262.99414 294.7987 262.87262 294.3899Q262.74002 293.97006 262.82843 293.5723Q262.90576 293.1635 263.12674 292.78787Q263.27036 292.51166 263.66812 292.00342Q264.46362 291.00903 264.7398 290.42346Q264.58514 290.2688 264.552 290.23566Q264.08795 289.7716 263.69022 289.7937Q263.15988 289.8379 262.5964 290.40137Q262.07712 290.92065 262.01083 291.3626Q261.9335 291.7935 262.276 292.37906L261.44736 293.00882Q261.08276 292.44534 261.0275 291.9261Q260.97226 291.4068 261.24847 290.82123Q261.5247 290.23566 262.08817 289.67218Q262.65164 289.1087 263.1378 288.88773Q263.62393 288.66675 263.98853 288.6999Q264.35312 288.73303 264.72876 288.9761Q264.94974 289.1308 265.44693 289.628L266.44128 290.62234Q267.47986 291.66092 267.80026 291.8929Q268.1317 292.1139 268.52948 292.2244L267.74503 293.00882Q267.40253 292.8873 267.06003 292.61108ZM265.3254 291.00903Q265.08234 291.58356 264.3973 292.51166Q263.99957 293.042 263.90015 293.31818Q263.78964 293.58334 263.83383 293.8485Q263.8891 294.10263 264.08795 294.3015Q264.38626 294.59982 264.80612 294.57773Q265.237 294.5446 265.6679 294.11368Q266.0988 293.6828 266.24243 293.1635Q266.3971 292.63318 266.22034 292.14703Q266.08774 291.7714 265.6016 291.28525L265.3254 291.00903ZM274.39624 286.3576L273.656 287.09787L268.90512 282.347Q268.88303 282.87732 268.70624 283.5844Q268.52948 284.26944 268.3085 284.73346L267.59033 284.01532Q267.91077 283.0983 267.966 282.22546Q268.02124 281.33054 267.82236 280.7339L268.29745 280.25882L274.39624 286.3576ZM277.4346 283.31924L276.73853 284.01532L270.66183 277.93863L271.41315 277.18732L273.57864 279.35284Q273.46817 278.29218 274.1974 277.56296Q274.60617 277.15417 275.12546 276.96634Q275.64474 276.75644 276.17508 276.82272Q276.71643 276.87796 277.26886 277.16522Q277.8213 277.45248 278.2964 277.92758Q279.42334 279.05453 279.47858 280.23672Q279.5338 281.4189 278.76044 282.19232Q277.97598 282.97675 276.88217 282.76685L277.4346 283.31924ZM275.19174 281.0985Q275.9762 281.88293 276.55072 282.01553Q277.4788 282.2365 278.0754 281.6399Q278.56155 281.15375 278.49527 280.38034Q278.44 279.5959 277.58926 278.74515Q276.72748 277.88336 275.9762 277.81708Q275.22488 277.7508 274.73874 278.23694Q274.25262 278.72305 274.3189 279.51855Q274.3852 280.29196 275.19174 281.0985Z" fill-rule="nonzero"/><path fill="#000000" d="M279.50363 321.39255L273.42694 315.31586L275.72504 313.01776Q276.32166 312.42114 276.6973 312.15598Q277.22763 311.78033 277.73587 311.69193Q278.25513 311.5925 278.80756 311.79138Q279.37103 311.9792 279.82404 312.4322Q280.59744 313.2056 280.64163 314.24414Q280.68582 315.26062 279.39313 316.55328L277.8353 318.11115L280.31018 320.586L279.50363 321.39255ZM277.1282 317.40402L278.69708 315.83514Q279.48154 315.0507 279.51468 314.44302Q279.54782 313.81326 279.0175 313.28293Q278.64185 312.90726 278.1778 312.84097Q277.71378 312.7526 277.316 312.97357Q277.05084 313.12823 276.50946 313.66962L274.95163 315.22748L277.1282 317.40402ZM286.72937 317.54767L285.94492 316.94Q286.25427 316.7632 286.4421 316.57538Q286.68518 316.3323 286.74042 316.1003Q286.81775 315.8683 286.77356 315.6252Q286.71832 315.43738 286.4421 314.8297Q286.39792 314.76343 286.33163 314.58664L280.24387 311.85767L281.0504 311.05112L284.5086 312.67526Q285.17154 312.98462 285.85654 313.38235Q285.46985 312.7305 285.1605 312.0676L283.53635 308.5652L284.2766 307.82495L287.08292 313.96793Q287.52487 314.9623 287.65744 315.38214Q287.83423 315.95667 287.7348 316.38757Q287.65744 316.81845 287.3039 317.172Q287.09396 317.38193 286.72937 317.54767ZM289.56885 310.0015L290.3312 310.54288Q290.0771 310.9296 289.834 311.17264Q289.42523 311.58145 289.0827 311.68088Q288.72916 311.76926 288.4198 311.65878Q288.1215 311.53726 287.44754 310.86328L284.91742 308.33316L284.37604 308.87454L283.8015 308.30002L284.3429 307.75864L283.24908 306.66486L283.5474 305.48264L285.08313 307.0184L285.83444 306.2671L286.40897 306.8416L285.65765 307.59293L288.23196 310.16724Q288.5524 310.48764 288.67392 310.54288Q288.8065 310.58707 288.95013 310.55392Q289.09375 310.52078 289.2595 310.35507Q289.39206 310.22247 289.56885 310.0015ZM290.72894 310.16724L284.65225 304.09055L285.3925 303.35028L287.56906 305.52686Q287.49173 304.41095 288.28723 303.61545Q288.7844 303.11826 289.33682 302.9636Q289.88925 302.7868 290.38644 302.97464Q290.8726 303.1514 291.52444 303.80328L294.3087 306.5875L293.56842 307.32776L290.78418 304.54352Q290.2207 303.98004 289.72354 303.969Q289.22635 303.95795 288.7844 304.3999Q288.45294 304.73135 288.33142 305.20645Q288.20987 305.65942 288.3756 306.09033Q288.54132 306.4991 289.0606 307.0184L291.4692 309.42697L290.72894 310.16724ZM290.46378 300.00256L289.602 299.14078L290.3533 298.3895L291.2151 299.25128L290.46378 300.00256ZM295.67868 305.2175L291.28137 300.82016L292.03268 300.06888L296.43 304.4662L295.67868 305.2175ZM300.13126 299.68216Q300.06497 300.45557 299.8219 300.9859Q299.58987 301.5052 299.14795 301.9471Q298.41873 302.67633 297.67847 302.70947Q296.93823 302.7426 296.3858 302.1902Q296.0654 301.86978 295.94385 301.46097Q295.81128 301.04114 295.89966 300.6434Q295.977 300.2346 296.19797 299.85895Q296.3416 299.58273 296.73935 299.0745Q297.53485 298.08014 297.81107 297.49457Q297.65637 297.33987 297.62323 297.30673Q297.1592 296.84268 296.76144 296.86478Q296.2311 296.90897 295.66763 297.47244Q295.14838 297.99173 295.08206 298.4337Q295.00473 298.86456 295.34723 299.45013L294.5186 300.07993Q294.154 299.51645 294.09875 298.99716Q294.04352 298.47787 294.31973 297.8923Q294.59595 297.30673 295.15942 296.74326Q295.7229 296.17978 296.209 295.9588Q296.69516 295.73782 297.05975 295.77097Q297.42438 295.80414 297.80002 296.04718Q298.021 296.20187 298.51816 296.69907L299.51254 297.69342Q300.5511 298.732 300.87152 298.96402Q301.20297 299.18497 301.6007 299.29547L300.81625 300.07993Q300.47375 299.95837 300.13126 299.68216ZM298.39664 298.08014Q298.15356 298.65466 297.46857 299.58273Q297.0708 300.11307 296.97137 300.38928Q296.8609 300.65445 296.9051 300.91962Q296.96033 301.1737 297.1592 301.3726Q297.45752 301.6709 297.87735 301.6488Q298.30826 301.61566 298.73914 301.18475Q299.17004 300.75388 299.31366 300.2346Q299.46835 299.70425 299.29156 299.21814Q299.159 298.84247 298.67285 298.35635L298.39664 298.08014ZM307.4675 293.42868L306.72723 294.16895L301.97635 289.41806Q301.95425 289.9484 301.7775 290.65552Q301.6007 291.3405 301.37973 291.80457L300.6616 291.0864Q300.982 290.16937 301.03723 289.29654Q301.09247 288.4016 300.89362 287.805L301.36868 287.3299L307.4675 293.42868ZM310.03076 290.86542L309.18002 290.01468L310.03076 289.16394L310.8815 290.01468L310.03076 290.86542ZM314.1187 286.77747L312.6603 285.31906L310.03076 287.9486L309.34573 287.2636L308.18564 280.55713L308.7933 279.94946L312.7266 283.88275L313.5442 283.06516L314.2292 283.75015L313.41162 284.56775L314.87003 286.02615L314.1187 286.77747ZM311.97528 284.63406L309.2463 281.90506L310.07495 286.5344L311.97528 284.63406ZM317.5769 283.31927L316.88086 284.01532L310.80414 277.93863L311.55545 277.18732L313.72098 279.35284Q313.61047 278.29218 314.3397 277.563Q314.74847 277.15417 315.26776 276.96637Q315.78705 276.75644 316.31738 276.82272Q316.85876 276.87796 317.4112 277.16522Q317.9636 277.45248 318.4387 277.92758Q319.56564 279.05453 319.62088 280.23672Q319.67612 281.4189 318.90274 282.19232Q318.1183 282.97678 317.02448 282.76685L317.5769 283.31927ZM315.33405 281.0985Q316.1185 281.88297 316.69302 282.01553Q317.6211 282.2365 318.2177 281.6399Q318.70386 281.15375 318.63757 280.38037Q318.58234 279.59592 317.7316 278.74518Q316.8698 277.8834 316.1185 277.8171Q315.3672 277.7508 314.88107 278.23694Q314.39493 278.72308 314.4612 279.5186Q314.5275 280.29196 315.33405 281.0985Z" fill-rule="nonzero"/><path fill="#000000" d="M319.64597 321.39255L313.56924 315.31586L315.86734 313.01776Q316.464 312.42114 316.83963 312.15598Q317.36996 311.7803 317.8782 311.69193Q318.39746 311.5925 318.9499 311.79135Q319.51337 311.9792 319.96637 312.4322Q320.73978 313.20557 320.78397 314.24414Q320.82816 315.2606 319.53546 316.55328L317.97763 318.1111L320.4525 320.586L319.64597 321.39255ZM317.2705 317.40402L318.83942 315.8351Q319.62387 315.0507 319.657 314.44302Q319.69016 313.81323 319.15982 313.28293Q318.78418 312.90726 318.32013 312.84097Q317.85608 312.7526 317.45834 312.97354Q317.19318 313.12823 316.6518 313.66962L315.09396 315.22745L317.2705 317.40402ZM326.8717 317.54764L326.08725 316.93997Q326.3966 316.7632 326.58444 316.57538Q326.8275 316.3323 326.88275 316.10028Q326.96008 315.8683 326.9159 315.6252Q326.86066 315.43738 326.58444 314.8297Q326.54025 314.76343 326.47397 314.58664L320.3862 311.85767L321.19275 311.05112L324.65094 312.67523Q325.31387 312.9846 325.99887 313.38235Q325.61218 312.7305 325.30283 312.06757L323.67868 308.5652L324.4189 307.82492L327.22525 313.96793Q327.6672 314.96228 327.79977 315.38214Q327.97656 315.95667 327.87714 316.38754Q327.79977 316.81845 327.44623 317.172Q327.2363 317.38193 326.8717 317.54764ZM329.71118 310.0015L330.47354 310.54288Q330.21942 310.92957 329.97635 311.17264Q329.56754 311.58145 329.22504 311.68088Q328.8715 311.76926 328.56213 311.65878Q328.26382 311.53723 327.58987 310.86328L325.05975 308.33316L324.51837 308.87454L323.94385 308.30002L324.48523 307.75864L323.39142 306.66483L323.68973 305.48264L325.22546 307.0184L325.97678 306.2671L326.5513 306.8416L325.8 307.59293L328.3743 310.16724Q328.6947 310.48764 328.81625 310.54288Q328.94882 310.58707 329.09247 310.55392Q329.23608 310.52078 329.40182 310.35504Q329.5344 310.22247 329.71118 310.0015ZM330.87128 310.16724L324.7946 304.0905L325.53482 303.35028L327.7114 305.52682Q327.63406 304.41092 328.42953 303.61545Q328.92673 303.11826 329.47916 302.96356Q330.0316 302.7868 330.52878 302.9746Q331.01492 303.1514 331.66678 303.80325L334.45102 306.5875L333.71075 307.32776L330.9265 304.54352Q330.36304 303.98004 329.86584 303.969Q329.36868 303.95795 328.92673 304.39987Q328.59528 304.73135 328.47375 305.20642Q328.3522 305.65942 328.51794 306.0903Q328.68365 306.4991 329.20294 307.0184L331.61154 309.42697L330.87128 310.16724ZM330.6061 300.00256L329.74432 299.14078L330.49564 298.38947L331.35742 299.25125L330.6061 300.00256ZM335.821 305.21747L331.4237 300.82016L332.17502 300.06885L336.57233 304.4662L335.821 305.21747ZM340.2736 299.68216Q340.2073 300.45557 339.96423 300.98587Q339.7322 301.50516 339.29025 301.9471Q338.56107 302.6763 337.8208 302.70947Q337.08057 302.7426 336.52814 302.1902Q336.20773 301.86978 336.08618 301.46097Q335.9536 301.04114 336.042 300.64337Q336.11932 300.2346 336.3403 299.85895Q336.48395 299.58273 336.88168 299.0745Q337.6772 298.0801 337.9534 297.49454Q337.7987 297.33987 337.76556 297.30673Q337.30154 296.84268 336.90378 296.86478Q336.37344 296.90897 335.80997 297.47244Q335.29068 297.99173 335.2244 298.4337Q335.14706 298.86456 335.48956 299.45013L334.66092 300.0799Q334.29633 299.51642 334.2411 298.99716Q334.18585 298.47787 334.46207 297.8923Q334.73828 297.30673 335.30176 296.74326Q335.8652 296.17978 336.35135 295.9588Q336.8375 295.73782 337.2021 295.77097Q337.56668 295.8041 337.94235 296.04718Q338.16333 296.20187 338.6605 296.69904L339.65488 297.69342Q340.69342 298.732 341.01385 298.964Q341.3453 299.18497 341.74304 299.29547L340.9586 300.0799Q340.6161 299.95837 340.2736 299.68216ZM338.53897 298.0801Q338.2959 298.65463 337.6109 299.58273Q337.21313 300.11304 337.1137 300.38925Q337.0032 300.65442 337.04742 300.9196Q337.10266 301.1737 337.30154 301.3726Q337.59985 301.6709 338.01968 301.6488Q338.4506 301.61566 338.88147 301.18475Q339.31238 300.75388 339.456 300.2346Q339.6107 299.70425 339.4339 299.2181Q339.30133 298.84247 338.8152 298.35632L338.53897 298.0801ZM348.00757 291.59464L348.7257 292.31277L344.70404 296.33444Q344.43887 296.06927 344.27316 295.72678Q344.01904 295.1633 343.95276 294.4341Q343.89752 293.69385 344.01904 292.53375Q344.19583 290.7218 344.06323 289.9042Q343.9417 289.07556 343.52185 288.6557Q343.07993 288.21378 342.4612 288.23587Q341.83142 288.24692 341.3232 288.75516Q340.78183 289.29654 340.78183 289.93735Q340.78183 290.57816 341.3453 291.16373L340.5056 291.84872Q339.72116 290.9096 339.78745 289.95944Q339.85373 288.98715 340.7266 288.11432Q341.59943 287.2415 342.59378 287.2194Q343.58817 287.1973 344.3063 287.91547Q344.6709 288.28006 344.86978 288.7883Q345.06866 289.2744 345.11285 290.02573Q345.15704 290.75494 345.03552 292.2244Q344.92502 293.46182 344.93607 293.87064Q344.9471 294.25732 345.02448 294.57773L348.00757 291.59464ZM350.1731 290.86542L349.32236 290.01468L350.1731 289.16394L351.02383 290.01468L350.1731 290.86542ZM349.73114 284.72244Q349.09033 285.0097 348.54895 284.93234Q348.00757 284.83292 347.57666 284.402Q346.91376 283.7391 346.93585 282.81104Q346.969 281.87192 347.75345 281.08746Q348.54895 280.29196 349.4991 280.26987Q350.4493 280.24777 351.1122 280.91068Q351.53204 281.33054 351.62045 281.86087Q351.70883 282.39117 351.43262 283.02097Q352.17288 282.63425 352.86893 282.7558Q353.56497 282.87732 354.12845 283.4408Q354.90186 284.2142 354.87976 285.29697Q354.8687 286.36865 353.96274 287.27463Q353.0678 288.1696 351.98505 288.19168Q350.90228 288.21378 350.10678 287.41827Q349.51016 286.82166 349.41074 286.12558Q349.32236 285.4185 349.73114 284.72244ZM348.30588 283.60654Q348.7368 284.0374 349.28918 284.0374Q349.85266 284.02637 350.29462 283.58444Q350.7255 283.15353 350.73657 282.61215Q350.73657 282.05972 350.3388 281.662Q349.93002 281.25317 349.36655 281.26422Q348.79202 281.26422 348.37216 281.68408Q347.94128 282.11496 347.93024 282.67844Q347.93024 283.23087 348.30588 283.60654ZM350.8802 286.64487Q351.2006 286.96527 351.64255 287.11996Q352.09552 287.26358 352.55957 287.131Q353.02362 286.99844 353.36612 286.6559Q353.89645 286.12558 353.89645 285.44058Q353.9075 284.74454 353.37717 284.2142Q352.8358 283.67282 352.12866 283.67282Q351.42157 283.67282 350.8802 284.2142Q350.34985 284.74454 350.3609 285.44058Q350.3609 286.12558 350.8802 286.64487ZM357.71924 283.31927L357.0232 284.01532L350.94647 277.93863L351.69778 277.18732L353.86328 279.35284Q353.7528 278.29218 354.48203 277.56296Q354.8908 277.15417 355.4101 276.96634Q355.92938 276.75644 356.45972 276.82272Q357.00107 276.87796 357.5535 277.16522Q358.10593 277.45248 358.58102 277.92758Q359.70798 279.05453 359.7632 280.23672Q359.81845 281.4189 359.04507 282.19232Q358.26062 282.97675 357.1668 282.76685L357.71924 283.31927ZM355.47638 281.0985Q356.26083 281.88297 356.83536 282.01553Q357.76343 282.2365 358.36005 281.6399Q358.8462 281.15375 358.7799 280.38034Q358.72464 279.59592 357.87393 278.74518Q357.01215 277.8834 356.26083 277.81708Q355.50952 277.7508 355.0234 278.23694Q354.53726 278.72308 354.60355 279.51855Q354.66983 280.29196 355.47638 281.0985Z" fill-rule="nonzero"/><path fill="#000000" d="M359.7883 321.39255L353.71158 315.31583L356.00967 313.01773Q356.6063 312.4211 356.98196 312.15594Q357.5123 311.7803 358.0205 311.69193Q358.5398 311.59247 359.09222 311.79135Q359.6557 311.9792 360.1087 312.43216Q360.88208 313.20557 360.9263 314.24414Q360.9705 315.2606 359.6778 316.55328L358.11996 318.1111L360.59482 320.586L359.7883 321.39255ZM357.41284 317.40402L358.98175 315.8351Q359.7662 315.05066 359.79935 314.443Q359.8325 313.81323 359.30215 313.2829Q358.9265 312.90726 358.46246 312.84097Q357.9984 312.75256 357.60068 312.97354Q357.3355 313.12823 356.79413 313.66962L355.2363 315.22745L357.41284 317.40402ZM367.01404 317.54764L366.22958 316.93997Q366.53894 316.76318 366.72678 316.57538Q366.96985 316.3323 367.0251 316.10028Q367.10242 315.86826 367.05823 315.62518Q367.003 315.43738 366.72678 314.8297Q366.6826 314.7634 366.61627 314.58664L360.52853 311.85764L361.33508 311.0511L364.79327 312.67523Q365.45618 312.9846 366.1412 313.38235Q365.7545 312.73047 365.44513 312.06757L363.821 308.5652L364.56125 307.82492L367.36758 313.96793Q367.80954 314.96228 367.9421 315.38214Q368.1189 315.95667 368.01944 316.38754Q367.9421 316.81845 367.58856 317.172Q367.37863 317.38193 367.01404 317.54764ZM369.85352 310.0015L370.61584 310.54288Q370.36176 310.92957 370.11868 311.17264Q369.70987 311.58142 369.36737 311.68088Q369.01382 311.76926 368.70447 311.65878Q368.40616 311.53723 367.73218 310.86328L365.2021 308.33316L364.6607 308.87454L364.08618 308.30002L364.62756 307.75864L363.53375 306.66483L363.83206 305.48264L365.3678 307.01837L366.1191 306.2671L366.69363 306.8416L365.94232 307.5929L368.51663 310.1672Q368.83704 310.4876 368.9586 310.54288Q369.09116 310.58707 369.2348 310.55392Q369.37842 310.52078 369.54416 310.35504Q369.67673 310.22247 369.85352 310.0015ZM371.0136 310.1672L364.93692 304.0905L365.67715 303.35025L367.85373 305.52682Q367.7764 304.41092 368.57187 303.61542Q369.06906 303.11826 369.6215 302.96356Q370.17392 302.7868 370.6711 302.9746Q371.15723 303.1514 371.8091 303.80325L374.59332 306.5875L373.8531 307.32773L371.06885 304.54352Q370.50537 303.98004 370.00818 303.969Q369.51102 303.95795 369.06906 304.39987Q368.7376 304.73132 368.61606 305.20642Q368.49454 305.65942 368.66028 306.0903Q368.826 306.49908 369.34528 307.01837L371.75385 309.42697L371.0136 310.1672ZM370.74844 300.00256L369.88666 299.14078L370.63797 298.38947L371.49976 299.25125L370.74844 300.00256ZM375.96335 305.21747L371.56604 300.82016L372.31732 300.06885L376.71466 304.46616L375.96335 305.21747ZM380.41592 299.68216Q380.34964 300.45554 380.10657 300.98587Q379.87454 301.50516 379.4326 301.9471Q378.7034 302.6763 377.96313 302.70944Q377.2229 302.74258 376.67047 302.19016Q376.35007 301.86975 376.22852 301.46097Q376.09595 301.0411 376.18433 300.64337Q376.26166 300.2346 376.48264 299.85892Q376.62628 299.5827 377.02402 299.0745Q377.81952 298.0801 378.09573 297.49454Q377.94104 297.33984 377.9079 297.3067Q377.44385 296.84268 377.0461 296.86478Q376.51578 296.90897 375.9523 297.47244Q375.433 297.99173 375.36673 298.43365Q375.2894 298.86456 375.6319 299.45013L374.80325 300.0799Q374.43866 299.51642 374.38342 298.99713Q374.32816 298.47784 374.60437 297.89227Q374.88058 297.3067 375.44406 296.74323Q376.00754 296.17975 376.49368 295.9588Q376.97983 295.73782 377.34442 295.77097Q377.709 295.8041 378.0847 296.04718Q378.30563 296.20184 378.80283 296.69904L379.7972 297.69342Q380.83575 298.73196 381.15616 298.964Q381.48764 299.18497 381.88538 299.29544L381.10092 300.0799Q380.75842 299.95837 380.41592 299.68216ZM378.6813 298.0801Q378.43823 298.65463 377.7532 299.5827Q377.35547 300.11304 377.25604 300.38925Q377.14554 300.65442 377.18976 300.9196Q377.245 301.1737 377.44385 301.3726Q377.74216 301.6709 378.16202 301.6488Q378.5929 301.61563 379.0238 301.18475Q379.45468 300.75385 379.59833 300.2346Q379.753 299.70425 379.57623 299.2181Q379.44363 298.84247 378.95752 298.35632L378.6813 298.0801ZM384.22766 287.78287L383.54266 288.57837Q383.00128 288.23587 382.62564 288.21375Q381.99585 288.2027 381.55392 288.64465Q381.20038 288.9982 381.12302 289.4733Q381.0457 290.08096 381.33295 290.7881Q381.6202 291.47308 382.51514 292.3901Q382.37152 291.71616 382.55933 291.13058Q382.7582 290.53397 383.18912 290.10306Q383.92935 289.36282 385.00107 289.39597Q386.08383 289.41806 386.94562 290.27985Q387.52014 290.85437 387.7632 291.60565Q388.00626 292.33487 387.84055 293.0309Q387.66376 293.71594 387.12238 294.25732Q386.18326 295.19644 384.9127 295.09702Q383.6421 294.99756 382.0732 293.42868Q380.30542 291.66092 380.1618 290.21353Q380.0292 288.954 380.99045 287.9928Q381.7086 287.27463 382.57037 287.23044Q383.43216 287.16415 384.22766 287.78287ZM383.80783 293.43973Q384.19452 293.82642 384.70276 294.0253Q385.211 294.20206 385.68607 294.10263Q386.1722 293.99216 386.50366 293.6607Q386.9677 293.19666 386.93457 292.4785Q386.89035 291.7493 386.2385 291.09744Q385.60873 290.46765 384.90164 290.44556Q384.20557 290.4124 383.69733 290.92065Q383.18912 291.4289 383.20016 292.14703Q383.22226 292.85416 383.80783 293.43973ZM390.3154 290.86542L389.46466 290.01468L390.3154 289.16394L391.16614 290.01468L390.3154 290.86542ZM390.7242 287.6503L391.37607 286.86584Q391.9727 287.28568 392.45883 287.26358Q392.94498 287.2194 393.3427 286.82166Q393.6852 286.47913 393.78467 286.07034Q393.8841 285.63943 393.79572 285.2196Q393.69626 284.78873 393.3648 284.2363Q393.0223 283.67282 392.55826 283.20877Q392.50302 283.15353 392.4036 283.05408Q392.53616 283.6286 392.3815 284.24734Q392.21576 284.855 391.7628 285.30798Q391.00043 286.07034 389.93976 286.04825Q388.86804 286.0151 387.9731 285.12018Q387.04504 284.19208 387.02295 283.08725Q387.0119 281.97134 387.8295 281.15375Q388.41507 280.56818 389.22162 280.40244Q390.03918 280.22568 390.88992 280.56818Q391.7296 280.89963 392.84552 282.01553Q394.0056 283.17563 394.44757 284.1258Q394.8895 285.05386 394.74588 285.9267Q394.60223 286.77744 393.93933 287.44037Q393.2212 288.1585 392.3815 288.22482Q391.53076 288.28006 390.7242 287.6503ZM391.0888 281.91608Q390.448 281.27527 389.72983 281.24213Q389.02274 281.19794 388.5366 281.68408Q388.0394 282.18124 388.07257 282.9657Q388.1057 283.72806 388.75757 284.3799Q389.3321 284.95444 390.05026 284.96548Q390.7684 284.97653 391.27664 284.4683Q391.79593 283.94904 391.7628 283.25296Q391.7296 282.55692 391.0888 281.91608ZM397.86157 283.31924L397.1655 284.01532L391.0888 277.93863L391.84012 277.18732L394.0056 279.3528Q393.89514 278.29218 394.62436 277.56296Q395.03314 277.15417 395.55243 276.96634Q396.07172 276.7564 396.60202 276.82272Q397.1434 276.87796 397.69583 277.16522Q398.24826 277.45248 398.72336 277.92755Q399.8503 279.0545 399.90555 280.23672Q399.9608 281.4189 399.1874 282.1923Q398.40295 282.97675 397.30914 282.7668L397.86157 283.31924ZM395.6187 281.0985Q396.40317 281.88293 396.9777 282.01553Q397.90576 282.2365 398.50238 281.63986Q398.98853 281.15375 398.92224 280.38034Q398.86697 279.5959 398.01624 278.74515Q397.15445 277.88336 396.40317 277.81708Q395.65186 277.7508 395.1657 278.23694Q394.6796 278.72305 394.74588 279.51855Q394.81216 280.29196 395.6187 281.0985Z" fill-rule="nonzero"/><path fill="#000000" d="M402.0519 319.27124L395.97522 313.19452L398.27332 310.89642Q398.86993 310.2998 399.24557 310.03464Q399.7759 309.659 400.28415 309.57062Q400.80344 309.47116 401.35587 309.67004Q401.91934 309.85788 402.3723 310.31085Q403.14572 311.08426 403.1899 312.12283Q403.2341 313.13928 401.94144 314.43198L400.38358 315.9898L402.85846 318.4647L402.0519 319.27124ZM399.67648 315.2827L401.24536 313.7138Q402.02982 312.92935 402.06296 312.3217Q402.0961 311.69193 401.5658 311.1616Q401.19012 310.78595 400.7261 310.71967Q400.26205 310.63126 399.86432 310.85223Q399.59915 311.00693 399.05777 311.5483L397.4999 313.10614L399.67648 315.2827ZM409.27765 315.42633L408.49323 314.81866Q408.80258 314.64188 408.9904 314.45407Q409.23346 314.211 409.28873 313.97897Q409.36606 313.74695 409.32187 313.50388Q409.2666 313.31607 408.9904 312.7084Q408.9462 312.6421 408.8799 312.46533L402.79218 309.73633L403.59872 308.92978L407.05692 310.55392Q407.71982 310.86328 408.40482 311.26105Q408.01813 310.60916 407.70877 309.94626L406.08463 306.44388L406.8249 305.7036L409.63123 311.84662Q410.07315 312.84097 410.20575 313.26083Q410.3825 313.83536 410.28308 314.26624Q410.20575 314.69714 409.8522 315.0507Q409.64227 315.26062 409.27765 315.42633ZM412.11713 307.8802L412.8795 308.42157Q412.62537 308.80826 412.3823 309.05133Q411.9735 309.4601 411.631 309.55957Q411.27744 309.64795 410.96808 309.53748Q410.66977 309.41592 409.99582 308.74197L407.4657 306.21185L406.92432 306.75323L406.3498 306.1787L406.89117 305.63733L405.79736 304.54352L406.09567 303.36133L407.63144 304.89706L408.38272 304.14578L408.95724 304.7203L408.20596 305.4716L410.78027 308.0459Q411.10068 308.3663 411.2222 308.42157Q411.3548 308.46576 411.4984 308.43262Q411.64206 308.39948 411.80777 308.23373Q411.94037 308.10117 412.11713 307.8802ZM413.27722 308.0459L407.20053 301.9692L407.9408 301.22894L410.11734 303.40552Q410.04 302.2896 410.8355 301.4941Q411.3327 300.99695 411.88513 300.84225Q412.43756 300.6655 412.93472 300.8533Q413.42087 301.0301 414.07272 301.68195L416.85696 304.4662L416.1167 305.20642L413.3325 302.4222Q412.769 301.85873 412.27182 301.8477Q411.77463 301.83664 411.3327 302.27856Q411.00125 302.61002 410.8797 303.0851Q410.75818 303.53812 410.9239 303.969Q411.08963 304.3778 411.60892 304.89706L414.0175 307.30566L413.27722 308.0459ZM413.0121 297.88126L412.1503 297.01947L412.90158 296.26816L413.76337 297.12994L413.0121 297.88126ZM418.227 303.09616L413.82965 298.69885L414.58096 297.94754L418.97827 302.34485L418.227 303.09616ZM422.67953 297.56085Q422.61325 298.33423 422.37018 298.86456Q422.13818 299.38385 421.69623 299.8258Q420.967 300.555 420.22678 300.58813Q419.4865 300.62128 418.93408 300.06885Q418.61368 299.74844 418.49216 299.33966Q418.35956 298.9198 418.44797 298.52206Q418.5253 298.11328 418.74628 297.7376Q418.8899 297.4614 419.28766 296.9532Q420.08313 295.9588 420.35934 295.37323Q420.20468 295.21854 420.17154 295.1854Q419.7075 294.72137 419.30975 294.74347Q418.77942 294.78766 418.21594 295.35114Q417.69666 295.87042 417.63037 296.31235Q417.553 296.74326 417.89554 297.32883L417.0669 297.9586Q416.70227 297.3951 416.64703 296.87582Q416.5918 296.35654 416.868 295.77097Q417.14423 295.1854 417.7077 294.62192Q418.27118 294.05844 418.75732 293.8375Q419.24344 293.61652 419.60806 293.64966Q419.97266 293.6828 420.3483 293.92587Q420.56927 294.08054 421.06647 294.57773L422.06082 295.5721Q423.0994 296.61066 423.4198 296.84268Q423.75125 297.06366 424.14902 297.17413L423.36456 297.9586Q423.02206 297.83707 422.67953 297.56085ZM420.94492 295.9588Q420.70184 296.53333 420.01685 297.4614Q419.6191 297.99173 419.51965 298.26794Q419.40918 298.5331 419.45337 298.79828Q419.5086 299.0524 419.7075 299.25128Q420.0058 299.5496 420.42566 299.5275Q420.85654 299.49432 421.28745 299.06345Q421.71832 298.63254 421.86197 298.11328Q422.01663 297.58295 421.83984 297.0968Q421.70728 296.72116 421.22113 296.23502L420.94492 295.9588ZM430.01578 291.30737L429.2755 292.0476L424.52466 287.29675Q424.50256 287.8271 424.32578 288.53418Q424.14902 289.21918 423.92804 289.68323L423.20987 288.9651Q423.53027 288.04803 423.58554 287.1752Q423.64078 286.28027 423.4419 285.68365L423.917 285.20856L430.01578 291.30737ZM435.36328 284.52356L436.08142 285.24173L432.05975 289.2634Q431.7946 288.99823 431.62888 288.6557Q431.37476 288.09225 431.30847 287.36304Q431.2532 286.62277 431.37476 285.46268Q431.5515 283.65073 431.41895 282.83313Q431.29742 282.0045 430.87756 281.58466Q430.43564 281.1427 429.8169 281.1648Q429.18713 281.17584 428.6789 281.68408Q428.13754 282.22546 428.13754 282.86627Q428.13754 283.50708 428.701 284.09268L427.86133 284.77768Q427.07687 283.83856 427.14316 282.88837Q427.20944 281.9161 428.08228 281.04327Q428.9551 280.17044 429.9495 280.14835Q430.94385 280.12625 431.66202 280.8444Q432.0266 281.20898 432.2255 281.71722Q432.42438 282.20337 432.46857 282.95468Q432.51276 283.68387 432.3912 285.15332Q432.28073 286.39078 432.29178 286.79956Q432.30283 287.18625 432.38016 287.50665L435.36328 284.52356ZM438.00388 283.31927L437.30783 284.01532L431.2311 277.93863L431.98242 277.18732L434.14795 279.35284Q434.03745 278.29218 434.76666 277.563Q435.17545 277.15417 435.69473 276.96637Q436.21402 276.75644 436.74435 276.82272Q437.28574 276.87796 437.83813 277.16522Q438.39056 277.45248 438.86566 277.92758Q439.9926 279.05453 440.04785 280.23672Q440.1031 281.4189 439.3297 282.19232Q438.54526 282.97678 437.45145 282.76685L438.00388 283.31927ZM435.76102 281.0985Q436.54547 281.88297 437.12 282.01553Q438.04807 282.2365 438.64468 281.6399Q439.13083 281.15375 439.06454 280.38037Q439.0093 279.59592 438.15857 278.74518Q437.29678 277.8834 436.54547 277.8171Q435.79416 277.7508 435.30804 278.23694Q434.8219 278.72308 434.88818 279.51855Q434.95447 280.29196 435.76102 281.0985Z" fill-rule="nonzero"/><path fill="#000000" d="M419.98666 340.17508Q420.93686 339.9983 421.57767 339.71103L421.90912 340.50653Q421.0142 340.9153 419.8541 341.05896Q419.5558 342.10855 418.7382 342.92615Q417.90955 343.7548 416.83783 344.031Q415.7772 344.29617 414.69443 343.94263Q413.61166 343.58905 412.7057 342.68307Q411.81076 341.78815 411.4351 340.6833Q411.05945 339.57843 411.3467 338.5178Q411.63397 337.45712 412.46262 336.62848Q413.3023 335.7888 414.38507 335.52362Q415.46783 335.23636 416.53952 335.60098Q417.61124 335.96558 418.5172 336.87155Q419.26852 337.62286 419.63312 338.45148Q420.00876 339.26907 419.98666 340.17508ZM417.1914 340.9153Q418.08633 340.41812 418.92603 340.35184Q418.98126 338.99286 417.68857 337.7002Q416.94833 336.95993 416.14178 336.66162Q415.33524 336.3633 414.55078 336.55115Q413.76636 336.71686 413.1697 337.3135Q412.26373 338.21948 412.28583 339.4348Q412.30792 340.62805 413.53433 341.85443Q414.71652 343.03665 415.9429 343.0919Q417.15823 343.13608 418.0753 342.21906Q418.50616 341.78815 418.7161 341.24677Q418.09738 341.37936 417.5781 341.69977L417.1914 340.9153ZM423.1134 338.35205L417.36816 335.30264L418.14157 334.52927L421.37878 336.37436L422.58307 337.04834Q422.53888 336.95993 421.90912 335.91034L420.03088 332.63995L420.7932 331.8776L424.00833 333.7669L425.069 334.38562L424.47238 333.28076L422.68253 329.9883L423.4117 329.2591L426.42798 335.0375L425.65457 335.81088L422.31793 333.86633L421.40088 333.30286L423.89786 337.5676L423.1134 338.35205ZM430.2618 328.3752L431.1236 327.69022Q431.6208 328.54095 431.49927 329.4138Q431.37772 330.28662 430.6154 331.04898Q429.65414 332.0102 428.483 331.9881Q427.3229 331.95496 426.2512 330.88324Q425.14633 329.77838 425.1132 328.5962Q425.069 327.40295 425.97498 326.49698Q426.85886 325.6131 428.0079 325.6573Q429.168 325.69043 430.2618 326.78424Q430.32812 326.85052 430.4607 326.9831L427.1793 330.26453Q427.95267 330.94952 428.70398 330.97162Q429.4442 330.98267 429.99664 330.43024Q430.40546 330.02145 430.4828 329.52426Q430.56012 329.00497 430.2618 328.3752ZM426.6158 329.61267L429.06857 327.15988Q428.4609 326.6406 427.95267 326.5964Q427.15717 326.53012 426.5937 327.0936Q426.07443 327.61288 426.0634 328.30893Q426.0634 328.99393 426.6158 329.61267ZM433.62057 327.84488L429.22327 323.44757L429.88617 322.78467L430.50488 323.40338Q430.27286 322.1991 431.1899 321.28204Q431.58765 320.8843 432.06274 320.69647Q432.54886 320.49762 432.94662 320.5639Q433.34436 320.6302 433.72 320.87326Q433.96307 321.05005 434.48236 321.5693L437.18927 324.2762L436.449 325.01645L433.77527 322.3427Q433.31122 321.87866 433.00186 321.7461Q432.6925 321.61353 432.33896 321.7019Q431.97433 321.77924 431.67603 322.07755Q431.20096 322.55264 431.15674 323.21555Q431.11255 323.85635 431.95224 324.69604L434.36084 327.10464L433.62057 327.84488ZM442.98975 314.211L443.99515 313.62543Q444.72437 314.86285 444.59177 316.034Q444.4592 317.20514 443.50903 318.1553Q442.5257 319.13864 441.50925 319.35962Q440.49277 319.58057 439.42105 319.1497Q438.33832 318.70773 437.46548 317.8349Q436.5153 316.88474 436.1728 315.81302Q435.8303 314.74133 436.1286 313.7138Q436.43796 312.67523 437.2445 311.86868Q438.15048 310.9627 439.23325 310.80804Q440.32706 310.6423 441.4098 311.23892L440.80212 312.22226Q439.9293 311.76926 439.2222 311.87973Q438.51508 311.96814 437.9074 312.5758Q437.21136 313.27185 437.07877 314.08945Q436.9462 314.88495 437.3108 315.6473Q437.68643 316.3986 438.2941 317.00626Q439.0675 317.77966 439.863 318.1332Q440.66956 318.47574 441.4319 318.2879Q442.19424 318.10007 442.75772 317.5366Q443.43167 316.86264 443.50903 316.0119Q443.5974 315.15012 442.98975 314.211ZM444.58072 312.48743Q443.35434 311.26102 443.44272 310.0015Q443.52008 308.95187 444.33768 308.13428Q445.24365 307.2283 446.4148 307.2504Q447.58594 307.2504 448.63556 308.30002Q449.4863 309.15076 449.7183 309.89102Q449.95032 310.63126 449.72934 311.40466Q449.5084 312.15594 448.93387 312.73047Q448.0168 313.64752 446.85672 313.63647Q445.69662 313.60333 444.58072 312.48743ZM445.34308 311.72507Q446.18277 312.56476 446.96722 312.62Q447.76273 312.66418 448.31516 312.11176Q448.8786 311.54828 448.82336 310.76385Q448.76813 309.9794 447.90634 309.1176Q447.08875 308.30002 446.29324 308.25583Q445.50882 308.2006 444.9564 308.75302Q444.40396 309.30542 444.44815 310.10092Q444.49234 310.87433 445.34308 311.72507ZM454.85587 306.6096L454.30344 306.05716Q454.53546 307.12888 453.7289 307.93542Q453.1986 308.46576 452.4694 308.62042Q451.72913 308.76407 450.9668 308.48785Q450.20444 308.21164 449.5305 307.53766Q448.8786 306.8858 448.5582 306.12344Q448.2378 305.3611 448.40353 304.64294Q448.5582 303.91376 449.09958 303.37238Q449.49734 302.9746 449.9724 302.831Q450.4475 302.68735 450.91156 302.75366L448.735 300.5771L449.47525 299.83682L455.55194 305.91354L454.85587 306.6096ZM450.30386 306.76428Q451.1546 307.61502 451.928 307.6813Q452.69037 307.73654 453.1765 307.2504Q453.66263 306.76428 453.6074 306.02402Q453.55215 305.28375 452.73456 304.4662Q451.82858 303.56018 451.05518 303.4939Q450.29282 303.41656 449.7846 303.9248Q449.2874 304.42197 449.36475 305.16223Q449.43103 305.89145 450.30386 306.76428ZM458.54608 300.09094L459.40787 299.40594Q459.90506 300.25668 459.78354 301.12952Q459.662 302.00235 458.89966 302.7647Q457.93842 303.72592 456.76727 303.70383Q455.60718 303.6707 454.53546 302.59897Q453.4306 301.4941 453.39746 300.31192Q453.35327 299.11868 454.25925 298.2127Q455.14313 297.32883 456.29218 297.37302Q457.45227 297.40616 458.54608 298.49997Q458.6124 298.56625 458.74496 298.69882L455.46356 301.98026Q456.23694 302.66525 456.98825 302.68735Q457.7285 302.6984 458.2809 302.14597Q458.68973 301.73718 458.76706 301.24Q458.8444 300.7207 458.54608 300.09094ZM454.9001 301.3284L457.35284 298.8756Q456.74518 298.35632 456.23694 298.31213Q455.44144 298.24585 454.87796 298.80933Q454.3587 299.3286 454.34766 300.02466Q454.34766 300.70966 454.9001 301.3284ZM461.8938 299.57166L457.4965 295.17435L458.17044 294.5004L458.83334 295.1633Q458.62344 294.44513 458.68973 294.09158Q458.756 293.71594 459.02118 293.45078Q459.39682 293.07513 460.01553 292.92044L460.4575 293.8706Q460.01553 293.9811 459.7504 294.24628Q459.49628 294.5004 459.45206 294.85394Q459.40787 295.1854 459.5957 295.5279Q459.86087 296.05823 460.32492 296.52228L462.63406 298.83142L461.8938 299.57166ZM465.04263 293.21875L465.6945 292.368Q466.4458 292.87625 467.04242 292.85416Q467.628 292.821 468.06995 292.37906Q468.60028 291.84872 468.60028 291.11954Q468.60028 290.39032 468.0589 289.84894Q467.55066 289.34073 466.87668 289.35178Q466.20273 289.34073 465.68344 289.86Q465.47354 290.06992 465.24152 290.47873L464.667 289.72742Q464.75537 289.66113 464.79956 289.61694Q465.27466 289.14185 465.40723 288.52313Q465.53983 287.8823 465.02054 287.36304Q464.61176 286.95422 464.07037 286.96527Q463.51794 286.96527 463.076 287.40723Q462.6451 287.8381 462.62302 288.41263Q462.61197 288.9761 463.076 289.59482L462.1921 290.21356Q461.58444 289.34073 461.66177 288.44577Q461.72806 287.5398 462.44623 286.82166Q462.94342 286.32446 463.58423 286.12558Q464.214 285.91568 464.79956 286.0593Q465.38513 286.20294 465.805 286.62277Q466.19168 287.00946 466.31323 287.55084Q466.4237 288.08118 466.20273 288.6778Q466.85458 288.269 467.55066 288.36844Q468.23566 288.45685 468.83228 289.05347Q469.62778 289.84894 469.59464 290.98694Q469.57254 292.1139 468.68866 292.99777Q467.89316 293.79327 466.88776 293.8485Q465.87128 293.89273 465.04263 293.21875ZM474.7985 285.23065L475.51666 285.94882L471.495 289.9705Q471.22983 289.70532 471.0641 289.36282Q470.80997 288.79935 470.74368 288.07013Q470.68845 287.3299 470.80997 286.16977Q470.98676 284.35782 470.85416 283.54022Q470.73264 282.71158 470.3128 282.29175Q469.87085 281.8498 469.25214 281.8719Q468.62238 281.88293 468.11414 282.39117Q467.57275 282.93256 467.57275 283.57336Q467.57275 284.2142 468.13623 284.79977L467.29654 285.48477Q466.5121 284.54565 466.57837 283.59546Q466.64468 282.6232 467.51752 281.75037Q468.39035 280.87753 469.3847 280.85544Q470.3791 280.83334 471.09723 281.55148Q471.46185 281.9161 471.6607 282.42432Q471.8596 282.91046 471.90378 283.66177Q471.94797 284.39096 471.82645 285.8604Q471.71594 287.09787 471.727 287.50665Q471.73804 287.89337 471.8154 288.21378L474.7985 285.23065ZM476.80933 284.65613L470.73264 278.57944L473.01968 276.2924Q473.71573 275.5963 474.32343 275.36432Q474.9311 275.1323 475.5498 275.28696Q476.16852 275.41956 476.58835 275.8394Q476.97507 276.2261 477.10764 276.77853Q477.24023 277.33096 477.01926 277.97177Q477.7374 277.58505 478.42242 277.69556Q479.10742 277.78394 479.63776 278.31427Q480.05762 278.7341 480.25647 279.28653Q480.4443 279.8279 480.37802 280.29196Q480.31174 280.756 480.00235 281.26422Q479.70404 281.7614 479.12952 282.33594L476.80933 284.65613ZM474.0914 280.3251L475.40616 279.0103Q475.9365 278.48 476.10223 278.1817Q476.3232 277.78394 476.26794 277.41934Q476.20166 277.0437 475.88126 276.72327Q475.58295 276.42496 475.2073 276.33658Q474.83163 276.2482 474.4781 276.44705Q474.12454 276.62384 473.4727 277.2757L472.25732 278.49106L474.0914 280.3251ZM476.89774 283.13144L478.41138 281.6178Q478.79807 281.23108 478.91962 281.04327Q479.16266 280.7118 479.22897 280.42453Q479.29526 280.11517 479.19583 279.77267Q479.09637 279.43018 478.8091 279.1429Q478.4666 278.8004 478.03574 278.72305Q477.61588 278.63467 477.2071 278.8446Q476.79828 279.05453 476.2127 279.6401L474.80954 281.04327L476.89774 283.13144Z" fill-rule="nonzero"/><path fill="#000000" d="M475.23233 326.37546L469.15564 320.29874L469.9622 319.49222L475.32074 324.85074L478.31488 321.8566L479.03305 322.57474L475.23233 326.37546ZM480.10474 321.50305L474.02805 315.42633L474.77936 314.67505L480.85605 320.75174L480.10474 321.50305ZM484.5794 315.94562Q484.51312 316.71902 484.27005 317.24936Q484.03802 317.76865 483.5961 318.21057Q482.86688 318.9398 482.12665 318.97293Q481.38638 319.00607 480.83395 318.45364Q480.51355 318.13324 480.392 317.72443Q480.25943 317.3046 480.3478 316.90686Q480.42517 316.49805 480.64612 316.1224Q480.78976 315.8462 481.1875 315.33795Q481.983 314.3436 482.25922 313.758Q482.10452 313.60333 482.07138 313.5702Q481.60736 313.10614 481.2096 313.12823Q480.67926 313.17242 480.11578 313.7359Q479.59653 314.2552 479.5302 314.69714Q479.45288 315.12802 479.79538 315.7136L478.96674 316.34338Q478.60214 315.7799 478.5469 315.26062Q478.49167 314.74133 478.76788 314.15576Q479.0441 313.5702 479.60757 313.0067Q480.17105 312.44324 480.65717 312.22226Q481.1433 312.00128 481.5079 312.03442Q481.87253 312.0676 482.24817 312.31064Q482.46915 312.46533 482.9663 312.96252L483.9607 313.95688Q484.99927 314.99545 485.31967 315.22748Q485.65112 315.44843 486.04886 315.55893L485.26443 316.34338Q484.9219 316.22183 484.5794 315.94562ZM482.8448 314.3436Q482.6017 314.91812 481.91672 315.8462Q481.51895 316.37653 481.41953 316.65274Q481.30905 316.9179 481.35324 317.18304Q481.40848 317.43716 481.60736 317.63605Q481.90567 317.93436 482.3255 317.91226Q482.7564 317.87912 483.1873 317.4482Q483.6182 317.01733 483.7618 316.49805Q483.9165 315.9677 483.73972 315.4816Q483.60715 315.10593 483.121 314.6198L482.8448 314.3436ZM487.1979 314.40988L482.8006 310.01254L483.4635 309.34964L484.0822 309.96835Q483.9607 309.42697 484.11536 308.89664Q484.259 308.3553 484.70096 307.91333Q485.18707 307.4272 485.6953 307.3167Q486.2146 307.1952 486.70074 307.43823Q486.46872 306.14557 487.29736 305.31693Q487.96027 304.65402 488.66736 304.67612Q489.37448 304.67612 490.13684 305.43845L493.15308 308.4547L492.41284 309.19498L489.63965 306.42178Q489.1977 305.97983 488.92148 305.8583Q488.6563 305.7257 488.34695 305.79202Q488.0376 305.8583 487.77243 306.12347Q487.3084 306.5875 487.3084 307.20624Q487.31946 307.8139 488.00446 308.4989L490.55667 311.05112L489.80536 311.80243L486.9438 308.94086Q486.44662 308.44366 486.01572 308.38843Q485.58484 308.31107 485.17603 308.71988Q484.85562 309.04028 484.7562 309.47116Q484.65674 309.90207 484.85562 310.34402Q485.0545 310.78595 485.65112 311.38257L487.93817 313.66962L487.1979 314.40988ZM497.3073 303.2177Q497.24103 303.99112 496.998 304.52142Q496.76596 305.0407 496.324 305.48267Q495.59482 306.21185 494.85455 306.245Q494.1143 306.27814 493.5619 305.7257Q493.24146 305.4053 493.11993 304.99652Q492.98737 304.57666 493.07574 304.17892Q493.15308 303.77014 493.37405 303.39447Q493.51767 303.11826 493.91544 302.61002Q494.71094 301.61566 494.98712 301.03012Q494.83243 300.87543 494.7993 300.8423Q494.33527 300.37823 493.9375 300.40033Q493.4072 300.44452 492.84372 301.008Q492.32443 301.52728 492.25815 301.9692Q492.18082 302.40012 492.52332 302.9857L491.69467 303.61545Q491.33008 303.05197 491.27484 302.53268Q491.21957 302.0134 491.4958 301.42783Q491.772 300.84225 492.33548 300.27878Q492.89896 299.7153 493.38507 299.49435Q493.87122 299.2734 494.2358 299.30655Q494.6004 299.3397 494.97607 299.58276Q495.19705 299.73743 495.6942 300.23462L496.6886 301.22897Q497.72714 302.26755 498.04758 302.49957Q498.37903 302.72055 498.77676 302.83102L497.9923 303.61548Q497.6498 303.49393 497.3073 303.2177ZM495.5727 301.6157Q495.32965 302.1902 494.64462 303.11826Q494.2469 303.6486 494.14746 303.9248Q494.03696 304.18997 494.08115 304.45514Q494.1364 304.70926 494.33527 304.90814Q494.63358 305.20645 495.05344 305.18433Q495.4843 305.15118 495.91522 304.7203Q496.3461 304.2894 496.48975 303.77014Q496.6444 303.2398 496.46762 302.7537Q496.33505 302.37802 495.8489 301.8919L495.5727 301.6157ZM504.2237 297.3841L502.7653 295.9257L500.13574 298.55524L499.4507 297.87024L498.29062 291.16376L498.89832 290.5561L502.83157 294.48938L503.64917 293.67178L504.3342 294.35678L503.5166 295.17438L504.975 296.63278L504.2237 297.3841ZM502.0803 295.24066L499.3513 292.5117L500.17993 297.14102L502.0803 295.24066ZM503.79282 291.82666Q502.71005 290.74393 502.27914 289.8711Q501.83722 288.98718 501.91455 288.20276Q502.00293 287.40726 502.66586 286.74435Q503.15198 286.2582 503.71545 286.09247Q504.28998 285.9157 504.90872 286.04828Q505.5164 286.16983 506.1793 286.56757Q506.8422 286.9653 507.7482 287.8713Q508.8199 288.943 509.2508 289.81583Q509.69272 290.6776 509.6154 291.48416Q509.53806 292.26862 508.86407 292.94257Q507.99124 293.8154 506.85324 293.69388Q505.50534 293.53918 503.79282 291.82666ZM504.55515 291.06433Q506.04672 292.55588 506.89746 292.6995Q507.7482 292.84314 508.2564 292.3349Q508.7757 291.8156 508.62103 290.97592Q508.4774 290.12518 506.98584 288.63364Q505.48325 287.13104 504.64355 286.99847Q503.80386 286.84378 503.27353 287.3741Q502.7653 287.88235 502.8868 288.6226Q503.05255 289.56174 504.55515 291.06433ZM510.14572 288.2801L510.86386 287.42935Q511.5268 287.9155 512.1234 287.8934Q512.7311 287.86026 513.1841 287.40726Q513.7144 286.87692 513.6813 286.09247Q513.64813 285.30804 512.98517 284.6451Q512.34436 284.0043 511.61517 284.0043Q510.88596 283.9822 510.30038 284.56778Q509.94684 284.92133 509.81427 285.38538Q509.69272 285.83835 509.78113 286.2582L508.99667 286.86588L506.46655 283.1646L509.49387 280.13733L510.20096 280.84442L507.7703 283.27512L509.08505 285.23068Q509.23975 284.3026 509.83636 283.706Q510.63187 282.9105 511.72565 282.92154Q512.8305 282.92154 513.70337 283.79437Q514.52094 284.61197 514.6535 285.69473Q514.7972 287.00952 513.79175 288.01492Q512.9631 288.84357 511.96872 288.90985Q510.9854 288.9651 510.14572 288.2801ZM516.9516 284.65616L510.8749 278.57947L513.162 276.29242Q513.85803 275.59637 514.4657 275.36435Q515.07336 275.13232 515.6921 275.28702Q516.3108 275.4196 516.73065 275.83942Q517.1174 276.22614 517.24994 276.77856Q517.3825 277.331 517.16156 277.9718Q517.8797 277.5851 518.5647 277.6956Q519.2497 277.78397 519.78 278.3143Q520.1999 278.73416 520.39874 279.2866Q520.5866 279.82794 520.5203 280.292Q520.454 280.75604 520.14465 281.26425Q519.8463 281.76144 519.2718 282.33597L516.9516 284.65616ZM514.2337 280.32513L515.54846 279.01038Q516.0788 278.48004 516.2445 278.18173Q516.4655 277.78397 516.4102 277.41937Q516.34393 277.04373 516.02356 276.72333Q515.7252 276.42502 515.3496 276.3366Q514.97394 276.24823 514.62036 276.4471Q514.26685 276.62387 513.615 277.27576L512.3996 278.4911L514.2337 280.32513ZM517.04004 283.13147L518.55365 281.61783Q518.94037 281.2311 519.0619 281.0433Q519.30493 280.71185 519.3713 280.4246Q519.43756 280.1152 519.33813 279.7727Q519.23865 279.4302 518.9514 279.14294Q518.6089 278.80045 518.17804 278.7231Q517.7582 278.6347 517.34937 278.84464Q516.94055 279.05457 516.355 279.64014L514.95184 281.0433L517.04004 283.13147Z" fill-rule="nonzero"/><path fill="#000000" d="M487.12354 354.62656L481.04684 348.54987L483.14606 346.45065Q483.85318 345.74353 484.31723 345.45627Q484.95804 345.05853 485.632 345.0033Q486.52692 344.92593 487.39975 345.33475Q488.27258 345.72144 489.07913 346.52798Q489.7752 347.22403 490.1398 347.9201Q490.51544 348.6051 490.6149 349.21277Q490.71432 349.82043 490.60385 350.32867Q490.5044 350.82587 490.19504 351.3562Q489.87463 351.8755 489.3222 352.42792L487.12354 354.62656ZM487.21194 353.10187L488.5046 351.80917Q489.11227 351.2015 489.3443 350.74854Q489.57632 350.29553 489.56528 349.88675Q489.57632 349.32327 489.24487 348.68243Q488.92447 348.03058 488.23944 347.34558Q487.28928 346.3954 486.46063 346.20758Q485.632 345.99765 485.01328 346.26282Q484.56027 346.47275 483.85318 347.17984L482.57153 348.4615L487.21194 353.10187ZM494.9901 343.93158L495.8519 343.24655Q496.3491 344.0973 496.22754 344.97012Q496.10602 345.843 495.34366 346.60532Q494.38245 347.56656 493.2113 347.54443Q492.0512 347.5113 490.9795 346.4396Q489.87463 345.33475 489.8415 344.15256Q489.7973 342.9593 490.70328 342.0533Q491.58716 341.16943 492.7362 341.21362Q493.8963 341.24677 494.9901 342.34058Q495.0564 342.40686 495.189 342.53946L491.90756 345.82086Q492.68097 346.5059 493.43225 346.52798Q494.17252 346.53903 494.72495 345.9866Q495.13373 345.57782 495.2111 345.08063Q495.28842 344.56134 494.9901 343.93158ZM491.3441 345.169L493.79688 342.71625Q493.1892 342.19696 492.68097 342.15277Q491.88547 342.08646 491.322 342.64993Q490.8027 343.16922 490.79166 343.8653Q490.79166 344.5503 491.3441 345.169ZM499.93985 338.98184L500.80164 338.2968Q501.29883 339.14755 501.1773 340.0204Q501.05576 340.89322 500.29343 341.65558Q499.33218 342.6168 498.16104 342.5947Q497.00095 342.56155 495.92923 341.48984Q494.82437 340.38498 494.79123 339.2028Q494.74704 338.00955 495.653 337.10358Q496.5369 336.2197 497.68594 336.2639Q498.84604 336.29703 499.93985 337.39084Q500.00613 337.45712 500.13873 337.58972L496.8573 340.87112Q497.6307 341.55615 498.38202 341.57825Q499.12225 341.5893 499.67468 341.03687Q500.0835 340.62805 500.16083 340.1309Q500.23816 339.6116 499.93985 338.98184ZM496.29385 340.21927L498.7466 337.76648Q498.13895 337.2472 497.6307 337.203Q496.8352 337.13672 496.27173 337.7002Q495.75247 338.21948 495.74142 338.91553Q495.74142 339.60056 496.29385 340.21927ZM504.98904 340.14194L498.9013 334.05417L499.57526 333.38022L500.13873 333.9437Q500.05035 333.36917 500.18292 332.90512Q500.32657 332.43005 500.75745 331.99915Q501.32092 331.43567 502.0391 331.29205Q502.75723 331.1484 503.4975 331.4688Q504.24878 331.77817 504.87857 332.40793Q505.55252 333.0819 505.85083 333.86636Q506.1602 334.63974 505.9834 335.39105Q505.80664 336.14236 505.2984 336.65057Q504.92276 337.02625 504.46976 337.16986Q504.0057 337.30246 503.58588 337.25824L505.7293 339.40167L504.98904 340.14194ZM501.79602 335.60098Q502.64676 336.45172 503.39804 336.518Q504.1383 336.57324 504.62445 336.0871Q505.1216 335.58994 505.05533 334.81653Q504.98904 334.04312 504.10516 333.15924Q503.26547 332.31955 502.51416 332.25327Q501.75183 332.17593 501.2657 332.66205Q500.7906 333.13715 500.86795 333.9437Q500.94528 334.75024 501.79602 335.60098ZM506.116 331.72293L506.801 330.90533Q507.32028 331.31415 507.80643 331.40253Q508.29254 331.49094 508.88916 331.26996Q509.48578 331.0269 510.00507 330.50763Q510.45804 330.05463 510.67902 329.56848Q510.88895 329.07132 510.82266 328.67355Q510.75635 328.25372 510.48013 327.9775Q510.19287 327.69025 509.81723 327.64606Q509.43054 327.5908 508.91125 327.8228Q508.5577 327.9775 507.51913 328.61832Q506.4916 329.24808 505.9834 329.40274Q505.30945 329.61267 504.76807 329.49112Q504.21564 329.35855 503.7958 328.9387Q503.3428 328.48572 503.1992 327.83383Q503.05554 327.15988 503.35385 326.46384Q503.65216 325.7457 504.25983 325.13803Q504.93378 324.46405 505.67404 324.16574Q506.40323 323.85638 507.11035 324.01108Q507.8064 324.1547 508.35883 324.66293L507.6407 325.49158Q506.99985 324.98334 506.348 325.06067Q505.69614 325.11594 505.00006 325.81198Q504.27087 326.5412 504.20456 327.13782Q504.1383 327.7344 504.51395 328.11005Q504.8454 328.44153 505.28732 328.41943Q505.72928 328.39734 506.92252 327.64606Q508.1268 326.8837 508.65714 326.6848Q509.4416 326.4086 510.07135 326.53015Q510.69006 326.64062 511.18726 327.13782Q511.6734 327.62393 511.82806 328.33105Q511.9717 329.0271 511.6955 329.78946Q511.40823 330.54077 510.75635 331.19263Q509.92773 332.02127 509.13223 332.35272Q508.33676 332.66205 507.5302 332.49634Q506.7347 332.31955 506.116 331.72293ZM515.4962 323.4255L516.358 322.74048Q516.85516 323.59122 516.73364 324.46405Q516.61206 325.33688 515.84973 326.09924Q514.8885 327.06046 513.71735 327.03836Q512.55725 327.00522 511.48557 325.93353Q510.3807 324.82867 510.34756 323.64648Q510.30338 322.45322 511.20935 321.54724Q512.09326 320.66336 513.2423 320.70755Q514.4024 320.7407 515.4962 321.8345Q515.5625 321.9008 515.69507 322.0334L512.41364 325.3148Q513.187 325.99982 513.93835 326.0219Q514.6786 326.03296 515.231 325.48053Q515.63983 325.07175 515.71716 324.57455Q515.7945 324.05527 515.4962 323.4255ZM511.85016 324.66293L514.3029 322.21017Q513.69525 321.6909 513.187 321.6467Q512.39154 321.58038 511.82806 322.14386Q511.30878 322.66315 511.29773 323.35922Q511.29773 324.04422 511.85016 324.66293ZM520.4459 318.47574L521.30774 317.79074Q521.80493 318.64148 521.68335 319.5143Q521.5618 320.38715 520.7995 321.1495Q519.83826 322.11072 518.6671 322.08862Q517.507 322.05548 516.4353 320.98376Q515.33044 319.8789 515.2973 318.69672Q515.2531 317.50348 516.1591 316.5975Q517.04297 315.71362 518.192 315.7578Q519.3521 315.79095 520.4459 316.88477Q520.5122 316.95105 520.64484 317.08365L517.3634 320.36505Q518.1368 321.05005 518.88806 321.07217Q519.62836 321.08322 520.1808 320.5308Q520.58954 320.12198 520.66693 319.6248Q520.74426 319.10553 520.4459 318.47574ZM516.7999 319.7132L519.2527 317.2604Q518.645 316.74112 518.1368 316.69693Q517.3413 316.63065 516.77783 317.19412Q516.25854 317.7134 516.2475 318.40945Q516.2475 319.09448 516.7999 319.7132ZM523.8047 317.94543L517.72797 311.8687L518.4793 311.11743L521.94855 314.58667L521.9154 311.04007L522.88763 310.0678L522.82135 313.3824L527.4507 314.2994L526.5337 315.21643L522.82135 314.42093L522.8103 315.44846L524.55597 317.19412L523.8047 317.94543ZM531.99164 309.75845L523.56165 306.0351L524.43445 305.16226L530.43384 308.00174Q531.152 308.34424 531.7486 308.6757Q531.395 308.03488 531.0857 307.34985L528.30145 301.29526L529.119 300.47766L532.8203 308.9298L531.99164 309.75845ZM533.30646 305.2396L533.9583 304.38885Q534.7096 304.8971 535.3062 304.875Q535.8918 304.84186 536.33374 304.3999Q536.8641 303.86957 536.8641 303.14038Q536.8641 302.41116 536.3227 301.86978Q535.81445 301.36157 535.1405 301.37262Q534.46655 301.36157 533.94727 301.88083Q533.7373 302.09076 533.5053 302.49957L532.9308 301.74826Q533.01917 301.68198 533.06335 301.6378Q533.53845 301.1627 533.671 300.54398Q533.80365 299.90314 533.28436 299.38388Q532.87555 298.97507 532.33417 298.9861Q531.78174 298.9861 531.3398 299.42807Q530.9089 299.85895 530.8868 300.43347Q530.87573 300.99695 531.3398 301.61566L530.45593 302.2344Q529.84827 301.36157 529.9256 300.4666Q529.9919 299.56064 530.71 298.8425Q531.2072 298.3453 531.848 298.14642Q532.4778 297.93652 533.06335 298.08014Q533.6489 298.2238 534.0688 298.64362Q534.4555 299.0303 534.577 299.5717Q534.6875 300.10202 534.46655 300.69864Q535.1184 300.28986 535.81445 300.38928Q536.49945 300.47766 537.09607 301.0743Q537.8916 301.86978 537.85846 303.00778Q537.83636 304.13474 536.95245 305.01862Q536.157 305.81412 535.15155 305.86935Q534.1351 305.91354 533.30646 305.2396ZM541.2614 291.31842L540.57635 292.11392Q540.035 291.77142 539.65936 291.74933Q539.0296 291.73828 538.58765 292.1802Q538.2341 292.53378 538.15674 293.00885Q538.0794 293.61652 538.3667 294.32364Q538.65393 295.00864 539.5489 295.9257Q539.4052 295.2517 539.5931 294.66614Q539.79193 294.06952 540.22284 293.63864Q540.9631 292.89838 542.0348 292.93152Q543.11755 292.9536 543.9793 293.8154Q544.55383 294.38992 544.79694 295.14124Q545.04 295.87042 544.87427 296.5665Q544.6975 297.2515 544.1561 297.79288Q543.217 298.732 541.9464 298.63257Q540.67584 298.53314 539.10693 296.96423Q537.3392 295.19647 537.1955 293.7491Q537.0629 292.48956 538.0242 291.52835Q538.7423 290.8102 539.6041 290.766Q540.4659 290.6997 541.2614 291.31842ZM540.84155 296.97528Q541.2283 297.362 541.73645 297.56085Q542.2447 297.73764 542.7198 297.6382Q543.20593 297.5277 543.5374 297.19626Q544.0014 296.7322 543.96826 296.01407Q543.9241 295.28485 543.2722 294.633Q542.64246 294.00323 541.93536 293.98114Q541.2393 293.948 540.7311 294.4562Q540.22284 294.96445 540.2339 295.68262Q540.256 296.3897 540.84155 296.97528ZM541.69226 289.49542L540.9741 288.77725L544.9074 284.844L545.493 285.42957Q545.5372 286.6228 545.9902 288.22485Q546.4432 289.80478 547.21655 291.1969Q547.7469 292.19125 548.5976 293.1525L547.8242 293.9259Q547.1171 293.1967 546.36584 291.91504Q545.62555 290.62238 545.1836 289.18607Q544.75275 287.7387 544.6754 286.51233L541.69226 289.49542ZM554.68536 287.06473L553.9451 287.805L549.1942 283.0541Q549.1721 283.58444 548.99536 284.29156Q548.8186 284.97656 548.5976 285.4406L547.87946 284.72244Q548.1999 283.80542 548.2551 282.9326Q548.31036 282.03766 548.1115 281.44104L548.58655 280.96594L554.68536 287.06473ZM557.09393 284.65616L551.0173 278.57947L553.3043 276.29242Q554.00037 275.59634 554.60803 275.36435Q555.2157 275.13232 555.8344 275.287Q556.4531 275.4196 556.873 275.83942Q557.2597 276.22614 557.3923 276.77853Q557.52484 277.33096 557.3039 277.9718Q558.02203 277.58508 558.70703 277.6956Q559.392 277.78397 559.92236 278.3143Q560.3422 278.73413 560.5411 279.28656Q560.72894 279.82794 560.66266 280.292Q560.5963 280.756 560.287 281.26425Q559.98865 281.76144 559.4141 282.33597L557.09393 284.65616ZM554.37604 280.32513L555.6908 279.01035Q556.2211 278.48 556.38684 278.1817Q556.6078 277.78397 556.55255 277.41937Q556.48627 277.0437 556.1659 276.7233Q555.86755 276.425 555.4919 276.3366Q555.1163 276.24823 554.7627 276.44708Q554.4092 276.62387 553.75726 277.27573L552.54193 278.49106L554.37604 280.32513ZM557.1823 283.13147L558.696 281.6178Q559.0827 281.2311 559.2042 281.04327Q559.44727 280.71182 559.5136 280.42456Q559.5799 280.1152 559.4804 279.7727Q559.381 279.4302 559.09375 279.14294Q558.7512 278.80045 558.3203 278.72308Q557.9005 278.6347 557.4917 278.84464Q557.0829 279.05453 556.4973 279.64014L555.0942 281.04327L557.1823 283.13147Z" fill-rule="nonzero"/></svg>