<svg version="1.1" viewBox="0.0 0.0 600.0 371.0" fill="none" stroke="none" stroke-linecap="square" stroke-miterlimit="10" width="600" height="371" xmlns:xlink="http://www.w3.org/1999/xlink" xmlns="http://www.w3.org/2000/svg"><path fill="#ffffff" d="M0 0L600.0 0L600.0 371.0L0 371.0L0 0Z" fill-rule="nonzero"/><path stroke="#333333" stroke-width="1.0" stroke-linecap="butt" d="M77.5 332.5L581.5 332.5" fill-rule="nonzero"/><path stroke="#cccccc" stroke-width="1.0" stroke-linecap="butt" d="M77.5 276.5L581.5 276.5" fill-rule="nonzero"/><path stroke="#cccccc" stroke-width="1.0" stroke-linecap="butt" d="M77.5 220.5L581.5 220.5" fill-rule="nonzero"/><path stroke="#cccccc" stroke-width="1.0" stroke-linecap="butt" d="M77.5 164.5L581.5 164.5" fill-rule="nonzero"/><path stroke="#cccccc" stroke-width="1.0" stroke-linecap="butt" d="M77.5 108.5L581.5 108.5" fill-rule="nonzero"/><path stroke="#cccccc" stroke-width="1.0" stroke-linecap="butt" d="M77.5 51.5L581.5 51.5" fill-rule="nonzero"/><clipPath id="id_0"><path d="M77.55 51.916668L581.45 51.916668L581.45 332.45L77.55 332.45L77.55 51.916668Z" clip-rule="nonzero"/></clipPath><path stroke="#4285f4" stroke-width="2.0" stroke-linecap="butt" clip-path="url(#id_0)" d="M102.745 197.08145L153.135 210.54704L203.525 218.34587L253.915 240.31725L304.305 238.1908L354.695 242.44368L405.085 227.5586L455.475 258.03574L505.865 270.08182L556.255 267.95538" fill-rule="nonzero"/><path stroke="#ea4335" stroke-width="2.0" stroke-linecap="butt" clip-path="url(#id_0)" d="M102.745 70.22189L153.135 189.28822L203.525 187.16179L253.915 214.79993L304.305 269.37488L354.695 264.41507L405.085 283.54742L455.475 273.62778L505.865 287.80032L556.255 297.71997" fill-rule="nonzero"/><path fill="#000000" fill-opacity="0.0" clip-path="url(#id_0)" d="M105.745 197.08145C105.745 198.7383 104.401855 200.08145 102.745 200.08145C101.08814 200.08145 99.745 198.7383 99.745 197.08145C99.745 195.42459 101.08814 194.08145 102.745 194.08145C104.401855 194.08145 105.745 195.42459 105.745 197.08145Z" fill-rule="nonzero"/><path fill="#000000" fill-opacity="0.0" clip-path="url(#id_0)" d="M156.135 210.54704C156.135 212.2039 154.79185 213.54704 153.135 213.54704C151.47815 213.54704 150.135 212.2039 150.135 210.54704C150.135 208.8902 151.47815 207.54704 153.135 207.54704C154.79185 207.54704 156.135 208.8902 156.135 210.54704Z" fill-rule="nonzero"/><path fill="#000000" fill-opacity="0.0" clip-path="url(#id_0)" d="M206.525 218.34587C206.525 220.00273 205.18185 221.34587 203.525 221.34587C201.86815 221.34587 200.525 220.00273 200.525 218.34587C200.525 216.68901 201.86815 215.34587 203.525 215.34587C205.18185 215.34587 206.525 216.68901 206.525 218.34587Z" fill-rule="nonzero"/><path fill="#000000" fill-opacity="0.0" clip-path="url(#id_0)" d="M256.915 240.31725C256.915 241.97409 255.57185 243.31725 253.915 243.31725C252.25815 243.31725 250.915 241.97409 250.915 240.31725C250.915 238.66039 252.25815 237.31725 253.915 237.31725C255.57185 237.31725 256.915 238.66039 256.915 240.31725Z" fill-rule="nonzero"/><path fill="#000000" fill-opacity="0.0" clip-path="url(#id_0)" d="M307.305 238.1908C307.305 239.84766 305.96185 241.1908 304.305 241.1908C302.64813 241.1908 301.305 239.84766 301.305 238.1908C301.305 236.53395 302.64813 235.1908 304.305 235.1908C305.96185 235.1908 307.305 236.53395 307.305 238.1908Z" fill-rule="nonzero"/><path fill="#000000" fill-opacity="0.0" clip-path="url(#id_0)" d="M357.695 242.44368C357.695 244.10054 356.35187 245.44368 354.695 245.44368C353.03815 245.44368 351.695 244.10054 351.695 242.44368C351.695 240.78683 353.03815 239.44368 354.695 239.44368C356.35187 239.44368 357.695 240.78683 357.695 242.44368Z" fill-rule="nonzero"/><path fill="#000000" fill-opacity="0.0" clip-path="url(#id_0)" d="M408.085 227.5586C408.085 229.21544 406.74185 230.5586 405.085 230.5586C403.42813 230.5586 402.085 229.21544 402.085 227.5586C402.085 225.90173 403.42813 224.5586 405.085 224.5586C406.74185 224.5586 408.085 225.90173 408.085 227.5586Z" fill-rule="nonzero"/><path fill="#000000" fill-opacity="0.0" clip-path="url(#id_0)" d="M458.475 258.03574C458.475 259.6926 457.13187 261.03574 455.475 261.03574C453.81815 261.03574 452.475 259.6926 452.475 258.03574C452.475 256.37888 453.81815 255.03572 455.475 255.03572C457.13187 255.03572 458.475 256.37888 458.475 258.03574Z" fill-rule="nonzero"/><path fill="#000000" fill-opacity="0.0" clip-path="url(#id_0)" d="M508.865 270.08182C508.865 271.73868 507.52185 273.08182 505.865 273.08182C504.20816 273.08182 502.865 271.73868 502.865 270.08182C502.865 268.425 504.20816 267.08182 505.865 267.08182C507.52185 267.08182 508.865 268.425 508.865 270.08182Z" fill-rule="nonzero"/><path fill="#000000" fill-opacity="0.0" clip-path="url(#id_0)" d="M559.255 267.95538C559.255 269.61224 557.91187 270.95538 556.255 270.95538C554.59814 270.95538 553.255 269.61224 553.255 267.95538C553.255 266.29852 554.59814 264.95538 556.255 264.95538C557.91187 264.95538 559.255 266.29852 559.255 267.95538Z" fill-rule="nonzero"/><path fill="#000000" fill-opacity="0.0" clip-path="url(#id_0)" d="M105.745 70.22189C105.745 71.878746 104.401855 73.22189 102.745 73.22189C101.08814 73.22189 99.745 71.878746 99.745 70.22189C99.745 68.56504 101.08814 67.22189 102.745 67.22189C104.401855 67.22189 105.745 68.56504 105.745 70.22189Z" fill-rule="nonzero"/><path fill="#000000" fill-opacity="0.0" clip-path="url(#id_0)" d="M156.135 189.28822C156.135 190.94508 154.79185 192.28822 153.135 192.28822C151.47815 192.28822 150.135 190.94508 150.135 189.28822C150.135 187.63138 151.47815 186.28822 153.135 186.28822C154.79185 186.28822 156.135 187.63138 156.135 189.28822Z" fill-rule="nonzero"/><path fill="#000000" fill-opacity="0.0" clip-path="url(#id_0)" d="M206.525 187.16179C206.525 188.81863 205.18185 190.16179 203.525 190.16179C201.86815 190.16179 200.525 188.81863 200.525 187.16179C200.525 185.50493 201.86815 184.16179 203.525 184.16179C205.18185 184.16179 206.525 185.50493 206.525 187.16179Z" fill-rule="nonzero"/><path fill="#000000" fill-opacity="0.0" clip-path="url(#id_0)" d="M256.915 214.79993C256.915 216.45679 255.57185 217.79993 253.915 217.79993C252.25815 217.79993 250.915 216.45679 250.915 214.79993C250.915 213.14308 252.25815 211.79993 253.915 211.79993C255.57185 211.79993 256.915 213.14308 256.915 214.79993Z" fill-rule="nonzero"/><path fill="#000000" fill-opacity="0.0" clip-path="url(#id_0)" d="M307.305 269.37488C307.305 271.03174 305.96185 272.37488 304.305 272.37488C302.64813 272.37488 301.305 271.03174 301.305 269.37488C301.305 267.71802 302.64813 266.37488 304.305 266.37488C305.96185 266.37488 307.305 267.71802 307.305 269.37488Z" fill-rule="nonzero"/><path fill="#000000" fill-opacity="0.0" clip-path="url(#id_0)" d="M357.695 264.41507C357.695 266.0719 356.35187 267.41507 354.695 267.41507C353.03815 267.41507 351.695 266.0719 351.695 264.41507C351.695 262.7582 353.03815 261.41507 354.695 261.41507C356.35187 261.41507 357.695 262.7582 357.695 264.41507Z" fill-rule="nonzero"/><path fill="#000000" fill-opacity="0.0" clip-path="url(#id_0)" d="M408.085 283.54742C408.085 285.20428 406.74185 286.54742 405.085 286.54742C403.42813 286.54742 402.085 285.20428 402.085 283.54742C402.085 281.89056 403.42813 280.54742 405.085 280.54742C406.74185 280.54742 408.085 281.89056 408.085 283.54742Z" fill-rule="nonzero"/><path fill="#000000" fill-opacity="0.0" clip-path="url(#id_0)" d="M458.475 273.62778C458.475 275.28464 457.13187 276.62778 455.475 276.62778C453.81815 276.62778 452.475 275.28464 452.475 273.62778C452.475 271.97092 453.81815 270.62778 455.475 270.62778C457.13187 270.62778 458.475 271.97092 458.475 273.62778Z" fill-rule="nonzero"/><path fill="#000000" fill-opacity="0.0" clip-path="url(#id_0)" d="M508.865 287.80032C508.865 289.45718 507.52185 290.80032 505.865 290.80032C504.20816 290.80032 502.865 289.45718 502.865 287.80032C502.865 286.14346 504.20816 284.80032 505.865 284.80032C507.52185 284.80032 508.865 286.14346 508.865 287.80032Z" fill-rule="nonzero"/><path fill="#000000" fill-opacity="0.0" clip-path="url(#id_0)" d="M559.255 297.71997C559.255 299.37683 557.91187 300.71997 556.255 300.71997C554.59814 300.71997 553.255 299.37683 553.255 297.71997C553.255 296.0631 554.59814 294.71997 556.255 294.71997C557.91187 294.71997 559.255 296.0631 559.255 297.71997Z" fill-rule="nonzero"/><path fill="#000000" d="M29.550013 255.80833L20.956263 255.80833L20.956263 252.57396Q20.956263 251.58958 21.221888 250.99583Q21.487513 250.40208 22.034388 250.07396Q22.565638 249.73021 23.159388 249.73021Q23.706263 249.73021 24.190638 250.02708Q24.675013 250.32396 24.971888 250.93333Q25.206263 250.15208 25.768763 249.74583Q26.315638 249.32396 27.065638 249.32396Q27.659388 249.32396 28.190638 249.57396Q28.706263 249.82396 28.987513 250.19896Q29.268763 250.57396 29.409388 251.15208Q29.550013 251.71458 29.550013 252.52708L29.550013 255.80833ZM24.565638 254.66771L24.565638 252.80833Q24.565638 252.05833 24.471888 251.73021Q24.346888 251.29271 24.050013 251.07396Q23.737513 250.85521 23.284388 250.85521Q22.862513 250.85521 22.534388 251.05833Q22.206263 251.26146 22.096888 251.65208Q21.971888 252.02708 21.971888 252.94896L21.971888 254.66771L24.565638 254.66771ZM28.534388 254.66771L28.534388 252.52708Q28.534388 251.98021 28.487513 251.76146Q28.425013 251.35521 28.268763 251.10521Q28.096888 250.83958 27.784388 250.66771Q27.471888 250.49583 27.065638 250.49583Q26.581263 250.49583 26.221888 250.74583Q25.862513 250.98021 25.721888 251.41771Q25.581263 251.85521 25.581263 252.68333L25.581263 254.66771L28.534388 254.66771ZM22.175013 247.88646L20.956263 247.88646L20.956263 246.82396L22.175013 246.82396L22.175013 247.88646ZM29.550013 247.88646L23.331263 247.88646L23.331263 246.82396L29.550013 246.82396L29.550013 247.88646ZM29.550013 244.88646L23.331263 244.88646L23.331263 243.94896L24.206263 243.94896Q23.190638 243.26146 23.190638 241.96458Q23.190638 241.40208 23.393763 240.93333Q23.596888 240.44896 23.925013 240.21458Q24.253138 239.98021 24.690638 239.88646Q24.987513 239.83958 25.721888 239.83958L29.550013 239.83958L29.550013 240.88646L25.768763 240.88646Q25.112513 240.88646 24.800013 241.01146Q24.487513 241.13646 24.300013 241.44896Q24.096888 241.76146 24.096888 242.18333Q24.096888 242.85521 24.534388 243.35521Q24.956263 243.83958 26.143763 243.83958L29.550013 243.83958L29.550013 244.88646ZM28.784388 233.82396Q29.284388 234.41771 29.487513 234.96458Q29.690638 235.49583 29.690638 236.12083Q29.690638 237.15208 29.190638 237.69896Q28.690638 238.24583 27.909388 238.24583Q27.456263 238.24583 27.081263 238.04271Q26.690638 237.83958 26.471888 237.49583Q26.237513 237.15208 26.128138 236.73021Q26.034388 236.43333 25.956263 235.79271Q25.815638 234.52708 25.596888 233.91771Q25.378138 233.91771 25.331263 233.91771Q24.675013 233.91771 24.409388 234.21458Q24.065638 234.62083 24.065638 235.41771Q24.065638 236.15208 24.331263 236.51146Q24.581263 236.87083 25.237513 237.04271L25.096888 238.07396Q24.440638 237.93333 24.034388 237.60521Q23.628138 237.27708 23.409388 236.66771Q23.190638 236.05833 23.190638 235.26146Q23.190638 234.46458 23.378138 233.96458Q23.565638 233.46458 23.846888 233.23021Q24.128138 232.99583 24.565638 232.90208Q24.831263 232.85521 25.534388 232.85521L26.940638 232.85521Q28.409388 232.85521 28.800013 232.79271Q29.190638 232.71458 29.550013 232.51146L29.550013 233.62083Q29.221888 233.77708 28.784388 233.82396ZM26.425013 233.91771Q26.659388 234.49583 26.831263 235.63646Q26.925013 236.29271 27.050013 236.55833Q27.159388 236.82396 27.378138 236.98021Q27.596888 237.12083 27.878138 237.12083Q28.300013 237.12083 28.581263 236.80833Q28.862513 236.48021 28.862513 235.87083Q28.862513 235.26146 28.596888 234.79271Q28.331263 234.30833 27.862513 234.08958Q27.503138 233.91771 26.815638 233.91771L26.425013 233.91771ZM29.550013 230.90208L23.331263 230.90208L23.331263 229.94896L24.268763 229.94896Q23.612513 229.58958 23.409388 229.29271Q23.190638 228.98021 23.190638 228.60521Q23.190638 228.07396 23.518763 227.52708L24.503138 227.88646Q24.268763 228.27708 24.268763 228.65208Q24.268763 229.01146 24.487513 229.29271Q24.690638 229.55833 25.065638 229.66771Q25.628138 229.85521 26.284388 229.85521L29.550013 229.85521L29.550013 230.90208ZM31.940638 226.93333L30.956263 227.05833Q31.050013 226.71458 31.050013 226.44896Q31.050013 226.10521 30.925013 225.90208Q30.815638 225.68333 30.612513 225.54271Q30.440638 225.44896 29.815638 225.21458Q29.737513 225.19896 29.565638 225.12083L23.331263 227.49583L23.331263 226.35521L26.925013 225.05833Q27.612513 224.80833 28.378138 224.60521Q27.643763 224.41771 26.956263 224.16771L23.331263 222.83958L23.331263 221.79271L29.659388 224.15208Q30.675013 224.54271 31.065638 224.74583Q31.596888 225.02708 31.831263 225.40208Q32.08126 225.76146 32.08126 226.26146Q32.08126 226.55833 31.940638 226.93333ZM26.534388 212.62083L26.831263 211.49583Q28.221888 211.85521 28.956263 212.77708Q29.690638 213.69896 29.690638 215.04271Q29.690638 216.43333 29.128138 217.30833Q28.565638 218.18333 27.503138 218.63646Q26.425013 219.08958 25.190638 219.08958Q23.846888 219.08958 22.846888 218.57396Q21.846888 218.05833 21.331263 217.12083Q20.815638 216.16771 20.815638 215.02708Q20.815638 213.74583 21.471888 212.87083Q22.128138 211.98021 23.315638 211.63646L23.581263 212.76146Q22.643763 213.05833 22.221888 213.63646Q21.784388 214.19896 21.784388 215.05833Q21.784388 216.04271 22.268763 216.71458Q22.737513 217.37083 23.534388 217.65208Q24.331263 217.91771 25.190638 217.91771Q26.284388 217.91771 27.096888 217.60521Q27.909388 217.27708 28.315638 216.60521Q28.721888 215.93333 28.721888 215.13646Q28.721888 214.18333 28.175013 213.52708Q27.628138 212.85521 26.534388 212.62083ZM29.550013 209.90208L23.331263 209.90208L23.331263 208.94896L24.268763 208.94896Q23.612513 208.58958 23.409388 208.29271Q23.190638 207.98021 23.190638 207.60521Q23.190638 207.07396 23.518763 206.52708L24.503138 206.88646Q24.268763 207.27708 24.268763 207.65208Q24.268763 208.01146 24.487513 208.29271Q24.690638 208.55833 25.065638 208.66771Q25.628138 208.85521 26.284388 208.85521L29.550013 208.85521L29.550013 209.90208ZM26.440638 206.27708Q24.706263 206.27708 23.878138 205.32396Q23.190638 204.52708 23.190638 203.37083Q23.190638 202.08958 24.034388 201.27708Q24.862513 200.44896 26.346888 200.44896Q27.550013 200.44896 28.237513 200.80833Q28.925013 201.16771 29.315638 201.87083Q29.690638 202.55833 29.690638 203.37083Q29.690638 204.66771 28.862513 205.48021Q28.018763 206.27708 26.440638 206.27708ZM26.440638 205.19896Q27.628138 205.19896 28.221888 204.68333Q28.815638 204.15208 28.815638 203.37083Q28.815638 202.57396 28.221888 202.05833Q27.628138 201.54271 26.409388 201.54271Q25.253138 201.54271 24.659388 202.07396Q24.065638 202.58958 24.065638 203.37083Q24.065638 204.15208 24.659388 204.68333Q25.237513 205.19896 26.440638 205.19896ZM27.690638 199.30833L27.534388 198.27708Q28.159388 198.18333 28.487513 197.79271Q28.815638 197.38646 28.815638 196.65208Q28.815638 195.93333 28.534388 195.58958Q28.237513 195.23021 27.831263 195.23021Q27.471888 195.23021 27.268763 195.54271Q27.128138 195.76146 26.909388 196.62083Q26.612513 197.77708 26.409388 198.23021Q26.190638 198.66771 25.815638 198.90208Q25.440638 199.13646 24.971888 199.13646Q24.565638 199.13646 24.206263 198.94896Q23.846888 198.76146 23.612513 198.43333Q23.440638 198.18333 23.315638 197.76146Q23.190638 197.33958 23.190638 196.83958Q23.190638 196.12083 23.409388 195.57396Q23.612513 195.01146 23.971888 194.74583Q24.331263 194.48021 24.925013 194.38646L25.065638 195.41771Q24.596888 195.48021 24.331263 195.82396Q24.050013 196.15208 24.050013 196.77708Q24.050013 197.49583 24.300013 197.80833Q24.534388 198.12083 24.862513 198.12083Q25.065638 198.12083 25.221888 197.99583Q25.393763 197.85521 25.503138 197.58958Q25.565638 197.43333 25.768763 196.65208Q26.081263 195.52708 26.268763 195.08958Q26.456263 194.65208 26.815638 194.40208Q27.175013 194.15208 27.721888 194.15208Q28.253138 194.15208 28.721888 194.46458Q29.175013 194.76146 29.440638 195.33958Q29.690638 195.91771 29.690638 196.65208Q29.690638 197.87083 29.190638 198.51146Q28.675013 199.13646 27.690638 199.30833ZM27.690638 192.30833L27.534388 191.27708Q28.159388 191.18333 28.487513 190.79271Q28.815638 190.38646 28.815638 189.65208Q28.815638 188.93333 28.534388 188.58958Q28.237513 188.23021 27.831263 188.23021Q27.471888 188.23021 27.268763 188.54271Q27.128138 188.76146 26.909388 189.62083Q26.612513 190.77708 26.409388 191.23021Q26.190638 191.66771 25.815638 191.90208Q25.440638 192.13646 24.971888 192.13646Q24.565638 192.13646 24.206263 191.94896Q23.846888 191.76146 23.612513 191.43333Q23.440638 191.18333 23.315638 190.76146Q23.190638 190.33958 23.190638 189.83958Q23.190638 189.12083 23.409388 188.57396Q23.612513 188.01146 23.971888 187.74583Q24.331263 187.48021 24.925013 187.38646L25.065638 188.41771Q24.596888 188.48021 24.331263 188.82396Q24.050013 189.15208 24.050013 189.77708Q24.050013 190.49583 24.300013 190.80833Q24.534388 191.12083 24.862513 191.12083Q25.065638 191.12083 25.221888 190.99583Q25.393763 190.85521 25.503138 190.58958Q25.565638 190.43333 25.768763 189.65208Q26.081263 188.52708 26.268763 188.08958Q26.456263 187.65208 26.815638 187.40208Q27.175013 187.15208 27.721888 187.15208Q28.253138 187.15208 28.721888 187.46458Q29.175013 187.76146 29.440638 188.33958Q29.690638 188.91771 29.690638 189.65208Q29.690638 190.87083 29.190638 191.51146Q28.675013 192.13646 27.690638 192.30833ZM26.971888 185.30833L25.909388 185.30833L25.909388 182.05833L26.971888 182.05833L26.971888 185.30833ZM29.550013 180.73021L20.956263 180.73021L20.956263 174.52708L21.971888 174.52708L21.971888 179.58958L24.596888 179.58958L24.596888 174.83958L25.612513 174.83958L25.612513 179.58958L28.534388 179.58958L28.534388 174.32396L29.550013 174.32396L29.550013 180.73021ZM29.550013 172.88646L23.331263 172.88646L23.331263 171.94896L24.206263 171.94896Q23.190638 171.26146 23.190638 169.96458Q23.190638 169.40208 23.393763 168.93333Q23.596888 168.44896 23.925013 168.21458Q24.253138 167.98021 24.690638 167.88646Q24.987513 167.83958 25.721888 167.83958L29.550013 167.83958L29.550013 168.88646L25.768763 168.88646Q25.112513 168.88646 24.800013 169.01146Q24.487513 169.13646 24.300013 169.44896Q24.096888 169.76146 24.096888 170.18333Q24.096888 170.85521 24.534388 171.35521Q24.956263 171.83958 26.143763 171.83958L29.550013 171.83958L29.550013 172.88646ZM28.612513 163.58958L29.534388 163.43333Q29.628138 163.88646 29.628138 164.23021Q29.628138 164.80833 29.456263 165.12083Q29.268763 165.43333 28.971888 165.57396Q28.675013 165.69896 27.721888 165.69896L24.143763 165.69896L24.143763 166.46458L23.331263 166.46458L23.331263 165.69896L21.784388 165.69896L21.159388 164.65208L23.331263 164.65208L23.331263 163.58958L24.143763 163.58958L24.143763 164.65208L27.784388 164.65208Q28.237513 164.65208 28.362513 164.60521Q28.487513 164.54271 28.565638 164.41771Q28.643763 164.29271 28.643763 164.05833Q28.643763 163.87083 28.612513 163.58958ZM29.550013 162.90208L23.331263 162.90208L23.331263 161.94896L24.268763 161.94896Q23.612513 161.58958 23.409388 161.29271Q23.190638 160.98021 23.190638 160.60521Q23.190638 160.07396 23.518763 159.52708L24.503138 159.88646Q24.268763 160.27708 24.268763 160.65208Q24.268763 161.01146 24.487513 161.29271Q24.690638 161.55833 25.065638 161.66771Q25.628138 161.85521 26.284388 161.85521L29.550013 161.85521L29.550013 162.90208ZM26.440638 159.27708Q24.706263 159.27708 23.878138 158.32396Q23.190638 157.52708 23.190638 156.37083Q23.190638 155.08958 24.034388 154.27708Q24.862513 153.44896 26.346888 153.44896Q27.550013 153.44896 28.237513 153.80833Q28.925013 154.16771 29.315638 154.87083Q29.690638 155.55833 29.690638 156.37083Q29.690638 157.66771 28.862513 158.48021Q28.018763 159.27708 26.440638 159.27708ZM26.440638 158.19896Q27.628138 158.19896 28.221888 157.68333Q28.815638 157.15208 28.815638 156.37083Q28.815638 155.57396 28.221888 155.05833Q27.628138 154.54271 26.409388 154.54271Q25.253138 154.54271 24.659388 155.07396Q24.065638 155.58958 24.065638 156.37083Q24.065638 157.15208 24.659388 157.68333Q25.237513 158.19896 26.440638 158.19896ZM31.940638 151.88646L23.331263 151.88646L23.331263 150.93333L24.128138 150.93333Q23.659388 150.58958 23.425013 150.16771Q23.190638 149.73021 23.190638 149.12083Q23.190638 148.32396 23.596888 147.71458Q24.003138 147.10521 24.753138 146.80833Q25.503138 146.49583 26.393763 146.49583Q27.346888 146.49583 28.112513 146.83958Q28.878138 147.16771 29.284388 147.82396Q29.690638 148.48021 29.690638 149.19896Q29.690638 149.73021 29.471888 150.15208Q29.237513 150.57396 28.909388 150.83958L31.940638 150.83958L31.940638 151.88646ZM26.471888 150.93333Q27.675013 150.93333 28.253138 150.44896Q28.815638 149.96458 28.815638 149.27708Q28.815638 148.57396 28.221888 148.07396Q27.628138 147.57396 26.378138 147.57396Q25.190638 147.57396 24.612513 148.05833Q24.018763 148.54271 24.018763 149.23021Q24.018763 149.90208 24.643763 150.41771Q25.268763 150.93333 26.471888 150.93333ZM31.940638 144.93333L30.956263 145.05833Q31.050013 144.71458 31.050013 144.44896Q31.050013 144.10521 30.925013 143.90208Q30.815638 143.68333 30.612513 143.54271Q30.440638 143.44896 29.815638 143.21458Q29.737513 143.19896 29.565638 143.12083L23.331263 145.49583L23.331263 144.35521L26.925013 143.05833Q27.612513 142.80833 28.378138 142.60521Q27.643763 142.41771 26.956263 142.16771L23.331263 140.83958L23.331263 139.79271L29.659388 142.15208Q30.675013 142.54271 31.065638 142.74583Q31.596888 143.02708 31.831263 143.40208Q32.08126 143.76146 32.08126 144.26146Q32.08126 144.55833 31.940638 144.93333Z" fill-rule="nonzero"/><path fill="#000000" d="M65.05 332.21564Q65.05 330.6844 65.3625 329.7625Q65.675 328.825 66.28438 328.325Q66.90938 327.825 67.84688 327.825Q68.53438 327.825 69.05 328.10626Q69.58125 328.3875 69.925 328.91876Q70.26875 329.4344 70.45625 330.1844Q70.64375 330.9344 70.64375 332.21564Q70.64375 333.73126 70.33125 334.65314Q70.03438 335.575 69.40938 336.09064Q68.8 336.59064 67.84688 336.59064Q66.6125 336.59064 65.89375 335.7Q65.05 334.6375 65.05 332.21564ZM66.12813 332.21564Q66.12813 334.325 66.62813 335.02814Q67.12813 335.73126 67.84688 335.73126Q68.58125 335.73126 69.06563 335.02814Q69.56563 334.325 69.56563 332.21564Q69.56563 330.09064 69.06563 329.40314Q68.58125 328.7 67.83125 328.7Q67.1125 328.7 66.675 329.3094Q66.12813 330.09064 66.12813 332.21564Z" fill-rule="nonzero"/><path fill="#000000" d="M69.01875 280.34332L67.97188 280.34332L67.97188 273.62457Q67.58125 273.98395 66.95625 274.35895Q66.34688 274.71832 65.8625 274.8902L65.8625 273.87457Q66.7375 273.4527 67.39375 272.87457Q68.06563 272.28082 68.34688 271.71832L69.01875 271.71832L69.01875 280.34332Z" fill-rule="nonzero"/><path fill="#000000" d="M70.59688 223.22104L70.59688 224.23666L64.90938 224.23666Q64.90938 223.86166 65.03438 223.50229Q65.25313 222.92416 65.72188 222.36166Q66.20625 221.79916 67.1125 221.06479Q68.51875 219.90854 69.00313 219.23666Q69.50313 218.56479 69.50313 217.97104Q69.50313 217.34604 69.05 216.92416Q68.59688 216.48666 67.87813 216.48666Q67.1125 216.48666 66.65938 216.93979Q66.20625 217.39291 66.19063 218.20541L65.1125 218.09604Q65.22188 216.87729 65.94063 216.25229Q66.675 215.61166 67.90938 215.61166Q69.14375 215.61166 69.8625 216.29916Q70.58125 216.98666 70.58125 218.00229Q70.58125 218.51791 70.3625 219.01791Q70.15938 219.50229 69.65938 220.06479Q69.175 220.61166 68.05 221.56479Q67.09688 222.36166 66.81563 222.65854Q66.55 222.93979 66.37813 223.22104L70.59688 223.22104Z" fill-rule="nonzero"/><path fill="#000000" d="M65.05 165.86438L66.1125 165.72375Q66.28438 166.61438 66.72188 167.02063Q67.15938 167.41125 67.78438 167.41125Q68.53438 167.41125 69.05 166.89563Q69.56563 166.38 69.56563 165.61438Q69.56563 164.89563 69.08125 164.42688Q68.6125 163.9425 67.87813 163.9425Q67.58125 163.9425 67.12813 164.0675L67.25313 163.13Q67.3625 163.14563 67.425 163.14563Q68.09688 163.14563 68.62813 162.80188Q69.175 162.4425 69.175 161.70813Q69.175 161.13 68.78438 160.755Q68.39375 160.36438 67.76875 160.36438Q67.15938 160.36438 66.7375 160.755Q66.33125 161.14563 66.22188 161.91125L65.15938 161.72375Q65.34688 160.67688 66.03438 160.09875Q66.72188 159.505 67.7375 159.505Q68.44063 159.505 69.03438 159.8175Q69.62813 160.11438 69.94063 160.63Q70.25313 161.14563 70.25313 161.73938Q70.25313 162.28625 69.95625 162.755Q69.65938 163.20813 69.08125 163.47375Q69.83125 163.64563 70.25313 164.20813Q70.675 164.755 70.675 165.59875Q70.675 166.72375 69.84688 167.505Q69.03438 168.28625 67.78438 168.28625Q66.65938 168.28625 65.90938 167.61438Q65.15938 166.92688 65.05 165.86438Z" fill-rule="nonzero"/><path fill="#000000" d="M68.425 112.02333L68.425 109.96083L64.70625 109.96083L64.70625 108.99208L68.62813 103.42958L69.4875 103.42958L69.4875 108.99208L70.64375 108.99208L70.64375 109.96083L69.4875 109.96083L69.4875 112.02333L68.425 112.02333ZM68.425 108.99208L68.425 105.132706L65.7375 108.99208L68.425 108.99208Z" fill-rule="nonzero"/><path fill="#000000" d="M65.05 53.666668L66.15938 53.572918Q66.28438 54.385418 66.72188 54.791668Q67.175 55.197918 67.81563 55.197918Q68.56563 55.197918 69.09688 54.619793Q69.62813 54.041668 69.62813 53.104168Q69.62813 52.197918 69.1125 51.682293Q68.6125 51.151043 67.78438 51.151043Q67.28438 51.151043 66.8625 51.385418Q66.45625 51.619793 66.22188 51.979168L65.2375 51.854168L66.06563 47.447918L70.34688 47.447918L70.34688 48.447918L66.90938 48.447918L66.45625 50.760418Q67.22188 50.213543 68.06563 50.213543Q69.19063 50.213543 69.95625 50.994793Q70.7375 51.776043 70.7375 53.010418Q70.7375 54.166668 70.06563 55.026043Q69.2375 56.057293 67.81563 56.057293Q66.64375 56.057293 65.89375 55.401043Q65.15938 54.744793 65.05 53.666668Z" fill-rule="nonzero"/><path fill="#000000" d="M94.71375 349.45L93.66688 349.45L93.66688 342.73126Q93.27625 343.09064 92.65125 343.46564Q92.04188 343.825 91.5575 343.9969L91.5575 342.98126Q92.4325 342.5594 93.08875 341.98126Q93.76063 341.3875 94.04188 340.825L94.71375 340.825L94.71375 349.45ZM101.12 349.45L101.12 347.3875L97.40125 347.3875L97.40125 346.41876L101.32313 340.85626L102.1825 340.85626L102.1825 346.41876L103.33875 346.41876L103.33875 347.3875L102.1825 347.3875L102.1825 349.45L101.12 349.45ZM101.12 346.41876L101.12 342.5594L98.4325 346.41876L101.12 346.41876ZM105.04188 349.45L105.04188 343.23126L105.97938 343.23126L105.97938 344.10626Q106.27625 343.6375 106.76063 343.3719Q107.245 343.09064 107.87 343.09064Q108.5575 343.09064 108.995 343.3719Q109.44813 343.65314 109.62 344.16876Q110.37 343.09064 111.54188 343.09064Q112.47938 343.09064 112.96375 343.60626Q113.46375 344.10626 113.46375 345.1844L113.46375 349.45L112.41688 349.45L112.41688 345.52814Q112.41688 344.90314 112.3075 344.6219Q112.21375 344.34064 111.94813 344.16876Q111.6825 343.9969 111.3075 343.9969Q110.65125 343.9969 110.21375 344.4344Q109.79188 344.8719 109.79188 345.84064L109.79188 349.45L108.72938 349.45L108.72938 345.40314Q108.72938 344.7 108.46375 344.35626Q108.21375 343.9969 107.63563 343.9969Q107.1825 343.9969 106.8075 344.23126Q106.4325 344.46564 106.26063 344.91876Q106.08875 345.3719 106.08875 346.21564L106.08875 349.45L105.04188 349.45Z" fill-rule="nonzero"/><path fill="#000000" d="M141.135 347.1844L142.1975 347.04376Q142.36937 347.9344 142.80687 348.34064Q143.24437 348.73126 143.86937 348.73126Q144.61937 348.73126 145.135 348.21564Q145.65062 347.7 145.65062 346.9344Q145.65062 346.21564 145.16624 345.7469Q144.6975 345.2625 143.96312 345.2625Q143.66624 345.2625 143.21312 345.3875L143.33812 344.45Q143.4475 344.46564 143.51 344.46564Q144.18187 344.46564 144.71312 344.1219Q145.26 343.7625 145.26 343.02814Q145.26 342.45 144.86937 342.075Q144.47874 341.6844 143.85374 341.6844Q143.24437 341.6844 142.8225 342.075Q142.41624 342.46564 142.30687 343.23126L141.24437 343.04376Q141.43187 341.9969 142.11937 341.41876Q142.80687 340.825 143.8225 340.825Q144.52562 340.825 145.11937 341.1375Q145.71312 341.4344 146.02562 341.95Q146.33812 342.46564 146.33812 343.0594Q146.33812 343.60626 146.04124 344.075Q145.74437 344.52814 145.16624 344.79376Q145.91624 344.96564 146.33812 345.52814Q146.76 346.075 146.76 346.91876Q146.76 348.04376 145.93187 348.825Q145.11937 349.60626 143.86937 349.60626Q142.74437 349.60626 141.99437 348.9344Q141.24437 348.2469 141.135 347.1844ZM152.10374 349.45L151.05687 349.45L151.05687 342.73126Q150.66624 343.09064 150.04124 343.46564Q149.43187 343.825 148.9475 343.9969L148.9475 342.98126Q149.8225 342.5594 150.47874 341.98126Q151.15062 341.3875 151.43187 340.825L152.10374 340.825L152.10374 349.45ZM155.43187 349.45L155.43187 343.23126L156.36937 343.23126L156.36937 344.10626Q156.66624 343.6375 157.15062 343.3719Q157.635 343.09064 158.26 343.09064Q158.9475 343.09064 159.385 343.3719Q159.83812 343.65314 160.01 344.16876Q160.76 343.09064 161.93187 343.09064Q162.86937 343.09064 163.35374 343.60626Q163.85374 344.10626 163.85374 345.1844L163.85374 349.45L162.80687 349.45L162.80687 345.52814Q162.80687 344.90314 162.6975 344.6219Q162.60374 344.34064 162.33812 344.16876Q162.0725 343.9969 161.6975 343.9969Q161.04124 343.9969 160.60374 344.4344Q160.18187 344.8719 160.18187 345.84064L160.18187 349.45L159.11937 349.45L159.11937 345.40314Q159.11937 344.7 158.85374 344.35626Q158.60374 343.9969 158.02562 343.9969Q157.5725 343.9969 157.1975 344.23126Q156.8225 344.46564 156.65062 344.91876Q156.47874 345.3719 156.47874 346.21564L156.47874 349.45L155.43187 349.45Z" fill-rule="nonzero"/><path fill="#000000" d="M191.5875 341.98126L191.5875 340.96564L197.15 340.96564L197.15 341.79376Q196.3375 342.66876 195.525 344.1219Q194.72812 345.5594 194.29062 347.09064Q193.9625 348.16876 193.88437 349.45L192.79062 349.45Q192.80624 348.4344 193.18124 346.9969Q193.57187 345.5594 194.275 344.23126Q194.99374 342.90314 195.80624 341.98126L191.5875 341.98126ZM198.525 345.21564Q198.525 343.6844 198.8375 342.7625Q199.15 341.825 199.75937 341.325Q200.38437 340.825 201.32187 340.825Q202.00937 340.825 202.525 341.10626Q203.05624 341.3875 203.4 341.91876Q203.74374 342.4344 203.93124 343.1844Q204.11874 343.9344 204.11874 345.21564Q204.11874 346.73126 203.80624 347.65314Q203.50937 348.575 202.88437 349.09064Q202.275 349.59064 201.32187 349.59064Q200.0875 349.59064 199.36874 348.7Q198.525 347.6375 198.525 345.21564ZM199.60312 345.21564Q199.60312 347.325 200.10312 348.02814Q200.60312 348.73126 201.32187 348.73126Q202.05624 348.73126 202.54062 348.02814Q203.04062 347.325 203.04062 345.21564Q203.04062 343.09064 202.54062 342.40314Q202.05624 341.7 201.30624 341.7Q200.5875 341.7 200.15 342.3094Q199.60312 343.09064 199.60312 345.21564ZM205.82187 349.45L205.82187 343.23126L206.75937 343.23126L206.75937 344.10626Q207.05624 343.6375 207.54062 343.3719Q208.025 343.09064 208.65 343.09064Q209.3375 343.09064 209.775 343.3719Q210.22812 343.65314 210.4 344.16876Q211.15 343.09064 212.32187 343.09064Q213.25937 343.09064 213.74374 343.60626Q214.24374 344.10626 214.24374 345.1844L214.24374 349.45L213.19687 349.45L213.19687 345.52814Q213.19687 344.90314 213.0875 344.6219Q212.99374 344.34064 212.72812 344.16876Q212.4625 343.9969 212.0875 343.9969Q211.43124 343.9969 210.99374 344.4344Q210.57187 344.8719 210.57187 345.84064L210.57187 349.45L209.50937 349.45L209.50937 345.40314Q209.50937 344.7 209.24374 344.35626Q208.99374 343.9969 208.41562 343.9969Q207.9625 343.9969 207.5875 344.23126Q207.2125 344.46564 207.04062 344.91876Q206.86874 345.3719 206.86874 346.21564L206.86874 349.45L205.82187 349.45Z" fill-rule="nonzero"/><path fill="#000000" d="M242.38374 349.45L241.33687 349.45L241.33687 342.73126Q240.94624 343.09064 240.32124 343.46564Q239.71187 343.825 239.2275 343.9969L239.2275 342.98126Q240.1025 342.5594 240.75874 341.98126Q241.43062 341.3875 241.71187 340.825L242.38374 340.825L242.38374 349.45ZM250.88374 342.96564L249.83687 343.04376Q249.69624 342.41876 249.44624 342.1375Q249.00874 341.6844 248.38374 341.6844Q247.88374 341.6844 247.49312 341.96564Q247.00874 342.34064 246.71187 343.04376Q246.43062 343.73126 246.415 345.0125Q246.79 344.4344 247.33687 344.15314Q247.89937 343.8719 248.50874 343.8719Q249.55562 343.8719 250.29 344.65314Q251.04 345.4344 251.04 346.65314Q251.04 347.46564 250.68062 348.16876Q250.33687 348.85626 249.7275 349.23126Q249.11812 349.59064 248.3525 349.59064Q247.02437 349.59064 246.19624 348.6219Q245.36812 347.65314 245.36812 345.4344Q245.36812 342.9344 246.29 341.8094Q247.08687 340.825 248.44624 340.825Q249.46187 340.825 250.1025 341.40314Q250.75874 341.96564 250.88374 342.96564ZM246.58687 346.66876Q246.58687 347.21564 246.80562 347.71564Q247.04 348.2 247.44624 348.46564Q247.86812 348.73126 248.33687 348.73126Q248.99312 348.73126 249.4775 348.2Q249.96187 347.65314 249.96187 346.73126Q249.96187 345.84064 249.4775 345.325Q249.00874 344.8094 248.29 344.8094Q247.57124 344.8094 247.07124 345.325Q246.58687 345.84064 246.58687 346.66876ZM252.415 345.21564Q252.415 343.6844 252.7275 342.7625Q253.04 341.825 253.64937 341.325Q254.27437 340.825 255.21187 340.825Q255.89937 340.825 256.41498 341.10626Q256.94623 341.3875 257.28998 341.91876Q257.63373 342.4344 257.82123 343.1844Q258.00873 343.9344 258.00873 345.21564Q258.00873 346.73126 257.69623 347.65314Q257.39935 348.575 256.77435 349.09064Q256.16498 349.59064 255.21187 349.59064Q253.9775 349.59064 253.25874 348.7Q252.415 347.6375 252.415 345.21564ZM253.49312 345.21564Q253.49312 347.325 253.99312 348.02814Q254.49312 348.73126 255.21187 348.73126Q255.94624 348.73126 256.4306 348.02814Q256.9306 347.325 256.9306 345.21564Q256.9306 343.09064 256.4306 342.40314Q255.94624 341.7 255.19624 341.7Q254.4775 341.7 254.04 342.3094Q253.49312 343.09064 253.49312 345.21564ZM259.71185 349.45L259.71185 343.23126L260.64935 343.23126L260.64935 344.10626Q260.94623 343.6375 261.4306 343.3719Q261.91498 343.09064 262.53998 343.09064Q263.22748 343.09064 263.66498 343.3719Q264.1181 343.65314 264.28998 344.16876Q265.03998 343.09064 266.21185 343.09064Q267.14935 343.09064 267.63373 343.60626Q268.13373 344.10626 268.13373 345.1844L268.13373 349.45L267.08685 349.45L267.08685 345.52814Q267.08685 344.90314 266.97748 344.6219Q266.88373 344.34064 266.6181 344.16876Q266.35248 343.9969 265.97748 343.9969Q265.32123 343.9969 264.88373 344.4344Q264.46185 344.8719 264.46185 345.84064L264.46185 349.45L263.39935 349.45L263.39935 345.40314Q263.39935 344.7 263.13373 344.35626Q262.88373 343.9969 262.3056 343.9969Q261.85248 343.9969 261.47748 344.23126Q261.10248 344.46564 260.9306 344.91876Q260.75873 345.3719 260.75873 346.21564L260.75873 349.45L259.71185 349.45Z" fill-rule="nonzero"/><path fill="#000000" d="M292.18 349.45L292.18 347.3875L288.46124 347.3875L288.46124 346.41876L292.38312 340.85626L293.2425 340.85626L293.2425 346.41876L294.39874 346.41876L294.39874 347.3875L293.2425 347.3875L293.2425 349.45L292.18 349.45ZM292.18 346.41876L292.18 342.5594L289.4925 346.41876L292.18 346.41876ZM299.77374 349.45L298.72687 349.45L298.72687 342.73126Q298.33624 343.09064 297.71124 343.46564Q297.10187 343.825 296.6175 343.9969L296.6175 342.98126Q297.4925 342.5594 298.14874 341.98126Q298.82062 341.3875 299.10187 340.825L299.77374 340.825L299.77374 349.45ZM302.805 345.21564Q302.805 343.6844 303.1175 342.7625Q303.43 341.825 304.03937 341.325Q304.66437 340.825 305.60187 340.825Q306.28937 340.825 306.805 341.10626Q307.33624 341.3875 307.68 341.91876Q308.02374 342.4344 308.21124 343.1844Q308.39874 343.9344 308.39874 345.21564Q308.39874 346.73126 308.08624 347.65314Q307.78937 348.575 307.16437 349.09064Q306.555 349.59064 305.60187 349.59064Q304.3675 349.59064 303.64874 348.7Q302.805 347.6375 302.805 345.21564ZM303.88312 345.21564Q303.88312 347.325 304.38312 348.02814Q304.88312 348.73126 305.60187 348.73126Q306.33624 348.73126 306.82062 348.02814Q307.32062 347.325 307.32062 345.21564Q307.32062 343.09064 306.82062 342.40314Q306.33624 341.7 305.58624 341.7Q304.8675 341.7 304.43 342.3094Q303.88312 343.09064 303.88312 345.21564ZM310.10187 349.45L310.10187 343.23126L311.03937 343.23126L311.03937 344.10626Q311.33624 343.6375 311.82062 343.3719Q312.305 343.09064 312.93 343.09064Q313.6175 343.09064 314.055 343.3719Q314.50812 343.65314 314.68 344.16876Q315.43 343.09064 316.60187 343.09064Q317.53937 343.09064 318.02374 343.60626Q318.52374 344.10626 318.52374 345.1844L318.52374 349.45L317.47687 349.45L317.47687 345.52814Q317.47687 344.90314 317.3675 344.6219Q317.27374 344.34064 317.00812 344.16876Q316.7425 343.9969 316.3675 343.9969Q315.71124 343.9969 315.27374 344.4344Q314.85187 344.8719 314.85187 345.84064L314.85187 349.45L313.78937 349.45L313.78937 345.40314Q313.78937 344.7 313.52374 344.35626Q313.27374 343.9969 312.69562 343.9969Q312.2425 343.9969 311.8675 344.23126Q311.4925 344.46564 311.32062 344.91876Q311.14874 345.3719 311.14874 346.21564L311.14874 349.45L310.10187 349.45Z" fill-rule="nonzero"/><path fill="#000000" d="M352.16376 349.45L351.11688 349.45L351.11688 342.73126Q350.72626 343.09064 350.10126 343.46564Q349.49188 343.825 349.0075 343.9969L349.0075 342.98126Q349.8825 342.5594 350.53876 341.98126Q351.21063 341.3875 351.49188 340.825L352.16376 340.825L352.16376 349.45ZM356.46063 349.45L355.47626 349.45L355.47626 340.85626L356.53876 340.85626L356.53876 343.91876Q357.21063 343.09064 358.24188 343.09064Q358.82 343.09064 359.32 343.325Q359.83563 343.54376 360.16376 343.96564Q360.5075 344.3875 360.695 344.98126Q360.8825 345.575 360.8825 346.2469Q360.8825 347.84064 360.08563 348.71564Q359.28876 349.59064 358.195 349.59064Q357.08563 349.59064 356.46063 348.66876L356.46063 349.45ZM356.445 346.29376Q356.445 347.40314 356.7575 347.90314Q357.2575 348.71564 358.10126 348.71564Q358.78876 348.71564 359.28876 348.1219Q359.80438 347.52814 359.80438 346.325Q359.80438 345.10626 359.32 344.52814Q358.83563 343.95 358.14813 343.95Q357.46063 343.95 356.945 344.5594Q356.445 345.15314 356.445 346.29376Z" fill-rule="nonzero"/><path fill="#000000" d="M397.55374 349.45L396.50687 349.45L396.50687 342.73126Q396.11624 343.09064 395.49124 343.46564Q394.88187 343.825 394.3975 343.9969L394.3975 342.98126Q395.2725 342.5594 395.92874 341.98126Q396.60062 341.3875 396.88187 340.825L397.55374 340.825L397.55374 349.45ZM401.17874 349.45L401.17874 348.2469L402.38187 348.2469L402.38187 349.45L401.17874 349.45ZM406.96 349.45L406.96 347.3875L403.24124 347.3875L403.24124 346.41876L407.16312 340.85626L408.0225 340.85626L408.0225 346.41876L409.17874 346.41876L409.17874 347.3875L408.0225 347.3875L408.0225 349.45L406.96 349.45ZM406.96 346.41876L406.96 342.5594L404.2725 346.41876L406.96 346.41876ZM411.85062 349.45L410.86624 349.45L410.86624 340.85626L411.92874 340.85626L411.92874 343.91876Q412.60062 343.09064 413.63187 343.09064Q414.21 343.09064 414.71 343.325Q415.22562 343.54376 415.55374 343.96564Q415.8975 344.3875 416.085 344.98126Q416.2725 345.575 416.2725 346.2469Q416.2725 347.84064 415.47562 348.71564Q414.67874 349.59064 413.585 349.59064Q412.47562 349.59064 411.85062 348.66876L411.85062 349.45ZM411.835 346.29376Q411.835 347.40314 412.1475 347.90314Q412.6475 348.71564 413.49124 348.71564Q414.17874 348.71564 414.67874 348.1219Q415.19437 347.52814 415.19437 346.325Q415.19437 345.10626 414.71 344.52814Q414.22562 343.95 413.53812 343.95Q412.85062 343.95 412.335 344.5594Q411.835 345.15314 411.835 346.29376Z" fill-rule="nonzero"/><path fill="#000000" d="M449.52188 348.4344L449.52188 349.45L443.83438 349.45Q443.83438 349.075 443.95938 348.71564Q444.17813 348.1375 444.64688 347.575Q445.13126 347.0125 446.0375 346.27814Q447.44376 345.1219 447.92813 344.45Q448.42813 343.77814 448.42813 343.1844Q448.42813 342.5594 447.975 342.1375Q447.52188 341.7 446.80313 341.7Q446.0375 341.7 445.58438 342.15314Q445.13126 342.60626 445.11563 343.41876L444.0375 343.3094Q444.14688 342.09064 444.86563 341.46564Q445.6 340.825 446.83438 340.825Q448.06876 340.825 448.7875 341.5125Q449.50626 342.2 449.50626 343.21564Q449.50626 343.73126 449.2875 344.23126Q449.08438 344.71564 448.58438 345.27814Q448.1 345.825 446.975 346.77814Q446.02188 347.575 445.74063 347.8719Q445.475 348.15314 445.30313 348.4344L449.52188 348.4344ZM451.56876 349.45L451.56876 348.2469L452.77188 348.2469L452.77188 349.45L451.56876 349.45ZM455.6 344.79376Q454.94376 344.54376 454.61563 344.10626Q454.30313 343.65314 454.30313 343.04376Q454.30313 342.10626 454.975 341.46564Q455.6625 340.825 456.77188 340.825Q457.89688 340.825 458.58438 341.48126Q459.27188 342.1375 459.27188 343.075Q459.27188 343.66876 458.95938 344.10626Q458.64688 344.54376 458.00626 344.79376Q458.80313 345.04376 459.20938 345.6219Q459.61563 346.2 459.61563 346.9969Q459.61563 348.09064 458.83438 348.84064Q458.06876 349.59064 456.7875 349.59064Q455.52188 349.59064 454.74063 348.84064Q453.95938 348.09064 453.95938 346.96564Q453.95938 346.1219 454.38126 345.5594Q454.81876 344.9969 455.6 344.79376ZM455.38126 342.9969Q455.38126 343.60626 455.77188 343.9969Q456.17813 344.3875 456.80313 344.3875Q457.4125 344.3875 457.80313 344.0125Q458.19376 343.6219 458.19376 343.0594Q458.19376 342.48126 457.7875 342.09064Q457.38126 341.6844 456.7875 341.6844Q456.17813 341.6844 455.77188 342.075Q455.38126 342.46564 455.38126 342.9969ZM455.05313 346.96564Q455.05313 347.41876 455.25626 347.84064Q455.475 348.2625 455.89688 348.4969Q456.31876 348.73126 456.80313 348.73126Q457.55313 348.73126 458.0375 348.2469Q458.5375 347.7625 458.5375 347.0125Q458.5375 346.2469 458.0375 345.7469Q457.5375 345.2469 456.77188 345.2469Q456.02188 345.2469 455.5375 345.7469Q455.05313 346.23126 455.05313 346.96564ZM462.24063 349.45L461.25626 349.45L461.25626 340.85626L462.31876 340.85626L462.31876 343.91876Q462.99063 343.09064 464.02188 343.09064Q464.6 343.09064 465.1 343.325Q465.61563 343.54376 465.94376 343.96564Q466.2875 344.3875 466.475 344.98126Q466.6625 345.575 466.6625 346.2469Q466.6625 347.84064 465.86563 348.71564Q465.06876 349.59064 463.975 349.59064Q462.86563 349.59064 462.24063 348.66876L462.24063 349.45ZM462.225 346.29376Q462.225 347.40314 462.5375 347.90314Q463.0375 348.71564 463.88126 348.71564Q464.56876 348.71564 465.06876 348.1219Q465.58438 347.52814 465.58438 346.325Q465.58438 345.10626 465.1 344.52814Q464.61563 343.95 463.92813 343.95Q463.24063 343.95 462.725 344.5594Q462.225 345.15314 462.225 346.29376Z" fill-rule="nonzero"/><path fill="#000000" d="M499.83374 342.96564L498.78687 343.04376Q498.64624 342.41876 498.39624 342.1375Q497.95874 341.6844 497.33374 341.6844Q496.83374 341.6844 496.4431 341.96564Q495.95874 342.34064 495.66187 343.04376Q495.3806 343.73126 495.365 345.0125Q495.74 344.4344 496.28687 344.15314Q496.84937 343.8719 497.45874 343.8719Q498.5056 343.8719 499.24 344.65314Q499.99 345.4344 499.99 346.65314Q499.99 347.46564 499.6306 348.16876Q499.28687 348.85626 498.6775 349.23126Q498.0681 349.59064 497.3025 349.59064Q495.97437 349.59064 495.14624 348.6219Q494.3181 347.65314 494.3181 345.4344Q494.3181 342.9344 495.24 341.8094Q496.03687 340.825 497.39624 340.825Q498.41187 340.825 499.0525 341.40314Q499.70874 341.96564 499.83374 342.96564ZM495.53687 346.66876Q495.53687 347.21564 495.7556 347.71564Q495.99 348.2 496.39624 348.46564Q496.8181 348.73126 497.28687 348.73126Q497.9431 348.73126 498.4275 348.2Q498.91187 347.65314 498.91187 346.73126Q498.91187 345.84064 498.4275 345.325Q497.95874 344.8094 497.24 344.8094Q496.52124 344.8094 496.02124 345.325Q495.53687 345.84064 495.53687 346.66876ZM501.95874 349.45L501.95874 348.2469L503.16187 348.2469L503.16187 349.45L501.95874 349.45ZM504.52124 347.46564L505.53687 347.3719Q505.66187 348.09064 506.02124 348.41876Q506.39624 348.73126 506.95874 348.73126Q507.4431 348.73126 507.8025 348.5125Q508.1775 348.27814 508.41187 347.91876Q508.64624 347.54376 508.8025 346.91876Q508.95874 346.27814 508.95874 345.6219Q508.95874 345.54376 508.95874 345.40314Q508.64624 345.90314 508.09937 346.23126Q507.5525 346.54376 506.91187 346.54376Q505.83374 346.54376 505.09937 345.77814Q504.365 344.9969 504.365 343.73126Q504.365 342.41876 505.1306 341.6219Q505.91187 340.825 507.0681 340.825Q507.89624 340.825 508.58374 341.27814Q509.28687 341.73126 509.64624 342.575Q510.0056 343.40314 510.0056 344.98126Q510.0056 346.6219 509.64624 347.60626Q509.3025 348.575 508.58374 349.09064Q507.8806 349.59064 506.9431 349.59064Q505.9275 349.59064 505.28687 349.04376Q504.64624 348.48126 504.52124 347.46564ZM508.83374 343.66876Q508.83374 342.7625 508.34937 342.23126Q507.8806 341.7 507.1931 341.7Q506.49 341.7 505.95874 342.27814Q505.4431 342.84064 505.4431 343.7625Q505.4431 344.575 505.9431 345.09064Q506.4431 345.60626 507.16187 345.60626Q507.89624 345.60626 508.365 345.09064Q508.83374 344.575 508.83374 343.66876ZM512.6306 349.45L511.64624 349.45L511.64624 340.85626L512.70874 340.85626L512.70874 343.91876Q513.3806 343.09064 514.41187 343.09064Q514.99 343.09064 515.49 343.325Q516.0056 343.54376 516.33374 343.96564Q516.6775 344.3875 516.865 344.98126Q517.0525 345.575 517.0525 346.2469Q517.0525 347.84064 516.2556 348.71564Q515.45874 349.59064 514.365 349.59064Q513.2556 349.59064 512.6306 348.66876L512.6306 349.45ZM512.615 346.29376Q512.615 347.40314 512.9275 347.90314Q513.4275 348.71564 514.27124 348.71564Q514.95874 348.71564 515.45874 348.1219Q515.97437 347.52814 515.97437 346.325Q515.97437 345.10626 515.49 344.52814Q515.0056 343.95 514.3181 343.95Q513.6306 343.95 513.115 344.5594Q512.615 345.15314 512.615 346.29376Z" fill-rule="nonzero"/><path fill="#000000" d="M550.22375 349.45L549.1769 349.45L549.1769 342.73126Q548.78625 343.09064 548.16125 343.46564Q547.5519 343.825 547.0675 343.9969L547.0675 342.98126Q547.9425 342.5594 548.59875 341.98126Q549.2706 341.3875 549.5519 340.825L550.22375 340.825L550.22375 349.45ZM558.8019 348.4344L558.8019 349.45L553.1144 349.45Q553.1144 349.075 553.2394 348.71564Q553.4581 348.1375 553.9269 347.575Q554.41125 347.0125 555.3175 346.27814Q556.72375 345.1219 557.2081 344.45Q557.7081 343.77814 557.7081 343.1844Q557.7081 342.5594 557.255 342.1375Q556.8019 341.7 556.0831 341.7Q555.3175 341.7 554.8644 342.15314Q554.41125 342.60626 554.3956 343.41876L553.3175 343.3094Q553.4269 342.09064 554.1456 341.46564Q554.88 340.825 556.1144 340.825Q557.34875 340.825 558.0675 341.5125Q558.78625 342.2 558.78625 343.21564Q558.78625 343.73126 558.5675 344.23126Q558.3644 344.71564 557.8644 345.27814Q557.38 345.825 556.255 346.77814Q555.3019 347.575 555.0206 347.8719Q554.755 348.15314 554.5831 348.4344L558.8019 348.4344ZM561.5206 349.45L560.53625 349.45L560.53625 340.85626L561.59875 340.85626L561.59875 343.91876Q562.2706 343.09064 563.3019 343.09064Q563.88 343.09064 564.38 343.325Q564.8956 343.54376 565.22375 343.96564Q565.5675 344.3875 565.755 344.98126Q565.9425 345.575 565.9425 346.2469Q565.9425 347.84064 565.1456 348.71564Q564.34875 349.59064 563.255 349.59064Q562.1456 349.59064 561.5206 348.66876L561.5206 349.45ZM561.505 346.29376Q561.505 347.40314 561.8175 347.90314Q562.3175 348.71564 563.16125 348.71564Q563.84875 348.71564 564.34875 348.1219Q564.8644 347.52814 564.8644 346.325Q564.8644 345.10626 564.38 344.52814Q563.8956 343.95 563.2081 343.95Q562.5206 343.95 562.005 344.5594Q561.505 345.15314 561.505 346.29376Z" fill-rule="nonzero"/><path stroke="#4285f4" stroke-width="4.0" stroke-linecap="butt" d="M244.0 25.55L256.0 25.55" fill-rule="nonzero"/><path fill="#1a1a1a" d="M264.89062 29.55L264.89062 20.95625L266.60938 20.95625L268.64062 27.034374Q268.92188 27.89375 269.04688 28.315624Q269.1875 27.846874 269.5 26.940624L271.5625 20.95625L273.09375 20.95625L273.09375 29.55L272.0 29.55L272.0 22.3625L269.5 29.55L268.46875 29.55L265.98438 22.2375L265.98438 29.55L264.89062 29.55ZM273.89062 29.55L273.89062 20.95625L275.60938 20.95625L277.64062 27.034374Q277.92188 27.89375 278.04688 28.315624Q278.1875 27.846874 278.5 26.940624L280.5625 20.95625L282.09375 20.95625L282.09375 29.55L281.0 29.55L281.0 22.3625L278.5 29.55L277.46875 29.55L274.98438 22.2375L274.98438 29.55L273.89062 29.55Z" fill-rule="nonzero"/><path stroke="#ea4335" stroke-width="4.0" stroke-linecap="butt" d="M298.0 25.55L310.0 25.55" fill-rule="nonzero"/><path fill="#1a1a1a" d="M318.89062 29.55L318.89062 20.95625L320.60938 20.95625L322.64062 27.034374Q322.92188 27.89375 323.04688 28.315624Q323.1875 27.846874 323.5 26.940624L325.5625 20.95625L327.09375 20.95625L327.09375 29.55L326.0 29.55L326.0 22.3625L323.5 29.55L322.46875 29.55L319.98438 22.2375L319.98438 29.55L318.89062 29.55ZM327.89062 29.55L327.89062 20.95625L329.60938 20.95625L331.64062 27.034374Q331.92188 27.89375 332.04688 28.315624Q332.1875 27.846874 332.5 26.940624L334.5625 20.95625L336.09375 20.95625L336.09375 29.55L335.0 29.55L335.0 22.3625L332.5 29.55L331.46875 29.55L328.98438 22.2375L328.98438 29.55L327.89062 29.55ZM336.375 26.971874L336.375 25.909374L339.625 25.909374L339.625 26.971874L336.375 26.971874ZM340.875 29.55L340.875 20.95625L342.01562 20.95625L342.01562 28.534374L346.25 28.534374L346.25 29.55L340.875 29.55ZM347.9375 29.55L347.9375 20.95625L351.75 20.95625Q352.90625 20.95625 353.5 21.190624Q354.09375 21.425 354.45312 22.01875Q354.8125 22.596874 354.8125 23.3Q354.8125 24.221874 354.21875 24.846874Q353.625 25.471874 352.39062 25.64375Q352.84375 25.8625 353.07812 26.065624Q353.57812 26.51875 354.01562 27.20625L355.51562 29.55L354.07812 29.55L352.95312 27.76875Q352.45312 26.9875 352.125 26.58125Q351.8125 26.175 351.54688 26.01875Q351.29688 25.846874 351.03125 25.76875Q350.84375 25.7375 350.40625 25.7375L349.07812 25.7375L349.07812 29.55L347.9375 29.55ZM349.07812 24.753124L351.53125 24.753124Q352.29688 24.753124 352.73438 24.596874Q353.1875 24.425 353.40625 24.08125Q353.64062 23.721874 353.64062 23.3Q353.64062 22.690624 353.1875 22.3Q352.75 21.909374 351.79688 21.909374L349.07812 21.909374L349.07812 24.753124Z" fill-rule="nonzero"/></svg>