<svg version="1.1" viewBox="0.0 0.0 600.0 371.0" fill="none" stroke="none" stroke-linecap="square" stroke-miterlimit="10" width="600" height="371" xmlns:xlink="http://www.w3.org/1999/xlink" xmlns="http://www.w3.org/2000/svg"><path fill="#ffffff" d="M0 0L600.0 0L600.0 371.0L0 371.0L0 0Z" fill-rule="nonzero"/><path stroke="#333333" stroke-width="1.0" stroke-linecap="butt" d="M45.5 266.5L581.5 266.5" fill-rule="nonzero"/><path stroke="#cccccc" stroke-width="1.0" stroke-linecap="butt" d="M45.5 186.5L581.5 186.5" fill-rule="nonzero"/><path stroke="#cccccc" stroke-width="1.0" stroke-linecap="butt" d="M45.5 105.5L581.5 105.5" fill-rule="nonzero"/><path stroke="#cccccc" stroke-width="1.0" stroke-linecap="butt" d="M45.5 25.5L581.5 25.5" fill-rule="nonzero"/><clipPath id="id_0"><path d="M45.55 25.55L581.45 25.55L581.45 266.54694L45.55 266.54694L45.55 25.55Z" clip-rule="nonzero"/></clipPath><path stroke="#000000" stroke-width="2.0" stroke-linecap="butt" stroke-opacity="0.0" clip-path="url(#id_0)" d="M86.0 267.0L60.0 267.0L60.0 267.0L86.0 267.0Z" fill-rule="nonzero"/><path fill="#4285f4" clip-path="url(#id_0)" d="M86.0 267.0L60.0 267.0L60.0 267.0L86.0 267.0Z" fill-rule="nonzero"/><path stroke="#000000" stroke-width="2.0" stroke-linecap="butt" stroke-opacity="0.0" clip-path="url(#id_0)" d="M126.0 267.0L100.0 267.0L100.0 267.0L126.0 267.0Z" fill-rule="nonzero"/><path fill="#4285f4" clip-path="url(#id_0)" d="M126.0 267.0L100.0 267.0L100.0 267.0L126.0 267.0Z" fill-rule="nonzero"/><path stroke="#000000" stroke-width="2.0" stroke-linecap="butt" stroke-opacity="0.0" clip-path="url(#id_0)" d="M166.0 267.0L140.0 267.0L140.0 267.0L166.0 267.0Z" fill-rule="nonzero"/><path fill="#4285f4" clip-path="url(#id_0)" d="M166.0 267.0L140.0 267.0L140.0 267.0L166.0 267.0Z" fill-rule="nonzero"/><path stroke="#000000" stroke-width="2.0" stroke-linecap="butt" stroke-opacity="0.0" clip-path="url(#id_0)" d="M206.0 267.0L180.0 267.0L180.0 267.0L206.0 267.0Z" fill-rule="nonzero"/><path fill="#4285f4" clip-path="url(#id_0)" d="M206.0 267.0L180.0 267.0L180.0 267.0L206.0 267.0Z" fill-rule="nonzero"/><path stroke="#000000" stroke-width="2.0" stroke-linecap="butt" stroke-opacity="0.0" clip-path="url(#id_0)" d="M246.0 267.0L220.0 267.0L220.0 236.0C220.0 234.89543 220.89543 234.0 222.0 234.0L244.0 234.0C245.10457 234.0 246.0 234.89543 246.0 236.0Z" fill-rule="nonzero"/><path fill="#4285f4" clip-path="url(#id_0)" d="M246.0 267.0L220.0 267.0L220.0 236.0C220.0 234.89543 220.89543 234.0 222.0 234.0L244.0 234.0C245.10457 234.0 246.0 234.89543 246.0 236.0Z" fill-rule="nonzero"/><path stroke="#000000" stroke-width="2.0" stroke-linecap="butt" stroke-opacity="0.0" clip-path="url(#id_0)" d="M286.0 267.0L260.0 267.0L260.0 220.0C260.0 218.89543 260.89542 218.0 262.0 218.0L284.0 218.0C285.10458 218.0 286.0 218.89543 286.0 220.0Z" fill-rule="nonzero"/><path fill="#4285f4" clip-path="url(#id_0)" d="M286.0 267.0L260.0 267.0L260.0 220.0C260.0 218.89543 260.89542 218.0 262.0 218.0L284.0 218.0C285.10458 218.0 286.0 218.89543 286.0 220.0Z" fill-rule="nonzero"/><path stroke="#000000" stroke-width="2.0" stroke-linecap="butt" stroke-opacity="0.0" clip-path="url(#id_0)" d="M327.0 267.0L301.0 267.0L301.0 220.0C301.0 218.89543 301.89542 218.0 303.0 218.0L325.0 218.0C326.10458 218.0 327.0 218.89543 327.0 220.0Z" fill-rule="nonzero"/><path fill="#4285f4" clip-path="url(#id_0)" d="M327.0 267.0L301.0 267.0L301.0 220.0C301.0 218.89543 301.89542 218.0 303.0 218.0L325.0 218.0C326.10458 218.0 327.0 218.89543 327.0 220.0Z" fill-rule="nonzero"/><path stroke="#000000" stroke-width="2.0" stroke-linecap="butt" stroke-opacity="0.0" clip-path="url(#id_0)" d="M367.0 267.0L341.0 267.0L341.0 140.0C341.0 138.89543 341.89542 138.0 343.0 138.0L365.0 138.0C366.10458 138.0 367.0 138.89543 367.0 140.0Z" fill-rule="nonzero"/><path fill="#4285f4" clip-path="url(#id_0)" d="M367.0 267.0L341.0 267.0L341.0 140.0C341.0 138.89543 341.89542 138.0 343.0 138.0L365.0 138.0C366.10458 138.0 367.0 138.89543 367.0 140.0Z" fill-rule="nonzero"/><path stroke="#000000" stroke-width="2.0" stroke-linecap="butt" stroke-opacity="0.0" clip-path="url(#id_0)" d="M407.0 267.0L381.0 267.0L381.0 124.0C381.0 122.89543 381.89542 122.0 383.0 122.0L405.0 122.0C406.10458 122.0 407.0 122.89543 407.0 124.0Z" fill-rule="nonzero"/><path fill="#4285f4" clip-path="url(#id_0)" d="M407.0 267.0L381.0 267.0L381.0 124.0C381.0 122.89543 381.89542 122.0 383.0 122.0L405.0 122.0C406.10458 122.0 407.0 122.89543 407.0 124.0Z" fill-rule="nonzero"/><path stroke="#000000" stroke-width="2.0" stroke-linecap="butt" stroke-opacity="0.0" clip-path="url(#id_0)" d="M447.0 267.0L421.0 267.0L421.0 156.0C421.0 154.89543 421.89542 154.0 423.0 154.0L445.0 154.0C446.10458 154.0 447.0 154.89543 447.0 156.0Z" fill-rule="nonzero"/><path fill="#4285f4" clip-path="url(#id_0)" d="M447.0 267.0L421.0 267.0L421.0 156.0C421.0 154.89543 421.89542 154.0 423.0 154.0L445.0 154.0C446.10458 154.0 447.0 154.89543 447.0 156.0Z" fill-rule="nonzero"/><path stroke="#000000" stroke-width="2.0" stroke-linecap="butt" stroke-opacity="0.0" clip-path="url(#id_0)" d="M487.0 267.0L461.0 267.0L461.0 124.0C461.0 122.89543 461.89542 122.0 463.0 122.0L485.0 122.0C486.10458 122.0 487.0 122.89543 487.0 124.0Z" fill-rule="nonzero"/><path fill="#4285f4" clip-path="url(#id_0)" d="M487.0 267.0L461.0 267.0L461.0 124.0C461.0 122.89543 461.89542 122.0 463.0 122.0L485.0 122.0C486.10458 122.0 487.0 122.89543 487.0 124.0Z" fill-rule="nonzero"/><path stroke="#000000" stroke-width="2.0" stroke-linecap="butt" stroke-opacity="0.0" clip-path="url(#id_0)" d="M527.0 267.0L501.0 267.0L501.0 44.0C501.0 42.89543 501.89542 42.0 503.0 42.0L525.0 42.0C526.10455 42.0 527.0 42.89543 527.0 44.0Z" fill-rule="nonzero"/><path fill="#4285f4" clip-path="url(#id_0)" d="M527.0 267.0L501.0 267.0L501.0 44.0C501.0 42.89543 501.89542 42.0 503.0 42.0L525.0 42.0C526.10455 42.0 527.0 42.89543 527.0 44.0Z" fill-rule="nonzero"/><path stroke="#000000" stroke-width="2.0" stroke-linecap="butt" stroke-opacity="0.0" clip-path="url(#id_0)" d="M567.0 267.0L541.0 267.0L541.0 28.0C541.0 26.89543 541.89545 26.0 543.0 26.0L565.0 26.0C566.10455 26.0 567.0 26.89543 567.0 28.0Z" fill-rule="nonzero"/><path fill="#4285f4" clip-path="url(#id_0)" d="M567.0 267.0L541.0 267.0L541.0 28.0C541.0 26.89543 541.89545 26.0 543.0 26.0L565.0 26.0C566.10455 26.0 567.0 26.89543 567.0 28.0Z" fill-rule="nonzero"/><path fill="#000000" d="M33.05 266.31256Q33.05 264.7813 33.3625 263.85944Q33.675 262.92194 34.284374 262.42194Q34.909374 261.92194 35.846874 261.92194Q36.534374 261.92194 37.05 262.2032Q37.58125 262.48444 37.925 263.0157Q38.26875 263.5313 38.45625 264.2813Q38.64375 265.0313 38.64375 266.31256Q38.64375 267.8282 38.33125 268.75006Q38.034374 269.67194 37.409374 270.18756Q36.8 270.68756 35.846874 270.68756Q34.6125 270.68756 33.89375 269.79694Q33.05 268.73444 33.05 266.31256ZM34.128124 266.31256Q34.128124 268.42194 34.628124 269.12506Q35.128124 269.8282 35.846874 269.8282Q36.58125 269.8282 37.065624 269.12506Q37.565624 268.42194 37.565624 266.31256Q37.565624 264.18756 37.065624 263.50006Q36.58125 262.79694 35.83125 262.79694Q35.1125 262.79694 34.675 263.4063Q34.128124 264.18756 34.128124 266.31256Z" fill-rule="nonzero"/><path fill="#000000" d="M33.05 187.96461L34.159374 187.87086Q34.284374 188.68336 34.721874 189.08961Q35.175 189.49586 35.815624 189.49586Q36.565624 189.49586 37.096874 188.91774Q37.628124 188.33961 37.628124 187.40211Q37.628124 186.49586 37.1125 185.98024Q36.6125 185.44899 35.784374 185.44899Q35.284374 185.44899 34.8625 185.68336Q34.45625 185.91774 34.221874 186.27711L33.2375 186.15211L34.065624 181.74586L38.346874 181.74586L38.346874 182.74586L34.909374 182.74586L34.45625 185.05836Q35.221874 184.51149 36.065624 184.51149Q37.190624 184.51149 37.95625 185.29274Q38.7375 186.07399 38.7375 187.30836Q38.7375 188.46461 38.065624 189.32399Q37.2375 190.35524 35.815624 190.35524Q34.64375 190.35524 33.89375 189.69899Q33.159374 189.04274 33.05 187.96461Z" fill-rule="nonzero"/><path fill="#000000" d="M30.01875 109.88231L28.971874 109.88231L28.971874 103.16356Q28.58125 103.522934 27.95625 103.897934Q27.346874 104.25731 26.8625 104.429184L26.8625 103.41356Q27.7375 102.991684 28.39375 102.41356Q29.065624 101.81981 29.346874 101.25731L30.01875 101.25731L30.01875 109.88231ZM33.05 105.647934Q33.05 104.116684 33.3625 103.19481Q33.675 102.25731 34.284374 101.75731Q34.909374 101.25731 35.846874 101.25731Q36.534374 101.25731 37.05 101.53856Q37.58125 101.81981 37.925 102.35106Q38.26875 102.866684 38.45625 103.616684Q38.64375 104.366684 38.64375 105.647934Q38.64375 107.16356 38.33125 108.085434Q38.034374 109.00731 37.409374 109.522934Q36.8 110.022934 35.846874 110.022934Q34.6125 110.022934 33.89375 109.13231Q33.05 108.06981 33.05 105.647934ZM34.128124 105.647934Q34.128124 107.75731 34.628124 108.460434Q35.128124 109.16356 35.846874 109.16356Q36.58125 109.16356 37.065624 108.460434Q37.565624 107.75731 37.565624 105.647934Q37.565624 103.522934 37.065624 102.835434Q36.58125 102.13231 35.83125 102.13231Q35.1125 102.13231 34.675 102.741684Q34.128124 103.522934 34.128124 105.647934Z" fill-rule="nonzero"/><path fill="#000000" d="M30.01875 29.55L28.971874 29.55L28.971874 22.83125Q28.58125 23.190624 27.95625 23.565624Q27.346874 23.925 26.8625 24.096874L26.8625 23.08125Q27.7375 22.659374 28.39375 22.08125Q29.065624 21.4875 29.346874 20.925L30.01875 20.925L30.01875 29.55ZM33.05 27.3L34.159374 27.20625Q34.284374 28.01875 34.721874 28.425Q35.175 28.83125 35.815624 28.83125Q36.565624 28.83125 37.096874 28.253124Q37.628124 27.675 37.628124 26.7375Q37.628124 25.83125 37.1125 25.315624Q36.6125 24.784374 35.784374 24.784374Q35.284374 24.784374 34.8625 25.01875Q34.45625 25.253124 34.221874 25.6125L33.2375 25.4875L34.065624 21.08125L38.346874 21.08125L38.346874 22.08125L34.909374 22.08125L34.45625 24.39375Q35.221874 23.846874 36.065624 23.846874Q37.190624 23.846874 37.95625 24.628124Q38.7375 25.409374 38.7375 26.64375Q38.7375 27.8 38.065624 28.659374Q37.2375 29.690624 35.815624 29.690624Q34.64375 29.690624 33.89375 29.034374Q33.159374 28.378124 33.05 27.3Z" fill-rule="nonzero"/><path fill="#000000" d="M37.94258 322.80676L31.865885 316.73004L34.163982 314.43195Q34.7606 313.83533 35.136253 313.57016Q35.666584 313.19452 36.174816 313.10614Q36.6941 313.00668 37.246525 313.20557Q37.81 313.3934 38.26299 313.84637Q39.03639 314.61978 39.08058 315.65836Q39.12478 316.6748 37.832096 317.9675L36.274254 319.52533L38.749126 322.0002L37.94258 322.80676ZM35.567146 318.81824L37.13604 317.24933Q37.920486 316.46487 37.953632 315.8572Q37.98678 315.22745 37.456448 314.6971Q37.080795 314.32147 36.616756 314.2552Q36.152718 314.16678 35.75497 314.38776Q35.489807 314.54245 34.94843 315.08383L33.390583 316.64166L35.567146 318.81824ZM45.16833 318.96185L44.383884 318.3542Q44.69324 318.1774 44.88107 317.9896Q45.124138 317.74652 45.17938 317.5145Q45.256718 317.28247 45.212524 317.0394Q45.15728 316.8516 44.88107 316.24393Q44.836876 316.1776 44.770584 316.00085L38.682835 313.27185L39.48938 312.4653L42.947575 314.08945Q43.610485 314.3988 44.295494 314.79657Q43.9088 314.14468 43.599438 313.48178L41.9753 309.9794L42.715553 309.23914L45.521885 315.38214Q45.963825 316.3765 46.09641 316.79636Q46.273186 317.37088 46.173748 317.80176Q46.09641 318.23267 45.742855 318.5862Q45.532932 318.79614 45.16833 318.96185ZM48.007805 311.4157L48.770157 311.9571Q48.51604 312.34378 48.272972 312.58685Q47.864174 312.99564 47.52167 313.0951Q47.168118 313.18347 46.858757 313.073Q46.560448 312.95145 45.886486 312.2775L43.35637 309.74738L42.81499 310.28876L42.240467 309.71423L42.781845 309.17285L41.688038 308.07904L41.98635 306.89685L43.5221 308.4326L44.2734 307.6813L44.847923 308.25583L44.096622 309.0071L46.670933 311.58142Q46.99134 311.90182 47.112873 311.9571Q47.245457 312.00128 47.389088 311.96814Q47.53272 311.935 47.69845 311.76926Q47.831028 311.63666 48.007805 311.4157ZM49.167904 311.58142L43.091206 305.50473L43.831455 304.76447L46.00802 306.94104Q45.93068 305.82513 46.726173 305.02963Q47.22336 304.53247 47.775784 304.37778Q48.328213 304.20102 48.825394 304.38882Q49.31153 304.5656 49.963394 305.21747L52.747627 308.0017L52.007378 308.74194L49.223145 305.95773Q48.659668 305.39426 48.162483 305.3832Q47.6653 305.37216 47.22336 305.8141Q46.891903 306.14554 46.77037 306.62064Q46.648834 307.07364 46.814564 307.50452Q46.980293 307.9133 47.499573 308.4326L49.908157 310.8412L49.167904 311.58142ZM48.902737 301.41678L48.04095 300.555L48.79225 299.80368L49.654037 300.66547L48.902737 301.41678ZM54.11765 306.63168L49.72033 302.23438L50.47163 301.48306L54.86895 305.88037L54.11765 306.63168ZM58.57021 301.09637Q58.50392 301.86975 58.260853 302.4001Q58.02883 302.91937 57.58689 303.36133Q56.857685 304.0905 56.117435 304.12366Q55.377182 304.1568 54.824753 303.60437Q54.50435 303.28397 54.382812 302.87518Q54.25023 302.45532 54.33862 302.0576Q54.41596 301.6488 54.63693 301.27313Q54.78056 300.99692 55.178307 300.4887Q55.973804 299.49432 56.250015 298.90875Q56.095337 298.75406 56.06219 298.72092Q55.598152 298.2569 55.200405 298.279Q54.670074 298.32318 54.106598 298.88666Q53.58732 299.40594 53.521027 299.84787Q53.443687 300.27878 53.78619 300.86435L52.95755 301.4941Q52.59295 300.93063 52.537704 300.41135Q52.482464 299.89206 52.75868 299.3065Q53.03489 298.72092 53.598366 298.15744Q54.161842 297.59396 54.64798 297.37302Q55.134113 297.15204 55.498714 297.18518Q55.86332 297.21832 56.238968 297.4614Q56.459938 297.6161 56.957123 298.11325L57.951492 299.10764Q58.990055 300.14618 59.310463 300.3782Q59.64192 300.59918 60.03967 300.70966L59.255222 301.4941Q58.912716 301.3726 58.57021 301.09637ZM56.83559 299.49432Q56.59252 300.06885 55.907513 300.99692Q55.509766 301.52725 55.410328 301.80347Q55.299843 302.06863 55.344036 302.3338Q55.39928 302.58792 55.598152 302.7868Q55.89646 303.0851 56.316307 303.06302Q56.7472 303.02985 57.178093 302.59897Q57.608986 302.16806 57.752617 301.6488Q57.9073 301.11847 57.730522 300.63232Q57.59794 300.25668 57.111805 299.77054L56.83559 299.49432ZM65.90644 294.8429L65.16619 295.58313L60.415318 290.83228Q60.39322 291.3626 60.216442 292.0697Q60.03967 292.7547 59.818695 293.21875L59.10054 292.5006Q59.420948 291.58356 59.476192 290.71072Q59.531433 289.8158 59.33256 289.21918L59.807648 288.74408L65.90644 294.8429ZM70.43635 290.313L68.977936 288.85458L66.34839 291.48413L65.663376 290.79913L64.50328 284.09265L65.11095 283.485L69.04423 287.41827L69.861824 286.60068L70.54683 287.28568L69.72924 288.10327L71.187645 289.56168L70.43635 290.313ZM68.29293 288.16956L65.56394 285.44058L66.39258 290.06992L68.29293 288.16956ZM73.20953 287.5398L68.81221 283.1425L69.47512 282.47958L70.09384 283.0983Q69.972305 282.55692 70.12698 282.02658Q70.270615 281.4852 70.71256 281.04324Q71.19869 280.55713 71.70693 280.44662Q72.22621 280.3251 72.71235 280.56818Q72.48032 279.27548 73.30897 278.44684Q73.97188 277.78394 74.678986 277.80603Q75.38609 277.80603 76.148445 278.5684L79.164696 281.58463L78.424446 282.3249L75.65126 279.5517Q75.20932 279.10977 74.933105 278.98822Q74.66794 278.85565 74.35858 278.92194Q74.04922 278.98822 73.78406 279.2534Q73.320015 279.71744 73.320015 280.33615Q73.33106 280.94382 74.016075 281.62885L76.56829 284.18103L75.816986 284.93234L72.955414 282.07077Q72.45823 281.57358 72.027336 281.51834Q71.59644 281.441 71.187645 281.8498Q70.86724 282.1702 70.7678 282.6011Q70.668365 283.03198 70.86724 283.47394Q71.06612 283.9159 71.662735 284.5125L73.94978 286.79956L73.20953 287.5398Z" fill-rule="nonzero"/><path fill="#000000" d="M78.08491 322.80676L72.00821 316.73004L74.306305 314.43195Q74.90292 313.83533 75.27857 313.57016Q75.80891 313.19452 76.31714 313.10614Q76.83642 313.00668 77.38885 313.20557Q77.952324 313.3934 78.40531 313.84637Q79.17871 314.61978 79.22291 315.65836Q79.2671 316.6748 77.97442 317.9675L76.41657 319.52533L78.89145 322.0002L78.08491 322.80676ZM75.709465 318.81824L77.27836 317.24933Q78.062805 316.46487 78.095955 315.8572Q78.1291 315.22745 77.59877 314.6971Q77.22312 314.32147 76.75908 314.2552Q76.295044 314.16678 75.89729 314.38776Q75.632126 314.54245 75.09075 315.08383L73.532906 316.64166L75.709465 318.81824ZM85.31065 318.96185L84.52621 318.3542Q84.83556 318.1774 85.02339 317.9896Q85.26646 317.74652 85.3217 317.5145Q85.39904 317.28247 85.35485 317.0394Q85.29961 316.8516 85.02339 316.24393Q84.979195 316.1776 84.9129 316.00085L78.82516 313.27185L79.6317 312.4653L83.0899 314.08945Q83.75281 314.3988 84.43782 314.79657Q84.05112 314.14468 83.74176 313.48178L82.11762 309.9794L82.85788 309.23914L85.66421 315.38214Q86.10615 316.3765 86.23873 316.79636Q86.415504 317.37088 86.31607 317.80176Q86.23873 318.23267 85.88518 318.5862Q85.675255 318.79614 85.31065 318.96185ZM88.15013 311.4157L88.912476 311.9571Q88.65836 312.34378 88.41529 312.58685Q88.0065 312.99564 87.663994 313.0951Q87.31044 313.18347 87.00108 313.073Q86.70277 312.95145 86.02881 312.2775L83.498695 309.74738L82.95731 310.28876L82.38279 309.71423L82.924164 309.17285L81.83036 308.07904L82.12867 306.89685L83.66442 308.4326L84.41572 307.6813L84.99024 308.25583L84.238945 309.0071L86.813255 311.58142Q87.13366 311.90182 87.255196 311.9571Q87.38778 312.00128 87.53141 311.96814Q87.67504 311.935 87.84077 311.76926Q87.97335 311.63666 88.15013 311.4157ZM89.31023 311.58142L83.23353 305.50473L83.97378 304.76447L86.150345 306.94104Q86.073006 305.82513 86.8685 305.02963Q87.365685 304.53247 87.918106 304.37778Q88.470535 304.201 88.96772 304.38882Q89.45386 304.5656 90.10572 305.21747L92.88995 308.0017L92.149704 308.74194L89.36547 305.95773Q88.801994 305.39426 88.30481 305.3832Q87.807625 305.37216 87.365685 305.8141Q87.034225 306.14554 86.91269 306.62064Q86.79116 307.07364 86.95689 307.50452Q87.12261 307.9133 87.6419 308.4326L90.050476 310.8412L89.31023 311.58142ZM89.04506 301.41678L88.18327 300.555L88.93458 299.80368L89.796364 300.66547L89.04506 301.41678ZM94.25997 306.63168L89.862656 302.23438L90.61395 301.48306L95.01128 305.88037L94.25997 306.63168ZM98.71254 301.09637Q98.64625 301.86975 98.403175 302.4001Q98.17116 302.91937 97.72922 303.36133Q97.000015 304.0905 96.25976 304.12366Q95.51951 304.1568 94.96708 303.60437Q94.646675 303.28397 94.52514 302.87518Q94.392555 302.45532 94.48094 302.0576Q94.55828 301.6488 94.77925 301.27313Q94.92288 300.99692 95.32063 300.48868Q96.11613 299.49432 96.39234 298.90875Q96.23766 298.75406 96.20451 298.72092Q95.74048 298.2569 95.34273 298.279Q94.8124 298.32318 94.248924 298.88666Q93.729645 299.40594 93.66335 299.84787Q93.58601 300.27878 93.92852 300.86435L93.09988 301.4941Q92.735275 300.93063 92.68003 300.41135Q92.62479 299.89206 92.901 299.3065Q93.177216 298.72092 93.74069 298.15744Q94.30417 297.59396 94.790306 297.37302Q95.276436 297.15204 95.641045 297.18518Q96.005646 297.21832 96.381294 297.4614Q96.602264 297.61606 97.09945 298.11325L98.09382 299.10764Q99.13238 300.14618 99.45279 300.3782Q99.78425 300.59918 100.18199 300.70966L99.397545 301.4941Q99.05504 301.3726 98.71254 301.09637ZM96.97791 299.49432Q96.73485 300.06885 96.049835 300.99692Q95.65209 301.52725 95.55265 301.80347Q95.44217 302.06863 95.48636 302.3338Q95.5416 302.58792 95.74048 302.7868Q96.03879 303.0851 96.45863 303.063Q96.88953 303.02985 97.32042 302.59897Q97.75131 302.16806 97.89494 301.6488Q98.04962 301.11847 97.87285 300.63232Q97.740265 300.25668 97.25413 299.77054L96.97791 299.49432ZM101.6404 296.04718L102.29227 295.19644Q103.043564 295.70468 103.64019 295.6826Q104.22576 295.64944 104.6677 295.2075Q105.19803 294.67715 105.19803 293.94797Q105.19803 293.21875 104.656654 292.67737Q104.14842 292.16913 103.47446 292.18018Q102.8005 292.16913 102.28121 292.68842Q102.0713 292.89835 101.83927 293.30713L101.26475 292.55585Q101.353134 292.48953 101.39733 292.44534Q101.87242 291.97028 102.005005 291.35153Q102.13758 290.71072 101.6183 290.19144Q101.2095 289.78265 100.66813 289.7937Q100.1157 289.7937 99.67376 290.23566Q99.24287 290.66653 99.22077 291.24106Q99.20972 291.80453 99.67376 292.42325L98.78988 293.04196Q98.182205 292.16913 98.259544 291.2742Q98.325836 290.36823 99.04399 289.6501Q99.541176 289.1529 100.18199 288.954Q100.81176 288.74408 101.39733 288.88773Q101.9829 289.03134 102.40275 289.4512Q102.78945 289.8379 102.91098 290.37927Q103.02147 290.9096 102.8005 291.50623Q103.45236 291.09744 104.14842 291.19687Q104.83343 291.28525 105.43005 291.88187Q106.22555 292.67737 106.1924 293.81537Q106.1703 294.94232 105.28642 295.8262Q104.49092 296.6217 103.485504 296.67694Q102.46904 296.72113 101.6404 296.04718ZM110.99851 289.89316L110.258255 290.6334L105.507385 285.88254Q105.48529 286.41284 105.30851 287.11996Q105.13174 287.80496 104.91077 288.269L104.19261 287.55084Q104.513016 286.63382 104.56826 285.761Q104.623505 284.86606 104.42463 284.26944L104.89971 283.79434L110.99851 289.89316ZM113.35185 287.5398L108.95453 283.1425L109.61744 282.47958L110.23616 283.0983Q110.114624 282.55692 110.26931 282.02658Q110.41294 281.4852 110.85488 281.04327Q111.34102 280.55713 111.84925 280.44662Q112.36853 280.3251 112.85467 280.56818Q112.62265 279.27548 113.45129 278.44684Q114.1142 277.78394 114.821304 277.80603Q115.52841 277.80603 116.290764 278.5684L119.307014 281.58463L118.566765 282.3249L115.79358 279.5517Q115.35164 279.10977 115.075424 278.98822Q114.81026 278.85565 114.5009 278.92194Q114.19154 278.98822 113.92638 279.2534Q113.46233 279.71744 113.46233 280.33615Q113.47338 280.94382 114.158394 281.62885L116.71061 284.18106L115.959305 284.93234L113.09773 282.07077Q112.60055 281.57358 112.169655 281.51834Q111.73876 281.441 111.32996 281.8498Q111.00956 282.17023 110.910126 282.6011Q110.810684 283.032 111.00956 283.47394Q111.208435 283.9159 111.80505 284.5125L114.0921 286.79956L113.35185 287.5398Z" fill-rule="nonzero"/><path fill="#000000" d="M118.227234 322.80673L112.15053 316.73004L114.44863 314.43195Q115.04525 313.83533 115.4209 313.57016Q115.95123 313.19452 116.459465 313.10614Q116.978745 313.00668 117.53117 313.20557Q118.09465 313.3934 118.54764 313.84637Q119.32104 314.61978 119.36523 315.65833Q119.409424 316.6748 118.116745 317.9675L116.5589 319.52533L119.033775 322.0002L118.227234 322.80673ZM115.85179 318.81824L117.420685 317.24933Q118.20513 316.46487 118.23828 315.8572Q118.27142 315.22745 117.7411 314.6971Q117.36544 314.32147 116.901405 314.2552Q116.43736 314.16678 116.03962 314.38776Q115.77445 314.54245 115.23308 315.0838L113.67523 316.64166L115.85179 318.81824ZM125.45298 318.96185L124.66853 318.3542Q124.97789 318.1774 125.16572 317.9896Q125.40878 317.74652 125.46403 317.5145Q125.54137 317.28247 125.49717 317.0394Q125.44193 316.8516 125.16572 316.24393Q125.12152 316.1776 125.05523 316.00085L118.96748 313.27185L119.774025 312.4653L123.23222 314.08945Q123.895134 314.3988 124.58014 314.79654Q124.19344 314.14468 123.88409 313.48178L122.25995 309.9794L123.0002 309.23914L125.80653 315.3821Q126.248474 316.3765 126.38106 316.79633Q126.55783 317.37085 126.4584 317.80176Q126.38106 318.23264 126.027504 318.5862Q125.81758 318.7961 125.45298 318.96185ZM128.29245 311.4157L129.05481 311.9571Q128.80069 312.34378 128.55762 312.58685Q128.14882 312.99564 127.80632 313.09506Q127.45277 313.18347 127.1434 313.07297Q126.84509 312.95145 126.171135 312.2775L123.641014 309.74738L123.09964 310.28876L122.525116 309.71423L123.06649 309.17285L121.97269 308.07904L122.270996 306.89685L123.80675 308.4326L124.558044 307.6813L125.13257 308.25583L124.38127 309.0071L126.95558 311.58142Q127.275986 311.90182 127.39752 311.9571Q127.530106 312.00128 127.67374 311.96814Q127.81737 311.93497 127.98309 311.76926Q128.11568 311.63666 128.29245 311.4157ZM129.45255 311.58142L123.375854 305.50473L124.116104 304.76447L126.29266 306.94104Q126.215324 305.82513 127.010826 305.02963Q127.508 304.53247 128.06044 304.37778Q128.61285 304.201 129.11005 304.38882Q129.59618 304.5656 130.24805 305.21747L133.03227 308.0017L132.29202 308.74194L129.5078 305.95773Q128.94432 305.39426 128.44713 305.38318Q127.94995 305.37213 127.508 305.8141Q127.17655 306.14554 127.055016 306.62064Q126.93348 307.0736 127.09921 307.50452Q127.26494 307.9133 127.78422 308.4326L130.19281 310.8412L129.45255 311.58142ZM129.1874 301.41678L128.32559 300.555L129.0769 299.80368L129.93869 300.66547L129.1874 301.41678ZM134.4023 306.63168L130.00497 302.23434L130.75627 301.48306L135.1536 305.88037L134.4023 306.63168ZM138.85486 301.09634Q138.78857 301.86975 138.5455 302.4001Q138.31348 302.91937 137.87154 303.3613Q137.14233 304.0905 136.40208 304.12366Q135.66183 304.1568 135.1094 303.60437Q134.789 303.28397 134.66747 302.87518Q134.53488 302.45532 134.62328 302.0576Q134.7006 301.64877 134.92159 301.27313Q135.06522 300.99692 135.46295 300.48868Q136.25845 299.49432 136.53467 298.90875Q136.37999 298.75406 136.34685 298.72092Q135.8828 298.2569 135.48506 298.279Q134.95473 298.32318 134.39125 298.88666Q133.87196 299.40594 133.80568 299.84787Q133.72833 300.27878 134.07085 300.86435L133.2422 301.4941Q132.8776 300.93063 132.82236 300.41135Q132.76712 299.89206 133.04332 299.3065Q133.31953 298.72092 133.88301 298.15744Q134.44649 297.59396 134.93263 297.373Q135.41876 297.15204 135.78337 297.18518Q136.14796 297.21832 136.52362 297.4614Q136.74458 297.61606 137.24178 298.11325L138.23615 299.10764Q139.2747 300.14618 139.59511 300.3782Q139.92657 300.59918 140.32431 300.70966L139.53987 301.4941Q139.19737 301.37256 138.85486 301.09634ZM137.12024 299.49432Q136.87717 300.06885 136.19217 300.99692Q135.79442 301.52725 135.69498 301.80347Q135.58449 302.06863 135.6287 302.3338Q135.68393 302.58792 135.8828 302.78677Q136.1811 303.08508 136.60095 303.063Q137.03185 303.02985 137.46274 302.59897Q137.89363 302.16806 138.03726 301.64877Q138.19196 301.11847 138.01517 300.63232Q137.88258 300.25668 137.39645 299.77054L137.12024 299.49432ZM138.14775 292.32382L137.4296 291.60565L141.36288 287.6724L141.94846 288.25797Q141.99265 289.4512 142.44563 291.05322Q142.89862 292.63318 143.67203 294.0253Q144.20236 295.01965 145.0531 295.9809L144.2797 296.75427Q143.57259 296.0251 142.82129 294.74344Q142.08104 293.45078 141.6391 292.01447Q141.2082 290.5671 141.13086 289.3407L138.14775 292.32382ZM145.34036 289.70532Q144.2576 288.62256 143.8267 287.74973Q143.38477 286.86584 143.4621 286.0814Q143.55049 285.2859 144.21341 284.623Q144.69954 284.13684 145.26302 283.97113Q145.83754 283.79434 146.45625 283.9269Q147.06393 284.04846 147.72684 284.4462Q148.38976 284.84396 149.29573 285.74994Q150.36745 286.82166 150.79834 287.6945Q151.24028 288.55627 151.16293 289.3628Q151.0856 290.14725 150.41164 290.82123Q149.5388 291.69406 148.4008 291.5725Q147.05289 291.41785 145.34036 289.70532ZM146.1027 288.94296Q147.59425 290.4345 148.44499 290.57816Q149.29573 290.72177 149.80397 290.21353Q150.32324 289.69427 150.16856 288.85458Q150.02493 288.00385 148.53339 286.51227Q147.03078 285.00967 146.1911 284.8771Q145.35141 284.7224 144.82108 285.25275Q144.31284 285.761 144.43437 286.50122Q144.6001 287.44037 146.1027 288.94296ZM153.49419 287.5398L149.09686 283.1425L149.75978 282.47955L150.3785 283.09827Q150.25696 282.55692 150.41164 282.02658Q150.55527 281.4852 150.99721 281.04324Q151.48335 280.55713 151.99158 280.44662Q152.51086 280.3251 152.997 280.56818Q152.76498 279.27548 153.59361 278.44684Q154.25653 277.78394 154.96364 277.80603Q155.67075 277.80603 156.43309 278.5684L159.44934 281.58463L158.70909 282.3249L155.93591 279.5517Q155.49397 279.10977 155.21776 278.98822Q154.95259 278.85565 154.64323 278.92194Q154.33388 278.98822 154.06871 279.2534Q153.60466 279.71744 153.60466 280.33615Q153.61572 280.94382 154.30072 281.6288L156.85294 284.18103L156.10164 284.93234L153.24007 282.07077Q152.74287 281.57358 152.31198 281.51834Q151.88109 281.441 151.4723 281.8498Q151.15189 282.1702 151.05246 282.6011Q150.95302 283.03198 151.15189 283.47394Q151.35077 283.91586 151.94739 284.51248L154.23444 286.79953L153.49419 287.5398Z" fill-rule="nonzero"/><path fill="#000000" d="M153.4198 327.7565L147.34311 321.6798L149.6412 319.3817Q150.23782 318.78506 150.61348 318.51993Q151.1438 318.14426 151.65204 318.05588Q152.17131 317.95645 152.72374 318.1553Q153.28722 318.34314 153.7402 318.79614Q154.51361 319.56952 154.5578 320.6081Q154.60199 321.62454 153.30931 322.91724L151.75148 324.47507L154.22635 326.94995L153.4198 327.7565ZM151.04437 323.76797L152.61327 322.19907Q153.3977 321.41464 153.43085 320.80698Q153.464 320.1772 152.93367 319.64685Q152.55801 319.2712 152.09398 319.20493Q151.62994 319.11655 151.2322 319.3375Q150.96703 319.4922 150.42564 320.03357L148.8678 321.5914L151.04437 323.76797ZM160.64555 323.9116L159.8611 323.30392Q160.17046 323.12717 160.35829 322.93933Q160.60135 322.69626 160.6566 322.46423Q160.73393 322.23224 160.68974 321.98917Q160.6345 321.80133 160.35829 321.19366Q160.31409 321.12738 160.2478 320.9506L154.16005 318.22162L154.9666 317.41507L158.42479 319.03918Q159.0877 319.34854 159.77272 319.7463Q159.38602 319.09445 159.07666 318.43152L157.45251 314.92914L158.19278 314.18887L160.9991 320.33188Q161.44104 321.32623 161.57362 321.7461Q161.75041 322.32062 161.65097 322.7515Q161.57362 323.1824 161.22008 323.53595Q161.01015 323.74588 160.64555 323.9116ZM163.48503 316.36545L164.24738 316.90683Q163.99326 317.29352 163.7502 317.5366Q163.3414 317.9454 162.99889 318.04483Q162.64534 318.1332 162.33598 318.02274Q162.03767 317.90118 161.36371 317.22723L158.83359 314.6971L158.2922 315.2385L157.71768 314.66397L158.25906 314.1226L157.16525 313.02878L157.46356 311.8466L158.99931 313.38235L159.75063 312.63104L160.32515 313.20557L159.57384 313.95688L162.14815 316.5312Q162.46857 316.8516 162.59009 316.90683Q162.72267 316.95102 162.8663 316.91788Q163.00993 316.88474 163.17566 316.719Q163.30824 316.58643 163.48503 316.36545ZM164.64513 316.5312L158.56842 310.45447L159.30867 309.71423L161.48524 311.89078Q161.4079 310.77487 162.2034 309.9794Q162.70058 309.4822 163.253 309.3275Q163.80544 309.15076 164.30261 309.33856Q164.78876 309.51535 165.44061 310.1672L168.22485 312.95145L167.4846 313.6917L164.70036 310.90747Q164.13689 310.344 163.63971 310.33295Q163.14252 310.3219 162.70058 310.76382Q162.36913 311.0953 162.24759 311.57037Q162.12605 312.02338 162.29178 312.45425Q162.4575 312.86307 162.97679 313.38235L165.38538 315.79092L164.64513 316.5312ZM164.37996 306.36652L163.51817 305.50473L164.26947 304.75342L165.13126 305.6152L164.37996 306.36652ZM169.59486 311.58142L165.19756 307.1841L165.94885 306.4328L170.34618 310.83014L169.59486 311.58142ZM174.04744 306.0461Q173.98114 306.81952 173.73807 307.34982Q173.50606 307.8691 173.06412 308.31107Q172.33492 309.04025 171.59465 309.0734Q170.8544 309.10657 170.30197 308.55414Q169.98157 308.23373 169.86003 307.82492Q169.72745 307.4051 169.81584 307.00732Q169.89319 306.59854 170.11415 306.2229Q170.25778 305.9467 170.65553 305.43845Q171.45102 304.44406 171.72723 303.8585Q171.57256 303.70383 171.53941 303.6707Q171.07538 303.20663 170.67763 303.22873Q170.1473 303.27292 169.58382 303.8364Q169.06454 304.35568 168.99825 304.79764Q168.92091 305.22852 169.26341 305.8141L168.43477 306.44385Q168.07018 305.88037 168.01492 305.36108Q167.95969 304.84183 168.2359 304.25626Q168.51212 303.6707 169.07559 303.1072Q169.63907 302.54373 170.1252 302.32275Q170.61134 302.10178 170.97594 302.13492Q171.34055 302.16806 171.71619 302.41113Q171.93716 302.56583 172.43434 303.063L173.42871 304.05737Q174.46729 305.09595 174.78769 305.32794Q175.11914 305.54892 175.51689 305.65942L174.73244 306.44385Q174.38994 306.32233 174.04744 306.0461ZM172.3128 304.44406Q172.06975 305.0186 171.38474 305.9467Q170.98698 306.477 170.88754 306.7532Q170.77707 307.01837 170.82126 307.28354Q170.8765 307.53766 171.07538 307.73654Q171.37369 308.03485 171.79353 308.01276Q172.22443 307.9796 172.65532 307.5487Q173.08621 307.11783 173.22984 306.59854Q173.38452 306.0682 173.20775 305.58206Q173.07516 305.20642 172.58902 304.72028L172.3128 304.44406ZM181.38367 299.79263L180.64342 300.5329L175.89255 295.782Q175.87044 296.31235 175.69366 297.01944Q175.51689 297.70447 175.29591 298.1685L174.57776 297.45035Q174.89818 296.53333 174.95341 295.6605Q175.00865 294.76553 174.80978 294.1689L175.28487 293.69385L181.38367 299.79263ZM182.80893 289.19708L182.12392 289.99258Q181.58253 289.6501 181.2069 289.62796Q180.57712 289.6169 180.13518 290.05887Q179.78163 290.4124 179.70428 290.8875Q179.62695 291.49518 179.91422 292.20227Q180.20148 292.8873 181.0964 293.80432Q180.95277 293.13037 181.1406 292.5448Q181.33948 291.94818 181.77037 291.51727Q182.51062 290.777 183.58232 290.81018Q184.66508 290.83228 185.52687 291.69406Q186.1014 292.2686 186.34447 293.01987Q186.58752 293.74908 186.4218 294.44513Q186.24503 295.13016 185.70364 295.67154Q184.76453 296.61066 183.49394 296.51123Q182.22336 296.41177 180.65446 294.8429Q178.88669 293.0751 178.74306 291.62775Q178.61049 290.36823 179.5717 289.407Q180.28986 288.68884 181.15164 288.64465Q182.01343 288.57837 182.80893 289.19708ZM182.38908 294.85394Q182.77579 295.24063 183.28401 295.4395Q183.79225 295.61627 184.26733 295.51685Q184.75348 295.40637 185.08493 295.0749Q185.54897 294.61087 185.51582 293.8927Q185.47163 293.1635 184.81976 292.51166Q184.19 291.88187 183.4829 291.85977Q182.78683 291.82663 182.2786 292.33487Q181.77037 292.8431 181.78142 293.56125Q181.80351 294.26837 182.38908 294.85394ZM185.48268 289.70532Q184.39992 288.62256 183.96902 287.74973Q183.52708 286.86584 183.60442 286.0814Q183.69281 285.2859 184.35573 284.623Q184.84186 284.13684 185.40533 283.97113Q185.97986 283.79434 186.59857 283.9269Q187.20625 284.04846 187.86916 284.4462Q188.53207 284.84396 189.43805 285.74994Q190.50977 286.82166 190.94066 287.6945Q191.3826 288.55627 191.30525 289.3628Q191.22792 290.14725 190.55396 290.82123Q189.68112 291.69406 188.54312 291.5725Q187.1952 291.41785 185.48268 289.70532ZM186.24503 288.94296Q187.73657 290.4345 188.58731 290.57816Q189.43805 290.72177 189.94629 290.21353Q190.46558 289.69427 190.31088 288.85458Q190.16725 288.00385 188.6757 286.5123Q187.1731 285.00967 186.33342 284.8771Q185.49373 284.7224 184.9634 285.25275Q184.45515 285.761 184.57669 286.50122Q184.74242 287.44037 186.24503 288.94296ZM193.6365 287.5398L189.23918 283.1425L189.9021 282.47955L190.52081 283.0983Q190.39928 282.55692 190.55396 282.02658Q190.69759 281.4852 191.13953 281.04324Q191.62567 280.55713 192.1339 280.44662Q192.65318 280.3251 193.13931 280.56818Q192.9073 279.27548 193.73593 278.44684Q194.39885 277.78394 195.10596 277.80603Q195.81306 277.80603 196.57541 278.5684L199.59166 281.58463L198.85141 282.3249L196.07823 279.5517Q195.63629 279.10977 195.36008 278.98822Q195.09491 278.85565 194.78555 278.92194Q194.4762 278.98822 194.21103 279.2534Q193.74698 279.71744 193.74698 280.33615Q193.75804 280.94382 194.44304 281.6288L196.99525 284.18103L196.24396 284.93234L193.38239 282.07077Q192.8852 281.57358 192.4543 281.51834Q192.0234 281.441 191.61462 281.8498Q191.2942 282.1702 191.19478 282.6011Q191.09534 283.03198 191.2942 283.47394Q191.49309 283.91586 192.0897 284.5125L194.37675 286.79956L193.6365 287.5398Z" fill-rule="nonzero"/><path fill="#000000" d="M193.56212 327.7565L187.48543 321.6798L189.78352 319.3817Q190.38014 318.7851 190.7558 318.51993Q191.28612 318.14426 191.79436 318.05588Q192.31364 317.95645 192.86606 318.1553Q193.42953 318.34314 193.88252 318.79614Q194.65593 319.56952 194.70012 320.6081Q194.74432 321.62454 193.45163 322.91724L191.8938 324.47507L194.36867 326.94995L193.56212 327.7565ZM191.18669 323.76797L192.75558 322.1991Q193.54002 321.41464 193.57317 320.80698Q193.60632 320.1772 193.07599 319.64688Q192.70033 319.2712 192.2363 319.20493Q191.77226 319.11655 191.37451 319.3375Q191.10934 319.4922 190.56796 320.03357L189.01012 321.5914L191.18669 323.76797ZM200.78787 323.91162L200.00342 323.30392Q200.31279 323.12717 200.50061 322.93933Q200.74368 322.69626 200.79892 322.46423Q200.87625 322.23224 200.83206 321.98917Q200.77682 321.80133 200.50061 321.19366Q200.45642 321.12738 200.39012 320.9506L194.30237 318.22162L195.10892 317.41507L198.56711 319.03918Q199.23003 319.34857 199.91504 319.7463Q199.52834 319.09445 199.21898 318.43152L197.59483 314.92914L198.3351 314.18887L201.14142 320.33188Q201.58336 321.32623 201.71594 321.7461Q201.89273 322.32062 201.79329 322.7515Q201.71594 323.1824 201.3624 323.53595Q201.15247 323.74588 200.78787 323.91162ZM203.62735 316.36545L204.3897 316.90683Q204.13557 317.29352 203.89252 317.5366Q203.48372 317.9454 203.1412 318.04483Q202.78766 318.1332 202.4783 318.02274Q202.18 317.90118 201.50603 317.22723L198.9759 314.6971L198.43452 315.2385L197.86 314.66397L198.40138 314.1226L197.30757 313.02878L197.6059 311.8466L199.14163 313.38235L199.89294 312.63104L200.46747 313.20557L199.71616 313.95688L202.29047 316.5312Q202.61089 316.8516 202.7324 316.90683Q202.86499 316.95102 203.00862 316.91788Q203.15225 316.88474 203.318 316.719Q203.45056 316.58643 203.62735 316.36545ZM204.78745 316.5312L198.71074 310.45447L199.45099 309.71423L201.62756 311.89078Q201.55022 310.7749 202.34572 309.9794Q202.8429 309.4822 203.39532 309.3275Q203.94775 309.15076 204.44493 309.33856Q204.93108 309.51535 205.58293 310.1672L208.36717 312.95145L207.62692 313.6917L204.84268 310.90747Q204.2792 310.344 203.78203 310.33295Q203.28484 310.3219 202.8429 310.76382Q202.51144 311.0953 202.38991 311.57037Q202.26837 312.02338 202.4341 312.45425Q202.59984 312.86307 203.11911 313.38235L205.5277 315.79092L204.78745 316.5312ZM204.52228 306.36652L203.66049 305.50473L204.41179 304.75342L205.27357 305.6152L204.52228 306.36652ZM209.73718 311.58142L205.33987 307.1841L206.09117 306.4328L210.4885 310.83014L209.73718 311.58142ZM214.18976 306.0461Q214.12346 306.81952 213.88039 307.34985Q213.64838 307.8691 213.20644 308.31107Q212.47723 309.04025 211.73697 309.07343Q210.99672 309.10657 210.44429 308.55414Q210.12389 308.23373 210.00235 307.82492Q209.86977 307.4051 209.95816 307.00732Q210.0355 306.59854 210.25647 306.2229Q210.4001 305.9467 210.79785 305.43845Q211.59334 304.44406 211.86955 303.8585Q211.71487 303.70383 211.68173 303.6707Q211.2177 303.20663 210.81995 303.22873Q210.28961 303.27292 209.72614 303.8364Q209.20686 304.35568 209.14056 304.79764Q209.06323 305.22852 209.40573 305.8141L208.57709 306.44385Q208.2125 305.88037 208.15724 305.3611Q208.102 304.84183 208.37822 304.25626Q208.65443 303.6707 209.21791 303.1072Q209.78139 302.54373 210.26752 302.32275Q210.75366 302.10178 211.11826 302.13492Q211.48286 302.16806 211.8585 302.41113Q212.07948 302.56583 212.57666 303.06302L213.57103 304.05737Q214.6096 305.09595 214.93001 305.32794Q215.26146 305.54892 215.65921 305.65942L214.87476 306.44385Q214.53226 306.32233 214.18976 306.0461ZM212.45514 304.44406Q212.21207 305.0186 211.52705 305.9467Q211.1293 306.477 211.02988 306.7532Q210.91939 307.01837 210.96358 307.28354Q211.01881 307.53766 211.2177 307.73654Q211.516 308.03485 211.93585 308.01276Q212.36674 307.9796 212.79764 307.5487Q213.22853 307.11783 213.37216 306.59854Q213.52684 306.0682 213.35007 305.58206Q213.21748 305.20642 212.73134 304.72028L212.45514 304.44406ZM221.10614 300.2125L219.64774 298.75406L217.01817 301.38364L216.33318 300.6986L215.17308 293.99216L215.78075 293.3845L219.71402 297.31775L220.53162 296.50018L221.21663 297.18518L220.39903 298.00278L221.85744 299.46118L221.10614 300.2125ZM218.96272 298.06906L216.23373 295.34006L217.06238 299.96942L218.96272 298.06906ZM226.47574 294.8429L225.73547 295.58313L220.9846 290.83228Q220.96251 291.3626 220.78574 292.0697Q220.60896 292.7547 220.38799 293.21875L219.66983 292.5006Q219.99023 291.58356 220.04549 290.71072Q220.10072 289.8158 219.90186 289.21918L220.37694 288.74408L226.47574 294.8429ZM225.625 289.70532Q224.54224 288.62256 224.11134 287.74973Q223.6694 286.86584 223.74675 286.0814Q223.83513 285.2859 224.49805 284.623Q224.98418 284.13684 225.54765 283.97113Q226.12218 283.79434 226.7409 283.92694Q227.34857 284.04846 228.01147 284.4462Q228.6744 284.84396 229.58037 285.74994Q230.65208 286.82166 231.08298 287.6945Q231.52492 288.55627 231.44757 289.36282Q231.37024 290.14725 230.69627 290.82123Q229.82344 291.69406 228.68544 291.5725Q227.33752 291.41785 225.625 289.70532ZM226.38734 288.94296Q227.87889 290.4345 228.72963 290.57816Q229.58037 290.72177 230.08861 290.21356Q230.6079 289.69427 230.45322 288.85458Q230.30959 288.00385 228.81802 286.5123Q227.31543 285.00967 226.47574 284.8771Q225.63605 284.7224 225.10571 285.25275Q224.59749 285.761 224.71901 286.50125Q224.88475 287.44037 226.38734 288.94296ZM233.77882 287.5398L229.3815 283.1425L230.04442 282.47955L230.66313 283.0983Q230.5416 282.55692 230.69627 282.02658Q230.8399 281.4852 231.28185 281.04324Q231.76799 280.55713 232.27621 280.44662Q232.7955 280.3251 233.28163 280.56818Q233.04962 279.27548 233.87825 278.44684Q234.54117 277.78394 235.24828 277.80603Q235.95538 277.80603 236.71773 278.5684L239.73398 281.58463L238.99373 282.3249L236.22055 279.5517Q235.77861 279.10977 235.5024 278.98822Q235.23723 278.85565 234.92787 278.92194Q234.61852 278.98822 234.35335 279.2534Q233.88931 279.71744 233.88931 280.33615Q233.90036 280.94382 234.58536 281.62885L237.13757 284.18103L236.38628 284.93234L233.5247 282.07077Q233.02753 281.57358 232.59663 281.51834Q232.16573 281.441 231.75694 281.8498Q231.43652 282.1702 231.3371 282.6011Q231.23766 283.03198 231.43652 283.47394Q231.6354 283.9159 232.23203 284.5125L234.51907 286.79956L233.77882 287.5398Z" fill-rule="nonzero"/><path fill="#000000" d="M246.43237 315.02856L240.35568 308.95187L242.65378 306.65378Q243.2504 306.05716 243.62604 305.792Q244.15637 305.41632 244.66461 305.32794Q245.18388 305.22852 245.73631 305.4274Q246.29979 305.6152 246.75278 306.0682Q247.52618 306.84158 247.57037 307.88016Q247.61456 308.89664 246.32188 310.1893L244.76404 311.74716L247.23892 314.22202L246.43237 315.02856ZM244.05693 311.04004L245.62582 309.47116Q246.41028 308.6867 246.44342 308.07904Q246.47656 307.44928 245.94624 306.91895Q245.57059 306.54327 245.10655 306.477Q244.64252 306.3886 244.24477 306.6096Q243.9796 306.76425 243.43822 307.30563L241.88037 308.8635L244.05693 311.04004ZM253.65813 311.1837L252.87367 310.57602Q253.18303 310.39923 253.37086 310.2114Q253.61392 309.96832 253.66917 309.73633Q253.7465 309.5043 253.70232 309.26123Q253.64708 309.0734 253.37086 308.46573Q253.32666 308.39944 253.26038 308.22266L247.17262 305.49368L247.97917 304.68713L251.43736 306.31128Q252.10028 306.62064 252.7853 307.01837Q252.39859 306.36652 252.08923 305.70358L250.46509 302.2012L251.20535 301.46097L254.01167 307.60394Q254.45361 308.59833 254.5862 309.01816Q254.76297 309.59268 254.66354 310.0236Q254.5862 310.45447 254.23265 310.808Q254.02272 311.01794 253.65813 311.1837ZM256.4976 303.6375L257.25995 304.1789Q257.00583 304.5656 256.76276 304.80865Q256.35397 305.21747 256.01147 305.3169Q255.65791 305.40527 255.34856 305.2948Q255.05023 305.17328 254.37628 304.4993L251.84616 301.96918L251.30478 302.51056L250.73026 301.93604L251.27164 301.39465L250.17783 300.30087L250.47614 299.11865L252.01189 300.65442L252.76318 299.9031L253.3377 300.47763L252.58641 301.22894L255.16072 303.80325Q255.48112 304.12366 255.60266 304.1789Q255.73524 304.22308 255.87888 304.18994Q256.02252 304.1568 256.18823 303.9911Q256.32083 303.8585 256.4976 303.6375ZM257.65768 303.80325L251.581 297.72656L252.32124 296.9863L254.49782 299.16287Q254.42047 298.04697 255.21597 297.25146Q255.71315 296.75427 256.26556 296.5996Q256.818 296.42282 257.3152 296.61066Q257.80133 296.7874 258.4532 297.4393L261.23743 300.2235L260.49716 300.96378L257.71295 298.17953Q257.14948 297.61606 256.65228 297.605Q256.1551 297.59396 255.71315 298.03592Q255.3817 298.36737 255.26016 298.84244Q255.13863 299.29544 255.30435 299.72635Q255.47008 300.13513 255.98936 300.65442L258.39795 303.063L257.65768 303.80325ZM257.39252 293.63858L256.53073 292.7768L257.28204 292.0255L258.14383 292.8873L257.39252 293.63858ZM262.60745 298.85352L258.2101 294.45618L258.96143 293.70486L263.35873 298.1022L262.60745 298.85352ZM267.06 293.31818Q266.9937 294.09158 266.75064 294.62192Q266.51862 295.1412 266.0767 295.58313Q265.34747 296.31235 264.60724 296.3455Q263.86697 296.37863 263.31454 295.8262Q262.99414 295.5058 262.87262 295.097Q262.74002 294.67715 262.8284 294.27942Q262.90576 293.8706 263.1267 293.49496Q263.27036 293.21875 263.6681 292.7105Q264.4636 291.71616 264.7398 291.13055Q264.58514 290.9759 264.55197 290.94275Q264.08795 290.4787 263.6902 290.5008Q263.15988 290.54498 262.5964 291.10846Q262.07712 291.62775 262.01083 292.0697Q261.93347 292.50058 262.276 293.08615L261.44736 293.71594Q261.08273 293.15247 261.0275 292.63318Q260.97226 292.1139 261.24847 291.52832Q261.5247 290.94275 262.08817 290.37927Q262.65164 289.8158 263.1378 289.59482Q263.6239 289.37384 263.98853 289.40698Q264.35312 289.44016 264.72876 289.6832Q264.94974 289.8379 265.44693 290.33508L266.44128 291.32944Q267.47986 292.368 267.80026 292.60004Q268.1317 292.82098 268.52945 292.9315L267.74503 293.71594Q267.4025 293.5944 267.06 293.31818ZM265.32538 291.71616Q265.0823 292.29068 264.3973 293.21875Q263.99957 293.74908 263.90012 294.0253Q263.78964 294.29047 263.83383 294.5556Q263.88907 294.80972 264.08795 295.0086Q264.38626 295.30692 264.8061 295.28482Q265.237 295.25168 265.66788 294.82077Q266.0988 294.3899 266.2424 293.8706Q266.3971 293.34027 266.2203 292.85416Q266.08774 292.4785 265.6016 291.99237L265.32538 291.71616ZM274.39624 287.0647L273.65598 287.80496L268.90512 283.05408Q268.88303 283.5844 268.70624 284.29153Q268.52945 284.97653 268.3085 285.44058L267.59033 284.7224Q267.91074 283.8054 267.96597 282.93256Q268.02124 282.03763 267.82236 281.441L268.29745 280.9659L274.39624 287.0647ZM277.4346 284.02637L276.73853 284.7224L270.66183 278.64572L271.41315 277.8944L273.57864 280.05994Q273.46817 278.99927 274.19736 278.27005Q274.60617 277.86127 275.12543 277.67343Q275.6447 277.46353 276.17505 277.52982Q276.71643 277.58505 277.26886 277.8723Q277.8213 278.15958 278.2964 278.63467Q279.42334 279.76163 279.47858 280.94382Q279.5338 282.126 278.7604 282.8994Q277.97595 283.68384 276.88217 283.47394L277.4346 284.02637ZM275.19174 281.8056Q275.97617 282.59006 276.5507 282.72263Q277.4788 282.9436 278.0754 282.347Q278.56155 281.86084 278.49524 281.08743Q278.44 280.303 277.58926 279.45227Q276.72748 278.59048 275.97617 278.52417Q275.22488 278.4579 274.73874 278.94403Q274.2526 279.43018 274.3189 280.22565Q274.3852 280.99905 275.19174 281.8056Z" fill-rule="nonzero"/><path fill="#000000" d="M279.5036 322.09964L273.4269 316.02295L275.725 313.72485Q276.32162 313.12823 276.6973 312.86307Q277.22763 312.48743 277.73584 312.39902Q278.25513 312.2996 278.80756 312.49847Q279.37103 312.68628 279.82404 313.13928Q280.5974 313.9127 280.6416 314.95123Q280.68582 315.9677 279.39313 317.26038L277.8353 318.81824L280.31015 321.2931L279.5036 322.09964ZM277.12817 318.1111L278.69708 316.54224Q279.4815 315.75778 279.51468 315.15012Q279.54782 314.52036 279.0175 313.99002Q278.6418 313.61438 278.1778 313.54807Q277.71375 313.4597 277.316 313.68066Q277.05084 313.83533 276.50946 314.3767L274.95163 315.93457L277.12817 318.1111ZM286.72937 318.25476L285.94492 317.6471Q286.25427 317.4703 286.4421 317.28247Q286.68518 317.03943 286.74042 316.8074Q286.81775 316.57538 286.77356 316.3323Q286.71832 316.14447 286.4421 315.5368Q286.39792 315.47052 286.3316 315.29373L280.24387 312.56476L281.0504 311.7582L284.5086 313.38235Q285.1715 313.6917 285.85654 314.08945Q285.46982 313.4376 285.16046 312.7747L283.53635 309.27228L284.27658 308.53204L287.08292 314.67502Q287.52487 315.6694 287.65744 316.08923Q287.83423 316.66376 287.73477 317.09467Q287.65744 317.52554 287.3039 317.87912Q287.09396 318.08902 286.72937 318.25476ZM289.56885 310.7086L290.33118 311.24997Q290.0771 311.6367 289.834 311.87976Q289.4252 312.28854 289.0827 312.38797Q288.72916 312.47638 288.4198 312.36588Q288.1215 312.24435 287.4475 311.57037L284.9174 309.04028L284.37604 309.58167L283.8015 309.0071L284.34286 308.46576L283.24908 307.37195L283.5474 306.18976L285.08313 307.7255L285.83444 306.97418L286.40897 307.5487L285.65765 308.30002L288.23196 310.87433Q288.55237 311.19473 288.67392 311.24997Q288.8065 311.29416 288.95013 311.26102Q289.09375 311.22787 289.2595 311.06216Q289.39206 310.92957 289.56885 310.7086ZM290.72894 310.87433L284.65225 304.79764L285.3925 304.05737L287.56906 306.23395Q287.4917 305.11804 288.2872 304.32254Q288.7844 303.82535 289.33682 303.6707Q289.88925 303.4939 290.38644 303.68173Q290.87256 303.8585 291.52444 304.51038L294.30865 307.2946L293.56842 308.03485L290.78418 305.2506Q290.2207 304.68713 289.7235 304.6761Q289.22635 304.66504 288.7844 305.107Q288.45294 305.43845 288.3314 305.91354Q288.20987 306.36652 288.3756 306.79742Q288.54132 307.2062 289.0606 307.7255L291.46918 310.13406L290.72894 310.87433ZM290.46378 300.70966L289.602 299.84787L290.35327 299.0966L291.21506 299.95837L290.46378 300.70966ZM295.67868 305.9246L291.28137 301.52725L292.03265 300.77597L296.43 305.17328L295.67868 305.9246ZM300.13126 300.38925Q300.06494 301.16266 299.8219 301.693Q299.58987 302.21228 299.14792 302.6542Q298.41873 303.38342 297.67847 303.41656Q296.93823 303.4497 296.3858 302.89728Q296.06537 302.57687 295.94385 302.1681Q295.81128 301.74823 295.89966 301.3505Q295.977 300.94168 296.19797 300.56604Q296.34158 300.28983 296.73935 299.7816Q297.53485 298.78723 297.81107 298.20166Q297.65637 298.04697 297.62323 298.01382Q297.15918 297.54977 296.76144 297.57187Q296.2311 297.6161 295.66763 298.17957Q295.14835 298.69882 295.08206 299.14078Q295.00473 299.57166 295.34723 300.15726L294.5186 300.78702Q294.154 300.22354 294.09875 299.70425Q294.0435 299.18497 294.3197 298.5994Q294.59592 298.01382 295.1594 297.45035Q295.72287 296.88687 296.209 296.6659Q296.69516 296.44495 297.05975 296.4781Q297.42435 296.51123 297.80002 296.7543Q298.02097 296.90897 298.51816 297.40616L299.51254 298.4005Q300.5511 299.4391 300.8715 299.6711Q301.20294 299.8921 301.6007 300.00256L300.81625 300.78702Q300.47375 300.66547 300.13126 300.38925ZM298.39664 298.78723Q298.15356 299.36176 297.46854 300.28983Q297.0708 300.82016 296.97137 301.09637Q296.86087 301.36154 296.90506 301.6267Q296.96033 301.88083 297.15918 302.07968Q297.4575 302.378 297.87735 302.3559Q298.30823 302.32275 298.73914 301.89188Q299.17 301.46097 299.31366 300.94168Q299.46832 300.41135 299.29156 299.92523Q299.15897 299.54956 298.67285 299.06345L298.39664 298.78723ZM307.46747 294.13577L306.72723 294.87604L301.97635 290.12515Q301.95425 290.6555 301.77747 291.3626Q301.6007 292.0476 301.37973 292.51166L300.6616 291.7935Q300.982 290.87646 301.03723 290.00363Q301.09247 289.1087 300.8936 288.5121L301.36868 288.037L307.46747 294.13577ZM310.03073 291.5725L309.18 290.72177L310.03073 289.87106L310.88147 290.72177L310.03073 291.5725ZM314.1187 287.48456L312.6603 286.02615L310.03073 288.6557L309.34573 287.9707L308.18564 281.26422L308.7933 280.65656L312.7266 284.58984L313.5442 283.77225L314.2292 284.45728L313.4116 285.27484L314.87 286.73328L314.1187 287.48456ZM311.97528 285.34116L309.2463 282.61215L310.07492 287.2415L311.97528 285.34116ZM317.5769 284.02637L316.88083 284.7224L310.80414 278.64572L311.55545 277.89444L313.72095 280.05994Q313.61047 278.99927 314.33966 278.27008Q314.74847 277.86127 315.26776 277.67346Q315.78702 277.46353 316.31735 277.52982Q316.85873 277.58508 317.41116 277.87234Q317.9636 278.1596 318.4387 278.63467Q319.56564 279.76163 319.62088 280.94382Q319.67612 282.126 318.9027 282.8994Q318.1183 283.68387 317.02448 283.47394L317.5769 284.02637ZM315.33405 281.8056Q316.1185 282.59006 316.69302 282.72263Q317.6211 282.9436 318.2177 282.347Q318.70386 281.86084 318.63754 281.08746Q318.5823 280.303 317.73157 279.45227Q316.86978 278.59048 316.1185 278.5242Q315.3672 278.45792 314.88104 278.94403Q314.39493 279.43018 314.4612 280.22568Q314.5275 280.99905 315.33405 281.8056Z" fill-rule="nonzero"/><path fill="#000000" d="M319.64594 322.09964L313.56924 316.02295L315.86734 313.72485Q316.46396 313.12823 316.83963 312.86307Q317.36993 312.4874 317.87817 312.39902Q318.39746 312.2996 318.9499 312.49844Q319.51337 312.68628 319.96634 313.13928Q320.73975 313.91266 320.78394 314.95123Q320.82816 315.9677 319.53546 317.26038L317.97763 318.81824L320.45248 321.2931L319.64594 322.09964ZM317.2705 318.1111L318.83942 316.54224Q319.62384 315.75778 319.65698 315.15012Q319.69016 314.52036 319.15982 313.99002Q318.78415 313.61435 318.32013 313.54807Q317.85608 313.4597 317.45834 313.68066Q317.19318 313.83533 316.6518 314.3767L315.09393 315.93454L317.2705 318.1111ZM326.8717 318.25476L326.08725 317.64706Q326.3966 317.4703 326.58444 317.28247Q326.8275 317.0394 326.88275 316.8074Q326.96008 316.57538 326.9159 316.3323Q326.86066 316.14447 326.58444 315.5368Q326.54025 315.47052 326.47394 315.29373L320.3862 312.56476L321.19275 311.7582L324.65094 313.38235Q325.31384 313.6917 325.99887 314.08945Q325.61215 313.4376 325.3028 312.77466L323.67865 309.27228L324.4189 308.53204L327.22525 314.67502Q327.66718 315.6694 327.79977 316.08923Q327.97656 316.66376 327.8771 317.09467Q327.79977 317.52554 327.44623 317.8791Q327.2363 318.08902 326.8717 318.25476ZM329.71118 310.7086L330.4735 311.24997Q330.2194 311.63666 329.97635 311.87973Q329.56754 312.28854 329.22504 312.38797Q328.8715 312.47635 328.56213 312.36588Q328.26382 312.24435 327.58984 311.57037L325.05972 309.04025L324.51834 309.58163L323.94382 309.0071L324.4852 308.46573L323.3914 307.37192L323.68973 306.18973L325.22546 307.7255L325.97678 306.97418L326.5513 307.5487L325.8 308.30002L328.3743 310.87433Q328.6947 311.19473 328.81622 311.24997Q328.94882 311.29416 329.09244 311.26102Q329.23608 311.22787 329.40182 311.06213Q329.5344 310.92957 329.71118 310.7086ZM330.87128 310.87433L324.79456 304.7976L325.53482 304.05737L327.7114 306.23395Q327.63403 305.11804 328.42953 304.32254Q328.92673 303.82535 329.47916 303.6707Q330.0316 303.4939 330.52875 303.68173Q331.0149 303.8585 331.66675 304.51035L334.451 307.2946L333.71075 308.03485L330.9265 305.2506Q330.36304 304.68713 329.86584 304.6761Q329.36865 304.66504 328.92673 305.107Q328.59528 305.43845 328.47372 305.9135Q328.3522 306.36652 328.5179 306.7974Q328.68365 307.2062 329.20294 307.7255L331.6115 310.13406L330.87128 310.87433ZM330.6061 300.70966L329.74432 299.84787L330.4956 299.0966L331.3574 299.95837L330.6061 300.70966ZM335.821 305.92456L331.4237 301.52725L332.175 300.77594L336.57233 305.17328L335.821 305.92456ZM340.2736 300.38925Q340.20728 301.16266 339.9642 301.693Q339.7322 302.21225 339.29025 302.6542Q338.56107 303.38342 337.8208 303.41656Q337.08054 303.4497 336.5281 302.89728Q336.2077 302.57687 336.08618 302.16806Q335.95358 301.74823 336.042 301.35046Q336.11932 300.94168 336.3403 300.56604Q336.48392 300.28983 336.88168 299.7816Q337.67715 298.7872 337.95337 298.20163Q337.7987 298.04697 337.76556 298.01382Q337.3015 297.54977 336.90378 297.57187Q336.37344 297.61606 335.80997 298.17953Q335.29068 298.69882 335.2244 299.14078Q335.14706 299.57166 335.48956 300.15723L334.66092 300.787Q334.29633 300.2235 334.24106 299.70425Q334.18582 299.18497 334.46204 298.5994Q334.73825 298.01382 335.30173 297.45035Q335.8652 296.88687 336.35135 296.6659Q336.8375 296.44492 337.2021 296.47806Q337.56668 296.5112 337.94232 296.75427Q338.1633 296.90897 338.6605 297.40616L339.65485 298.4005Q340.69342 299.4391 341.01382 299.6711Q341.34528 299.89206 341.74304 300.00256L340.9586 300.787Q340.6161 300.66547 340.2736 300.38925ZM338.53897 298.7872Q338.2959 299.36172 337.61087 300.28983Q337.21313 300.82016 337.1137 301.09637Q337.0032 301.3615 337.0474 301.62668Q337.10263 301.8808 337.3015 302.07968Q337.59982 302.378 338.01968 302.3559Q338.45056 302.32275 338.88147 301.89185Q339.31235 301.46097 339.456 300.94168Q339.61066 300.41135 339.4339 299.9252Q339.3013 299.54956 338.81516 299.06342L338.53897 298.7872ZM348.00757 292.30173L348.7257 293.01987L344.70404 297.04153Q344.43887 296.77637 344.27316 296.43387Q344.01904 295.8704 343.95273 295.1412Q343.8975 294.40094 344.01904 293.24084Q344.1958 291.4289 344.06323 290.6113Q343.94168 289.78265 343.52185 289.3628Q343.0799 288.92087 342.46118 288.94296Q341.83142 288.954 341.32318 289.46225Q340.7818 290.00363 340.7818 290.64444Q340.7818 291.28525 341.34528 291.87082L340.50558 292.55585Q339.72116 291.6167 339.78745 290.66653Q339.85373 289.69427 340.72656 288.82144Q341.5994 287.9486 342.59378 287.92648Q343.58813 287.9044 344.3063 288.62256Q344.6709 288.98715 344.86978 289.4954Q345.06863 289.98154 345.11285 290.73282Q345.15704 291.46204 345.0355 292.9315Q344.92502 294.1689 344.93607 294.57773Q344.9471 294.96442 345.02444 295.28482L348.00757 292.30173ZM350.17307 291.5725L349.32233 290.72177L350.17307 289.87103L351.0238 290.72177L350.17307 291.5725ZM349.73114 285.42953Q349.0903 285.7168 348.54895 285.63943Q348.00757 285.54 347.57666 285.10913Q346.91376 284.4462 346.93585 283.51813Q346.969 282.579 347.75345 281.79456Q348.54895 280.99905 349.4991 280.97696Q350.44928 280.95486 351.1122 281.61777Q351.53204 282.03763 351.62042 282.56796Q351.70883 283.0983 351.43262 283.72806Q352.17285 283.34134 352.86893 283.4629Q353.56497 283.5844 354.12845 284.1479Q354.90186 284.9213 354.87976 286.00406Q354.8687 287.07574 353.9627 287.98175Q353.06778 288.87668 351.98505 288.89877Q350.90228 288.92087 350.10678 288.12537Q349.51016 287.52875 349.41074 286.8327Q349.32233 286.12558 349.73114 285.42953ZM348.30588 284.31363Q348.73676 284.7445 349.28918 284.7445Q349.85266 284.73346 350.29462 284.29153Q350.7255 283.86063 350.73654 283.31924Q350.73654 282.7668 350.3388 282.36908Q349.93 281.9603 349.36652 281.97134Q348.792 281.97134 348.37216 282.39117Q347.94125 282.82208 347.9302 283.38556Q347.9302 283.93796 348.30588 284.31363ZM350.8802 287.35196Q351.2006 287.6724 351.64252 287.82706Q352.09552 287.9707 352.55957 287.8381Q353.0236 287.70554 353.3661 287.363Q353.89642 286.8327 353.89642 286.14767Q353.90747 285.45163 353.37714 284.9213Q352.8358 284.3799 352.12866 284.3799Q351.42157 284.3799 350.8802 284.9213Q350.34985 285.45163 350.3609 286.14767Q350.3609 286.8327 350.8802 287.35196ZM357.71924 284.02637L357.02316 284.7224L350.94647 278.64572L351.69778 277.8944L353.86328 280.05994Q353.7528 278.99927 354.482 278.27008Q354.8908 277.86127 355.4101 277.67346Q355.92935 277.46353 356.4597 277.52982Q357.00107 277.58505 357.5535 277.8723Q358.10593 278.15958 358.58102 278.63467Q359.70798 279.76163 359.7632 280.94382Q359.81845 282.126 359.04504 282.8994Q358.26062 283.68387 357.1668 283.47394L357.71924 284.02637ZM355.47638 281.8056Q356.26083 282.59006 356.83536 282.72263Q357.76343 282.9436 358.36005 282.347Q358.8462 281.86084 358.77988 281.08743Q358.72464 280.303 357.8739 279.45227Q357.01212 278.59048 356.26083 278.5242Q355.50952 278.4579 355.02338 278.94403Q354.53726 279.43018 354.60355 280.22565Q354.66983 280.99905 355.47638 281.8056Z" fill-rule="nonzero"/><path fill="#000000" d="M359.78827 322.09964L353.71158 316.02292L356.00967 313.72482Q356.6063 313.1282 356.98193 312.86304Q357.51227 312.4874 358.0205 312.39902Q358.5398 312.29956 359.09222 312.49844Q359.6557 312.68628 360.10867 313.13925Q360.88208 313.91266 360.92627 314.95123Q360.97046 315.96768 359.6778 317.26038L358.11993 318.8182L360.59482 321.2931L359.78827 322.09964ZM357.41284 318.1111L358.98172 316.5422Q359.76617 315.75778 359.79932 315.1501Q359.83246 314.52032 359.30215 313.99Q358.92648 313.61435 358.46246 313.54807Q357.9984 313.4597 357.60068 313.68063Q357.3355 313.83533 356.79413 314.3767L355.23627 315.93454L357.41284 318.1111ZM367.01404 318.25473L366.22958 317.64706Q366.53894 317.4703 366.72678 317.28247Q366.96982 317.0394 367.0251 316.80737Q367.10242 316.57535 367.05823 316.3323Q367.003 316.14447 366.72678 315.5368Q366.68256 315.47052 366.61627 315.29373L360.52853 312.56473L361.33508 311.7582L364.79327 313.38232Q365.45618 313.69168 366.1412 314.08945Q365.7545 313.43756 365.44513 312.77466L363.82098 309.27228L364.56125 308.532L367.36758 314.67502Q367.8095 315.66937 367.9421 316.08923Q368.11887 316.66376 368.01944 317.09464Q367.9421 317.52554 367.58856 317.8791Q367.37863 318.08902 367.01404 318.25473ZM369.8535 310.7086L370.61584 311.24997Q370.36172 311.63666 370.11865 311.87973Q369.70987 312.2885 369.36737 312.38797Q369.01382 312.47635 368.70444 312.36588Q368.40613 312.24432 367.73218 311.57037L365.20206 309.04025L364.66068 309.58163L364.08615 309.0071L364.62753 308.46573L363.53372 307.37192L363.83203 306.18973L365.3678 307.72546L366.11908 306.97418L366.6936 307.5487L365.94232 308.3L368.51663 310.8743Q368.83704 311.19473 368.95856 311.24997Q369.09116 311.29416 369.23477 311.26102Q369.37842 311.22787 369.54413 311.06213Q369.67673 310.92957 369.8535 310.7086ZM371.0136 310.8743L364.9369 304.7976L365.67715 304.05737L367.8537 306.23392Q367.77637 305.118 368.57187 304.32254Q369.06906 303.82535 369.6215 303.67065Q370.17392 303.4939 370.67108 303.6817Q371.15723 303.8585 371.80908 304.51035L374.59332 307.2946L373.85306 308.03485L371.06885 305.2506Q370.50537 304.68713 370.00818 304.6761Q369.511 304.66504 369.06906 305.10696Q368.7376 305.43842 368.61606 305.9135Q368.49454 306.36652 368.66025 306.7974Q368.826 307.2062 369.34528 307.72546L371.75385 310.13406L371.0136 310.8743ZM370.74844 300.70966L369.88666 299.84787L370.63794 299.09656L371.49973 299.95834L370.74844 300.70966ZM375.96335 305.92456L371.566 301.52725L372.31732 300.77594L376.71466 305.17328L375.96335 305.92456ZM380.4159 300.38925Q380.3496 301.16263 380.10654 301.69296Q379.87454 302.21225 379.4326 302.6542Q378.70337 303.3834 377.96313 303.41653Q377.22287 303.44968 376.67044 302.89728Q376.35004 302.57684 376.22852 302.16806Q376.09592 301.74823 376.18433 301.35046Q376.26166 300.94168 376.48264 300.566Q376.62625 300.2898 377.02402 299.7816Q377.8195 298.7872 378.0957 298.20163Q377.94104 298.04697 377.9079 298.0138Q377.44385 297.54977 377.0461 297.57187Q376.51578 297.61606 375.9523 298.17953Q375.433 298.69882 375.36673 299.14075Q375.2894 299.57166 375.6319 300.15723L374.80325 300.787Q374.43866 300.2235 374.3834 299.70422Q374.32816 299.18497 374.60437 298.5994Q374.88058 298.0138 375.44406 297.45032Q376.00754 296.88687 376.49368 296.6659Q376.9798 296.44492 377.34442 296.47806Q377.709 296.5112 378.08466 296.75427Q378.30563 296.90897 378.80283 297.40613L379.79718 298.4005Q380.83575 299.43906 381.15616 299.67108Q381.4876 299.89206 381.88538 300.00253L381.10092 300.787Q380.75842 300.66547 380.4159 300.38925ZM378.68127 298.7872Q378.43823 299.36172 377.7532 300.2898Q377.35547 300.82013 377.256 301.09634Q377.14554 301.3615 377.18973 301.62668Q377.24496 301.8808 377.44385 302.07968Q377.74216 302.378 378.16202 302.3559Q378.5929 302.32275 379.0238 301.89185Q379.45468 301.46097 379.59833 300.94168Q379.753 300.41135 379.57623 299.9252Q379.44363 299.54956 378.9575 299.06342L378.68127 298.7872ZM384.22766 288.48996L383.54263 289.28546Q383.00128 288.94296 382.6256 288.92087Q381.99585 288.90982 381.5539 289.35175Q381.20035 289.7053 381.12302 290.1804Q381.0457 290.78806 381.33295 291.49518Q381.6202 292.18018 382.51514 293.0972Q382.3715 292.42325 382.55933 291.83768Q382.7582 291.24106 383.1891 290.81015Q383.92935 290.06992 385.00107 290.10306Q386.0838 290.12515 386.9456 290.98694Q387.5201 291.56146 387.76318 292.31277Q388.00626 293.04196 387.8405 293.738Q387.66376 294.42303 387.12238 294.96442Q386.18326 295.90353 384.91266 295.8041Q383.6421 295.70465 382.07318 294.13577Q380.30542 292.368 380.1618 290.92065Q380.0292 289.6611 380.99042 288.6999Q381.7086 287.98172 382.57037 287.93753Q383.43216 287.87125 384.22766 288.48996ZM383.8078 294.14682Q384.19452 294.5335 384.70273 294.7324Q385.21097 294.90918 385.68607 294.80972Q386.1722 294.69925 386.50366 294.3678Q386.96768 293.90375 386.93454 293.1856Q386.89035 292.4564 386.2385 291.80453Q385.60873 291.17477 384.9016 291.15265Q384.20557 291.1195 383.69733 291.62775Q383.1891 292.136 383.20013 292.85413Q383.22223 293.56125 383.8078 294.14682ZM390.3154 291.5725L389.46466 290.72177L390.3154 289.87103L391.16614 290.72177L390.3154 291.5725ZM390.7242 288.3574L391.37607 287.57294Q391.9727 287.99277 392.45883 287.97067Q392.94495 287.92648 393.3427 287.52875Q393.6852 287.18625 393.78464 286.77744Q393.8841 286.34656 393.7957 285.9267Q393.69626 285.49582 393.3648 284.9434Q393.0223 284.3799 392.55826 283.91586Q392.50302 283.86063 392.40356 283.7612Q392.53616 284.33572 392.38147 284.95444Q392.21576 285.5621 391.76276 286.01508Q391.00043 286.77744 389.93976 286.75534Q388.86804 286.7222 387.9731 285.82727Q387.04504 284.8992 387.02295 283.79434Q387.0119 282.67844 387.82947 281.86084Q388.41504 281.27527 389.2216 281.10953Q390.03918 280.93277 390.88992 281.27527Q391.7296 281.60672 392.84552 282.72263Q394.0056 283.88272 394.44757 284.8329Q394.8895 285.761 394.74588 286.63382Q394.60223 287.48456 393.93933 288.14746Q393.22116 288.8656 392.38147 288.93192Q391.53073 288.98715 390.7242 288.3574ZM391.0888 282.6232Q390.448 281.98236 389.72983 281.94922Q389.02274 281.90503 388.5366 282.39117Q388.0394 282.88837 388.07254 283.6728Q388.10568 284.43515 388.75757 285.087Q389.3321 285.66153 390.05023 285.67258Q390.7684 285.68362 391.2766 285.1754Q391.7959 284.65613 391.76276 283.96005Q391.7296 283.264 391.0888 282.6232ZM397.86157 284.02637L397.1655 284.7224L391.0888 278.64572L391.8401 277.8944L394.0056 280.05994Q393.89514 278.99927 394.62433 278.27005Q395.03314 277.86127 395.5524 277.67343Q396.0717 277.46353 396.60202 277.52982Q397.1434 277.58505 397.69583 277.8723Q398.24826 278.15958 398.72336 278.63467Q399.85028 279.76163 399.90555 280.94382Q399.9608 282.126 399.18738 282.8994Q398.40292 283.68384 397.30914 283.47394L397.86157 284.02637ZM395.6187 281.8056Q396.40314 282.59003 396.97766 282.72263Q397.90576 282.9436 398.50238 282.347Q398.9885 281.86084 398.9222 281.08743Q398.86697 280.30298 398.01624 279.45224Q397.15445 278.59045 396.40314 278.52417Q395.65186 278.4579 395.1657 278.94403Q394.67957 279.43015 394.74588 280.22565Q394.81216 280.99905 395.6187 281.8056Z" fill-rule="nonzero"/><path fill="#000000" d="M402.0519 319.97833L395.97522 313.90164L398.27332 311.60352Q398.86993 311.0069 399.24557 310.74173Q399.7759 310.3661 400.28415 310.2777Q400.8034 310.17825 401.35583 310.37714Q401.9193 310.56497 402.3723 311.01794Q403.14572 311.79135 403.1899 312.82993Q403.2341 313.84637 401.9414 315.13907L400.38358 316.6969L402.85846 319.17178L402.0519 319.97833ZM399.67648 315.9898L401.24536 314.4209Q402.02982 313.63647 402.06296 313.02878Q402.0961 312.39902 401.56577 311.86868Q401.19012 311.49304 400.72607 311.42676Q400.26205 311.33838 399.8643 311.55933Q399.59912 311.71402 399.05774 312.2554L397.4999 313.81323L399.67648 315.9898ZM409.27765 316.13342L408.4932 315.52576Q408.80255 315.349 408.9904 315.16116Q409.23346 314.9181 409.2887 314.68607Q409.36603 314.45404 409.32184 314.211Q409.2666 314.02316 408.9904 313.4155Q408.9462 313.3492 408.8799 313.17242L402.79214 310.44342L403.5987 309.6369L407.0569 311.26102Q407.71982 311.57037 408.40482 311.96814Q408.01813 311.31625 407.70877 310.65335L406.08463 307.15097L406.8249 306.4107L409.6312 312.5537Q410.07315 313.54807 410.20572 313.96793Q410.3825 314.54245 410.28308 314.97333Q410.20572 315.40424 409.85217 315.75778Q409.64224 315.9677 409.27765 316.13342ZM412.11713 308.58728L412.8795 309.12866Q412.62537 309.51535 412.3823 309.75842Q411.9735 310.1672 411.63098 310.26666Q411.27744 310.35504 410.96808 310.24457Q410.66977 310.12302 409.99582 309.44907L407.4657 306.91895L406.92432 307.46033L406.3498 306.8858L406.89117 306.34442L405.79736 305.2506L406.09567 304.06842L407.6314 305.60416L408.38272 304.85287L408.95724 305.4274L408.20593 306.17868L410.78024 308.753Q411.10068 309.07343 411.2222 309.12866Q411.35477 309.17285 411.4984 309.1397Q411.64203 309.10657 411.80777 308.94083Q411.94034 308.80826 412.11713 308.58728ZM413.27722 308.753L407.20053 302.6763L407.94077 301.93607L410.11734 304.1126Q410.04 302.9967 410.8355 302.20123Q411.33267 301.70404 411.8851 301.54935Q412.43753 301.3726 412.93472 301.5604Q413.42087 301.73718 414.07272 302.38904L416.85696 305.17328L416.1167 305.91354L413.33246 303.1293Q412.76898 302.56583 412.27182 302.55478Q411.77463 302.54373 411.33267 302.98566Q411.00122 303.3171 410.8797 303.7922Q410.75815 304.2452 410.9239 304.6761Q411.08963 305.0849 411.6089 305.60416L414.0175 308.01276L413.27722 308.753ZM413.01205 298.58835L412.15027 297.72656L412.90158 296.97525L413.76337 297.83704L413.01205 298.58835ZM418.22696 303.80325L413.82965 299.40594L414.58096 298.65463L418.97827 303.05197L418.22696 303.80325ZM422.67953 298.26794Q422.61325 299.04132 422.37018 299.57166Q422.13815 300.09094 421.69623 300.5329Q420.967 301.2621 420.22675 301.29523Q419.4865 301.32837 418.93408 300.77597Q418.61368 300.45554 418.49213 300.04675Q418.35956 299.62692 418.44794 299.22916Q418.5253 298.82037 418.74625 298.4447Q418.8899 298.1685 419.28763 297.66028Q420.08313 296.6659 420.35934 296.08032Q420.20465 295.92566 420.1715 295.8925Q419.7075 295.42847 419.30972 295.45056Q418.7794 295.49475 418.2159 296.05823Q417.69666 296.5775 417.63034 297.01944Q417.553 297.45035 417.8955 298.03592L417.06686 298.66568Q416.70227 298.1022 416.64703 297.58292Q416.5918 297.06366 416.868 296.4781Q417.14423 295.8925 417.7077 295.329Q418.27118 294.76556 418.7573 294.5446Q419.24344 294.3236 419.60803 294.35675Q419.97266 294.3899 420.3483 294.63297Q420.56927 294.78766 421.06644 295.28482L422.06082 296.2792Q423.0994 297.31775 423.4198 297.54977Q423.75125 297.77075 424.149 297.88123L423.36453 298.66568Q423.02203 298.54416 422.67953 298.26794ZM420.94492 296.6659Q420.70184 297.24042 420.01685 298.1685Q419.61908 298.69882 419.51965 298.97504Q419.40918 299.2402 419.45337 299.50537Q419.5086 299.7595 419.7075 299.95837Q420.0058 300.25668 420.42563 300.2346Q420.85654 300.20145 421.2874 299.77054Q421.71832 299.33966 421.86194 298.82037Q422.01663 298.29004 421.83984 297.8039Q421.70728 297.42825 421.22113 296.9421L420.94492 296.6659ZM430.01578 292.01447L429.2755 292.7547L424.52466 288.00385Q424.50253 288.53418 424.32578 289.24127Q424.149 289.9263 423.928 290.39032L423.20987 289.67218Q423.53027 288.75513 423.5855 287.8823Q423.64075 286.98737 423.4419 286.39075L423.91696 285.91568L430.01578 292.01447ZM435.36325 285.23065L436.08142 285.94882L432.05975 289.9705Q431.7946 289.70532 431.62885 289.36282Q431.37476 288.79935 431.30844 288.07013Q431.2532 287.32986 431.37476 286.16977Q431.5515 284.35782 431.41895 283.54022Q431.2974 282.71158 430.87756 282.29175Q430.4356 281.8498 429.8169 281.8719Q429.18713 281.88293 428.6789 282.39117Q428.1375 282.93256 428.1375 283.57336Q428.1375 284.2142 428.701 284.79977L427.8613 285.48477Q427.07684 284.54565 427.14316 283.59546Q427.20944 282.6232 428.08228 281.75037Q428.9551 280.87753 429.9495 280.85544Q430.94385 280.83334 431.66202 281.55148Q432.0266 281.9161 432.22546 282.42432Q432.42435 282.91046 432.46854 283.66177Q432.51273 284.39096 432.3912 285.8604Q432.28073 287.09787 432.29178 287.50665Q432.30283 287.89334 432.38016 288.21378L435.36325 285.23065ZM438.00388 284.02637L437.3078 284.7224L431.2311 278.64572L431.98242 277.8944L434.14792 280.05994Q434.03745 278.99927 434.76663 278.27008Q435.17545 277.86127 435.69473 277.67346Q436.214 277.46353 436.74432 277.52982Q437.2857 277.58505 437.83813 277.8723Q438.39056 278.15958 438.86566 278.63467Q439.9926 279.76163 440.04785 280.94382Q440.1031 282.126 439.32968 282.8994Q438.54526 283.68387 437.45145 283.47394L438.00388 284.02637ZM435.76102 281.8056Q436.54547 282.59006 437.12 282.72263Q438.04807 282.9436 438.64468 282.347Q439.13083 281.86084 439.0645 281.08746Q439.00928 280.303 438.15854 279.45227Q437.29675 278.59048 436.54547 278.5242Q435.79416 278.4579 435.308 278.94403Q434.8219 279.43018 434.88818 280.22568Q434.95447 280.99905 435.76102 281.8056Z" fill-rule="nonzero"/><path fill="#000000" d="M420.69376 340.17505Q421.64395 339.9983 422.28476 339.71103L422.6162 340.5065Q421.72128 340.9153 420.5612 341.05893Q420.26288 342.10855 419.44528 342.92615Q418.61664 343.7548 417.54492 344.031Q416.48428 344.29617 415.40152 343.9426Q414.31876 343.58905 413.41278 342.68307Q412.51785 341.78815 412.1422 340.6833Q411.76654 339.57843 412.0538 338.51776Q412.34106 337.45712 413.1697 336.62848Q414.0094 335.7888 415.09216 335.52362Q416.17493 335.23636 417.2466 335.60095Q418.31833 335.96555 419.2243 336.87155Q419.97562 337.62283 420.3402 338.45148Q420.71588 339.26907 420.69376 340.17505ZM417.8985 340.9153Q418.79343 340.41812 419.63312 340.35184Q419.68835 338.99286 418.39566 337.7002Q417.65543 336.95993 416.84888 336.66162Q416.04233 336.3633 415.25787 336.55115Q414.47345 336.71686 413.87683 337.31348Q412.97083 338.21945 412.99295 339.4348Q413.01505 340.62805 414.24142 341.85443Q415.4236 343.03662 416.65 343.09186Q417.86536 343.13608 418.78238 342.21902Q419.21326 341.78815 419.4232 341.24677Q418.80447 341.37933 418.2852 341.69977L417.8985 340.9153ZM423.8205 338.35205L418.07526 335.30264L418.84866 334.52924L422.08588 336.37436L423.2902 337.0483Q423.24597 336.95993 422.6162 335.9103L420.73798 332.63995L421.5003 331.8776L424.71545 333.7669L425.7761 334.38562L425.17947 333.28076L423.38962 329.9883L424.1188 329.2591L427.13507 335.03748L426.36166 335.81088L423.02502 333.86633L422.10797 333.30286L424.60495 337.5676L423.8205 338.35205ZM430.9689 328.3752L431.8307 327.6902Q432.32788 328.54092 432.20636 329.4138Q432.0848 330.28662 431.32248 331.04895Q430.36124 332.0102 429.1901 331.9881Q428.03 331.95493 426.95828 330.88324Q425.85345 329.77838 425.82028 328.5962Q425.7761 327.40292 426.68207 326.49695Q427.56598 325.61307 428.71503 325.65726Q429.87512 325.6904 430.9689 326.7842Q431.03522 326.85052 431.1678 326.9831L427.88638 330.26453Q428.65976 330.94952 429.41107 330.97162Q430.15134 330.98267 430.70377 330.43024Q431.11255 330.02145 431.18988 329.52426Q431.26724 329.00497 430.9689 328.3752ZM427.3229 329.61264L429.77567 327.15988Q429.168 326.6406 428.65976 326.5964Q427.8643 326.5301 427.3008 327.09357Q426.78152 327.61285 426.77048 328.30893Q426.77048 328.99393 427.3229 329.61264ZM434.32767 327.84488L429.93036 323.44757L430.59326 322.78464L431.21198 323.40335Q430.97998 322.19907 431.897 321.28204Q432.29474 320.8843 432.76984 320.69647Q433.25595 320.4976 433.65372 320.5639Q434.05145 320.6302 434.42712 320.87326Q434.67017 321.05002 435.18945 321.5693L437.89636 324.2762L437.1561 325.01645L434.48236 322.3427Q434.0183 321.87866 433.70895 321.7461Q433.3996 321.6135 433.04605 321.7019Q432.68143 321.77924 432.38312 322.07755Q431.90805 322.55264 431.86386 323.21555Q431.81964 323.85635 432.65933 324.69604L435.06793 327.1046L434.32767 327.84488ZM443.69684 314.21097L444.70227 313.6254Q445.43146 314.86285 445.2989 316.034Q445.1663 317.20514 444.21613 318.1553Q443.2328 319.13864 442.21634 319.3596Q441.19986 319.58057 440.12817 319.1497Q439.0454 318.70773 438.17258 317.8349Q437.22238 316.88474 436.87988 315.81302Q436.53738 314.7413 436.8357 313.7138Q437.14505 312.67523 437.9516 311.86868Q438.85757 310.9627 439.94034 310.808Q441.03415 310.6423 442.11688 311.23892L441.50922 312.22223Q440.63638 311.76926 439.9293 311.87973Q439.22217 311.9681 438.6145 312.5758Q437.91846 313.27185 437.78586 314.08945Q437.6533 314.88495 438.01788 315.64728Q438.39352 316.3986 439.00122 317.00626Q439.7746 317.77966 440.5701 318.1332Q441.37665 318.4757 442.139 318.2879Q442.90134 318.10007 443.4648 317.5366Q444.1388 316.86264 444.21613 316.0119Q444.3045 315.15012 443.69684 314.21097ZM445.28784 312.4874Q444.06143 311.26102 444.14984 310.0015Q444.22717 308.95187 445.04477 308.13428Q445.95074 307.2283 447.1219 307.2504Q448.29303 307.2504 449.34265 308.30002Q450.1934 309.15076 450.4254 309.891Q450.6574 310.63126 450.43646 311.40463Q450.21548 312.15594 449.64096 312.73047Q448.72394 313.6475 447.56384 313.63644Q446.40372 313.6033 445.28784 312.4874ZM446.05017 311.72507Q446.88986 312.56476 447.67432 312.62Q448.46982 312.66418 449.02225 312.11176Q449.58572 311.54828 449.53046 310.76382Q449.47522 309.97937 448.61343 309.11758Q447.79584 308.30002 447.00037 308.2558Q446.2159 308.20056 445.66348 308.753Q445.11105 309.30542 445.15524 310.10092Q445.19943 310.87433 446.05017 311.72507ZM455.563 306.6096L455.01056 306.05716Q455.24255 307.12888 454.43604 307.9354Q453.9057 308.46573 453.17648 308.62042Q452.43625 308.76404 451.6739 308.48782Q450.91153 308.2116 450.23758 307.53766Q449.58572 306.8858 449.26532 306.12344Q448.9449 305.36108 449.11063 304.64294Q449.26532 303.91373 449.80667 303.37234Q450.20444 302.9746 450.6795 302.83096Q451.1546 302.68735 451.61865 302.75363L449.44208 300.5771L450.18234 299.83682L456.25903 305.9135L455.563 306.6096ZM451.011 306.76425Q451.86172 307.615 452.6351 307.68127Q453.39746 307.73654 453.8836 307.2504Q454.36972 306.76425 454.31448 306.02402Q454.25925 305.28375 453.44165 304.46616Q452.53568 303.56018 451.76227 303.4939Q450.99994 303.41656 450.4917 303.92477Q449.9945 304.42197 450.07184 305.16223Q450.13815 305.89142 451.011 306.76425ZM459.25317 300.09094L460.11496 299.4059Q460.61215 300.25665 460.49063 301.12952Q460.36908 302.00235 459.60675 302.76468Q458.6455 303.72592 457.47437 303.70383Q456.31427 303.67065 455.24255 302.59897Q454.13773 301.4941 454.10455 300.31192Q454.06036 299.11865 454.96634 298.21268Q455.85025 297.3288 456.9993 297.373Q458.1594 297.40613 459.25317 298.49994Q459.3195 298.56625 459.45206 298.69882L456.17065 301.98026Q456.94403 302.66525 457.69534 302.68735Q458.4356 302.6984 458.98804 302.14597Q459.39682 301.73718 459.47415 301.24Q459.5515 300.7207 459.25317 300.09094ZM455.60718 301.32837L458.05994 298.8756Q457.45227 298.35632 456.94403 298.31213Q456.14856 298.24582 455.58508 298.8093Q455.0658 299.32858 455.05475 300.02466Q455.05475 300.70966 455.60718 301.32837ZM462.6009 299.57166L458.20358 295.17435L458.87753 294.50037L459.54044 295.1633Q459.33054 294.44513 459.39682 294.09158Q459.4631 293.71594 459.72827 293.45078Q460.1039 293.0751 460.72266 292.92044L461.16458 293.8706Q460.72266 293.9811 460.4575 294.24625Q460.20337 294.50037 460.15918 294.85394Q460.11496 295.1854 460.3028 295.5279Q460.56796 296.05823 461.032 296.52225L463.34116 298.8314L462.6009 299.57166ZM465.74973 293.21875L466.40158 292.368Q467.1529 292.87625 467.7495 292.85416Q468.33508 292.82098 468.77704 292.37906Q469.30737 291.84872 469.30737 291.1195Q469.30737 290.39032 468.766 289.84894Q468.25775 289.3407 467.5838 289.35175Q466.90982 289.3407 466.39053 289.86Q466.18063 290.06992 465.9486 290.4787L465.37408 289.72742Q465.46246 289.6611 465.50665 289.6169Q465.98175 289.14185 466.11432 288.5231Q466.24692 287.8823 465.72763 287.363Q465.31885 286.95422 464.77747 286.96527Q464.22504 286.96527 463.78308 287.4072Q463.3522 287.8381 463.3301 288.41263Q463.31906 288.9761 463.78308 289.59482L462.8992 290.21353Q462.29153 289.3407 462.36887 288.44577Q462.43518 287.5398 463.15332 286.82162Q463.6505 286.32446 464.29132 286.12558Q464.92108 285.91565 465.50665 286.0593Q466.09222 286.2029 466.5121 286.62277Q466.89877 287.00946 467.02032 287.55084Q467.1308 288.08118 466.90982 288.6778Q467.5617 288.269 468.25775 288.36844Q468.94275 288.45682 469.53937 289.05344Q470.33487 289.84894 470.30173 290.98694Q470.27963 292.1139 469.39575 292.99777Q468.60025 293.79327 467.59485 293.8485Q466.57837 293.8927 465.74973 293.21875ZM475.50558 285.23065L476.22375 285.9488L472.2021 289.97046Q471.93692 289.70532 471.77118 289.3628Q471.51706 288.79932 471.45078 288.07013Q471.39554 287.32986 471.51706 286.16977Q471.69385 284.35782 471.56128 283.54022Q471.43973 282.71158 471.0199 282.29175Q470.57794 281.8498 469.95923 281.8719Q469.32947 281.88293 468.82123 282.39117Q468.27985 282.93256 468.27985 283.57336Q468.27985 284.21417 468.84332 284.79974L468.00363 285.48477Q467.21918 284.54562 467.2855 283.59546Q467.35178 282.6232 468.2246 281.75037Q469.09744 280.87753 470.0918 280.85544Q471.08618 280.8333 471.80432 281.55148Q472.16895 281.91608 472.3678 282.42432Q472.56668 282.91046 472.61087 283.66174Q472.65506 284.39096 472.53354 285.8604Q472.42307 287.09784 472.4341 287.50665Q472.44516 287.89334 472.5225 288.21375L475.50558 285.23065ZM478.1462 284.02637L477.45013 284.7224L471.37344 278.64572L472.12476 277.8944L474.29025 280.05994Q474.17978 278.99927 474.90897 278.27008Q475.31778 277.86127 475.83707 277.67343Q476.35632 277.46353 476.88666 277.52982Q477.42804 277.58505 477.98047 277.8723Q478.5329 278.15958 479.008 278.63467Q480.13495 279.76163 480.1902 280.94382Q480.24542 282.126 479.47202 282.8994Q478.68756 283.68384 477.59378 283.47394L478.1462 284.02637ZM475.90335 281.8056Q476.68777 282.59006 477.2623 282.72263Q478.1904 282.9436 478.78702 282.347Q479.27316 281.86084 479.20685 281.08743Q479.1516 280.303 478.30087 279.45227Q477.4391 278.59048 476.68777 278.52417Q475.9365 278.4579 475.45035 278.94403Q474.9642 279.43018 475.03052 280.22565Q475.0968 280.99905 475.90335 281.8056Z" fill-rule="nonzero"/><path fill="#000000" d="M475.93945 326.37543L469.86273 320.29874L470.66928 319.4922L476.02783 324.85074L479.02197 321.8566L479.74014 322.57474L475.93945 326.37543ZM480.81186 321.50302L474.73514 315.42633L475.48645 314.67502L481.56314 320.75174L480.81186 321.50302ZM485.2865 315.94562Q485.2202 316.71902 484.97714 317.24933Q484.74512 317.76862 484.3032 318.21057Q483.57397 318.93976 482.83374 318.9729Q482.09348 319.00607 481.54105 318.45364Q481.22064 318.1332 481.09912 317.72443Q480.96652 317.3046 481.0549 316.90683Q481.13226 316.49805 481.3532 316.12238Q481.49686 315.84616 481.8946 315.33795Q482.6901 314.34357 482.9663 313.758Q482.81165 313.60333 482.77847 313.57016Q482.31445 313.10614 481.9167 313.12823Q481.38638 313.17242 480.8229 313.7359Q480.30362 314.2552 480.23734 314.6971Q480.15997 315.12802 480.5025 315.7136L479.67386 316.34335Q479.30923 315.77988 479.254 315.2606Q479.19876 314.74133 479.47498 314.15576Q479.7512 313.57016 480.31467 313.0067Q480.87814 312.44324 481.3643 312.22226Q481.8504 312.00128 482.21503 312.03442Q482.57962 312.06757 482.95526 312.31064Q483.17624 312.46533 483.67343 312.9625L484.6678 313.95688Q485.70636 314.99542 486.02676 315.22745Q486.35822 315.44843 486.75595 315.5589L485.97153 316.34335Q485.629 316.22183 485.2865 315.94562ZM483.55188 314.34357Q483.3088 314.9181 482.6238 315.84616Q482.22607 316.3765 482.12662 316.6527Q482.01614 316.91788 482.06033 317.18304Q482.11557 317.43716 482.31445 317.63605Q482.61276 317.93436 483.0326 317.91226Q483.4635 317.87912 483.89438 317.4482Q484.3253 317.01733 484.4689 316.49805Q484.6236 315.9677 484.4468 315.48157Q484.31424 315.10593 483.8281 314.61978L483.55188 314.34357ZM487.905 314.40985L483.5077 310.01254L484.1706 309.34964L484.78934 309.96835Q484.6678 309.42697 484.82248 308.89664Q484.9661 308.35526 485.40805 307.91333Q485.89417 307.4272 486.4024 307.3167Q486.9217 307.19516 487.40784 307.43823Q487.1758 306.14557 488.00446 305.31693Q488.66736 304.654 489.37448 304.6761Q490.08157 304.6761 490.84393 305.43845L493.86017 308.4547L493.11993 309.19495L490.34674 306.42175Q489.9048 305.97983 489.62857 305.8583Q489.36343 305.7257 489.05405 305.792Q488.7447 305.8583 488.47952 306.12344Q488.0155 306.5875 488.0155 307.2062Q488.02655 307.81387 488.71155 308.4989L491.26376 311.05112L490.51248 311.8024L487.6509 308.94083Q487.15372 308.44366 486.7228 308.3884Q486.29193 308.31107 485.88312 308.71988Q485.5627 309.04028 485.4633 309.47116Q485.36386 309.90207 485.5627 310.344Q485.7616 310.78595 486.35822 311.38257L488.64526 313.66962L487.905 314.40985ZM498.0144 303.2177Q497.94812 303.99112 497.70505 304.52145Q497.47305 305.0407 497.0311 305.48264Q496.3019 306.21185 495.56165 306.245Q494.8214 306.27814 494.26898 305.7257Q493.94858 305.4053 493.82703 304.9965Q493.69446 304.57666 493.78284 304.17892Q493.86017 303.7701 494.08115 303.39447Q494.2248 303.11826 494.62253 302.61002Q495.418 301.61566 495.6942 301.0301Q495.53952 300.87543 495.50638 300.8423Q495.04236 300.37823 494.6446 300.40033Q494.11426 300.44452 493.55078 301.008Q493.03152 301.52725 492.96524 301.9692Q492.8879 302.4001 493.2304 302.98566L492.40176 303.61545Q492.03717 303.05197 491.98193 302.53268Q491.9267 302.0134 492.20288 301.42783Q492.4791 300.84225 493.04257 300.2788Q493.60605 299.71533 494.09216 299.49435Q494.5783 299.27338 494.9429 299.30652Q495.30753 299.33966 495.68317 299.58273Q495.90414 299.73743 496.4013 300.23462L497.3957 301.22897Q498.43427 302.26755 498.75467 302.49954Q499.08612 302.72052 499.48386 302.83102L498.6994 303.61545Q498.3569 303.49393 498.0144 303.2177ZM496.2798 301.61566Q496.0367 302.1902 495.3517 303.11826Q494.95398 303.6486 494.85455 303.9248Q494.74405 304.18997 494.78827 304.45514Q494.8435 304.70923 495.04236 304.9081Q495.34067 305.20642 495.76053 305.18433Q496.1914 305.15118 496.6223 304.7203Q497.0532 304.28943 497.1968 303.77014Q497.3515 303.2398 497.1747 302.75366Q497.04214 302.37802 496.556 301.89188L496.2798 301.61566ZM504.9308 297.3841L503.47238 295.92566L500.84283 298.55524L500.15784 297.8702L498.99774 291.16376L499.6054 290.5561L503.53867 294.48935L504.35626 293.67178L505.0413 294.35678L504.2237 295.17438L505.6821 296.63278L504.9308 297.3841ZM502.78738 295.24066L500.05838 292.51166L500.88702 297.14102L502.78738 295.24066ZM504.4999 291.82666Q503.41714 290.7439 502.98627 289.87106Q502.5443 288.98718 502.62164 288.20273Q502.71005 287.40726 503.37296 286.74432Q503.8591 286.2582 504.42258 286.09247Q504.9971 285.91568 505.6158 286.04828Q506.22348 286.1698 506.88638 286.56757Q507.5493 286.9653 508.4553 287.87128Q509.52698 288.943 509.9579 289.81583Q510.3998 290.6776 510.32248 291.48416Q510.24515 292.26862 509.5712 292.94257Q508.69833 293.8154 507.56036 293.69388Q506.21243 293.53918 504.4999 291.82666ZM505.26224 291.0643Q506.7538 292.55588 507.60455 292.6995Q508.4553 292.84314 508.9635 292.3349Q509.4828 291.8156 509.32812 290.97592Q509.18448 290.12518 507.69293 288.63364Q506.19034 287.13104 505.35065 286.99844Q504.51096 286.84378 503.98062 287.3741Q503.47238 287.88232 503.59393 288.6226Q503.75964 289.5617 505.26224 291.0643ZM510.8528 288.2801L511.57098 287.42935Q512.2339 287.91547 512.8305 287.89337Q513.4382 287.86023 513.8912 287.40726Q514.4215 286.87692 514.38837 286.09247Q514.3552 285.308 513.69226 284.6451Q513.05145 284.0043 512.32227 284.0043Q511.59308 283.9822 511.0075 284.56778Q510.65393 284.92133 510.52136 285.38538Q510.3998 285.83835 510.48822 286.2582L509.70377 286.86588L507.17365 283.1646L510.20096 280.1373L510.90805 280.84442L508.4774 283.2751L509.79214 285.23068Q509.94684 284.3026 510.54346 283.706Q511.33896 282.9105 512.43274 282.92154Q513.5376 282.92154 514.41046 283.79437Q515.228 284.61197 515.3606 285.69473Q515.5043 287.0095 514.49884 288.01492Q513.67017 288.84357 512.67584 288.90985Q511.6925 288.9651 510.8528 288.2801ZM518.2885 284.0264L517.5924 284.72244L511.51572 278.64575L512.267 277.89444L514.43256 280.05997Q514.3221 278.9993 515.0513 278.2701Q515.4601 277.8613 515.9793 277.6735Q516.4986 277.46356 517.02893 277.52985Q517.5703 277.58508 518.12274 277.87234Q518.6752 278.1596 519.15027 278.6347Q520.2772 279.76166 520.33246 280.94385Q520.3877 282.12604 519.6143 282.89944Q518.82983 283.6839 517.7361 283.47397L518.2885 284.0264ZM516.04565 281.80563Q516.8301 282.5901 517.4046 282.72266Q518.3327 282.94363 518.9293 282.34702Q519.41547 281.86087 519.3491 281.0875Q519.2939 280.30304 518.4432 279.4523Q517.58136 278.5905 516.8301 278.52423Q516.0788 278.45792 515.59265 278.94406Q515.1065 279.4302 515.1728 280.22568Q515.2391 280.99908 516.04565 281.80563Z" fill-rule="nonzero"/><path fill="#000000" d="M487.83066 354.62656L481.75394 348.54987L483.85318 346.45062Q484.56027 345.74353 485.02432 345.45627Q485.66513 345.0585 486.33908 345.00327Q487.234 344.92593 488.10687 345.33472Q488.9797 345.72144 489.78622 346.52798Q490.4823 347.22403 490.8469 347.92007Q491.22253 348.6051 491.322 349.21277Q491.42142 349.82043 491.31094 350.32867Q491.2115 350.82587 490.90213 351.35617Q490.58173 351.87546 490.0293 352.4279L487.83066 354.62656ZM487.91904 353.10187L489.2117 351.80917Q489.8194 351.2015 490.0514 350.7485Q490.28342 350.29553 490.27237 349.88672Q490.28342 349.32324 489.95197 348.68243Q489.63156 348.03058 488.94653 347.34555Q487.99637 346.3954 487.16772 346.20755Q486.33908 345.99765 485.72037 346.26282Q485.2674 346.47272 484.56027 347.17984L483.27866 348.46146L487.91904 353.10187ZM495.6972 343.93155L496.559 343.24655Q497.05618 344.0973 496.93463 344.97012Q496.8131 345.84296 496.05075 346.60532Q495.08954 347.56653 493.9184 347.54443Q492.7583 347.5113 491.68658 346.43958Q490.58173 345.33472 490.54858 344.15253Q490.5044 342.9593 491.41037 342.0533Q492.29425 341.16943 493.4433 341.21362Q494.6034 341.24677 495.6972 342.34058Q495.7635 342.40686 495.8961 342.53946L492.61465 345.82086Q493.38806 346.5059 494.13937 346.52798Q494.8796 346.53903 495.43204 345.9866Q495.84085 345.5778 495.91818 345.08063Q495.9955 344.56134 495.6972 343.93155ZM492.05118 345.169L494.50397 342.71622Q493.8963 342.19693 493.38806 342.15274Q492.59256 342.08646 492.02908 342.64993Q491.5098 343.16922 491.49875 343.86526Q491.49875 344.5503 492.05118 345.169ZM500.64694 338.9818L501.50873 338.2968Q502.00592 339.14755 501.8844 340.0204Q501.76285 340.89322 501.00052 341.65558Q500.03928 342.6168 498.86813 342.5947Q497.70804 342.56155 496.63632 341.48984Q495.53146 340.38498 495.49832 339.2028Q495.45413 338.00955 496.3601 337.10358Q497.244 336.2197 498.39307 336.2639Q499.55316 336.29703 500.64694 337.39084Q500.71326 337.45712 500.84583 337.5897L497.56442 340.87112Q498.3378 341.55612 499.0891 341.57822Q499.82938 341.58926 500.38177 341.03683Q500.7906 340.62805 500.86792 340.13086Q500.94525 339.61157 500.64694 338.9818ZM497.00095 340.21927L499.4537 337.76648Q498.84604 337.2472 498.3378 337.203Q497.54233 337.13672 496.97885 337.7002Q496.45956 338.21948 496.44852 338.91553Q496.44852 339.60052 497.00095 340.21927ZM505.69614 340.1419L499.6084 334.05417L500.28235 333.38022L500.84583 333.9437Q500.75745 333.36917 500.89 332.90512Q501.03366 332.43002 501.46454 331.99915Q502.028 331.43567 502.7462 331.29202Q503.46432 331.1484 504.2046 331.4688Q504.95587 331.77817 505.58566 332.40793Q506.2596 333.0819 506.55792 333.86633Q506.86728 334.63974 506.69052 335.39105Q506.51373 336.14233 506.0055 336.65057Q505.62985 337.0262 505.17685 337.16986Q504.71283 337.30243 504.29297 337.25824L506.4364 339.40167L505.69614 340.1419ZM502.5031 335.60095Q503.35385 336.4517 504.10516 336.518Q504.8454 336.57324 505.33154 336.0871Q505.82874 335.5899 505.76242 334.81653Q505.69614 334.04312 504.81226 333.15924Q503.97256 332.31955 503.22125 332.25327Q502.45892 332.1759 501.97278 332.66205Q501.49768 333.13715 501.57504 333.9437Q501.65237 334.7502 502.5031 335.60095ZM506.8231 331.72293L507.5081 330.90536Q508.02737 331.31415 508.5135 331.40253Q508.99963 331.49094 509.59625 331.26996Q510.19287 331.0269 510.71216 330.5076Q511.16516 330.05463 511.3861 329.56848Q511.59604 329.0713 511.52975 328.67355Q511.46347 328.2537 511.18726 327.97748Q510.9 327.69022 510.52432 327.64603Q510.13763 327.5908 509.61835 327.8228Q509.2648 327.97748 508.22623 328.61832Q507.19873 329.24808 506.6905 329.40274Q506.0165 329.61267 505.47516 329.49115Q504.92273 329.35852 504.5029 328.9387Q504.0499 328.4857 503.90625 327.83386Q503.76263 327.15988 504.06094 326.46384Q504.35925 325.7457 504.96692 325.138Q505.64087 324.46405 506.38113 324.16574Q507.11032 323.85638 507.81744 324.01105Q508.5135 324.1547 509.06592 324.66293L508.34778 325.49158Q507.70694 324.98334 507.05508 325.06067Q506.40323 325.1159 505.70715 325.81198Q504.97797 326.54117 504.91168 327.1378Q504.84537 327.73444 505.22104 328.11008Q505.5525 328.44153 505.99442 328.41943Q506.43637 328.39734 507.6296 327.64603Q508.8339 326.8837 509.36423 326.6848Q510.14868 326.4086 510.77844 326.53012Q511.39716 326.64062 511.89435 327.1378Q512.3805 327.62393 512.53516 328.33105Q512.6788 329.0271 512.4026 329.78946Q512.1153 330.54074 511.46347 331.19263Q510.63483 332.02127 509.83932 332.35272Q509.04382 332.66208 508.2373 332.4963Q507.4418 332.31955 506.8231 331.72293ZM516.2033 323.42548L517.06506 322.74048Q517.56226 323.59122 517.44073 324.46405Q517.3192 325.33688 516.5568 326.09924Q515.59564 327.06046 514.42444 327.03836Q513.26434 327.00522 512.1927 325.9335Q511.0878 324.82864 511.05466 323.64645Q511.01047 322.45322 511.91644 321.54724Q512.80035 320.66336 513.9494 320.70755Q515.1095 320.7407 516.2033 321.8345Q516.2696 321.9008 516.40216 322.0334L513.1207 325.3148Q513.89417 325.9998 514.64545 326.0219Q515.3857 326.03296 515.9381 325.48053Q516.3469 325.07172 516.42426 324.57452Q516.5016 324.05527 516.2033 323.42548ZM512.55725 324.66293L515.01 322.21014Q514.40234 321.69086 513.89417 321.64667Q513.09863 321.58038 512.53516 322.14386Q512.01587 322.66315 512.0048 323.3592Q512.0048 324.04422 512.55725 324.66293ZM521.153 318.47574L522.01483 317.79074Q522.512 318.64148 522.39044 319.5143Q522.2689 320.38715 521.5066 321.14948Q520.54535 322.11072 519.3742 322.08862Q518.2141 322.05548 517.1424 320.98376Q516.03754 319.8789 516.0044 318.69672Q515.9602 317.50348 516.8662 316.5975Q517.75006 315.7136 518.8991 315.7578Q520.0592 315.79095 521.153 316.88477Q521.2193 316.95105 521.3519 317.08362L518.0705 320.36505Q518.8439 321.05005 519.5952 321.07214Q520.33545 321.0832 520.8879 320.53076Q521.29663 320.12198 521.374 319.6248Q521.45135 319.1055 521.153 318.47574ZM517.507 319.71317L519.9598 317.2604Q519.3521 316.74112 518.8439 316.69693Q518.0484 316.63065 517.4849 317.19412Q516.96564 317.71338 516.9546 318.40945Q516.9546 319.09445 517.507 319.71317ZM524.5118 317.9454L518.43506 311.8687L519.1864 311.1174L522.65564 314.58664L522.6225 311.04007L523.5948 310.0678L523.52844 313.38235L528.1578 314.29938L527.2408 315.21643L523.52844 314.42093L523.5174 315.44846L525.26306 317.19412L524.5118 317.9454ZM532.6987 309.75845L524.26874 306.0351L525.14154 305.16226L531.1409 308.0017Q531.8591 308.34424 532.4557 308.6757Q532.1021 308.03488 531.7928 307.34985L529.00854 301.29526L529.8261 300.47766L533.5274 308.9298L532.6987 309.75845ZM534.01355 305.2396L534.6654 304.38885Q535.4167 304.8971 536.0133 304.87497Q536.5989 304.84183 537.04083 304.3999Q537.57117 303.86957 537.57117 303.14035Q537.57117 302.41116 537.0298 301.86978Q536.52155 301.36154 535.8476 301.3726Q535.17365 301.36154 534.65436 301.88083Q534.4444 302.09076 534.2124 302.49954L533.6379 301.74826Q533.72626 301.68195 533.77045 301.63776Q534.24554 301.1627 534.3781 300.54395Q534.51074 299.90314 533.99146 299.38385Q533.58264 298.97507 533.04126 298.9861Q532.48883 298.9861 532.0469 299.42804Q531.616 299.85895 531.59393 300.43347Q531.5828 300.99695 532.0469 301.61566L531.163 302.23438Q530.55536 301.36154 530.6327 300.4666Q530.699 299.56064 531.4171 298.84247Q531.9143 298.3453 532.5551 298.14642Q533.1849 297.9365 533.77045 298.08014Q534.356 298.22375 534.7759 298.64362Q535.1626 299.0303 535.2841 299.5717Q535.3946 300.10202 535.17365 300.69864Q535.8255 300.28983 536.52155 300.38928Q537.20654 300.47766 537.80316 301.07428Q538.5987 301.86978 538.56555 303.00778Q538.54346 304.13474 537.65955 305.01862Q536.8641 305.81412 535.85864 305.86935Q534.84216 305.91354 534.01355 305.2396ZM541.9685 291.31842L541.28345 292.11392Q540.7421 291.77142 540.36646 291.74933Q539.7367 291.73828 539.29474 292.1802Q538.94116 292.53375 538.86383 293.00885Q538.7865 293.61652 539.0738 294.32364Q539.361 295.00864 540.256 295.92566Q540.1123 295.2517 540.3002 294.66614Q540.499 294.06952 540.92993 293.6386Q541.67017 292.89838 542.7419 292.93152Q543.82465 292.9536 544.6864 293.8154Q545.2609 294.38992 545.504 295.1412Q545.7471 295.87042 545.58136 296.56647Q545.4046 297.2515 544.8632 297.79288Q543.9241 298.732 542.6535 298.63257Q541.38293 298.5331 539.814 296.96423Q538.04626 295.19647 537.90265 293.7491Q537.77 292.48956 538.73126 291.52835Q539.4494 290.81018 540.3112 290.766Q541.173 290.6997 541.9685 291.31842ZM541.54865 296.97528Q541.93536 297.36197 542.44354 297.56085Q542.9518 297.73764 543.4269 297.63818Q543.913 297.5277 544.2445 297.19626Q544.7085 296.7322 544.67535 296.01404Q544.63116 295.28485 543.9793 294.633Q543.34955 294.0032 542.64246 293.9811Q541.9464 293.94797 541.4382 294.4562Q540.92993 294.96445 540.941 295.6826Q540.9631 296.3897 541.54865 296.97528ZM542.39935 289.49542L541.6812 288.77725L545.6145 284.84396L546.2001 285.42953Q546.24426 286.6228 546.69727 288.22482Q547.15027 289.80478 547.92365 291.1969Q548.454 292.19125 549.30475 293.15247L548.5313 293.92587Q547.8242 293.1967 547.07294 291.91504Q546.33264 290.62238 545.89075 289.18607Q545.45984 287.7387 545.3825 286.5123L542.39935 289.49542ZM555.39246 287.06473L554.6522 287.805L549.90137 283.0541Q549.8793 283.58444 549.70245 284.29153Q549.5257 284.97656 549.30475 285.44058L548.58655 284.72244Q548.907 283.80542 548.9622 282.9326Q549.01746 282.03766 548.8186 281.441L549.29364 280.96594L555.39246 287.06473ZM558.4308 284.0264L557.73474 284.72244L551.6581 278.64575L552.40936 277.89444L554.5749 280.05997Q554.4644 278.9993 555.1936 278.27008Q555.6024 277.8613 556.12164 277.67346Q556.6409 277.46356 557.17126 277.52985Q557.71265 277.58508 558.2651 277.87234Q558.8175 278.1596 559.2926 278.6347Q560.41956 279.76166 560.4748 280.94385Q560.53 282.12604 559.75665 282.89944Q558.97217 283.68387 557.8784 283.47397L558.4308 284.0264ZM556.188 281.80563Q556.9724 282.59006 557.54694 282.72266Q558.47504 282.94363 559.07166 282.34702Q559.55774 281.86087 559.49146 281.08746Q559.4362 280.303 558.5855 279.4523Q557.7237 278.59048 556.9724 278.5242Q556.2211 278.45792 555.735 278.94406Q555.24884 279.43018 555.3151 280.22568Q555.3814 280.99908 556.188 281.80563Z" fill-rule="nonzero"/></svg>