<svg version="1.1" viewBox="0.0 0.0 600.0 371.0" fill="none" stroke="none" stroke-linecap="square" stroke-miterlimit="10" width="600" height="371" xmlns:xlink="http://www.w3.org/1999/xlink" xmlns="http://www.w3.org/2000/svg"><path fill="#ffffff" d="M0 0L600.0 0L600.0 371.0L0 371.0L0 0Z" fill-rule="nonzero"/><path stroke="#cccccc" stroke-width="1.0" stroke-linecap="butt" d="M139.5 61.5L139.5 332.5" fill-rule="nonzero"/><path stroke="#cccccc" stroke-width="1.0" stroke-linecap="butt" d="M232.5 61.5L232.5 332.5" fill-rule="nonzero"/><path stroke="#cccccc" stroke-width="1.0" stroke-linecap="butt" d="M326.5 61.5L326.5 332.5" fill-rule="nonzero"/><path stroke="#cccccc" stroke-width="1.0" stroke-linecap="butt" d="M420.5 61.5L420.5 332.5" fill-rule="nonzero"/><path stroke="#cccccc" stroke-width="1.0" stroke-linecap="butt" d="M513.5 61.5L513.5 332.5" fill-rule="nonzero"/><path stroke="#333333" stroke-width="1.0" stroke-linecap="butt" d="M45.5 332.5L581.5 332.5" fill-rule="nonzero"/><path stroke="#cccccc" stroke-width="1.0" stroke-linecap="butt" d="M45.5 287.5L581.5 287.5" fill-rule="nonzero"/><path stroke="#cccccc" stroke-width="1.0" stroke-linecap="butt" d="M45.5 242.5L581.5 242.5" fill-rule="nonzero"/><path stroke="#cccccc" stroke-width="1.0" stroke-linecap="butt" d="M45.5 197.5L581.5 197.5" fill-rule="nonzero"/><path stroke="#cccccc" stroke-width="1.0" stroke-linecap="butt" d="M45.5 152.5L581.5 152.5" fill-rule="nonzero"/><path stroke="#cccccc" stroke-width="1.0" stroke-linecap="butt" d="M45.5 107.5L581.5 107.5" fill-rule="nonzero"/><path stroke="#cccccc" stroke-width="1.0" stroke-linecap="butt" d="M45.5 61.5L581.5 61.5" fill-rule="nonzero"/><clipPath id="id_0"><path d="M45.55 61.916668L581.45 61.916668L581.45 332.45L45.55 332.45L45.55 61.916668Z" clip-rule="nonzero"/></clipPath><path stroke="#4285f4" stroke-width="2.0" stroke-linecap="butt" clip-path="url(#id_0)" d="M45.55 332.45L45.557495 332.45L45.572487 332.45L45.602467 332.45L45.66243 332.45L45.782352 332.45L46.022198 332.45L46.501892 332.45L47.461277 332.45L49.29011 332.45L53.037716 332.45L56.78532 309.90555L60.532925 309.90555L64.28053 287.3611L68.02814 264.81668L71.77574 309.90555L75.523346 309.90555L79.27095 197.18333L83.018555 264.81668L86.76616 309.90555L90.51376 309.90555L94.26137 332.45L98.00897 264.81668L101.75658 332.45L105.50418 264.81668L109.251785 309.90555L112.99939 219.72778L116.746994 332.45L120.4946 287.3611L124.24221 287.3611L127.989815 219.72778L131.73741 309.90555L135.48502 309.90555L139.23262 197.18333L142.98022 332.45L146.72783 152.09445L150.47543 264.81668L154.22305 197.18333L157.97066 332.45L161.71826 309.90555L165.46587 309.90555L169.21347 332.45L172.96107 174.63889L176.70868 264.81668L180.45628 242.27222L184.20389 264.81668L187.95149 197.18333L191.6991 287.3611L195.4467 197.18333L199.1943 219.72778L202.94191 287.3611L206.68951 309.90555L210.43712 287.3611L214.18472 174.63889L217.93233 129.55L221.67993 264.81668L225.42754 197.18333L229.17514 174.63889L232.92274 174.63889L236.67035 174.63889L240.41795 197.18333L244.16556 174.63889L247.91316 174.63889L251.66077 152.09445L255.40837 197.18333L259.15598 129.55L262.9036 174.63889L266.65118 174.63889L270.3988 152.09445L274.1464 174.63889L277.894 152.09445L281.6416 219.72778L285.38922 107.005554L289.1368 152.09445L292.88443 129.55L296.63202 129.55L300.37964 152.09445L304.12723 264.81668L307.87485 152.09445L311.62244 174.63889L315.37006 174.63889L319.11765 107.005554L322.86526 129.55L326.61288 152.09445L330.36047 107.005554L334.1081 174.63889L337.85568 129.55L341.6033 129.55L345.3509 152.09445L349.0985 84.46111L352.8461 129.55L356.59372 174.63889L360.3413 152.09445L364.08893 129.55L367.83652 152.09445L371.58414 152.09445L375.33173 152.09445L379.07935 174.63889L382.82693 84.46111L386.57455 107.005554L390.32214 174.63889L394.06976 174.63889L397.81735 129.55L401.56497 152.09445L405.31256 129.55L409.06018 174.63889L412.80777 174.63889L416.5554 152.09445L420.30298 107.005554L424.0506 174.63889L427.7982 107.005554L431.5458 129.55L435.2934 84.46111L439.04102 129.55L442.78864 107.005554L446.53622 84.46111L450.28384 84.46111L454.03143 107.005554L457.77905 152.09445L461.52664 152.09445L465.27426 129.55L469.02185 129.55L472.76947 129.55L476.51706 107.005554L480.26468 152.09445L484.01227 129.55L487.7599 129.55L491.50748 129.55L495.2551 129.55L499.0027 107.005554L502.7503 107.005554L506.4979 129.55L510.2455 152.09445L513.9931 152.09445L517.7407 152.09445L521.48834 129.55L525.2359 107.005554L528.9835 107.005554L532.73114 174.63889L536.47876 152.09445L540.2263 152.09445L543.97394 107.005554L547.72156 152.09445L551.4692 84.46111L555.21674 152.09445L558.96436 129.55L562.712 129.55L566.4596 129.55L570.2072 107.005554L573.9548 107.005554L577.7024 152.09445L581.45 129.55" fill-rule="nonzero"/><path fill="#000000" fill-opacity="0.0" clip-path="url(#id_0)" d="M48.55 332.45C48.55 334.10684 47.206856 335.45 45.55 335.45C43.893147 335.45 42.55 334.10684 42.55 332.45C42.55 330.79315 43.893147 329.45 45.55 329.45C47.206856 329.45 48.55 330.79315 48.55 332.45Z" fill-rule="nonzero"/><path fill="#000000" fill-opacity="0.0" clip-path="url(#id_0)" d="M48.557495 332.45C48.557495 334.10684 47.214348 335.45 45.557495 335.45C43.900642 335.45 42.557495 334.10684 42.557495 332.45C42.557495 330.79315 43.900642 329.45 45.557495 329.45C47.214348 329.45 48.557495 330.79315 48.557495 332.45Z" fill-rule="nonzero"/><path fill="#000000" fill-opacity="0.0" clip-path="url(#id_0)" d="M48.572487 332.45C48.572487 334.10684 47.22934 335.45 45.572487 335.45C43.91563 335.45 42.572487 334.10684 42.572487 332.45C42.572487 330.79315 43.91563 329.45 45.572487 329.45C47.22934 329.45 48.572487 330.79315 48.572487 332.45Z" fill-rule="nonzero"/><path fill="#000000" fill-opacity="0.0" clip-path="url(#id_0)" d="M48.602467 332.45C48.602467 334.10684 47.25932 335.45 45.602467 335.45C43.945614 335.45 42.602467 334.10684 42.602467 332.45C42.602467 330.79315 43.945614 329.45 45.602467 329.45C47.25932 329.45 48.602467 330.79315 48.602467 332.45Z" fill-rule="nonzero"/><path fill="#000000" fill-opacity="0.0" clip-path="url(#id_0)" d="M48.66243 332.45C48.66243 334.10684 47.319283 335.45 45.66243 335.45C44.005573 335.45 42.66243 334.10684 42.66243 332.45C42.66243 330.79315 44.005573 329.45 45.66243 329.45C47.319283 329.45 48.66243 330.79315 48.66243 332.45Z" fill-rule="nonzero"/><path fill="#000000" fill-opacity="0.0" clip-path="url(#id_0)" d="M48.782352 332.45C48.782352 334.10684 47.439205 335.45 45.782352 335.45C44.125496 335.45 42.782352 334.10684 42.782352 332.45C42.782352 330.79315 44.125496 329.45 45.782352 329.45C47.439205 329.45 48.782352 330.79315 48.782352 332.45Z" fill-rule="nonzero"/><path fill="#000000" fill-opacity="0.0" clip-path="url(#id_0)" d="M49.022198 332.45C49.022198 334.10684 47.679054 335.45 46.022198 335.45C44.365345 335.45 43.022198 334.10684 43.022198 332.45C43.022198 330.79315 44.365345 329.45 46.022198 329.45C47.679054 329.45 49.022198 330.79315 49.022198 332.45Z" fill-rule="nonzero"/><path fill="#000000" fill-opacity="0.0" clip-path="url(#id_0)" d="M49.501892 332.45C49.501892 334.10684 48.158745 335.45 46.501892 335.45C44.845036 335.45 43.501892 334.10684 43.501892 332.45C43.501892 330.79315 44.845036 329.45 46.501892 329.45C48.158745 329.45 49.501892 330.79315 49.501892 332.45Z" fill-rule="nonzero"/><path fill="#000000" fill-opacity="0.0" clip-path="url(#id_0)" d="M50.461277 332.45C50.461277 334.10684 49.118134 335.45 47.461277 335.45C45.804424 335.45 44.461277 334.10684 44.461277 332.45C44.461277 330.79315 45.804424 329.45 47.461277 329.45C49.118134 329.45 50.461277 330.79315 50.461277 332.45Z" fill-rule="nonzero"/><path fill="#000000" fill-opacity="0.0" clip-path="url(#id_0)" d="M52.29011 332.45C52.29011 334.10684 50.946964 335.45 49.29011 335.45C47.633255 335.45 46.29011 334.10684 46.29011 332.45C46.29011 330.79315 47.633255 329.45 49.29011 329.45C50.946964 329.45 52.29011 330.79315 52.29011 332.45Z" fill-rule="nonzero"/><path fill="#000000" fill-opacity="0.0" clip-path="url(#id_0)" d="M56.037716 332.45C56.037716 334.10684 54.69457 335.45 53.037716 335.45C51.38086 335.45 50.037716 334.10684 50.037716 332.45C50.037716 330.79315 51.38086 329.45 53.037716 329.45C54.69457 329.45 56.037716 330.79315 56.037716 332.45Z" fill-rule="nonzero"/><path fill="#000000" fill-opacity="0.0" clip-path="url(#id_0)" d="M59.78532 309.90555C59.78532 311.5624 58.442173 312.90555 56.78532 312.90555C55.128464 312.90555 53.78532 311.5624 53.78532 309.90555C53.78532 308.2487 55.128464 306.90555 56.78532 306.90555C58.442173 306.90555 59.78532 308.2487 59.78532 309.90555Z" fill-rule="nonzero"/><path fill="#000000" fill-opacity="0.0" clip-path="url(#id_0)" d="M63.532925 309.90555C63.532925 311.5624 62.189777 312.90555 60.532925 312.90555C58.87607 312.90555 57.532925 311.5624 57.532925 309.90555C57.532925 308.2487 58.87607 306.90555 60.532925 306.90555C62.189777 306.90555 63.532925 308.2487 63.532925 309.90555Z" fill-rule="nonzero"/><path fill="#000000" fill-opacity="0.0" clip-path="url(#id_0)" d="M67.28053 287.3611C67.28053 289.01797 65.937386 290.3611 64.28053 290.3611C62.623676 290.3611 61.28053 289.01797 61.28053 287.3611C61.28053 285.70425 62.623676 284.3611 64.28053 284.3611C65.937386 284.3611 67.28053 285.70425 67.28053 287.3611Z" fill-rule="nonzero"/><path fill="#000000" fill-opacity="0.0" clip-path="url(#id_0)" d="M71.02814 264.81668C71.02814 266.4735 69.68499 267.81668 68.02814 267.81668C66.37128 267.81668 65.02814 266.4735 65.02814 264.81668C65.02814 263.15982 66.37128 261.81668 68.02814 261.81668C69.68499 261.81668 71.02814 263.15982 71.02814 264.81668Z" fill-rule="nonzero"/><path fill="#000000" fill-opacity="0.0" clip-path="url(#id_0)" d="M74.77574 309.90555C74.77574 311.5624 73.432594 312.90555 71.77574 312.90555C70.11888 312.90555 68.77574 311.5624 68.77574 309.90555C68.77574 308.2487 70.11888 306.90555 71.77574 306.90555C73.432594 306.90555 74.77574 308.2487 74.77574 309.90555Z" fill-rule="nonzero"/><path fill="#000000" fill-opacity="0.0" clip-path="url(#id_0)" d="M78.523346 309.90555C78.523346 311.5624 77.1802 312.90555 75.523346 312.90555C73.86649 312.90555 72.523346 311.5624 72.523346 309.90555C72.523346 308.2487 73.86649 306.90555 75.523346 306.90555C77.1802 306.90555 78.523346 308.2487 78.523346 309.90555Z" fill-rule="nonzero"/><path fill="#000000" fill-opacity="0.0" clip-path="url(#id_0)" d="M82.27095 197.18333C82.27095 198.8402 80.9278 200.18333 79.27095 200.18333C77.6141 200.18333 76.27095 198.8402 76.27095 197.18333C76.27095 195.52647 77.6141 194.18333 79.27095 194.18333C80.9278 194.18333 82.27095 195.52647 82.27095 197.18333Z" fill-rule="nonzero"/><path fill="#000000" fill-opacity="0.0" clip-path="url(#id_0)" d="M86.018555 264.81668C86.018555 266.4735 84.67541 267.81668 83.018555 267.81668C81.3617 267.81668 80.018555 266.4735 80.018555 264.81668C80.018555 263.15982 81.3617 261.81668 83.018555 261.81668C84.67541 261.81668 86.018555 263.15982 86.018555 264.81668Z" fill-rule="nonzero"/><path fill="#000000" fill-opacity="0.0" clip-path="url(#id_0)" d="M89.76616 309.90555C89.76616 311.5624 88.42301 312.90555 86.76616 312.90555C85.10931 312.90555 83.76616 311.5624 83.76616 309.90555C83.76616 308.2487 85.10931 306.90555 86.76616 306.90555C88.42301 306.90555 89.76616 308.2487 89.76616 309.90555Z" fill-rule="nonzero"/><path fill="#000000" fill-opacity="0.0" clip-path="url(#id_0)" d="M93.51376 309.90555C93.51376 311.5624 92.170616 312.90555 90.51376 312.90555C88.85691 312.90555 87.51376 311.5624 87.51376 309.90555C87.51376 308.2487 88.85691 306.90555 90.51376 306.90555C92.170616 306.90555 93.51376 308.2487 93.51376 309.90555Z" fill-rule="nonzero"/><path fill="#000000" fill-opacity="0.0" clip-path="url(#id_0)" d="M97.26137 332.45C97.26137 334.10684 95.91822 335.45 94.26137 335.45C92.604515 335.45 91.26137 334.10684 91.26137 332.45C91.26137 330.79315 92.604515 329.45 94.26137 329.45C95.91822 329.45 97.26137 330.79315 97.26137 332.45Z" fill-rule="nonzero"/><path fill="#000000" fill-opacity="0.0" clip-path="url(#id_0)" d="M101.00897 264.81668C101.00897 266.4735 99.665825 267.81668 98.00897 267.81668C96.35212 267.81668 95.00897 266.4735 95.00897 264.81668C95.00897 263.15982 96.35212 261.81668 98.00897 261.81668C99.665825 261.81668 101.00897 263.15982 101.00897 264.81668Z" fill-rule="nonzero"/><path fill="#000000" fill-opacity="0.0" clip-path="url(#id_0)" d="M104.75658 332.45C104.75658 334.10684 103.41343 335.45 101.75658 335.45C100.099724 335.45 98.75658 334.10684 98.75658 332.45C98.75658 330.79315 100.099724 329.45 101.75658 329.45C103.41343 329.45 104.75658 330.79315 104.75658 332.45Z" fill-rule="nonzero"/><path fill="#000000" fill-opacity="0.0" clip-path="url(#id_0)" d="M108.50418 264.81668C108.50418 266.4735 107.16103 267.81668 105.50418 267.81668C103.84733 267.81668 102.50418 266.4735 102.50418 264.81668C102.50418 263.15982 103.84733 261.81668 105.50418 261.81668C107.16103 261.81668 108.50418 263.15982 108.50418 264.81668Z" fill-rule="nonzero"/><path fill="#000000" fill-opacity="0.0" clip-path="url(#id_0)" d="M112.251785 309.90555C112.251785 311.5624 110.90864 312.90555 109.251785 312.90555C107.59493 312.90555 106.251785 311.5624 106.251785 309.90555C106.251785 308.2487 107.59493 306.90555 109.251785 306.90555C110.90864 306.90555 112.251785 308.2487 112.251785 309.90555Z" fill-rule="nonzero"/><path fill="#000000" fill-opacity="0.0" clip-path="url(#id_0)" d="M115.99939 219.72778C115.99939 221.38463 114.65625 222.72778 112.99939 222.72778C111.34254 222.72778 109.99939 221.38463 109.99939 219.72778C109.99939 218.07092 111.34254 216.72778 112.99939 216.72778C114.65625 216.72778 115.99939 218.07092 115.99939 219.72778Z" fill-rule="nonzero"/><path fill="#000000" fill-opacity="0.0" clip-path="url(#id_0)" d="M119.746994 332.45C119.746994 334.10684 118.403854 335.45 116.746994 335.45C115.09014 335.45 113.746994 334.10684 113.746994 332.45C113.746994 330.79315 115.09014 329.45 116.746994 329.45C118.403854 329.45 119.746994 330.79315 119.746994 332.45Z" fill-rule="nonzero"/><path fill="#000000" fill-opacity="0.0" clip-path="url(#id_0)" d="M123.4946 287.3611C123.4946 289.01797 122.15146 290.3611 120.4946 290.3611C118.837746 290.3611 117.4946 289.01797 117.4946 287.3611C117.4946 285.70425 118.837746 284.3611 120.4946 284.3611C122.15146 284.3611 123.4946 285.70425 123.4946 287.3611Z" fill-rule="nonzero"/><path fill="#000000" fill-opacity="0.0" clip-path="url(#id_0)" d="M127.24221 287.3611C127.24221 289.01797 125.89906 290.3611 124.24221 290.3611C122.58535 290.3611 121.24221 289.01797 121.24221 287.3611C121.24221 285.70425 122.58535 284.3611 124.24221 284.3611C125.89906 284.3611 127.24221 285.70425 127.24221 287.3611Z" fill-rule="nonzero"/><path fill="#000000" fill-opacity="0.0" clip-path="url(#id_0)" d="M130.9898 219.72778C130.9898 221.38463 129.64667 222.72778 127.989815 222.72778C126.332954 222.72778 124.989815 221.38463 124.989815 219.72778C124.989815 218.07092 126.332954 216.72778 127.989815 216.72778C129.64667 216.72778 130.9898 218.07092 130.9898 219.72778Z" fill-rule="nonzero"/><path fill="#000000" fill-opacity="0.0" clip-path="url(#id_0)" d="M134.73741 309.90555C134.73741 311.5624 133.39427 312.90555 131.73741 312.90555C130.08057 312.90555 128.73741 311.5624 128.73741 309.90555C128.73741 308.2487 130.08057 306.90555 131.73741 306.90555C133.39427 306.90555 134.73741 308.2487 134.73741 309.90555Z" fill-rule="nonzero"/><path fill="#000000" fill-opacity="0.0" clip-path="url(#id_0)" d="M138.48502 309.90555C138.48502 311.5624 137.14188 312.90555 135.48502 312.90555C133.82817 312.90555 132.48502 311.5624 132.48502 309.90555C132.48502 308.2487 133.82817 306.90555 135.48502 306.90555C137.14188 306.90555 138.48502 308.2487 138.48502 309.90555Z" fill-rule="nonzero"/><path fill="#000000" fill-opacity="0.0" clip-path="url(#id_0)" d="M142.23262 197.18333C142.23262 198.8402 140.88948 200.18333 139.23262 200.18333C137.57578 200.18333 136.23262 198.8402 136.23262 197.18333C136.23262 195.52647 137.57578 194.18333 139.23262 194.18333C140.88948 194.18333 142.23262 195.52647 142.23262 197.18333Z" fill-rule="nonzero"/><path fill="#000000" fill-opacity="0.0" clip-path="url(#id_0)" d="M145.98022 332.45C145.98022 334.10684 144.63708 335.45 142.98022 335.45C141.32338 335.45 139.98022 334.10684 139.98022 332.45C139.98022 330.79315 141.32338 329.45 142.98022 329.45C144.63708 329.45 145.98022 330.79315 145.98022 332.45Z" fill-rule="nonzero"/><path fill="#000000" fill-opacity="0.0" clip-path="url(#id_0)" d="M149.72783 152.09445C149.72783 153.7513 148.38469 155.09445 146.72783 155.09445C145.07098 155.09445 143.72783 153.7513 143.72783 152.09445C143.72783 150.43759 145.07098 149.09445 146.72783 149.09445C148.38469 149.09445 149.72783 150.43759 149.72783 152.09445Z" fill-rule="nonzero"/><path fill="#000000" fill-opacity="0.0" clip-path="url(#id_0)" d="M153.47543 264.81668C153.47543 266.4735 152.1323 267.81668 150.47543 267.81668C148.81859 267.81668 147.47543 266.4735 147.47543 264.81668C147.47543 263.15982 148.81859 261.81668 150.47543 261.81668C152.1323 261.81668 153.47543 263.15982 153.47543 264.81668Z" fill-rule="nonzero"/><path fill="#000000" fill-opacity="0.0" clip-path="url(#id_0)" d="M157.22305 197.18333C157.22305 198.8402 155.8799 200.18333 154.22305 200.18333C152.5662 200.18333 151.22305 198.8402 151.22305 197.18333C151.22305 195.52647 152.5662 194.18333 154.22305 194.18333C155.8799 194.18333 157.22305 195.52647 157.22305 197.18333Z" fill-rule="nonzero"/><path fill="#000000" fill-opacity="0.0" clip-path="url(#id_0)" d="M160.97066 332.45C160.97066 334.10684 159.6275 335.45 157.97066 335.45C156.3138 335.45 154.97066 334.10684 154.97066 332.45C154.97066 330.79315 156.3138 329.45 157.97066 329.45C159.6275 329.45 160.97066 330.79315 160.97066 332.45Z" fill-rule="nonzero"/><path fill="#000000" fill-opacity="0.0" clip-path="url(#id_0)" d="M164.71826 309.90555C164.71826 311.5624 163.3751 312.90555 161.71826 312.90555C160.0614 312.90555 158.71826 311.5624 158.71826 309.90555C158.71826 308.2487 160.0614 306.90555 161.71826 306.90555C163.3751 306.90555 164.71826 308.2487 164.71826 309.90555Z" fill-rule="nonzero"/><path fill="#000000" fill-opacity="0.0" clip-path="url(#id_0)" d="M168.46587 309.90555C168.46587 311.5624 167.12271 312.90555 165.46587 312.90555C163.809 312.90555 162.46587 311.5624 162.46587 309.90555C162.46587 308.2487 163.809 306.90555 165.46587 306.90555C167.12271 306.90555 168.46587 308.2487 168.46587 309.90555Z" fill-rule="nonzero"/><path fill="#000000" fill-opacity="0.0" clip-path="url(#id_0)" d="M172.21347 332.45C172.21347 334.10684 170.87032 335.45 169.21347 335.45C167.55661 335.45 166.21347 334.10684 166.21347 332.45C166.21347 330.79315 167.55661 329.45 169.21347 329.45C170.87032 329.45 172.21347 330.79315 172.21347 332.45Z" fill-rule="nonzero"/><path fill="#000000" fill-opacity="0.0" clip-path="url(#id_0)" d="M175.96107 174.63889C175.96107 176.29575 174.61792 177.63889 172.96107 177.63889C171.30421 177.63889 169.96107 176.29575 169.96107 174.63889C169.96107 172.98204 171.30421 171.63889 172.96107 171.63889C174.61792 171.63889 175.96107 172.98204 175.96107 174.63889Z" fill-rule="nonzero"/><path fill="#000000" fill-opacity="0.0" clip-path="url(#id_0)" d="M179.70868 264.81668C179.70868 266.4735 178.36552 267.81668 176.70868 267.81668C175.05182 267.81668 173.70868 266.4735 173.70868 264.81668C173.70868 263.15982 175.05182 261.81668 176.70868 261.81668C178.36552 261.81668 179.70868 263.15982 179.70868 264.81668Z" fill-rule="nonzero"/><path fill="#000000" fill-opacity="0.0" clip-path="url(#id_0)" d="M183.45628 242.27222C183.45628 243.92908 182.11313 245.27222 180.45628 245.27222C178.79942 245.27222 177.45628 243.92908 177.45628 242.27222C177.45628 240.61537 178.79942 239.27222 180.45628 239.27222C182.11313 239.27222 183.45628 240.61537 183.45628 242.27222Z" fill-rule="nonzero"/><path fill="#000000" fill-opacity="0.0" clip-path="url(#id_0)" d="M187.20389 264.81668C187.20389 266.4735 185.86073 267.81668 184.20389 267.81668C182.54703 267.81668 181.20389 266.4735 181.20389 264.81668C181.20389 263.15982 182.54703 261.81668 184.20389 261.81668C185.86073 261.81668 187.20389 263.15982 187.20389 264.81668Z" fill-rule="nonzero"/><path fill="#000000" fill-opacity="0.0" clip-path="url(#id_0)" d="M190.95149 197.18333C190.95149 198.8402 189.60834 200.18333 187.95149 200.18333C186.29463 200.18333 184.95149 198.8402 184.95149 197.18333C184.95149 195.52647 186.29463 194.18333 187.95149 194.18333C189.60834 194.18333 190.95149 195.52647 190.95149 197.18333Z" fill-rule="nonzero"/><path fill="#000000" fill-opacity="0.0" clip-path="url(#id_0)" d="M194.6991 287.3611C194.6991 289.01797 193.35594 290.3611 191.6991 290.3611C190.04224 290.3611 188.6991 289.01797 188.6991 287.3611C188.6991 285.70425 190.04224 284.3611 191.6991 284.3611C193.35594 284.3611 194.6991 285.70425 194.6991 287.3611Z" fill-rule="nonzero"/><path fill="#000000" fill-opacity="0.0" clip-path="url(#id_0)" d="M198.4467 197.18333C198.4467 198.8402 197.10355 200.18333 195.4467 200.18333C193.78984 200.18333 192.4467 198.8402 192.4467 197.18333C192.4467 195.52647 193.78984 194.18333 195.4467 194.18333C197.10355 194.18333 198.4467 195.52647 198.4467 197.18333Z" fill-rule="nonzero"/><path fill="#000000" fill-opacity="0.0" clip-path="url(#id_0)" d="M202.1943 219.72778C202.1943 221.38463 200.85117 222.72778 199.1943 222.72778C197.53745 222.72778 196.1943 221.38463 196.1943 219.72778C196.1943 218.07092 197.53745 216.72778 199.1943 216.72778C200.85117 216.72778 202.1943 218.07092 202.1943 219.72778Z" fill-rule="nonzero"/><path fill="#000000" fill-opacity="0.0" clip-path="url(#id_0)" d="M205.94191 287.3611C205.94191 289.01797 204.59877 290.3611 202.94191 290.3611C201.28505 290.3611 199.94191 289.01797 199.94191 287.3611C199.94191 285.70425 201.28505 284.3611 202.94191 284.3611C204.59877 284.3611 205.94191 285.70425 205.94191 287.3611Z" fill-rule="nonzero"/><path fill="#000000" fill-opacity="0.0" clip-path="url(#id_0)" d="M209.68951 309.90555C209.68951 311.5624 208.34637 312.90555 206.68951 312.90555C205.03265 312.90555 203.68951 311.5624 203.68951 309.90555C203.68951 308.2487 205.03265 306.90555 206.68951 306.90555C208.34637 306.90555 209.68951 308.2487 209.68951 309.90555Z" fill-rule="nonzero"/><path fill="#000000" fill-opacity="0.0" clip-path="url(#id_0)" d="M213.43712 287.3611C213.43712 289.01797 212.09398 290.3611 210.43712 290.3611C208.78026 290.3611 207.43712 289.01797 207.43712 287.3611C207.43712 285.70425 208.78026 284.3611 210.43712 284.3611C212.09398 284.3611 213.43712 285.70425 213.43712 287.3611Z" fill-rule="nonzero"/><path fill="#000000" fill-opacity="0.0" clip-path="url(#id_0)" d="M217.18472 174.63889C217.18472 176.29575 215.84158 177.63889 214.18472 177.63889C212.52786 177.63889 211.18472 176.29575 211.18472 174.63889C211.18472 172.98204 212.52786 171.63889 214.18472 171.63889C215.84158 171.63889 217.18472 172.98204 217.18472 174.63889Z" fill-rule="nonzero"/><path fill="#000000" fill-opacity="0.0" clip-path="url(#id_0)" d="M220.93233 129.55C220.93233 131.20685 219.58919 132.55 217.93233 132.55C216.27547 132.55 214.93233 131.20685 214.93233 129.55C214.93233 127.89314 216.27547 126.55 217.93233 126.55C219.58919 126.55 220.93233 127.89314 220.93233 129.55Z" fill-rule="nonzero"/><path fill="#000000" fill-opacity="0.0" clip-path="url(#id_0)" d="M224.67993 264.81668C224.67993 266.4735 223.33679 267.81668 221.67993 267.81668C220.02309 267.81668 218.67993 266.4735 218.67993 264.81668C218.67993 263.15982 220.02309 261.81668 221.67993 261.81668C223.33679 261.81668 224.67993 263.15982 224.67993 264.81668Z" fill-rule="nonzero"/><path fill="#000000" fill-opacity="0.0" clip-path="url(#id_0)" d="M228.42754 197.18333C228.42754 198.8402 227.0844 200.18333 225.42754 200.18333C223.77069 200.18333 222.42754 198.8402 222.42754 197.18333C222.42754 195.52647 223.77069 194.18333 225.42754 194.18333C227.0844 194.18333 228.42754 195.52647 228.42754 197.18333Z" fill-rule="nonzero"/><path fill="#000000" fill-opacity="0.0" clip-path="url(#id_0)" d="M232.17514 174.63889C232.17514 176.29575 230.832 177.63889 229.17514 177.63889C227.5183 177.63889 226.17514 176.29575 226.17514 174.63889C226.17514 172.98204 227.5183 171.63889 229.17514 171.63889C230.832 171.63889 232.17514 172.98204 232.17514 174.63889Z" fill-rule="nonzero"/><path fill="#000000" fill-opacity="0.0" clip-path="url(#id_0)" d="M235.92274 174.63889C235.92274 176.29575 234.5796 177.63889 232.92274 177.63889C231.2659 177.63889 229.92274 176.29575 229.92274 174.63889C229.92274 172.98204 231.2659 171.63889 232.92274 171.63889C234.5796 171.63889 235.92274 172.98204 235.92274 174.63889Z" fill-rule="nonzero"/><path fill="#000000" fill-opacity="0.0" clip-path="url(#id_0)" d="M239.67035 174.63889C239.67035 176.29575 238.32721 177.63889 236.67035 177.63889C235.0135 177.63889 233.67035 176.29575 233.67035 174.63889C233.67035 172.98204 235.0135 171.63889 236.67035 171.63889C238.32721 171.63889 239.67035 172.98204 239.67035 174.63889Z" fill-rule="nonzero"/><path fill="#000000" fill-opacity="0.0" clip-path="url(#id_0)" d="M243.41795 197.18333C243.41795 198.8402 242.07481 200.18333 240.41795 200.18333C238.76111 200.18333 237.41795 198.8402 237.41795 197.18333C237.41795 195.52647 238.76111 194.18333 240.41795 194.18333C242.07481 194.18333 243.41795 195.52647 243.41795 197.18333Z" fill-rule="nonzero"/><path fill="#000000" fill-opacity="0.0" clip-path="url(#id_0)" d="M247.16556 174.63889C247.16556 176.29575 245.82242 177.63889 244.16556 177.63889C242.50871 177.63889 241.16556 176.29575 241.16556 174.63889C241.16556 172.98204 242.50871 171.63889 244.16556 171.63889C245.82242 171.63889 247.16556 172.98204 247.16556 174.63889Z" fill-rule="nonzero"/><path fill="#000000" fill-opacity="0.0" clip-path="url(#id_0)" d="M250.91316 174.63889C250.91316 176.29575 249.57002 177.63889 247.91316 177.63889C246.25632 177.63889 244.91316 176.29575 244.91316 174.63889C244.91316 172.98204 246.25632 171.63889 247.91316 171.63889C249.57002 171.63889 250.91316 172.98204 250.91316 174.63889Z" fill-rule="nonzero"/><path fill="#000000" fill-opacity="0.0" clip-path="url(#id_0)" d="M254.66077 152.09445C254.66077 153.7513 253.31763 155.09445 251.66077 155.09445C250.00392 155.09445 248.66077 153.7513 248.66077 152.09445C248.66077 150.43759 250.00392 149.09445 251.66077 149.09445C253.31763 149.09445 254.66077 150.43759 254.66077 152.09445Z" fill-rule="nonzero"/><path fill="#000000" fill-opacity="0.0" clip-path="url(#id_0)" d="M258.4084 197.18333C258.4084 198.8402 257.06522 200.18333 255.40837 200.18333C253.75153 200.18333 252.40837 198.8402 252.40837 197.18333C252.40837 195.52647 253.75153 194.18333 255.40837 194.18333C257.06522 194.18333 258.4084 195.52647 258.4084 197.18333Z" fill-rule="nonzero"/><path fill="#000000" fill-opacity="0.0" clip-path="url(#id_0)" d="M262.15598 129.55C262.15598 131.20685 260.81284 132.55 259.15598 132.55C257.4991 132.55 256.15598 131.20685 256.15598 129.55C256.15598 127.89314 257.4991 126.55 259.15598 126.55C260.81284 126.55 262.15598 127.89314 262.15598 129.55Z" fill-rule="nonzero"/><path fill="#000000" fill-opacity="0.0" clip-path="url(#id_0)" d="M265.9036 174.63889C265.9036 176.29575 264.56046 177.63889 262.9036 177.63889C261.24673 177.63889 259.9036 176.29575 259.9036 174.63889C259.9036 172.98204 261.24673 171.63889 262.9036 171.63889C264.56046 171.63889 265.9036 172.98204 265.9036 174.63889Z" fill-rule="nonzero"/><path fill="#000000" fill-opacity="0.0" clip-path="url(#id_0)" d="M269.65118 174.63889C269.65118 176.29575 268.30804 177.63889 266.65118 177.63889C264.99432 177.63889 263.65118 176.29575 263.65118 174.63889C263.65118 172.98204 264.99432 171.63889 266.65118 171.63889C268.30804 171.63889 269.65118 172.98204 269.65118 174.63889Z" fill-rule="nonzero"/><path fill="#000000" fill-opacity="0.0" clip-path="url(#id_0)" d="M273.3988 152.09445C273.3988 153.7513 272.05566 155.09445 270.3988 155.09445C268.74194 155.09445 267.3988 153.7513 267.3988 152.09445C267.3988 150.43759 268.74194 149.09445 270.3988 149.09445C272.05566 149.09445 273.3988 150.43759 273.3988 152.09445Z" fill-rule="nonzero"/><path fill="#000000" fill-opacity="0.0" clip-path="url(#id_0)" d="M277.1464 174.63889C277.1464 176.29575 275.80325 177.63889 274.1464 177.63889C272.48953 177.63889 271.1464 176.29575 271.1464 174.63889C271.1464 172.98204 272.48953 171.63889 274.1464 171.63889C275.80325 171.63889 277.1464 172.98204 277.1464 174.63889Z" fill-rule="nonzero"/><path fill="#000000" fill-opacity="0.0" clip-path="url(#id_0)" d="M280.894 152.09445C280.894 153.7513 279.55087 155.09445 277.894 155.09445C276.23715 155.09445 274.894 153.7513 274.894 152.09445C274.894 150.43759 276.23715 149.09445 277.894 149.09445C279.55087 149.09445 280.894 150.43759 280.894 152.09445Z" fill-rule="nonzero"/><path fill="#000000" fill-opacity="0.0" clip-path="url(#id_0)" d="M284.6416 219.72778C284.6416 221.38463 283.29846 222.72778 281.6416 222.72778C279.98477 222.72778 278.6416 221.38463 278.6416 219.72778C278.6416 218.07092 279.98477 216.72778 281.6416 216.72778C283.29846 216.72778 284.6416 218.07092 284.6416 219.72778Z" fill-rule="nonzero"/><path fill="#000000" fill-opacity="0.0" clip-path="url(#id_0)" d="M288.38922 107.005554C288.38922 108.66241 287.04608 110.005554 285.38922 110.005554C283.73236 110.005554 282.38922 108.66241 282.38922 107.005554C282.38922 105.3487 283.73236 104.005554 285.38922 104.005554C287.04608 104.005554 288.38922 105.3487 288.38922 107.005554Z" fill-rule="nonzero"/><path fill="#000000" fill-opacity="0.0" clip-path="url(#id_0)" d="M292.1368 152.09445C292.1368 153.7513 290.79367 155.09445 289.1368 155.09445C287.47998 155.09445 286.1368 153.7513 286.1368 152.09445C286.1368 150.43759 287.47998 149.09445 289.1368 149.09445C290.79367 149.09445 292.1368 150.43759 292.1368 152.09445Z" fill-rule="nonzero"/><path fill="#000000" fill-opacity="0.0" clip-path="url(#id_0)" d="M295.88443 129.55C295.88443 131.20685 294.5413 132.55 292.88443 132.55C291.22757 132.55 289.88443 131.20685 289.88443 129.55C289.88443 127.89314 291.22757 126.55 292.88443 126.55C294.5413 126.55 295.88443 127.89314 295.88443 129.55Z" fill-rule="nonzero"/><path fill="#000000" fill-opacity="0.0" clip-path="url(#id_0)" d="M299.63202 129.55C299.63202 131.20685 298.28888 132.55 296.63202 132.55C294.9752 132.55 293.63202 131.20685 293.63202 129.55C293.63202 127.89314 294.9752 126.55 296.63202 126.55C298.28888 126.55 299.63202 127.89314 299.63202 129.55Z" fill-rule="nonzero"/><path fill="#000000" fill-opacity="0.0" clip-path="url(#id_0)" d="M303.37964 152.09445C303.37964 153.7513 302.0365 155.09445 300.37964 155.09445C298.72278 155.09445 297.37964 153.7513 297.37964 152.09445C297.37964 150.43759 298.72278 149.09445 300.37964 149.09445C302.0365 149.09445 303.37964 150.43759 303.37964 152.09445Z" fill-rule="nonzero"/><path fill="#000000" fill-opacity="0.0" clip-path="url(#id_0)" d="M307.12723 264.81668C307.12723 266.4735 305.7841 267.81668 304.12723 267.81668C302.4704 267.81668 301.12723 266.4735 301.12723 264.81668C301.12723 263.15982 302.4704 261.81668 304.12723 261.81668C305.7841 261.81668 307.12723 263.15982 307.12723 264.81668Z" fill-rule="nonzero"/><path fill="#000000" fill-opacity="0.0" clip-path="url(#id_0)" d="M310.87485 152.09445C310.87485 153.7513 309.5317 155.09445 307.87485 155.09445C306.218 155.09445 304.87485 153.7513 304.87485 152.09445C304.87485 150.43759 306.218 149.09445 307.87485 149.09445C309.5317 149.09445 310.87485 150.43759 310.87485 152.09445Z" fill-rule="nonzero"/><path fill="#000000" fill-opacity="0.0" clip-path="url(#id_0)" d="M314.62244 174.63889C314.62244 176.29575 313.2793 177.63889 311.62244 177.63889C309.9656 177.63889 308.62244 176.29575 308.62244 174.63889C308.62244 172.98204 309.9656 171.63889 311.62244 171.63889C313.2793 171.63889 314.62244 172.98204 314.62244 174.63889Z" fill-rule="nonzero"/><path fill="#000000" fill-opacity="0.0" clip-path="url(#id_0)" d="M318.37006 174.63889C318.37006 176.29575 317.02692 177.63889 315.37006 177.63889C313.7132 177.63889 312.37006 176.29575 312.37006 174.63889C312.37006 172.98204 313.7132 171.63889 315.37006 171.63889C317.02692 171.63889 318.37006 172.98204 318.37006 174.63889Z" fill-rule="nonzero"/><path fill="#000000" fill-opacity="0.0" clip-path="url(#id_0)" d="M322.11765 107.005554C322.11765 108.66241 320.7745 110.005554 319.11765 110.005554C317.46082 110.005554 316.11765 108.66241 316.11765 107.005554C316.11765 105.3487 317.46082 104.005554 319.11765 104.005554C320.7745 104.005554 322.11765 105.3487 322.11765 107.005554Z" fill-rule="nonzero"/><path fill="#000000" fill-opacity="0.0" clip-path="url(#id_0)" d="M325.86526 129.55C325.86526 131.20685 324.52213 132.55 322.86526 132.55C321.2084 132.55 319.86526 131.20685 319.86526 129.55C319.86526 127.89314 321.2084 126.55 322.86526 126.55C324.52213 126.55 325.86526 127.89314 325.86526 129.55Z" fill-rule="nonzero"/><path fill="#000000" fill-opacity="0.0" clip-path="url(#id_0)" d="M329.61288 152.09445C329.61288 153.7513 328.2697 155.09445 326.61288 155.09445C324.95602 155.09445 323.61288 153.7513 323.61288 152.09445C323.61288 150.43759 324.95602 149.09445 326.61288 149.09445C328.2697 149.09445 329.61288 150.43759 329.61288 152.09445Z" fill-rule="nonzero"/><path fill="#000000" fill-opacity="0.0" clip-path="url(#id_0)" d="M333.36047 107.005554C333.36047 108.66241 332.01733 110.005554 330.36047 110.005554C328.7036 110.005554 327.36047 108.66241 327.36047 107.005554C327.36047 105.3487 328.7036 104.005554 330.36047 104.005554C332.01733 104.005554 333.36047 105.3487 333.36047 107.005554Z" fill-rule="nonzero"/><path fill="#000000" fill-opacity="0.0" clip-path="url(#id_0)" d="M337.1081 174.63889C337.1081 176.29575 335.76492 177.63889 334.1081 177.63889C332.45123 177.63889 331.1081 176.29575 331.1081 174.63889C331.1081 172.98204 332.45123 171.63889 334.1081 171.63889C335.76492 171.63889 337.1081 172.98204 337.1081 174.63889Z" fill-rule="nonzero"/><path fill="#000000" fill-opacity="0.0" clip-path="url(#id_0)" d="M340.85568 129.55C340.85568 131.20685 339.51254 132.55 337.85568 132.55C336.19882 132.55 334.85568 131.20685 334.85568 129.55C334.85568 127.89314 336.19882 126.55 337.85568 126.55C339.51254 126.55 340.85568 127.89314 340.85568 129.55Z" fill-rule="nonzero"/><path fill="#000000" fill-opacity="0.0" clip-path="url(#id_0)" d="M344.6033 129.55C344.6033 131.20685 343.26013 132.55 341.6033 132.55C339.94644 132.55 338.6033 131.20685 338.6033 129.55C338.6033 127.89314 339.94644 126.55 341.6033 126.55C343.26013 126.55 344.6033 127.89314 344.6033 129.55Z" fill-rule="nonzero"/><path fill="#000000" fill-opacity="0.0" clip-path="url(#id_0)" d="M348.3509 152.09445C348.3509 153.7513 347.00775 155.09445 345.3509 155.09445C343.69403 155.09445 342.3509 153.7513 342.3509 152.09445C342.3509 150.43759 343.69403 149.09445 345.3509 149.09445C347.00775 149.09445 348.3509 150.43759 348.3509 152.09445Z" fill-rule="nonzero"/><path fill="#000000" fill-opacity="0.0" clip-path="url(#id_0)" d="M352.0985 84.46111C352.0985 86.117966 350.75534 87.46111 349.0985 87.46111C347.44165 87.46111 346.0985 86.117966 346.0985 84.46111C346.0985 82.80426 347.44165 81.46111 349.0985 81.46111C350.75534 81.46111 352.0985 82.80426 352.0985 84.46111Z" fill-rule="nonzero"/><path fill="#000000" fill-opacity="0.0" clip-path="url(#id_0)" d="M355.8461 129.55C355.8461 131.20685 354.50296 132.55 352.8461 132.55C351.18924 132.55 349.8461 131.20685 349.8461 129.55C349.8461 127.89314 351.18924 126.55 352.8461 126.55C354.50296 126.55 355.8461 127.89314 355.8461 129.55Z" fill-rule="nonzero"/><path fill="#000000" fill-opacity="0.0" clip-path="url(#id_0)" d="M359.59372 174.63889C359.59372 176.29575 358.25055 177.63889 356.59372 177.63889C354.93686 177.63889 353.59372 176.29575 353.59372 174.63889C353.59372 172.98204 354.93686 171.63889 356.59372 171.63889C358.25055 171.63889 359.59372 172.98204 359.59372 174.63889Z" fill-rule="nonzero"/><path fill="#000000" fill-opacity="0.0" clip-path="url(#id_0)" d="M363.3413 152.09445C363.3413 153.7513 361.99817 155.09445 360.3413 155.09445C358.68445 155.09445 357.3413 153.7513 357.3413 152.09445C357.3413 150.43759 358.68445 149.09445 360.3413 149.09445C361.99817 149.09445 363.3413 150.43759 363.3413 152.09445Z" fill-rule="nonzero"/><path fill="#000000" fill-opacity="0.0" clip-path="url(#id_0)" d="M367.08893 129.55C367.08893 131.20685 365.74576 132.55 364.08893 132.55C362.43207 132.55 361.08893 131.20685 361.08893 129.55C361.08893 127.89314 362.43207 126.55 364.08893 126.55C365.74576 126.55 367.08893 127.89314 367.08893 129.55Z" fill-rule="nonzero"/><path fill="#000000" fill-opacity="0.0" clip-path="url(#id_0)" d="M370.83652 152.09445C370.83652 153.7513 369.49338 155.09445 367.83652 155.09445C366.17966 155.09445 364.83652 153.7513 364.83652 152.09445C364.83652 150.43759 366.17966 149.09445 367.83652 149.09445C369.49338 149.09445 370.83652 150.43759 370.83652 152.09445Z" fill-rule="nonzero"/><path fill="#000000" fill-opacity="0.0" clip-path="url(#id_0)" d="M374.58414 152.09445C374.58414 153.7513 373.24097 155.09445 371.58414 155.09445C369.92728 155.09445 368.58414 153.7513 368.58414 152.09445C368.58414 150.43759 369.92728 149.09445 371.58414 149.09445C373.24097 149.09445 374.58414 150.43759 374.58414 152.09445Z" fill-rule="nonzero"/><path fill="#000000" fill-opacity="0.0" clip-path="url(#id_0)" d="M378.33173 152.09445C378.33173 153.7513 376.9886 155.09445 375.33173 155.09445C373.67487 155.09445 372.33173 153.7513 372.33173 152.09445C372.33173 150.43759 373.67487 149.09445 375.33173 149.09445C376.9886 149.09445 378.33173 150.43759 378.33173 152.09445Z" fill-rule="nonzero"/><path fill="#000000" fill-opacity="0.0" clip-path="url(#id_0)" d="M382.07935 174.63889C382.07935 176.29575 380.7362 177.63889 379.07935 177.63889C377.4225 177.63889 376.07935 176.29575 376.07935 174.63889C376.07935 172.98204 377.4225 171.63889 379.07935 171.63889C380.7362 171.63889 382.07935 172.98204 382.07935 174.63889Z" fill-rule="nonzero"/><path fill="#000000" fill-opacity="0.0" clip-path="url(#id_0)" d="M385.82693 84.46111C385.82693 86.117966 384.4838 87.46111 382.82693 87.46111C381.17007 87.46111 379.82693 86.117966 379.82693 84.46111C379.82693 82.80426 381.17007 81.46111 382.82693 81.46111C384.4838 81.46111 385.82693 82.80426 385.82693 84.46111Z" fill-rule="nonzero"/><path fill="#000000" fill-opacity="0.0" clip-path="url(#id_0)" d="M389.57455 107.005554C389.57455 108.66241 388.2314 110.005554 386.57455 110.005554C384.9177 110.005554 383.57455 108.66241 383.57455 107.005554C383.57455 105.3487 384.9177 104.005554 386.57455 104.005554C388.2314 104.005554 389.57455 105.3487 389.57455 107.005554Z" fill-rule="nonzero"/><path fill="#000000" fill-opacity="0.0" clip-path="url(#id_0)" d="M393.32214 174.63889C393.32214 176.29575 391.979 177.63889 390.32214 177.63889C388.66528 177.63889 387.32214 176.29575 387.32214 174.63889C387.32214 172.98204 388.66528 171.63889 390.32214 171.63889C391.979 171.63889 393.32214 172.98204 393.32214 174.63889Z" fill-rule="nonzero"/><path fill="#000000" fill-opacity="0.0" clip-path="url(#id_0)" d="M397.06976 174.63889C397.06976 176.29575 395.72662 177.63889 394.06976 177.63889C392.4129 177.63889 391.06976 176.29575 391.06976 174.63889C391.06976 172.98204 392.4129 171.63889 394.06976 171.63889C395.72662 171.63889 397.06976 172.98204 397.06976 174.63889Z" fill-rule="nonzero"/><path fill="#000000" fill-opacity="0.0" clip-path="url(#id_0)" d="M400.81735 129.55C400.81735 131.20685 399.4742 132.55 397.81735 132.55C396.16052 132.55 394.81735 131.20685 394.81735 129.55C394.81735 127.89314 396.16052 126.55 397.81735 126.55C399.4742 126.55 400.81735 127.89314 400.81735 129.55Z" fill-rule="nonzero"/><path fill="#000000" fill-opacity="0.0" clip-path="url(#id_0)" d="M404.56497 152.09445C404.56497 153.7513 403.22183 155.09445 401.56497 155.09445C399.9081 155.09445 398.56497 153.7513 398.56497 152.09445C398.56497 150.43759 399.9081 149.09445 401.56497 149.09445C403.22183 149.09445 404.56497 150.43759 404.56497 152.09445Z" fill-rule="nonzero"/><path fill="#000000" fill-opacity="0.0" clip-path="url(#id_0)" d="M408.31256 129.55C408.31256 131.20685 406.96942 132.55 405.31256 132.55C403.65573 132.55 402.31256 131.20685 402.31256 129.55C402.31256 127.89314 403.65573 126.55 405.31256 126.55C406.96942 126.55 408.31256 127.89314 408.31256 129.55Z" fill-rule="nonzero"/><path fill="#000000" fill-opacity="0.0" clip-path="url(#id_0)" d="M412.06018 174.63889C412.06018 176.29575 410.71704 177.63889 409.06018 177.63889C407.40332 177.63889 406.06018 176.29575 406.06018 174.63889C406.06018 172.98204 407.40332 171.63889 409.06018 171.63889C410.71704 171.63889 412.06018 172.98204 412.06018 174.63889Z" fill-rule="nonzero"/><path fill="#000000" fill-opacity="0.0" clip-path="url(#id_0)" d="M415.80777 174.63889C415.80777 176.29575 414.46463 177.63889 412.80777 177.63889C411.15094 177.63889 409.80777 176.29575 409.80777 174.63889C409.80777 172.98204 411.15094 171.63889 412.80777 171.63889C414.46463 171.63889 415.80777 172.98204 415.80777 174.63889Z" fill-rule="nonzero"/><path fill="#000000" fill-opacity="0.0" clip-path="url(#id_0)" d="M419.5554 152.09445C419.5554 153.7513 418.21225 155.09445 416.5554 155.09445C414.89853 155.09445 413.5554 153.7513 413.5554 152.09445C413.5554 150.43759 414.89853 149.09445 416.5554 149.09445C418.21225 149.09445 419.5554 150.43759 419.5554 152.09445Z" fill-rule="nonzero"/><path fill="#000000" fill-opacity="0.0" clip-path="url(#id_0)" d="M423.30298 107.005554C423.30298 108.66241 421.95984 110.005554 420.30298 110.005554C418.64615 110.005554 417.30298 108.66241 417.30298 107.005554C417.30298 105.3487 418.64615 104.005554 420.30298 104.005554C421.95984 104.005554 423.30298 105.3487 423.30298 107.005554Z" fill-rule="nonzero"/><path fill="#000000" fill-opacity="0.0" clip-path="url(#id_0)" d="M427.0506 174.63889C427.0506 176.29575 425.70746 177.63889 424.0506 177.63889C422.39374 177.63889 421.0506 176.29575 421.0506 174.63889C421.0506 172.98204 422.39374 171.63889 424.0506 171.63889C425.70746 171.63889 427.0506 172.98204 427.0506 174.63889Z" fill-rule="nonzero"/><path fill="#000000" fill-opacity="0.0" clip-path="url(#id_0)" d="M430.7982 107.005554C430.7982 108.66241 429.45505 110.005554 427.7982 110.005554C426.14136 110.005554 424.7982 108.66241 424.7982 107.005554C424.7982 105.3487 426.14136 104.005554 427.7982 104.005554C429.45505 104.005554 430.7982 105.3487 430.7982 107.005554Z" fill-rule="nonzero"/><path fill="#000000" fill-opacity="0.0" clip-path="url(#id_0)" d="M434.5458 129.55C434.5458 131.20685 433.20267 132.55 431.5458 132.55C429.88895 132.55 428.5458 131.20685 428.5458 129.55C428.5458 127.89314 429.88895 126.55 431.5458 126.55C433.20267 126.55 434.5458 127.89314 434.5458 129.55Z" fill-rule="nonzero"/><path fill="#000000" fill-opacity="0.0" clip-path="url(#id_0)" d="M438.2934 84.46111C438.2934 86.117966 436.95026 87.46111 435.2934 87.46111C433.63657 87.46111 432.2934 86.117966 432.2934 84.46111C432.2934 82.80426 433.63657 81.46111 435.2934 81.46111C436.95026 81.46111 438.2934 82.80426 438.2934 84.46111Z" fill-rule="nonzero"/><path fill="#000000" fill-opacity="0.0" clip-path="url(#id_0)" d="M442.04102 129.55C442.04102 131.20685 440.69788 132.55 439.04102 132.55C437.38416 132.55 436.04102 131.20685 436.04102 129.55C436.04102 127.89314 437.38416 126.55 439.04102 126.55C440.69788 126.55 442.04102 127.89314 442.04102 129.55Z" fill-rule="nonzero"/><path fill="#000000" fill-opacity="0.0" clip-path="url(#id_0)" d="M445.78864 107.005554C445.78864 108.66241 444.44547 110.005554 442.78864 110.005554C441.13177 110.005554 439.78864 108.66241 439.78864 107.005554C439.78864 105.3487 441.13177 104.005554 442.78864 104.005554C444.44547 104.005554 445.78864 105.3487 445.78864 107.005554Z" fill-rule="nonzero"/><path fill="#000000" fill-opacity="0.0" clip-path="url(#id_0)" d="M449.53622 84.46111C449.53622 86.117966 448.19308 87.46111 446.53622 87.46111C444.87936 87.46111 443.53622 86.117966 443.53622 84.46111C443.53622 82.80426 444.87936 81.46111 446.53622 81.46111C448.19308 81.46111 449.53622 82.80426 449.53622 84.46111Z" fill-rule="nonzero"/><path fill="#000000" fill-opacity="0.0" clip-path="url(#id_0)" d="M453.28384 84.46111C453.28384 86.117966 451.94067 87.46111 450.28384 87.46111C448.62698 87.46111 447.28384 86.117966 447.28384 84.46111C447.28384 82.80426 448.62698 81.46111 450.28384 81.46111C451.94067 81.46111 453.28384 82.80426 453.28384 84.46111Z" fill-rule="nonzero"/><path fill="#000000" fill-opacity="0.0" clip-path="url(#id_0)" d="M457.03143 107.005554C457.03143 108.66241 455.6883 110.005554 454.03143 110.005554C452.37457 110.005554 451.03143 108.66241 451.03143 107.005554C451.03143 105.3487 452.37457 104.005554 454.03143 104.005554C455.6883 104.005554 457.03143 105.3487 457.03143 107.005554Z" fill-rule="nonzero"/><path fill="#000000" fill-opacity="0.0" clip-path="url(#id_0)" d="M460.77905 152.09445C460.77905 153.7513 459.43588 155.09445 457.77905 155.09445C456.1222 155.09445 454.77905 153.7513 454.77905 152.09445C454.77905 150.43759 456.1222 149.09445 457.77905 149.09445C459.43588 149.09445 460.77905 150.43759 460.77905 152.09445Z" fill-rule="nonzero"/><path fill="#000000" fill-opacity="0.0" clip-path="url(#id_0)" d="M464.52664 152.09445C464.52664 153.7513 463.1835 155.09445 461.52664 155.09445C459.86978 155.09445 458.52664 153.7513 458.52664 152.09445C458.52664 150.43759 459.86978 149.09445 461.52664 149.09445C463.1835 149.09445 464.52664 150.43759 464.52664 152.09445Z" fill-rule="nonzero"/><path fill="#000000" fill-opacity="0.0" clip-path="url(#id_0)" d="M468.27426 129.55C468.27426 131.20685 466.9311 132.55 465.27426 132.55C463.6174 132.55 462.27426 131.20685 462.27426 129.55C462.27426 127.89314 463.6174 126.55 465.27426 126.55C466.9311 126.55 468.27426 127.89314 468.27426 129.55Z" fill-rule="nonzero"/><path fill="#000000" fill-opacity="0.0" clip-path="url(#id_0)" d="M472.02185 129.55C472.02185 131.20685 470.6787 132.55 469.02185 132.55C467.365 132.55 466.02185 131.20685 466.02185 129.55C466.02185 127.89314 467.365 126.55 469.02185 126.55C470.6787 126.55 472.02185 127.89314 472.02185 129.55Z" fill-rule="nonzero"/><path fill="#000000" fill-opacity="0.0" clip-path="url(#id_0)" d="M475.76947 129.55C475.76947 131.20685 474.4263 132.55 472.76947 132.55C471.1126 132.55 469.76947 131.20685 469.76947 129.55C469.76947 127.89314 471.1126 126.55 472.76947 126.55C474.4263 126.55 475.76947 127.89314 475.76947 129.55Z" fill-rule="nonzero"/><path fill="#000000" fill-opacity="0.0" clip-path="url(#id_0)" d="M479.51706 107.005554C479.51706 108.66241 478.17392 110.005554 476.51706 110.005554C474.8602 110.005554 473.51706 108.66241 473.51706 107.005554C473.51706 105.3487 474.8602 104.005554 476.51706 104.005554C478.17392 104.005554 479.51706 105.3487 479.51706 107.005554Z" fill-rule="nonzero"/><path fill="#000000" fill-opacity="0.0" clip-path="url(#id_0)" d="M483.26468 152.09445C483.26468 153.7513 481.9215 155.09445 480.26468 155.09445C478.60782 155.09445 477.26468 153.7513 477.26468 152.09445C477.26468 150.43759 478.60782 149.09445 480.26468 149.09445C481.9215 149.09445 483.26468 150.43759 483.26468 152.09445Z" fill-rule="nonzero"/><path fill="#000000" fill-opacity="0.0" clip-path="url(#id_0)" d="M487.01227 129.55C487.01227 131.20685 485.66913 132.55 484.01227 132.55C482.3554 132.55 481.01227 131.20685 481.01227 129.55C481.01227 127.89314 482.3554 126.55 484.01227 126.55C485.66913 126.55 487.01227 127.89314 487.01227 129.55Z" fill-rule="nonzero"/><path fill="#000000" fill-opacity="0.0" clip-path="url(#id_0)" d="M490.7599 129.55C490.7599 131.20685 489.41672 132.55 487.7599 132.55C486.10303 132.55 484.7599 131.20685 484.7599 129.55C484.7599 127.89314 486.10303 126.55 487.7599 126.55C489.41672 126.55 490.7599 127.89314 490.7599 129.55Z" fill-rule="nonzero"/><path fill="#000000" fill-opacity="0.0" clip-path="url(#id_0)" d="M494.50748 129.55C494.50748 131.20685 493.16434 132.55 491.50748 132.55C489.85062 132.55 488.50748 131.20685 488.50748 129.55C488.50748 127.89314 489.85062 126.55 491.50748 126.55C493.16434 126.55 494.50748 127.89314 494.50748 129.55Z" fill-rule="nonzero"/><path fill="#000000" fill-opacity="0.0" clip-path="url(#id_0)" d="M498.2551 129.55C498.2551 131.20685 496.91196 132.55 495.2551 132.55C493.59824 132.55 492.2551 131.20685 492.2551 129.55C492.2551 127.89314 493.59824 126.55 495.2551 126.55C496.91196 126.55 498.2551 127.89314 498.2551 129.55Z" fill-rule="nonzero"/><path fill="#000000" fill-opacity="0.0" clip-path="url(#id_0)" d="M502.0027 107.005554C502.0027 108.66241 500.65955 110.005554 499.0027 110.005554C497.34583 110.005554 496.0027 108.66241 496.0027 107.005554C496.0027 105.3487 497.34583 104.005554 499.0027 104.005554C500.65955 104.005554 502.0027 105.3487 502.0027 107.005554Z" fill-rule="nonzero"/><path fill="#000000" fill-opacity="0.0" clip-path="url(#id_0)" d="M505.7503 107.005554C505.7503 108.66241 504.40717 110.005554 502.7503 110.005554C501.09344 110.005554 499.7503 108.66241 499.7503 107.005554C499.7503 105.3487 501.09344 104.005554 502.7503 104.005554C504.40717 104.005554 505.7503 105.3487 505.7503 107.005554Z" fill-rule="nonzero"/><path fill="#000000" fill-opacity="0.0" clip-path="url(#id_0)" d="M509.4979 129.55C509.4979 131.20685 508.15475 132.55 506.4979 132.55C504.84103 132.55 503.4979 131.20685 503.4979 129.55C503.4979 127.89314 504.84103 126.55 506.4979 126.55C508.15475 126.55 509.4979 127.89314 509.4979 129.55Z" fill-rule="nonzero"/><path fill="#000000" fill-opacity="0.0" clip-path="url(#id_0)" d="M513.2455 152.09445C513.2455 153.7513 511.90237 155.09445 510.2455 155.09445C508.58865 155.09445 507.2455 153.7513 507.2455 152.09445C507.2455 150.43759 508.58865 149.09445 510.2455 149.09445C511.90237 149.09445 513.2455 150.43759 513.2455 152.09445Z" fill-rule="nonzero"/><path fill="#000000" fill-opacity="0.0" clip-path="url(#id_0)" d="M516.9931 152.09445C516.9931 153.7513 515.64996 155.09445 513.9931 155.09445C512.33624 155.09445 510.9931 153.7513 510.9931 152.09445C510.9931 150.43759 512.33624 149.09445 513.9931 149.09445C515.64996 149.09445 516.9931 150.43759 516.9931 152.09445Z" fill-rule="nonzero"/><path fill="#000000" fill-opacity="0.0" clip-path="url(#id_0)" d="M520.7407 152.09445C520.7407 153.7513 519.3976 155.09445 517.7407 155.09445C516.08386 155.09445 514.7407 153.7513 514.7407 152.09445C514.7407 150.43759 516.08386 149.09445 517.7407 149.09445C519.3976 149.09445 520.7407 150.43759 520.7407 152.09445Z" fill-rule="nonzero"/><path fill="#000000" fill-opacity="0.0" clip-path="url(#id_0)" d="M524.48834 129.55C524.48834 131.20685 523.1452 132.55 521.48834 132.55C519.8315 132.55 518.48834 131.20685 518.48834 129.55C518.48834 127.89314 519.8315 126.55 521.48834 126.55C523.1452 126.55 524.48834 127.89314 524.48834 129.55Z" fill-rule="nonzero"/><path fill="#000000" fill-opacity="0.0" clip-path="url(#id_0)" d="M528.2359 107.005554C528.2359 108.66241 526.89276 110.005554 525.2359 110.005554C523.5791 110.005554 522.2359 108.66241 522.2359 107.005554C522.2359 105.3487 523.5791 104.005554 525.2359 104.005554C526.89276 104.005554 528.2359 105.3487 528.2359 107.005554Z" fill-rule="nonzero"/><path fill="#000000" fill-opacity="0.0" clip-path="url(#id_0)" d="M531.9835 107.005554C531.9835 108.66241 530.6404 110.005554 528.9835 110.005554C527.32666 110.005554 525.9835 108.66241 525.9835 107.005554C525.9835 105.3487 527.32666 104.005554 528.9835 104.005554C530.6404 104.005554 531.9835 105.3487 531.9835 107.005554Z" fill-rule="nonzero"/><path fill="#000000" fill-opacity="0.0" clip-path="url(#id_0)" d="M535.73114 174.63889C535.73114 176.29575 534.388 177.63889 532.73114 177.63889C531.0743 177.63889 529.73114 176.29575 529.73114 174.63889C529.73114 172.98204 531.0743 171.63889 532.73114 171.63889C534.388 171.63889 535.73114 172.98204 535.73114 174.63889Z" fill-rule="nonzero"/><path fill="#000000" fill-opacity="0.0" clip-path="url(#id_0)" d="M539.47876 152.09445C539.47876 153.7513 538.1356 155.09445 536.47876 155.09445C534.8219 155.09445 533.47876 153.7513 533.47876 152.09445C533.47876 150.43759 534.8219 149.09445 536.47876 149.09445C538.1356 149.09445 539.47876 150.43759 539.47876 152.09445Z" fill-rule="nonzero"/><path fill="#000000" fill-opacity="0.0" clip-path="url(#id_0)" d="M543.2263 152.09445C543.2263 153.7513 541.8832 155.09445 540.2263 155.09445C538.5695 155.09445 537.2263 153.7513 537.2263 152.09445C537.2263 150.43759 538.5695 149.09445 540.2263 149.09445C541.8832 149.09445 543.2263 150.43759 543.2263 152.09445Z" fill-rule="nonzero"/><path fill="#000000" fill-opacity="0.0" clip-path="url(#id_0)" d="M546.97394 107.005554C546.97394 108.66241 545.6308 110.005554 543.97394 110.005554C542.3171 110.005554 540.97394 108.66241 540.97394 107.005554C540.97394 105.3487 542.3171 104.005554 543.97394 104.005554C545.6308 104.005554 546.97394 105.3487 546.97394 107.005554Z" fill-rule="nonzero"/><path fill="#000000" fill-opacity="0.0" clip-path="url(#id_0)" d="M550.72156 152.09445C550.72156 153.7513 549.3784 155.09445 547.72156 155.09445C546.0647 155.09445 544.72156 153.7513 544.72156 152.09445C544.72156 150.43759 546.0647 149.09445 547.72156 149.09445C549.3784 149.09445 550.72156 150.43759 550.72156 152.09445Z" fill-rule="nonzero"/><path fill="#000000" fill-opacity="0.0" clip-path="url(#id_0)" d="M554.4692 84.46111C554.4692 86.117966 553.12604 87.46111 551.4692 87.46111C549.8123 87.46111 548.4692 86.117966 548.4692 84.46111C548.4692 82.80426 549.8123 81.46111 551.4692 81.46111C553.12604 81.46111 554.4692 82.80426 554.4692 84.46111Z" fill-rule="nonzero"/><path fill="#000000" fill-opacity="0.0" clip-path="url(#id_0)" d="M558.21674 152.09445C558.21674 153.7513 556.8736 155.09445 555.21674 155.09445C553.55994 155.09445 552.21674 153.7513 552.21674 152.09445C552.21674 150.43759 553.55994 149.09445 555.21674 149.09445C556.8736 149.09445 558.21674 150.43759 558.21674 152.09445Z" fill-rule="nonzero"/><path fill="#000000" fill-opacity="0.0" clip-path="url(#id_0)" d="M561.96436 129.55C561.96436 131.20685 560.6212 132.55 558.96436 132.55C557.3075 132.55 555.96436 131.20685 555.96436 129.55C555.96436 127.89314 557.3075 126.55 558.96436 126.55C560.6212 126.55 561.96436 127.89314 561.96436 129.55Z" fill-rule="nonzero"/><path fill="#000000" fill-opacity="0.0" clip-path="url(#id_0)" d="M565.712 129.55C565.712 131.20685 564.36884 132.55 562.712 132.55C561.0551 132.55 559.712 131.20685 559.712 129.55C559.712 127.89314 561.0551 126.55 562.712 126.55C564.36884 126.55 565.712 127.89314 565.712 129.55Z" fill-rule="nonzero"/><path fill="#000000" fill-opacity="0.0" clip-path="url(#id_0)" d="M569.4596 129.55C569.4596 131.20685 568.11646 132.55 566.4596 132.55C564.80273 132.55 563.4596 131.20685 563.4596 129.55C563.4596 127.89314 564.80273 126.55 566.4596 126.55C568.11646 126.55 569.4596 127.89314 569.4596 129.55Z" fill-rule="nonzero"/><path fill="#000000" fill-opacity="0.0" clip-path="url(#id_0)" d="M573.2072 107.005554C573.2072 108.66241 571.864 110.005554 570.2072 110.005554C568.55035 110.005554 567.2072 108.66241 567.2072 107.005554C567.2072 105.3487 568.55035 104.005554 570.2072 104.005554C571.864 104.005554 573.2072 105.3487 573.2072 107.005554Z" fill-rule="nonzero"/><path fill="#000000" fill-opacity="0.0" clip-path="url(#id_0)" d="M576.9548 107.005554C576.9548 108.66241 575.61163 110.005554 573.9548 110.005554C572.2979 110.005554 570.9548 108.66241 570.9548 107.005554C570.9548 105.3487 572.2979 104.005554 573.9548 104.005554C575.61163 104.005554 576.9548 105.3487 576.9548 107.005554Z" fill-rule="nonzero"/><path fill="#000000" fill-opacity="0.0" clip-path="url(#id_0)" d="M580.7024 152.09445C580.7024 153.7513 579.35925 155.09445 577.7024 155.09445C576.04553 155.09445 574.7024 153.7513 574.7024 152.09445C574.7024 150.43759 576.04553 149.09445 577.7024 149.09445C579.35925 149.09445 580.7024 150.43759 580.7024 152.09445Z" fill-rule="nonzero"/><path fill="#000000" fill-opacity="0.0" clip-path="url(#id_0)" d="M584.45 129.55C584.45 131.20685 583.1069 132.55 581.45 132.55C579.79315 132.55 578.45 131.20685 578.45 129.55C578.45 127.89314 579.79315 126.55 581.45 126.55C583.1069 126.55 584.45 127.89314 584.45 129.55Z" fill-rule="nonzero"/><path fill="#000000" d="M33.05 332.21564Q33.05 330.6844 33.3625 329.7625Q33.675 328.825 34.284374 328.325Q34.909374 327.825 35.846874 327.825Q36.534374 327.825 37.05 328.10626Q37.58125 328.3875 37.925 328.91876Q38.26875 329.4344 38.45625 330.1844Q38.64375 330.9344 38.64375 332.21564Q38.64375 333.73126 38.33125 334.65314Q38.034374 335.575 37.409374 336.09064Q36.8 336.59064 35.846874 336.59064Q34.6125 336.59064 33.89375 335.7Q33.05 334.6375 33.05 332.21564ZM34.128124 332.21564Q34.128124 334.325 34.628124 335.02814Q35.128124 335.73126 35.846874 335.73126Q36.58125 335.73126 37.065624 335.02814Q37.565624 334.325 37.565624 332.21564Q37.565624 330.09064 37.065624 329.40314Q36.58125 328.7 35.83125 328.7Q35.1125 328.7 34.675 329.3094Q34.128124 330.09064 34.128124 332.21564Z" fill-rule="nonzero"/><path fill="#000000" d="M38.596874 290.3455L38.596874 291.3611L32.909374 291.3611Q32.909374 290.9861 33.034374 290.62674Q33.253124 290.0486 33.721874 289.4861Q34.20625 288.9236 35.1125 288.18924Q36.51875 287.033 37.003124 286.3611Q37.503124 285.68924 37.503124 285.0955Q37.503124 284.4705 37.05 284.0486Q36.596874 283.6111 35.878124 283.6111Q35.1125 283.6111 34.659374 284.06424Q34.20625 284.51736 34.190624 285.32986L33.1125 285.2205Q33.221874 284.00174 33.940624 283.37674Q34.675 282.7361 35.909374 282.7361Q37.14375 282.7361 37.8625 283.4236Q38.58125 284.1111 38.58125 285.12674Q38.58125 285.64236 38.3625 286.14236Q38.159374 286.62674 37.659374 287.18924Q37.175 287.7361 36.05 288.68924Q35.096874 289.4861 34.815624 289.783Q34.55 290.06424 34.378124 290.3455L38.596874 290.3455Z" fill-rule="nonzero"/><path fill="#000000" d="M36.425 246.27222L36.425 244.20972L32.70625 244.20972L32.70625 243.24097L36.628124 237.67847L37.4875 237.67847L37.4875 243.24097L38.64375 243.24097L38.64375 244.20972L37.4875 244.20972L37.4875 246.27222L36.425 246.27222ZM36.425 243.24097L36.425 239.38159L33.7375 243.24097L36.425 243.24097Z" fill-rule="nonzero"/><path fill="#000000" d="M38.51875 194.69896L37.471874 194.77708Q37.33125 194.15208 37.08125 193.87083Q36.64375 193.41771 36.01875 193.41771Q35.51875 193.41771 35.128124 193.69896Q34.64375 194.07396 34.346874 194.77708Q34.065624 195.46458 34.05 196.74583Q34.425 196.16771 34.971874 195.88646Q35.534374 195.60521 36.14375 195.60521Q37.190624 195.60521 37.925 196.38646Q38.675 197.16771 38.675 198.38646Q38.675 199.19896 38.315624 199.90208Q37.971874 200.58958 37.3625 200.96458Q36.753124 201.32396 35.9875 201.32396Q34.659374 201.32396 33.83125 200.35521Q33.003124 199.38646 33.003124 197.16771Q33.003124 194.66771 33.925 193.54271Q34.721874 192.55833 36.08125 192.55833Q37.096874 192.55833 37.7375 193.13646Q38.39375 193.69896 38.51875 194.69896ZM34.221874 198.40208Q34.221874 198.94896 34.440624 199.44896Q34.675 199.93333 35.08125 200.19896Q35.503124 200.46458 35.971874 200.46458Q36.628124 200.46458 37.1125 199.93333Q37.596874 199.38646 37.596874 198.46458Q37.596874 197.57396 37.1125 197.05833Q36.64375 196.54271 35.925 196.54271Q35.20625 196.54271 34.70625 197.05833Q34.221874 197.57396 34.221874 198.40208Z" fill-rule="nonzero"/><path fill="#000000" d="M34.675 151.4382Q34.01875 151.1882 33.690624 150.7507Q33.378124 150.29758 33.378124 149.6882Q33.378124 148.7507 34.05 148.11008Q34.7375 147.46945 35.846874 147.46945Q36.971874 147.46945 37.659374 148.1257Q38.346874 148.78195 38.346874 149.71945Q38.346874 150.3132 38.034374 150.7507Q37.721874 151.1882 37.08125 151.4382Q37.878124 151.6882 38.284374 152.26633Q38.690624 152.84445 38.690624 153.64133Q38.690624 154.73508 37.909374 155.48508Q37.14375 156.23508 35.8625 156.23508Q34.596874 156.23508 33.815624 155.48508Q33.034374 154.73508 33.034374 153.61008Q33.034374 152.76633 33.45625 152.20383Q33.89375 151.64133 34.675 151.4382ZM34.45625 149.64133Q34.45625 150.2507 34.846874 150.64133Q35.253124 151.03195 35.878124 151.03195Q36.4875 151.03195 36.878124 150.65695Q37.26875 150.26633 37.26875 149.70383Q37.26875 149.1257 36.8625 148.73508Q36.45625 148.32883 35.8625 148.32883Q35.253124 148.32883 34.846874 148.71945Q34.45625 149.11008 34.45625 149.64133ZM34.128124 153.61008Q34.128124 154.0632 34.33125 154.48508Q34.55 154.90695 34.971874 155.14133Q35.39375 155.3757 35.878124 155.3757Q36.628124 155.3757 37.1125 154.89133Q37.6125 154.40695 37.6125 153.65695Q37.6125 152.89133 37.1125 152.39133Q36.6125 151.89133 35.846874 151.89133Q35.096874 151.89133 34.6125 152.39133Q34.128124 152.8757 34.128124 153.61008Z" fill-rule="nonzero"/><path fill="#000000" d="M30.01875 111.005554L28.971874 111.005554L28.971874 104.286804Q28.58125 104.64618 27.95625 105.02118Q27.346874 105.380554 26.8625 105.55243L26.8625 104.536804Q27.7375 104.11493 28.39375 103.536804Q29.065624 102.943054 29.346874 102.380554L30.01875 102.380554L30.01875 111.005554ZM33.05 106.77118Q33.05 105.23993 33.3625 104.318054Q33.675 103.380554 34.284374 102.880554Q34.909374 102.380554 35.846874 102.380554Q36.534374 102.380554 37.05 102.661804Q37.58125 102.943054 37.925 103.474304Q38.26875 103.98993 38.45625 104.73993Q38.64375 105.48993 38.64375 106.77118Q38.64375 108.286804 38.33125 109.20868Q38.034374 110.130554 37.409374 110.64618Q36.8 111.14618 35.846874 111.14618Q34.6125 111.14618 33.89375 110.255554Q33.05 109.193054 33.05 106.77118ZM34.128124 106.77118Q34.128124 108.880554 34.628124 109.58368Q35.128124 110.286804 35.846874 110.286804Q36.58125 110.286804 37.065624 109.58368Q37.565624 108.880554 37.565624 106.77118Q37.565624 104.64618 37.065624 103.95868Q36.58125 103.255554 35.83125 103.255554Q35.1125 103.255554 34.675 103.86493Q34.128124 104.64618 34.128124 106.77118Z" fill-rule="nonzero"/><path fill="#000000" d="M30.01875 65.916664L28.971874 65.916664L28.971874 59.197914Q28.58125 59.55729 27.95625 59.93229Q27.346874 60.291664 26.8625 60.46354L26.8625 59.447914Q27.7375 59.02604 28.39375 58.447914Q29.065624 57.854164 29.346874 57.291664L30.01875 57.291664L30.01875 65.916664ZM38.596874 64.90104L38.596874 65.916664L32.909374 65.916664Q32.909374 65.541664 33.034374 65.18229Q33.253124 64.604164 33.721874 64.041664Q34.20625 63.479164 35.1125 62.74479Q36.51875 61.58854 37.003124 60.916664Q37.503124 60.24479 37.503124 59.65104Q37.503124 59.02604 37.05 58.604164Q36.596874 58.166664 35.878124 58.166664Q35.1125 58.166664 34.659374 58.61979Q34.20625 59.072914 34.190624 59.885414L33.1125 59.77604Q33.221874 58.55729 33.940624 57.93229Q34.675 57.291664 35.909374 57.291664Q37.14375 57.291664 37.8625 57.979164Q38.58125 58.666664 38.58125 59.68229Q38.58125 60.197914 38.3625 60.697914Q38.159374 61.18229 37.659374 61.74479Q37.175 62.291664 36.05 63.24479Q35.096874 64.041664 34.815624 64.33854Q34.55 64.61979 34.378124 64.90104L38.596874 64.90104Z" fill-rule="nonzero"/><path fill="#000000" d="M127.7795 348.4344L127.7795 349.45L122.092 349.45Q122.092 349.075 122.217 348.71564Q122.43575 348.1375 122.9045 347.575Q123.38888 347.0125 124.29513 346.27814Q125.70138 345.1219 126.18575 344.45Q126.68575 343.77814 126.68575 343.1844Q126.68575 342.5594 126.23263 342.1375Q125.7795 341.7 125.06075 341.7Q124.29513 341.7 123.842 342.15314Q123.38888 342.60626 123.37325 343.41876L122.29513 343.3094Q122.4045 342.09064 123.12325 341.46564Q123.85763 340.825 125.092 340.825Q126.32638 340.825 127.04513 341.5125Q127.76388 342.2 127.76388 343.21564Q127.76388 343.73126 127.54513 344.23126Q127.342 344.71564 126.842 345.27814Q126.35763 345.825 125.23263 346.77814Q124.2795 347.575 123.99825 347.8719Q123.73263 348.15314 123.56075 348.4344L127.7795 348.4344ZM129.23264 347.2L130.34201 347.10626Q130.46701 347.91876 130.90451 348.325Q131.35764 348.73126 131.99826 348.73126Q132.74826 348.73126 133.27951 348.15314Q133.81076 347.575 133.81076 346.6375Q133.81076 345.73126 133.29514 345.21564Q132.79514 344.6844 131.96701 344.6844Q131.46701 344.6844 131.04514 344.91876Q130.63889 345.15314 130.40451 345.5125L129.42014 345.3875L130.24826 340.98126L134.52951 340.98126L134.52951 341.98126L131.09201 341.98126L130.63889 344.29376Q131.40451 343.7469 132.24826 343.7469Q133.37326 343.7469 134.13889 344.52814Q134.92014 345.3094 134.92014 346.54376Q134.92014 347.7 134.24826 348.5594Q133.42014 349.59064 131.99826 349.59064Q130.82639 349.59064 130.07639 348.9344Q129.34201 348.27814 129.23264 347.2ZM136.23264 345.21564Q136.23264 343.6844 136.54514 342.7625Q136.85764 341.825 137.46701 341.325Q138.09201 340.825 139.02951 340.825Q139.71701 340.825 140.23264 341.10626Q140.76389 341.3875 141.10764 341.91876Q141.45139 342.4344 141.63889 343.1844Q141.82639 343.9344 141.82639 345.21564Q141.82639 346.73126 141.51389 347.65314Q141.21701 348.575 140.59201 349.09064Q139.98264 349.59064 139.02951 349.59064Q137.79514 349.59064 137.07639 348.7Q136.23264 347.6375 136.23264 345.21564ZM137.31076 345.21564Q137.31076 347.325 137.81076 348.02814Q138.31076 348.73126 139.02951 348.73126Q139.76389 348.73126 140.24826 348.02814Q140.74826 347.325 140.74826 345.21564Q140.74826 343.09064 140.24826 342.40314Q139.76389 341.7 139.01389 341.7Q138.29514 341.7 137.85764 342.3094Q137.31076 343.09064 137.31076 345.21564ZM143.23264 345.21564Q143.23264 343.6844 143.54514 342.7625Q143.85764 341.825 144.46701 341.325Q145.09201 340.825 146.02951 340.825Q146.71701 340.825 147.23264 341.10626Q147.76389 341.3875 148.10764 341.91876Q148.45139 342.4344 148.63889 343.1844Q148.82639 343.9344 148.82639 345.21564Q148.82639 346.73126 148.51389 347.65314Q148.21701 348.575 147.59201 349.09064Q146.98264 349.59064 146.02951 349.59064Q144.79514 349.59064 144.07639 348.7Q143.23264 347.6375 143.23264 345.21564ZM144.31076 345.21564Q144.31076 347.325 144.81076 348.02814Q145.31076 348.73126 146.02951 348.73126Q146.76389 348.73126 147.24826 348.02814Q147.74826 347.325 147.74826 345.21564Q147.74826 343.09064 147.24826 342.40314Q146.76389 341.7 146.01389 341.7Q145.29514 341.7 144.85764 342.3094Q144.31076 343.09064 144.31076 345.21564ZM150.23264 345.21564Q150.23264 343.6844 150.54514 342.7625Q150.85764 341.825 151.46701 341.325Q152.09201 340.825 153.02951 340.825Q153.71701 340.825 154.23264 341.10626Q154.76389 341.3875 155.10764 341.91876Q155.45139 342.4344 155.63889 343.1844Q155.82639 343.9344 155.82639 345.21564Q155.82639 346.73126 155.51389 347.65314Q155.21701 348.575 154.59201 349.09064Q153.98264 349.59064 153.02951 349.59064Q151.79514 349.59064 151.07639 348.7Q150.23264 347.6375 150.23264 345.21564ZM151.31076 345.21564Q151.31076 347.325 151.81076 348.02814Q152.31076 348.73126 153.02951 348.73126Q153.76389 348.73126 154.24826 348.02814Q154.74826 347.325 154.74826 345.21564Q154.74826 343.09064 154.24826 342.40314Q153.76389 341.7 153.01389 341.7Q152.29514 341.7 151.85764 342.3094Q151.31076 343.09064 151.31076 345.21564Z" fill-rule="nonzero"/><path fill="#000000" d="M215.92274 347.2L217.03212 347.10626Q217.15712 347.91876 217.59462 348.325Q218.04774 348.73126 218.68837 348.73126Q219.43837 348.73126 219.96962 348.15314Q220.50087 347.575 220.50087 346.6375Q220.50087 345.73126 219.98524 345.21564Q219.48524 344.6844 218.65712 344.6844Q218.15712 344.6844 217.73524 344.91876Q217.329 345.15314 217.09462 345.5125L216.11024 345.3875L216.93837 340.98126L221.21962 340.98126L221.21962 341.98126L217.78212 341.98126L217.329 344.29376Q218.09462 343.7469 218.93837 343.7469Q220.06337 343.7469 220.829 344.52814Q221.61024 345.3094 221.61024 346.54376Q221.61024 347.7 220.93837 348.5594Q220.11024 349.59064 218.68837 349.59064Q217.5165 349.59064 216.7665 348.9344Q216.03212 348.27814 215.92274 347.2ZM222.92274 345.21564Q222.92274 343.6844 223.23524 342.7625Q223.54774 341.825 224.15712 341.325Q224.78212 340.825 225.71962 340.825Q226.40712 340.825 226.92274 341.10626Q227.454 341.3875 227.79774 341.91876Q228.1415 342.4344 228.329 343.1844Q228.5165 343.9344 228.5165 345.21564Q228.5165 346.73126 228.204 347.65314Q227.90712 348.575 227.28212 349.09064Q226.67274 349.59064 225.71962 349.59064Q224.48524 349.59064 223.7665 348.7Q222.92274 347.6375 222.92274 345.21564ZM224.00087 345.21564Q224.00087 347.325 224.50087 348.02814Q225.00087 348.73126 225.71962 348.73126Q226.454 348.73126 226.93837 348.02814Q227.43837 347.325 227.43837 345.21564Q227.43837 343.09064 226.93837 342.40314Q226.454 341.7 225.704 341.7Q224.98524 341.7 224.54774 342.3094Q224.00087 343.09064 224.00087 345.21564ZM229.92274 345.21564Q229.92274 343.6844 230.23524 342.7625Q230.54774 341.825 231.15712 341.325Q231.78212 340.825 232.71962 340.825Q233.40712 340.825 233.92274 341.10626Q234.454 341.3875 234.79774 341.91876Q235.1415 342.4344 235.329 343.1844Q235.5165 343.9344 235.5165 345.21564Q235.5165 346.73126 235.204 347.65314Q234.90712 348.575 234.28212 349.09064Q233.67274 349.59064 232.71962 349.59064Q231.48524 349.59064 230.7665 348.7Q229.92274 347.6375 229.92274 345.21564ZM231.00087 345.21564Q231.00087 347.325 231.50087 348.02814Q232.00087 348.73126 232.71962 348.73126Q233.454 348.73126 233.93837 348.02814Q234.43837 347.325 234.43837 345.21564Q234.43837 343.09064 233.93837 342.40314Q233.454 341.7 232.704 341.7Q231.98524 341.7 231.54774 342.3094Q231.00087 343.09064 231.00087 345.21564ZM236.92274 345.21564Q236.92274 343.6844 237.23524 342.7625Q237.54774 341.825 238.15712 341.325Q238.78212 340.825 239.71962 340.825Q240.40712 340.825 240.92274 341.10626Q241.454 341.3875 241.79774 341.91876Q242.1415 342.4344 242.329 343.1844Q242.5165 343.9344 242.5165 345.21564Q242.5165 346.73126 242.204 347.65314Q241.90712 348.575 241.28212 349.09064Q240.67274 349.59064 239.71962 349.59064Q238.48524 349.59064 237.7665 348.7Q236.92274 347.6375 236.92274 345.21564ZM238.00087 345.21564Q238.00087 347.325 238.50087 348.02814Q239.00087 348.73126 239.71962 348.73126Q240.454 348.73126 240.93837 348.02814Q241.43837 347.325 241.43837 345.21564Q241.43837 343.09064 240.93837 342.40314Q240.454 341.7 239.704 341.7Q238.98524 341.7 238.54774 342.3094Q238.00087 343.09064 238.00087 345.21564ZM243.92274 345.21564Q243.92274 343.6844 244.23524 342.7625Q244.54774 341.825 245.15712 341.325Q245.78212 340.825 246.71962 340.825Q247.40712 340.825 247.92274 341.10626Q248.454 341.3875 248.79774 341.91876Q249.1415 342.4344 249.329 343.1844Q249.5165 343.9344 249.5165 345.21564Q249.5165 346.73126 249.204 347.65314Q248.90712 348.575 248.28212 349.09064Q247.67274 349.59064 246.71962 349.59064Q245.48524 349.59064 244.7665 348.7Q243.92274 347.6375 243.92274 345.21564ZM245.00087 345.21564Q245.00087 347.325 245.50087 348.02814Q246.00087 348.73126 246.71962 348.73126Q247.454 348.73126 247.93837 348.02814Q248.43837 347.325 248.43837 345.21564Q248.43837 343.09064 247.93837 342.40314Q247.454 341.7 246.704 341.7Q245.98524 341.7 245.54774 342.3094Q245.00087 343.09064 245.00087 345.21564Z" fill-rule="nonzero"/><path fill="#000000" d="M309.67538 341.98126L309.67538 340.96564L315.23788 340.96564L315.23788 341.79376Q314.42538 342.66876 313.61288 344.1219Q312.816 345.5594 312.3785 347.09064Q312.05038 348.16876 311.97226 349.45L310.8785 349.45Q310.89413 348.4344 311.26913 346.9969Q311.65976 345.5594 312.36288 344.23126Q313.08163 342.90314 313.89413 341.98126L309.67538 341.98126ZM316.61288 347.2L317.72226 347.10626Q317.84726 347.91876 318.28476 348.325Q318.73788 348.73126 319.3785 348.73126Q320.1285 348.73126 320.65976 348.15314Q321.191 347.575 321.191 346.6375Q321.191 345.73126 320.67538 345.21564Q320.17538 344.6844 319.34726 344.6844Q318.84726 344.6844 318.42538 344.91876Q318.01913 345.15314 317.78476 345.5125L316.80038 345.3875L317.6285 340.98126L321.90976 340.98126L321.90976 341.98126L318.47226 341.98126L318.01913 344.29376Q318.78476 343.7469 319.6285 343.7469Q320.7535 343.7469 321.51913 344.52814Q322.30038 345.3094 322.30038 346.54376Q322.30038 347.7 321.6285 348.5594Q320.80038 349.59064 319.3785 349.59064Q318.20663 349.59064 317.45663 348.9344Q316.72226 348.27814 316.61288 347.2ZM323.61288 345.21564Q323.61288 343.6844 323.92538 342.7625Q324.23788 341.825 324.84726 341.325Q325.47226 340.825 326.40976 340.825Q327.09726 340.825 327.61288 341.10626Q328.14413 341.3875 328.48788 341.91876Q328.83163 342.4344 329.01913 343.1844Q329.20663 343.9344 329.20663 345.21564Q329.20663 346.73126 328.89413 347.65314Q328.59726 348.575 327.97226 349.09064Q327.36288 349.59064 326.40976 349.59064Q325.17538 349.59064 324.45663 348.7Q323.61288 347.6375 323.61288 345.21564ZM324.691 345.21564Q324.691 347.325 325.191 348.02814Q325.691 348.73126 326.40976 348.73126Q327.14413 348.73126 327.6285 348.02814Q328.1285 347.325 328.1285 345.21564Q328.1285 343.09064 327.6285 342.40314Q327.14413 341.7 326.39413 341.7Q325.67538 341.7 325.23788 342.3094Q324.691 343.09064 324.691 345.21564ZM330.61288 345.21564Q330.61288 343.6844 330.92538 342.7625Q331.23788 341.825 331.84726 341.325Q332.47226 340.825 333.40976 340.825Q334.09726 340.825 334.61288 341.10626Q335.14413 341.3875 335.48788 341.91876Q335.83163 342.4344 336.01913 343.1844Q336.20663 343.9344 336.20663 345.21564Q336.20663 346.73126 335.89413 347.65314Q335.59726 348.575 334.97226 349.09064Q334.36288 349.59064 333.40976 349.59064Q332.17538 349.59064 331.45663 348.7Q330.61288 347.6375 330.61288 345.21564ZM331.691 345.21564Q331.691 347.325 332.191 348.02814Q332.691 348.73126 333.40976 348.73126Q334.14413 348.73126 334.6285 348.02814Q335.1285 347.325 335.1285 345.21564Q335.1285 343.09064 334.6285 342.40314Q334.14413 341.7 333.39413 341.7Q332.67538 341.7 332.23788 342.3094Q331.691 343.09064 331.691 345.21564ZM337.61288 345.21564Q337.61288 343.6844 337.92538 342.7625Q338.23788 341.825 338.84726 341.325Q339.47226 340.825 340.40976 340.825Q341.09726 340.825 341.61288 341.10626Q342.14413 341.3875 342.48788 341.91876Q342.83163 342.4344 343.01913 343.1844Q343.20663 343.9344 343.20663 345.21564Q343.20663 346.73126 342.89413 347.65314Q342.59726 348.575 341.97226 349.09064Q341.36288 349.59064 340.40976 349.59064Q339.17538 349.59064 338.45663 348.7Q337.61288 347.6375 337.61288 345.21564ZM338.691 345.21564Q338.691 347.325 339.191 348.02814Q339.691 348.73126 340.40976 348.73126Q341.14413 348.73126 341.6285 348.02814Q342.1285 347.325 342.1285 345.21564Q342.1285 343.09064 341.6285 342.40314Q341.14413 341.7 340.39413 341.7Q339.67538 341.7 339.23788 342.3094Q338.691 343.09064 338.691 345.21564Z" fill-rule="nonzero"/><path fill="#000000" d="M403.77173 349.45L402.72485 349.45L402.72485 342.73126Q402.33423 343.09064 401.70923 343.46564Q401.09985 343.825 400.61548 343.9969L400.61548 342.98126Q401.49048 342.5594 402.14673 341.98126Q402.8186 341.3875 403.09985 340.825L403.77173 340.825L403.77173 349.45ZM406.80298 345.21564Q406.80298 343.6844 407.11548 342.7625Q407.42798 341.825 408.03735 341.325Q408.66235 340.825 409.59985 340.825Q410.28735 340.825 410.80298 341.10626Q411.33423 341.3875 411.67798 341.91876Q412.02173 342.4344 412.20923 343.1844Q412.39673 343.9344 412.39673 345.21564Q412.39673 346.73126 412.08423 347.65314Q411.78735 348.575 411.16235 349.09064Q410.55298 349.59064 409.59985 349.59064Q408.36548 349.59064 407.64673 348.7Q406.80298 347.6375 406.80298 345.21564ZM407.8811 345.21564Q407.8811 347.325 408.3811 348.02814Q408.8811 348.73126 409.59985 348.73126Q410.33423 348.73126 410.8186 348.02814Q411.3186 347.325 411.3186 345.21564Q411.3186 343.09064 410.8186 342.40314Q410.33423 341.7 409.58423 341.7Q408.86548 341.7 408.42798 342.3094Q407.8811 343.09064 407.8811 345.21564ZM413.80298 345.21564Q413.80298 343.6844 414.11548 342.7625Q414.42798 341.825 415.03735 341.325Q415.66235 340.825 416.59985 340.825Q417.28735 340.825 417.80298 341.10626Q418.33423 341.3875 418.67798 341.91876Q419.02173 342.4344 419.20923 343.1844Q419.39673 343.9344 419.39673 345.21564Q419.39673 346.73126 419.08423 347.65314Q418.78735 348.575 418.16235 349.09064Q417.55298 349.59064 416.59985 349.59064Q415.36548 349.59064 414.64673 348.7Q413.80298 347.6375 413.80298 345.21564ZM414.8811 345.21564Q414.8811 347.325 415.3811 348.02814Q415.8811 348.73126 416.59985 348.73126Q417.33423 348.73126 417.8186 348.02814Q418.3186 347.325 418.3186 345.21564Q418.3186 343.09064 417.8186 342.40314Q417.33423 341.7 416.58423 341.7Q415.86548 341.7 415.42798 342.3094Q414.8811 343.09064 414.8811 345.21564ZM420.80298 345.21564Q420.80298 343.6844 421.11548 342.7625Q421.42798 341.825 422.03735 341.325Q422.66235 340.825 423.59985 340.825Q424.28735 340.825 424.80298 341.10626Q425.33423 341.3875 425.67798 341.91876Q426.02173 342.4344 426.20923 343.1844Q426.39673 343.9344 426.39673 345.21564Q426.39673 346.73126 426.08423 347.65314Q425.78735 348.575 425.16235 349.09064Q424.55298 349.59064 423.59985 349.59064Q422.36548 349.59064 421.64673 348.7Q420.80298 347.6375 420.80298 345.21564ZM421.8811 345.21564Q421.8811 347.325 422.3811 348.02814Q422.8811 348.73126 423.59985 348.73126Q424.33423 348.73126 424.8186 348.02814Q425.3186 347.325 425.3186 345.21564Q425.3186 343.09064 424.8186 342.40314Q424.33423 341.7 423.58423 341.7Q422.86548 341.7 422.42798 342.3094Q421.8811 343.09064 421.8811 345.21564ZM427.80298 345.21564Q427.80298 343.6844 428.11548 342.7625Q428.42798 341.825 429.03735 341.325Q429.66235 340.825 430.59985 340.825Q431.28735 340.825 431.80298 341.10626Q432.33423 341.3875 432.67798 341.91876Q433.02173 342.4344 433.20923 343.1844Q433.39673 343.9344 433.39673 345.21564Q433.39673 346.73126 433.08423 347.65314Q432.78735 348.575 432.16235 349.09064Q431.55298 349.59064 430.59985 349.59064Q429.36548 349.59064 428.64673 348.7Q427.80298 347.6375 427.80298 345.21564ZM428.8811 345.21564Q428.8811 347.325 429.3811 348.02814Q429.8811 348.73126 430.59985 348.73126Q431.33423 348.73126 431.8186 348.02814Q432.3186 347.325 432.3186 345.21564Q432.3186 343.09064 431.8186 342.40314Q431.33423 341.7 430.58423 341.7Q429.86548 341.7 429.42798 342.3094Q428.8811 343.09064 428.8811 345.21564ZM434.80298 345.21564Q434.80298 343.6844 435.11548 342.7625Q435.42798 341.825 436.03735 341.325Q436.66235 340.825 437.59985 340.825Q438.28735 340.825 438.80298 341.10626Q439.33423 341.3875 439.67798 341.91876Q440.02173 342.4344 440.20923 343.1844Q440.39673 343.9344 440.39673 345.21564Q440.39673 346.73126 440.08423 347.65314Q439.78735 348.575 439.16235 349.09064Q438.55298 349.59064 437.59985 349.59064Q436.36548 349.59064 435.64673 348.7Q434.80298 347.6375 434.80298 345.21564ZM435.8811 345.21564Q435.8811 347.325 436.3811 348.02814Q436.8811 348.73126 437.59985 348.73126Q438.33423 348.73126 438.8186 348.02814Q439.3186 347.325 439.3186 345.21564Q439.3186 343.09064 438.8186 342.40314Q438.33423 341.7 437.58423 341.7Q436.86548 341.7 436.42798 342.3094Q435.8811 343.09064 435.8811 345.21564Z" fill-rule="nonzero"/><path fill="#000000" d="M497.46185 349.45L496.41498 349.45L496.41498 342.73126Q496.02435 343.09064 495.39935 343.46564Q494.78998 343.825 494.3056 343.9969L494.3056 342.98126Q495.1806 342.5594 495.83685 341.98126Q496.50873 341.3875 496.78998 340.825L497.46185 340.825L497.46185 349.45ZM506.03998 348.4344L506.03998 349.45L500.35248 349.45Q500.35248 349.075 500.47748 348.71564Q500.69623 348.1375 501.16498 347.575Q501.64935 347.0125 502.5556 346.27814Q503.96185 345.1219 504.44623 344.45Q504.94623 343.77814 504.94623 343.1844Q504.94623 342.5594 504.4931 342.1375Q504.03998 341.7 503.32123 341.7Q502.5556 341.7 502.10248 342.15314Q501.64935 342.60626 501.63373 343.41876L500.5556 343.3094Q500.66498 342.09064 501.38373 341.46564Q502.1181 340.825 503.35248 340.825Q504.58685 340.825 505.3056 341.5125Q506.02435 342.2 506.02435 343.21564Q506.02435 343.73126 505.8056 344.23126Q505.60248 344.71564 505.10248 345.27814Q504.6181 345.825 503.4931 346.77814Q502.53998 347.575 502.25873 347.8719Q501.9931 348.15314 501.82123 348.4344L506.03998 348.4344ZM507.4931 347.2L508.60248 347.10626Q508.72748 347.91876 509.16498 348.325Q509.6181 348.73126 510.25873 348.73126Q511.00873 348.73126 511.53998 348.15314Q512.0712 347.575 512.0712 346.6375Q512.0712 345.73126 511.5556 345.21564Q511.0556 344.6844 510.22748 344.6844Q509.72748 344.6844 509.3056 344.91876Q508.89935 345.15314 508.66498 345.5125L507.6806 345.3875L508.50873 340.98126L512.79 340.98126L512.79 341.98126L509.35248 341.98126L508.89935 344.29376Q509.66498 343.7469 510.50873 343.7469Q511.63373 343.7469 512.39935 344.52814Q513.1806 345.3094 513.1806 346.54376Q513.1806 347.7 512.5087 348.5594Q511.6806 349.59064 510.25873 349.59064Q509.08685 349.59064 508.33685 348.9344Q507.60248 348.27814 507.4931 347.2ZM514.4931 345.21564Q514.4931 343.6844 514.8056 342.7625Q515.1181 341.825 515.7275 341.325Q516.3525 340.825 517.29 340.825Q517.9775 340.825 518.4931 341.10626Q519.02435 341.3875 519.3681 341.91876Q519.71185 342.4344 519.89935 343.1844Q520.08685 343.9344 520.08685 345.21564Q520.08685 346.73126 519.77435 347.65314Q519.4775 348.575 518.8525 349.09064Q518.2431 349.59064 517.29 349.59064Q516.0556 349.59064 515.33685 348.7Q514.4931 347.6375 514.4931 345.21564ZM515.5712 345.21564Q515.5712 347.325 516.0712 348.02814Q516.5712 348.73126 517.29 348.73126Q518.02435 348.73126 518.5087 348.02814Q519.0087 347.325 519.0087 345.21564Q519.0087 343.09064 518.5087 342.40314Q518.02435 341.7 517.27435 341.7Q516.5556 341.7 516.1181 342.3094Q515.5712 343.09064 515.5712 345.21564ZM521.4931 345.21564Q521.4931 343.6844 521.8056 342.7625Q522.1181 341.825 522.7275 341.325Q523.3525 340.825 524.29 340.825Q524.9775 340.825 525.4931 341.10626Q526.02435 341.3875 526.3681 341.91876Q526.71185 342.4344 526.89935 343.1844Q527.08685 343.9344 527.08685 345.21564Q527.08685 346.73126 526.77435 347.65314Q526.4775 348.575 525.8525 349.09064Q525.2431 349.59064 524.29 349.59064Q523.0556 349.59064 522.33685 348.7Q521.4931 347.6375 521.4931 345.21564ZM522.5712 345.21564Q522.5712 347.325 523.0712 348.02814Q523.5712 348.73126 524.29 348.73126Q525.02435 348.73126 525.5087 348.02814Q526.0087 347.325 526.0087 345.21564Q526.0087 343.09064 525.5087 342.40314Q525.02435 341.7 524.27435 341.7Q523.5556 341.7 523.1181 342.3094Q522.5712 343.09064 522.5712 345.21564ZM528.4931 345.21564Q528.4931 343.6844 528.8056 342.7625Q529.1181 341.825 529.7275 341.325Q530.3525 340.825 531.29 340.825Q531.9775 340.825 532.4931 341.10626Q533.02435 341.3875 533.3681 341.91876Q533.71185 342.4344 533.89935 343.1844Q534.08685 343.9344 534.08685 345.21564Q534.08685 346.73126 533.77435 347.65314Q533.4775 348.575 532.8525 349.09064Q532.2431 349.59064 531.29 349.59064Q530.0556 349.59064 529.33685 348.7Q528.4931 347.6375 528.4931 345.21564ZM529.5712 345.21564Q529.5712 347.325 530.0712 348.02814Q530.5712 348.73126 531.29 348.73126Q532.02435 348.73126 532.5087 348.02814Q533.0087 347.325 533.0087 345.21564Q533.0087 343.09064 532.5087 342.40314Q532.02435 341.7 531.27435 341.7Q530.5556 341.7 530.1181 342.3094Q529.5712 343.09064 529.5712 345.21564Z" fill-rule="nonzero"/><path fill="#757575" d="M20.128124 37.55L20.128124 23.2375L26.471874 23.2375Q28.378124 23.2375 29.378124 23.628124Q30.378124 24.003124 30.971874 24.9875Q31.565624 25.95625 31.565624 27.14375Q31.565624 28.659374 30.58125 29.70625Q29.596874 30.753124 27.534374 31.034374Q28.284374 31.39375 28.675 31.753124Q29.503124 32.503124 30.253124 33.659374L32.7375 37.55L30.3625 37.55L28.45625 34.565624Q27.628124 33.284374 27.096874 32.596874Q26.565624 31.909374 26.128124 31.64375Q25.70625 31.3625 25.26875 31.253124Q24.940624 31.190624 24.221874 31.190624L22.01875 31.190624L22.01875 37.55L20.128124 37.55ZM22.01875 29.55L26.096874 29.55Q27.39375 29.55 28.1125 29.284374Q28.846874 29.01875 29.221874 28.425Q29.6125 27.83125 29.6125 27.14375Q29.6125 26.128124 28.878124 25.471874Q28.14375 24.815624 26.55 24.815624L22.01875 24.815624L22.01875 29.55ZM40.971874 34.20625L42.784374 34.440624Q42.3625 36.01875 41.190624 36.909374Q40.034374 37.784374 38.221874 37.784374Q35.95625 37.784374 34.6125 36.39375Q33.284374 34.9875 33.284374 32.45625Q33.284374 29.83125 34.628124 28.39375Q35.971874 26.940624 38.128124 26.940624Q40.20625 26.940624 41.51875 28.3625Q42.846874 29.76875 42.846874 32.346874Q42.846874 32.503124 42.83125 32.815624L35.096874 32.815624Q35.190624 34.51875 36.065624 35.425Q36.940624 36.33125 38.2375 36.33125Q39.20625 36.33125 39.878124 35.83125Q40.565624 35.315624 40.971874 34.20625ZM35.190624 31.3625L40.9875 31.3625Q40.878124 30.065624 40.33125 29.409374Q39.4875 28.39375 38.14375 28.39375Q36.940624 28.39375 36.1125 29.20625Q35.284374 30.003124 35.190624 31.3625ZM47.753124 37.55L43.8 27.175L45.659374 27.175L47.89375 33.39375Q48.253124 34.39375 48.55 35.471874Q48.784374 34.659374 49.20625 33.503124L51.503124 27.175L53.315624 27.175L49.39375 37.55L47.753124 37.55ZM53.878124 25.253124L53.878124 23.2375L55.64375 23.2375L55.64375 25.253124L53.878124 25.253124ZM53.878124 37.55L53.878124 27.175L55.64375 27.175L55.64375 37.55L53.878124 37.55ZM57.159374 34.45625L58.909374 34.175Q59.05 35.221874 59.721874 35.784374Q60.39375 36.33125 61.596874 36.33125Q62.8 36.33125 63.378124 35.846874Q63.971874 35.346874 63.971874 34.690624Q63.971874 34.096874 63.45625 33.753124Q63.096874 33.51875 61.659374 33.159374Q59.721874 32.659374 58.971874 32.315624Q58.2375 31.95625 57.846874 31.33125Q57.45625 30.690624 57.45625 29.925Q57.45625 29.2375 57.76875 28.64375Q58.096874 28.05 58.64375 27.659374Q59.05 27.3625 59.753124 27.159374Q60.471874 26.940624 61.284374 26.940624Q62.503124 26.940624 63.425 27.3Q64.34688 27.64375 64.78438 28.253124Q65.22188 28.846874 65.39375 29.846874L63.675 30.08125Q63.55 29.284374 62.9875 28.846874Q62.425 28.39375 61.409374 28.39375Q60.190624 28.39375 59.675 28.8Q59.159374 29.190624 59.159374 29.721874Q59.159374 30.065624 59.378124 30.346874Q59.58125 30.628124 60.05 30.815624Q60.315624 30.909374 61.596874 31.253124Q63.471874 31.753124 64.20625 32.08125Q64.94063 32.39375 65.3625 33.003124Q65.78438 33.596874 65.78438 34.503124Q65.78438 35.378124 65.26875 36.159374Q64.75313 36.940624 63.784374 37.3625Q62.815624 37.784374 61.596874 37.784374Q59.58125 37.784374 58.51875 36.940624Q57.45625 36.096874 57.159374 34.45625ZM67.87813 25.253124L67.87813 23.2375L69.64375 23.2375L69.64375 25.253124L67.87813 25.253124ZM67.87813 37.55L67.87813 27.175L69.64375 27.175L69.64375 37.55L67.87813 37.55ZM71.22188 32.3625Q71.22188 29.4875 72.81563 28.096874Q74.15938 26.940624 76.08125 26.940624Q78.22188 26.940624 79.56563 28.346874Q80.925 29.753124 80.925 32.221874Q80.925 34.221874 80.33125 35.378124Q79.7375 36.51875 78.58125 37.159374Q77.44063 37.784374 76.08125 37.784374Q73.89375 37.784374 72.55 36.39375Q71.22188 34.9875 71.22188 32.3625ZM73.01875 32.3625Q73.01875 34.3625 73.87813 35.346874Q74.75313 36.33125 76.08125 36.33125Q77.39375 36.33125 78.25313 35.346874Q79.12813 34.346874 79.12813 32.3Q79.12813 30.378124 78.25313 29.39375Q77.37813 28.39375 76.08125 28.39375Q74.75313 28.39375 73.87813 29.39375Q73.01875 30.378124 73.01875 32.3625ZM82.8625 37.55L82.8625 27.175L84.45625 27.175L84.45625 28.659374Q85.59688 26.940624 87.75313 26.940624Q88.69063 26.940624 89.47188 27.284374Q90.26875 27.6125 90.65938 28.159374Q91.05 28.70625 91.20625 29.45625Q91.3 29.95625 91.3 31.175L91.3 37.55L89.53438 37.55L89.53438 31.2375Q89.53438 30.159374 89.33125 29.628124Q89.12813 29.096874 88.59688 28.784374Q88.08125 28.471874 87.37813 28.471874Q86.25313 28.471874 85.44063 29.190624Q84.62813 29.89375 84.62813 31.878124L84.62813 37.55L82.8625 37.55ZM105.64375 36.26875Q104.65938 37.096874 103.75313 37.440624Q102.84688 37.784374 101.81563 37.784374Q100.1125 37.784374 99.19063 36.95625Q98.26875 36.1125 98.26875 34.815624Q98.26875 34.05 98.6125 33.425Q98.97188 32.8 99.53438 32.425Q100.09688 32.034374 100.8 31.83125Q101.31563 31.70625 102.3625 31.565624Q104.4875 31.315624 105.4875 30.971874Q105.50313 30.6125 105.50313 30.503124Q105.50313 29.440624 105.00313 28.9875Q104.33125 28.39375 103.00313 28.39375Q101.75313 28.39375 101.15938 28.83125Q100.58125 29.26875 100.3 30.378124L98.58125 30.14375Q98.81563 29.034374 99.34688 28.3625Q99.87813 27.675 100.89375 27.315624Q101.90938 26.940624 103.25313 26.940624Q104.58125 26.940624 105.40938 27.253124Q106.2375 27.565624 106.62813 28.05Q107.01875 28.51875 107.175 29.2375Q107.26875 29.690624 107.26875 30.8625L107.26875 33.20625Q107.26875 35.659374 107.37813 36.315624Q107.4875 36.95625 107.83125 37.55L105.9875 37.55Q105.72188 37.003124 105.64375 36.26875ZM105.4875 32.346874Q104.53438 32.7375 102.6125 33.003124Q101.53438 33.159374 101.08125 33.3625Q100.64375 33.55 100.39375 33.925Q100.14375 34.3 100.14375 34.76875Q100.14375 35.471874 100.675 35.940624Q101.20625 36.409374 102.2375 36.409374Q103.25313 36.409374 104.03438 35.971874Q104.83125 35.51875 105.20625 34.753124Q105.4875 34.14375 105.4875 32.9875L105.4875 32.346874ZM109.8625 37.55L109.8625 27.175L111.45625 27.175L111.45625 28.659374Q112.59688 26.940624 114.75313 26.940624Q115.69063 26.940624 116.47188 27.284374Q117.26875 27.6125 117.65938 28.159374Q118.05 28.70625 118.20625 29.45625Q118.3 29.95625 118.3 31.175L118.3 37.55L116.53438 37.55L116.53438 31.2375Q116.53438 30.159374 116.33125 29.628124Q116.12813 29.096874 115.59688 28.784374Q115.08125 28.471874 114.37813 28.471874Q113.25313 28.471874 112.44063 29.190624Q111.62813 29.89375 111.62813 31.878124L111.62813 37.55L109.8625 37.55ZM126.59688 37.55L126.59688 36.2375Q125.6125 37.784374 123.69063 37.784374Q122.45625 37.784374 121.40938 37.096874Q120.37813 36.409374 119.8 35.190624Q119.2375 33.971874 119.2375 32.378124Q119.2375 30.815624 119.75313 29.55Q120.26875 28.284374 121.3 27.6125Q122.34688 26.940624 123.6125 26.940624Q124.55 26.940624 125.28438 27.346874Q126.01875 27.7375 126.4875 28.3625L126.4875 23.2375L128.22188 23.2375L128.22188 37.55L126.59688 37.55ZM121.03438 32.378124Q121.03438 34.3625 121.87813 35.346874Q122.72188 36.33125 123.8625 36.33125Q125.01875 36.33125 125.81563 35.39375Q126.62813 34.45625 126.62813 32.51875Q126.62813 30.39375 125.8 29.39375Q124.9875 28.39375 123.78438 28.39375Q122.6125 28.39375 121.81563 29.3625Q121.03438 30.315624 121.03438 32.378124ZM136.55 37.8L137.40938 33.628124L135.75313 33.628124L135.75313 32.175L137.70625 32.175L138.425 28.628124L135.75313 28.628124L135.75313 27.175L138.72188 27.175L139.56563 22.9875L141.03438 22.9875L140.175 27.175L143.25313 27.175L144.1125 22.9875L145.58125 22.9875L144.7375 27.175L146.425 27.175L146.425 28.628124L144.44063 28.628124L143.70625 32.175L146.425 32.175L146.425 33.628124L143.40938 33.628124L142.56563 37.8L141.09688 37.8L141.94063 33.628124L138.87813 33.628124L138.01875 37.8L136.55 37.8ZM139.15938 32.175L142.2375 32.175L142.95625 28.628124L139.89375 28.628124L139.15938 32.175ZM154.09688 37.55L154.09688 23.2375L159.4875 23.2375Q160.925 23.2375 161.675 23.3625Q162.72188 23.55 163.44063 24.05Q164.15938 24.534374 164.58125 25.425Q165.01875 26.315624 165.01875 27.378124Q165.01875 29.20625 163.84688 30.471874Q162.69063 31.721874 159.65938 31.721874L155.9875 31.721874L155.9875 37.55L154.09688 37.55ZM155.9875 30.034374L159.69063 30.034374Q161.51875 30.034374 162.28438 29.3625Q163.06563 28.675 163.06563 27.425Q163.06563 26.534374 162.6125 25.89375Q162.15938 25.253124 161.425 25.05Q160.94063 24.925 159.64375 24.925L155.9875 24.925L155.9875 30.034374ZM173.64375 36.26875Q172.65938 37.096874 171.75313 37.440624Q170.84688 37.784374 169.81563 37.784374Q168.1125 37.784374 167.19063 36.95625Q166.26875 36.1125 166.26875 34.815624Q166.26875 34.05 166.6125 33.425Q166.97188 32.8 167.53438 32.425Q168.09688 32.034374 168.8 31.83125Q169.31563 31.70625 170.3625 31.565624Q172.4875 31.315624 173.4875 30.971874Q173.50313 30.6125 173.50313 30.503124Q173.50313 29.440624 173.00313 28.9875Q172.33125 28.39375 171.00313 28.39375Q169.75313 28.39375 169.15938 28.83125Q168.58125 29.26875 168.3 30.378124L166.58125 30.14375Q166.81563 29.034374 167.34688 28.3625Q167.87813 27.675 168.89375 27.315624Q169.90938 26.940624 171.25313 26.940624Q172.58125 26.940624 173.40938 27.253124Q174.2375 27.565624 174.62813 28.05Q175.01875 28.51875 175.175 29.2375Q175.26875 29.690624 175.26875 30.8625L175.26875 33.20625Q175.26875 35.659374 175.37813 36.315624Q175.4875 36.95625 175.83125 37.55L173.9875 37.55Q173.72188 37.003124 173.64375 36.26875ZM173.4875 32.346874Q172.53438 32.7375 170.6125 33.003124Q169.53438 33.159374 169.08125 33.3625Q168.64375 33.55 168.39375 33.925Q168.14375 34.3 168.14375 34.76875Q168.14375 35.471874 168.675 35.940624Q169.20625 36.409374 170.2375 36.409374Q171.25313 36.409374 172.03438 35.971874Q172.83125 35.51875 173.20625 34.753124Q173.4875 34.14375 173.4875 32.9875L173.4875 32.346874ZM177.15938 34.45625L178.90938 34.175Q179.05 35.221874 179.72188 35.784374Q180.39375 36.33125 181.59688 36.33125Q182.8 36.33125 183.37813 35.846874Q183.97188 35.346874 183.97188 34.690624Q183.97188 34.096874 183.45625 33.753124Q183.09688 33.51875 181.65938 33.159374Q179.72188 32.659374 178.97188 32.315624Q178.2375 31.95625 177.84688 31.33125Q177.45625 30.690624 177.45625 29.925Q177.45625 29.2375 177.76875 28.64375Q178.09688 28.05 178.64375 27.659374Q179.05 27.3625 179.75313 27.159374Q180.47188 26.940624 181.28438 26.940624Q182.50313 26.940624 183.425 27.3Q184.34688 27.64375 184.78438 28.253124Q185.22188 28.846874 185.39375 29.846874L183.675 30.08125Q183.55 29.284374 182.9875 28.846874Q182.425 28.39375 181.40938 28.39375Q180.19063 28.39375 179.675 28.8Q179.15938 29.190624 179.15938 29.721874Q179.15938 30.065624 179.37813 30.346874Q179.58125 30.628124 180.05 30.815624Q180.31563 30.909374 181.59688 31.253124Q183.47188 31.753124 184.20625 32.08125Q184.94063 32.39375 185.3625 33.003124Q185.78438 33.596874 185.78438 34.503124Q185.78438 35.378124 185.26875 36.159374Q184.75313 36.940624 183.78438 37.3625Q182.81563 37.784374 181.59688 37.784374Q179.58125 37.784374 178.51875 36.940624Q177.45625 36.096874 177.15938 34.45625ZM187.15938 34.45625L188.90938 34.175Q189.05 35.221874 189.72188 35.784374Q190.39375 36.33125 191.59688 36.33125Q192.8 36.33125 193.37813 35.846874Q193.97188 35.346874 193.97188 34.690624Q193.97188 34.096874 193.45625 33.753124Q193.09688 33.51875 191.65938 33.159374Q189.72188 32.659374 188.97188 32.315624Q188.2375 31.95625 187.84688 31.33125Q187.45625 30.690624 187.45625 29.925Q187.45625 29.2375 187.76875 28.64375Q188.09688 28.05 188.64375 27.659374Q189.05 27.3625 189.75313 27.159374Q190.47188 26.940624 191.28438 26.940624Q192.50313 26.940624 193.425 27.3Q194.34688 27.64375 194.78438 28.253124Q195.22188 28.846874 195.39375 29.846874L193.675 30.08125Q193.55 29.284374 192.9875 28.846874Q192.425 28.39375 191.40938 28.39375Q190.19063 28.39375 189.675 28.8Q189.15938 29.190624 189.15938 29.721874Q189.15938 30.065624 189.37813 30.346874Q189.58125 30.628124 190.05 30.815624Q190.31563 30.909374 191.59688 31.253124Q193.47188 31.753124 194.20625 32.08125Q194.94063 32.39375 195.3625 33.003124Q195.78438 33.596874 195.78438 34.503124Q195.78438 35.378124 195.26875 36.159374Q194.75313 36.940624 193.78438 37.3625Q192.81563 37.784374 191.59688 37.784374Q189.58125 37.784374 188.51875 36.940624Q187.45625 36.096874 187.15938 34.45625ZM204.97188 34.20625L206.78438 34.440624Q206.3625 36.01875 205.19063 36.909374Q204.03438 37.784374 202.22188 37.784374Q199.95625 37.784374 198.6125 36.39375Q197.28438 34.9875 197.28438 32.45625Q197.28438 29.83125 198.62813 28.39375Q199.97188 26.940624 202.12813 26.940624Q204.20625 26.940624 205.51875 28.3625Q206.84688 29.76875 206.84688 32.346874Q206.84688 32.503124 206.83125 32.815624L199.09688 32.815624Q199.19063 34.51875 200.06563 35.425Q200.94063 36.33125 202.2375 36.33125Q203.20625 36.33125 203.87813 35.83125Q204.56563 35.315624 204.97188 34.20625ZM199.19063 31.3625L204.9875 31.3625Q204.87813 30.065624 204.33125 29.409374Q203.4875 28.39375 202.14375 28.39375Q200.94063 28.39375 200.1125 29.20625Q199.28438 30.003124 199.19063 31.3625ZM208.15938 34.45625L209.90938 34.175Q210.05 35.221874 210.72188 35.784374Q211.39375 36.33125 212.59688 36.33125Q213.8 36.33125 214.37813 35.846874Q214.97188 35.346874 214.97188 34.690624Q214.97188 34.096874 214.45625 33.753124Q214.09688 33.51875 212.65938 33.159374Q210.72188 32.659374 209.97188 32.315624Q209.2375 31.95625 208.84688 31.33125Q208.45625 30.690624 208.45625 29.925Q208.45625 29.2375 208.76875 28.64375Q209.09688 28.05 209.64375 27.659374Q210.05 27.3625 210.75313 27.159374Q211.47188 26.940624 212.28438 26.940624Q213.50313 26.940624 214.425 27.3Q215.34688 27.64375 215.78438 28.253124Q216.22188 28.846874 216.39375 29.846874L214.675 30.08125Q214.55 29.284374 213.9875 28.846874Q213.425 28.39375 212.40938 28.39375Q211.19063 28.39375 210.675 28.8Q210.15938 29.190624 210.15938 29.721874Q210.15938 30.065624 210.37813 30.346874Q210.58125 30.628124 211.05 30.815624Q211.31563 30.909374 212.59688 31.253124Q214.47188 31.753124 215.20625 32.08125Q215.94063 32.39375 216.3625 33.003124Q216.78438 33.596874 216.78438 34.503124Q216.78438 35.378124 216.26875 36.159374Q215.75313 36.940624 214.78438 37.3625Q213.81563 37.784374 212.59688 37.784374Q210.58125 37.784374 209.51875 36.940624Q208.45625 36.096874 208.15938 34.45625Z" fill-rule="nonzero"/></svg>