<svg xmlns="http://www.w3.org/2000/svg" width="625.0" height="490"><style >
             text { font-family: monospace; }
             .keyword { fill: orange; font-weight: bold; }
             </style><text x="10.0" y="20">from typing import Optional, List, Dict, Tuple, Callable, TypeVar, Set, Union, Any</text><text class="keyword" x="10.0" y="90">def</text><text x="40.0" y="90"> program</text><text x="92.5" y="90">_</text><text x="100.0" y="90">1</text><text x="107.5" y="90">()</text><text x="130.0" y="90"> -&gt;</text><text x="152.5" y="90"> None</text><text x="182.5" y="90">:</text><text class="keyword" x="40.0" y="120">def</text><text x="70.0" y="120"> find</text><text x="100.0" y="120">_</text><text x="107.5" y="120">value</text><text x="145.0" y="120">(</text><text x="152.5" y="120">data</text><text x="182.5" y="120">:</text><text x="197.5" y="120"> List</text><text x="227.5" y="120">[</text><text x="235.0" y="120">int</text><text x="257.5" y="120">],</text><text x="280.0" y="120"> target</text><text x="325.0" y="120">:</text><text x="340.0" y="120"> int</text><text x="362.5" y="120">)</text><text x="377.5" y="120"> -&gt;</text><text x="400.0" y="120"> Optional</text><text x="460.0" y="120">[</text><text x="467.5" y="120">int</text><text x="490.0" y="120">]:</text><text class="keyword" x="70.0" y="150">for</text><text x="100.0" y="150"> value</text><text x="145.0" y="150"> in</text><text x="167.5" y="150"> data</text><text x="197.5" y="150">:</text><text class="keyword" x="100.0" y="180">if</text><text x="122.5" y="180"> value</text><text x="167.5" y="180"> ==</text><text x="190.0" y="180"> target</text><text x="235.0" y="180">:</text><text class="keyword" x="130.0" y="210">return</text><text x="182.5" y="210"> value</text><text class="keyword" x="70.0" y="240">return</text><text x="122.5" y="240"> None</text><text x="40.0" y="300">data</text><text x="77.5" y="300"> =</text><text x="92.5" y="300"> [</text><text x="100.0" y="300">1</text><text x="107.5" y="300">,</text><text x="122.5" y="300"> 2</text><text x="130.0" y="300">,</text><text x="145.0" y="300"> 3</text><text x="152.5" y="300">,</text><text x="167.5" y="300"> 4</text><text x="175.0" y="300">,</text><text x="190.0" y="300"> 5</text><text x="197.5" y="300">]</text><text x="40.0" y="330">target</text><text x="92.5" y="330"> =</text><text x="107.5" y="330"> 3</text><text x="40.0" y="360">result</text><text x="92.5" y="360"> =</text><text x="107.5" y="360"> find</text><text x="137.5" y="360">_</text><text x="145.0" y="360">value</text><text x="182.5" y="360">(</text><text x="190.0" y="360">data</text><text x="220.0" y="360">,</text><text x="235.0" y="360"> target</text><text x="280.0" y="360">)</text><text class="keyword" x="40.0" y="390">if</text><text x="62.5" y="390"> result</text><text x="115.0" y="390"> is</text><text x="137.5" y="390"> not</text><text x="167.5" y="390"> None</text><text x="197.5" y="390">:</text><text x="70.0" y="420">print</text><text x="107.5" y="420">(</text><text x="115.0" y="420">f</text><text x="122.5" y="420">"</text><text x="130.0" y="420">Found</text><text x="175.0" y="420"> value</text><text x="212.5" y="420">:</text><text x="227.5" y="420"> {</text><text x="235.0" y="420">result</text><text x="280.0" y="420">}</text><text x="287.5" y="420">")</text><text class="keyword" x="40.0" y="450">else</text><text x="70.0" y="450">:</text><text x="70.0" y="480">print</text><text x="107.5" y="480">("</text><text x="122.5" y="480">Value</text><text x="167.5" y="480"> not</text><text x="197.5" y="480"> found</text><text x="235.0" y="480">")</text><rect stroke="none" x="199.5" y="95" width="35.5" height="15" fill="rgb(255, 94.5335861825978, 94.5335861825978)"/><rect stroke="none" x="237.0" y="95" width="20.5" height="15" fill="rgb(255, 118.6955941325876, 118.6955941325876)"/><rect stroke="none" x="342.0" y="95" width="28.0" height="15" fill="rgb(255, 118.91644771603785, 118.91644771603785)"/><rect stroke="none" x="402.0" y="95" width="65.5" height="15" fill="rgb(255, 183.04282987306775, 183.04282987306775)"/><rect stroke="none" x="469.5" y="95" width="20.5" height="15" fill="rgb(255, 124.30335254227482, 124.30335254227482)"/><rect stroke="none" x="169.5" y="125" width="35.5" height="15" fill="rgb(255, 92.23271517085746, 92.23271517085746)"/><rect stroke="none" x="124.5" y="155" width="43.0" height="15" fill="rgb(255, 94.75853422610983, 94.75853422610983)"/><rect stroke="none" x="192.0" y="155" width="50.5" height="15" fill="rgb(255, 109.29185322765971, 109.29185322765971)"/><rect stroke="none" x="184.5" y="185" width="43.0" height="15" fill="rgb(255, 80.52039299880298, 80.52039299880298)"/><rect stroke="none" x="109.5" y="335" width="35.5" height="15" fill="rgb(255, 118.89985163513646, 118.89985163513646)"/><rect stroke="none" x="192.0" y="335" width="28.0" height="15" fill="rgb(255, 57.13594072282982, 57.13594072282982)"/><rect stroke="none" x="237.0" y="335" width="50.5" height="15" fill="rgb(255, 89.55046390895619, 89.55046390895619)"/><rect stroke="none" x="64.5" y="365" width="50.5" height="15" fill="rgb(122.85179443108649, 255, 122.85179443108649)"/><rect stroke="none" x="72.0" y="395" width="35.5" height="15" fill="rgb(255, 165.4173966446072, 165.4173966446072)"/><rect stroke="none" x="237.0" y="395" width="43.0" height="15" fill="rgb(255, 126.49528049183274, 126.49528049183274)"/><rect stroke="none" x="72.0" y="455" width="35.5" height="15" fill="rgb(255, 157.2919031419513, 157.2919031419513)"/></svg>
