<svg xmlns="http://www.w3.org/2000/svg" width="300" height="150"><style>
             text { font-family: monospace; }
             .keyword { fill: orange; font-weight: bold; }
             </style><text x="20.0" y="40.0">result</text><text x="72.5" y="40.0"> =</text><text x="87.5" y="40.0"> find</text><text x="117.5" y="40.0">_</text><text x="125.0" y="40.0">value</text><text x="162.5" y="40.0">(</text><text x="170.0" y="40.0">data</text><text x="200.0" y="40.0">,</text><text x="215.0" y="40.0"> target</text><text x="260.0" y="40.0">)</text><text class="keyword" x="20.0" y="70.0">if</text><text x="42.5" y="70.0"> result</text><text x="95.0" y="70.0"> is</text><text x="117.5" y="70.0"> not</text><text x="147.5" y="70.0"> None</text><text x="177.5" y="70.0">:</text><text x="50.0" y="100.0">print</text><text x="87.5" y="100.0">(</text><text x="95.0" y="100.0">f</text><text x="102.5" y="100.0">"</text><text x="110.0" y="100.0">Found</text><text x="155.0" y="100.0"> value</text><text x="192.5" y="100.0">:</text><text x="207.5" y="100.0"> {</text><text x="215.0" y="100.0">result</text><text x="260.0" y="100.0">}</text><text x="267.5" y="100.0">")</text><text class="keyword" x="20.0" y="130.0">else</text><text x="50.0" y="130.0">:</text><text x="50.0" y="160.0">print</text><text x="87.5" y="160.0">("</text><text x="102.5" y="160.0">Value</text><text x="147.5" y="160.0"> not</text><text x="177.5" y="160.0"> found</text><text x="215.0" y="160.0">")</text><rect stroke="none" x="89.5" y="15.0" width="72" height="15" fill="rgb(255, 0.0, 0.0)" /><rect stroke="none" x="172.0" y="15.0" width="28.0" height="15" fill="rgb(255, 0.0, 0.0)" /><rect stroke="none" x="217.0" y="15.0" width="50.5" height="15" fill="rgb(255, 0.0, 0.0)" /><rect stroke="none" x="44.5" y="45.0" width="50.5" height="15" fill="rgb(0.0, 255, 0.0)" /><rect stroke="none" x="52.0" y="75.0" width="35.5" height="15" fill="rgb(255, 0.0, 0.0)" /><rect stroke="none" x="217.0" y="75.0" width="43.0" height="15" fill="rgb(255, 0.0, 0.0)" /><rect stroke="none" x="52.0" y="135.0" width="35.5" height="15" fill="rgb(255, 0.0, 0.0)" /></svg>
